<svg width="318" height="303" viewBox="0 0 318 303" fill="none" xmlns="http://www.w3.org/2000/svg">
<path d="M157.423 25.3975C180.124 25.3975 198.51 43.7926 198.51 66.5052C198.51 89.2178 180.124 107.613 157.423 107.613C134.722 107.613 116.336 89.2178 116.336 66.5052C116.336 43.7926 134.722 25.3975 157.423 25.3975ZM157.423 0C120.76 0 90.9509 29.8239 90.9509 66.5052C90.9509 103.186 120.76 133.01 157.423 133.01C194.086 133.01 223.895 103.186 223.895 66.5052C223.895 29.8239 194.086 0 157.423 0Z" fill="#0F0F0F"/>
<path d="M102.661 63.7486C125.363 63.7486 143.749 82.1437 143.749 104.856C143.749 127.569 125.363 145.964 102.661 145.964C79.9602 145.964 61.5743 127.569 61.5743 104.856C61.5743 82.1437 79.9602 63.7486 102.661 63.7486ZM102.661 38.3511C65.9985 38.3511 36.1895 68.175 36.1895 104.856C36.1895 141.538 65.9985 171.361 102.661 171.361C139.324 171.361 169.133 141.538 169.133 104.856C169.133 68.175 139.324 38.3511 102.661 38.3511Z" fill="#0F0F0F"/>
<path d="M212.217 63.7486C234.919 63.7486 253.305 82.1437 253.305 104.856C253.305 127.569 234.919 145.964 212.217 145.964C189.516 145.964 171.13 127.569 171.13 104.856C171.13 82.1437 189.516 63.7486 212.217 63.7486ZM212.217 38.3511C175.554 38.3511 145.745 68.175 145.745 104.856C145.745 141.538 175.554 171.361 212.217 171.361C248.88 171.361 278.689 141.538 278.689 104.856C278.689 68.175 248.88 38.3511 212.217 38.3511Z" fill="#0F0F0F"/>
<path d="M157.424 78.4771C212.219 78.4771 256.642 122.923 256.642 177.745C256.642 232.567 212.219 277.013 157.424 277.013C102.629 277.013 58.2051 232.567 58.2051 177.745C58.2051 122.923 102.629 78.4771 157.424 78.4771ZM157.424 53.0796C88.7032 53.0796 32.8203 108.99 32.8203 177.745C32.8203 246.5 88.7032 302.411 157.424 302.411C226.144 302.411 282.027 246.5 282.027 177.745C282.027 108.99 226.144 53.0796 157.424 53.0796Z" fill="#0F0F0F"/>
<path d="M59.2192 143.93C77.8952 143.93 93.0536 159.096 93.0536 177.781C93.0536 196.466 77.8952 211.632 59.2192 211.632C40.5432 211.632 25.3848 196.466 25.3848 177.781C25.3848 159.096 40.5432 143.93 59.2192 143.93ZM59.2192 118.532C26.5815 118.532 0 145.091 0 177.781C0 210.471 26.5453 237.03 59.2192 237.03C91.8931 237.03 118.438 210.471 118.438 177.781C118.438 145.091 91.8931 118.532 59.2192 118.532Z" fill="#0F0F0F"/>
<path d="M258.78 143.93C277.456 143.93 292.615 159.096 292.615 177.781C292.615 196.466 277.456 211.632 258.78 211.632C240.104 211.632 224.946 196.466 224.946 177.781C224.946 159.096 240.104 143.93 258.78 143.93ZM258.78 118.532C226.143 118.532 199.561 145.091 199.561 177.781C199.561 210.471 226.107 237.03 258.78 237.03C291.454 237.03 318 210.471 318 177.781C318 145.091 291.454 118.532 258.78 118.532Z" fill="#0F0F0F"/>
<path d="M131.204 132.504H94.3232C90.9385 132.504 88.1946 135.249 88.1946 138.636C88.1946 142.022 90.9385 144.768 94.3232 144.768H131.204C134.588 144.768 137.332 142.022 137.332 138.636C137.332 135.249 134.588 132.504 131.204 132.504Z" fill="#0F0F0F"/>
<path d="M223.679 132.504H186.798C183.413 132.504 180.669 135.249 180.669 138.636C180.669 142.022 183.413 144.768 186.798 144.768H223.679C227.063 144.768 229.807 142.022 229.807 138.636C229.807 135.249 227.063 132.504 223.679 132.504Z" fill="#0F0F0F"/>
<path d="M59.2196 211.598C77.9058 211.598 93.054 196.442 93.054 177.746C93.054 159.051 77.9058 143.895 59.2196 143.895C40.5334 143.895 25.3853 159.051 25.3853 177.746C25.3853 196.442 40.5334 211.598 59.2196 211.598Z" fill="url(#paint0_linear_1696_544)"/>
<path d="M258.78 211.598C277.467 211.598 292.615 196.442 292.615 177.746C292.615 159.051 277.467 143.895 258.78 143.895C240.094 143.895 224.946 159.051 224.946 177.746C224.946 196.442 240.094 211.598 258.78 211.598Z" fill="url(#paint1_linear_1696_544)"/>
<path d="M155.826 277.787C210.623 277.787 255.045 233.343 255.045 178.519C255.045 123.695 210.623 79.2509 155.826 79.2509C101.029 79.2509 56.6077 123.695 56.6077 178.519C56.6077 233.343 101.029 277.787 155.826 277.787Z" fill="url(#paint2_linear_1696_544)"/>
<path d="M198.51 66.5082C198.51 89.2208 180.124 107.616 157.423 107.616C134.722 107.616 116.336 89.2208 116.336 66.5082C116.336 43.7956 134.722 25.4005 157.423 25.4005C180.124 25.4005 198.51 43.7956 198.51 66.5082Z" fill="#00327D"/>
<path d="M198.51 104.858C198.51 127.57 180.124 145.966 157.423 145.966C134.722 145.966 116.336 127.57 116.336 104.858C116.336 82.1452 134.722 63.7502 157.423 63.7502C180.124 63.7502 198.51 82.1452 198.51 104.858Z" fill="#00327D"/>
<path d="M253.269 104.858C253.269 127.57 234.883 145.966 212.182 145.966C189.48 145.966 171.094 127.57 171.094 104.858C171.094 82.1452 189.48 63.7502 212.182 63.7502C234.883 63.7502 253.269 82.1452 253.269 104.858Z" fill="#00327D"/>
<path d="M143.749 104.859C143.749 127.572 125.363 145.967 102.662 145.967C79.9607 145.967 61.5748 127.572 61.5748 104.859C61.5748 82.1466 79.9607 63.7516 102.662 63.7516C125.363 63.7516 143.749 82.1466 143.749 104.859Z" fill="#00327D"/>
<path d="M232.265 190.382C232.265 190.382 232.265 163.729 201.804 163.729C171.343 163.729 171.343 190.382 171.343 190.382M144.689 190.382C144.689 190.382 144.689 163.729 114.228 163.729C83.7671 163.729 83.7671 190.382 83.7671 190.382" stroke="#0F0F0F" stroke-width="10" stroke-linecap="round"/>
<path d="M158.982 248.862C177.668 248.862 192.816 233.707 192.816 215.011C192.816 196.316 177.668 181.16 158.982 181.16C140.296 181.16 125.147 196.316 125.147 215.011C125.147 233.707 140.296 248.862 158.982 248.862Z" fill="#00327D"/>
<path d="M243.213 91.7946C246.734 86.3729 255.136 88.6241 255.475 95.08L255.592 97.3114C255.743 100.199 257.736 102.66 260.529 103.408L262.687 103.987C268.931 105.66 269.387 114.346 263.351 116.663L261.265 117.464C258.566 118.5 256.841 121.156 256.992 124.043L257.109 126.274C257.448 132.73 249.327 135.847 245.259 130.823L243.853 129.087C242.033 126.84 238.974 126.02 236.275 127.056L234.189 127.857C228.153 130.174 222.68 123.414 226.2 117.992L227.417 116.118C228.992 113.694 228.826 110.531 227.007 108.284L225.601 106.547C221.532 101.523 226.27 94.2285 232.514 95.9017L234.672 96.4801C237.465 97.2283 240.422 96.0933 241.996 93.6686L243.213 91.7946Z" fill="#FBBC05"/>
<path d="M187.477 119.471C189.911 115.722 195.72 117.279 195.954 121.742C196.058 123.738 197.436 125.439 199.367 125.957C203.684 127.113 203.998 133.118 199.826 134.72C197.96 135.436 196.767 137.273 196.872 139.269C197.106 143.732 191.492 145.887 188.68 142.413C187.422 140.86 185.307 140.293 183.441 141.01C179.269 142.611 175.484 137.938 177.918 134.19C179.007 132.514 178.892 130.327 177.635 128.774C174.822 125.301 178.097 120.258 182.414 121.414C184.344 121.932 186.389 121.147 187.477 119.471Z" fill="#FBBC05"/>
<path d="M119.487 254.233C121.921 250.485 127.729 252.041 127.963 256.504C128.068 258.5 129.446 260.202 131.376 260.719C135.693 261.876 136.008 267.881 131.836 269.483C129.97 270.199 128.777 272.035 128.882 274.031C129.116 278.494 123.502 280.649 120.689 277.176C119.432 275.623 117.317 275.056 115.451 275.772C111.278 277.374 107.494 272.701 109.928 268.952C111.017 267.276 110.902 265.09 109.644 263.536C106.832 260.063 110.107 255.02 114.424 256.177C116.354 256.694 118.398 255.909 119.487 254.233Z" fill="#FBBC05"/>
<path d="M62.3737 132.388C64.8078 128.64 70.6162 130.197 70.8501 134.66C70.9547 136.656 72.3326 138.357 74.2632 138.875C78.5801 140.031 78.8948 146.036 74.7225 147.638C72.8565 148.354 71.664 150.19 71.7686 152.186C72.0025 156.649 66.3887 158.804 63.5761 155.331C62.3183 153.778 60.2034 153.211 58.3374 153.928C54.1651 155.529 50.3808 150.856 52.8149 147.108C53.9035 145.432 53.7889 143.245 52.5311 141.692C49.7185 138.219 52.9936 133.175 57.3105 134.332C59.2411 134.849 61.2852 134.065 62.3737 132.388Z" fill="#FBBC05"/>
<path d="M83.2912 221.254C86.8122 215.833 95.214 218.084 95.5523 224.54L95.6693 226.771C95.8206 229.658 97.8138 232.12 100.606 232.868L102.765 233.446C109.009 235.119 109.464 243.806 103.429 246.122L101.343 246.923C98.6439 247.959 96.9189 250.616 97.0702 253.503L97.1872 255.734C97.5255 262.19 89.405 265.307 85.3367 260.283L83.9304 258.547C82.111 256.3 79.0517 255.48 76.3527 256.516L74.2666 257.317C68.2312 259.634 62.7573 252.874 66.2782 247.452L67.4952 245.578C69.0698 243.153 68.9041 239.991 67.0846 237.744L65.6784 236.007C61.61 230.983 66.3474 223.688 72.5919 225.361L74.7502 225.94C77.5428 226.688 80.4996 225.553 82.0742 223.128L83.2912 221.254Z" fill="#FBBC05"/>
<path d="M220.369 221.254C223.89 215.833 232.291 218.084 232.63 224.54L232.747 226.771C232.898 229.658 234.891 232.12 237.684 232.868L239.842 233.446C246.087 235.119 246.542 243.806 240.507 246.122L238.42 246.923C235.721 247.959 233.996 250.616 234.148 253.503L234.265 255.734C234.603 262.19 226.483 265.307 222.414 260.283L221.008 258.547C219.188 256.3 216.129 255.48 213.43 256.516L211.344 257.317C205.309 259.634 199.835 252.874 203.356 247.452L204.573 245.578C206.147 243.153 205.982 239.991 204.162 237.744L202.756 236.007C198.688 230.983 203.425 223.688 209.669 225.361L211.828 225.94C214.62 226.688 217.577 225.553 219.152 223.128L220.369 221.254Z" fill="#FBBC05"/>
<defs>
<linearGradient id="paint0_linear_1696_544" x1="159" y1="151.729" x2="25.3853" y2="151.729" gradientUnits="userSpaceOnUse">
<stop stop-color="#0066FF"/>
<stop offset="1" stop-color="#003F9E"/>
</linearGradient>
<linearGradient id="paint1_linear_1696_544" x1="159" y1="151.729" x2="292.615" y2="151.729" gradientUnits="userSpaceOnUse">
<stop stop-color="#0066FF"/>
<stop offset="1" stop-color="#003F9E"/>
</linearGradient>
<linearGradient id="paint2_linear_1696_544" x1="159" y1="25.4005" x2="159" y2="277.833" gradientUnits="userSpaceOnUse">
<stop offset="0.379261" stop-color="#003D99"/>
<stop offset="1" stop-color="#0066FF"/>
</linearGradient>
</defs>
</svg>
