<svg width="175" height="175" viewBox="0 0 175 175" fill="none" xmlns="http://www.w3.org/2000/svg">
<rect width="175" height="175" rx="87.5" fill="white"/>
<circle cx="129" cy="92" r="15" fill="url(#paint0_linear_6_168)"/>
<circle cx="15" cy="15" r="15" transform="matrix(-1 0 0 1 56 77)" fill="url(#paint1_linear_6_168)"/>
<circle cx="85" cy="88" r="44" fill="#0066FF"/>
<path d="M100 38C100 46.2843 93.2843 53 85 53C76.7157 53 70 46.2843 70 38C70 29.7157 76.7157 23 85 23C93.2843 23 100 29.7157 100 38Z" fill="#00327D"/>
<path d="M80 52C80 60.2843 73.2843 67 65 67C56.7157 67 50 60.2843 50 52C50 43.7157 56.7157 37 65 37C73.2843 37 80 43.7157 80 52Z" fill="#00327D"/>
<path d="M120 52C120 60.2843 113.284 67 105 67C96.7157 67 90 60.2843 90 52C90 43.7157 96.7157 37 105 37C113.284 37 120 43.7157 120 52Z" fill="#00327D"/>
<path d="M100 52C100 60.2843 93.2843 67 85 67C76.7157 67 70 60.2843 70 52C70 43.7157 76.7157 37 85 37C93.2843 37 100 43.7157 100 52Z" fill="#00327D"/>
<path d="M60 101C60 101 60 115.5 85 115.5C110 115.5 110 101 110 101" stroke="black" stroke-width="3" stroke-linecap="round"/>
<path d="M115 92C115 92 115 83 102.5 83C90 83 90 92 90 92" stroke="black" stroke-width="3" stroke-linecap="round"/>
<path d="M80 92C80 92 80 83 67.5 83C55 83 55 92 55 92" stroke="black" stroke-width="3" stroke-linecap="round"/>
<circle cx="85" cy="104" r="15" fill="#0047B3"/>
<path d="M130.803 40.5975C131.858 38.9726 134.376 39.6473 134.477 41.5821L134.878 49.2206C134.923 50.0859 135.52 50.8235 136.357 51.0478L143.745 53.0275C145.617 53.5289 145.753 56.1322 143.945 56.8265L136.804 59.5676C135.995 59.8781 135.478 60.6742 135.523 61.5394L135.923 69.1779C136.025 71.1127 133.591 72.0469 132.372 70.5412L127.558 64.5969C127.013 63.9235 126.096 63.6778 125.287 63.9883L118.146 66.7295C116.338 67.4238 114.697 65.3979 115.752 63.773L119.918 57.3581C120.39 56.6314 120.34 55.6835 119.795 55.0102L114.981 49.0658C113.762 47.5602 115.182 45.3739 117.053 45.8753L124.442 47.855C125.279 48.0793 126.165 47.7391 126.637 47.0125L130.803 40.5975Z" fill="#FBBC05"/>
<path d="M104.443 54.6158C105.499 52.9909 108.017 53.6656 108.118 55.6004L108.227 57.6836C108.273 58.5489 108.87 59.2865 109.707 59.5108L111.722 60.0507C113.593 60.5521 113.73 63.1554 111.921 63.8497L109.973 64.5973C109.164 64.9078 108.648 65.7038 108.693 66.5691L108.802 68.6523C108.903 70.5871 106.47 71.5213 105.25 70.0156L103.938 68.3944C103.392 67.7211 102.476 67.4754 101.667 67.7859L99.7192 68.5335C97.9104 69.2278 96.2699 67.2019 97.3251 65.577L98.4613 63.8276C98.9332 63.1009 98.8835 62.153 98.3382 61.4796L97.0254 59.8585C95.8062 58.3528 97.2259 56.1665 99.0974 56.668L101.112 57.2079C101.949 57.4321 102.835 57.092 103.307 56.3653L104.443 54.6158Z" fill="#FBBC05"/>
<path d="M65.4434 126.616C66.4986 124.991 69.0166 125.666 69.118 127.6L69.2272 129.684C69.2725 130.549 69.8699 131.287 70.7068 131.511L72.7218 132.051C74.5932 132.552 74.7296 135.155 72.9209 135.85L70.9734 136.597C70.1645 136.908 69.6475 137.704 69.6929 138.569L69.802 140.652C69.9034 142.587 67.4698 143.521 66.2505 142.016L64.9377 140.394C64.3924 139.721 63.4756 139.475 62.6667 139.786L60.7192 140.533C58.9104 141.228 57.2699 139.202 58.3251 137.577L59.4613 135.828C59.9332 135.101 59.8835 134.153 59.3382 133.48L58.0254 131.858C56.8062 130.353 58.2259 128.167 60.0974 128.668L62.1123 129.208C62.9492 129.432 63.8354 129.092 64.3073 128.365L65.4434 126.616Z" fill="#FBBC05"/>
<path d="M40.4434 66.6158C41.4986 64.9909 44.0166 65.6656 44.118 67.6004L44.2272 69.6836C44.2725 70.5489 44.8699 71.2865 45.7068 71.5108L47.7218 72.0507C49.5932 72.5521 49.7296 75.1554 47.9209 75.8497L45.9734 76.5973C45.1645 76.9078 44.6475 77.7038 44.6929 78.5691L44.802 80.6523C44.9034 82.5871 42.4698 83.5213 41.2505 82.0156L39.9377 80.3944C39.3924 79.7211 38.4756 79.4754 37.6667 79.7859L35.7192 80.5335C33.9104 81.2278 32.2699 79.2019 33.3251 77.577L34.4613 75.8276C34.9332 75.1009 34.8835 74.153 34.3382 73.4796L33.0254 71.8585C31.8062 70.3528 33.2259 68.1665 35.0974 68.668L37.1123 69.2079C37.9492 69.4321 38.8354 69.092 39.3073 68.3653L40.4434 66.6158Z" fill="#FBBC05"/>
<path d="M48.8026 106.598C49.8578 104.973 52.3758 105.647 52.4772 107.582L52.8775 115.221C52.9229 116.086 53.5202 116.824 54.3571 117.048L61.7454 119.027C63.6169 119.529 63.7533 122.132 61.9445 122.826L54.8036 125.568C53.9947 125.878 53.4778 126.674 53.5231 127.539L53.9234 135.178C54.0248 137.113 51.5912 138.047 50.3719 136.541L45.5582 130.597C45.013 129.924 44.0961 129.678 43.2872 129.988L36.1463 132.729C34.3376 133.424 32.697 131.398 33.7522 129.773L37.9181 123.358C38.3901 122.631 38.3404 121.684 37.7951 121.01L32.9815 115.066C31.7622 113.56 33.182 111.374 35.0534 111.875L42.4417 113.855C43.2786 114.079 44.1648 113.739 44.6367 113.012L48.8026 106.598Z" fill="#FBBC05"/>
<path d="M121.803 109.598C122.858 107.973 125.376 108.647 125.477 110.582L125.878 118.221C125.923 119.086 126.52 119.824 127.357 120.048L134.745 122.027C136.617 122.529 136.753 125.132 134.945 125.826L127.804 128.568C126.995 128.878 126.478 129.674 126.523 130.539L126.923 138.178C127.025 140.113 124.591 141.047 123.372 139.541L118.558 133.597C118.013 132.924 117.096 132.678 116.287 132.988L109.146 135.729C107.338 136.424 105.697 134.398 106.752 132.773L110.918 126.358C111.39 125.631 111.34 124.684 110.795 124.01L105.981 118.066C104.762 116.56 106.182 114.374 108.053 114.875L115.442 116.855C116.279 117.079 117.165 116.739 117.637 116.012L121.803 109.598Z" fill="#FBBC05"/>
<defs>
<linearGradient id="paint0_linear_6_168" x1="129" y1="92" x2="144" y2="92" gradientUnits="userSpaceOnUse">
<stop stop-color="#0066FF"/>
<stop offset="1" stop-color="#003D99"/>
</linearGradient>
<linearGradient id="paint1_linear_6_168" x1="15" y1="15" x2="30" y2="15" gradientUnits="userSpaceOnUse">
<stop stop-color="#0066FF"/>
<stop offset="1" stop-color="#003D99"/>
</linearGradient>
</defs>
</svg>
