<svg width="318" height="303" viewBox="0 0 318 303" fill="none" xmlns="http://www.w3.org/2000/svg">
<path d="M157.316 25.3806C180.002 25.3806 198.376 43.7634 198.376 66.4608C198.376 89.1583 180.002 107.541 157.316 107.541C134.63 107.541 116.256 89.1583 116.256 66.4608C116.256 43.7634 134.63 25.3806 157.316 25.3806ZM157.316 0C120.678 0 90.8885 29.804 90.8885 66.4608C90.8885 103.118 120.678 132.922 157.316 132.922C193.955 132.922 223.744 103.118 223.744 66.4608C223.744 29.804 193.955 0 157.316 0Z" fill="white"/>
<path d="M102.594 63.7052C125.28 63.7052 143.654 82.0879 143.654 104.785C143.654 127.483 125.28 145.866 102.594 145.866C79.9077 145.866 61.534 127.483 61.534 104.785C61.534 82.0879 79.9077 63.7052 102.594 63.7052ZM102.594 38.3246C65.9553 38.3246 36.1661 68.1286 36.1661 104.785C36.1661 141.442 65.9553 171.246 102.594 171.246C139.232 171.246 169.021 141.442 169.021 104.785C169.021 68.1286 139.232 38.3246 102.594 38.3246Z" fill="white"/>
<path d="M212.074 63.7052C234.761 63.7052 253.134 82.0879 253.134 104.785C253.134 127.483 234.761 145.866 212.074 145.866C189.388 145.866 171.015 127.483 171.015 104.785C171.015 82.0879 189.388 63.7052 212.074 63.7052ZM212.074 38.3246C175.436 38.3246 145.647 68.1286 145.647 104.785C145.647 141.442 175.436 171.246 212.074 171.246C248.713 171.246 278.502 141.442 278.502 104.785C278.502 68.1286 248.713 38.3246 212.074 38.3246Z" fill="white"/>
<path d="M157.318 78.4235C212.076 78.4235 256.47 122.84 256.47 177.625C256.47 232.411 212.076 276.827 157.318 276.827C102.56 276.827 58.1658 232.411 58.1658 177.625C58.1658 122.84 102.56 78.4235 157.318 78.4235ZM157.318 53.043C88.6435 53.043 32.7979 108.916 32.7979 177.625C32.7979 246.334 88.6435 302.208 157.318 302.208C225.993 302.208 281.838 246.334 281.838 177.625C281.838 108.916 225.993 53.043 157.318 53.043Z" fill="white"/>
<path d="M59.1797 143.834C77.8432 143.834 92.9915 158.99 92.9915 177.663C92.9915 196.336 77.8432 211.492 59.1797 211.492C40.5162 211.492 25.3679 196.336 25.3679 177.663C25.3679 158.99 40.5162 143.834 59.1797 143.834ZM59.1797 118.454C26.5638 118.454 0 144.994 0 177.663C0 210.331 26.5276 236.872 59.1797 236.872C91.8318 236.872 118.359 210.331 118.359 177.663C118.359 144.994 91.8318 118.454 59.1797 118.454Z" fill="white"/>
<path d="M258.607 143.834C277.27 143.834 292.418 158.99 292.418 177.663C292.418 196.336 277.27 211.492 258.607 211.492C239.943 211.492 224.795 196.336 224.795 177.663C224.795 158.99 239.943 143.834 258.607 143.834ZM258.607 118.454C225.991 118.454 199.427 144.994 199.427 177.663C199.427 210.331 225.955 236.872 258.607 236.872C291.259 236.872 317.786 210.331 317.786 177.663C317.786 144.994 291.259 118.454 258.607 118.454Z" fill="white"/>
<path d="M131.115 132.415H94.2595C90.8771 132.415 88.135 135.159 88.135 138.543C88.135 141.927 90.8771 144.67 94.2595 144.67H131.115C134.498 144.67 137.24 141.927 137.24 138.543C137.24 135.159 134.498 132.415 131.115 132.415Z" fill="white"/>
<path d="M223.529 132.415H186.673C183.29 132.415 180.548 135.159 180.548 138.543C180.548 141.927 183.29 144.67 186.673 144.67H223.529C226.911 144.67 229.653 141.927 229.653 138.543C229.653 135.159 226.911 132.415 223.529 132.415Z" fill="white"/>
<path d="M59.1787 211.457C77.8524 211.457 92.9905 196.311 92.9905 177.628C92.9905 158.945 77.8524 143.8 59.1787 143.8C40.5049 143.8 25.3669 158.945 25.3669 177.628C25.3669 196.311 40.5049 211.457 59.1787 211.457Z" fill="url(#paint0_linear_1696_484)"/>
<path d="M258.606 211.457C277.28 211.457 292.418 196.311 292.418 177.628C292.418 158.945 277.28 143.8 258.606 143.8C239.933 143.8 224.795 158.945 224.795 177.628C224.795 196.311 239.933 211.457 258.606 211.457Z" fill="url(#paint1_linear_1696_484)"/>
<path d="M155.721 277.602C210.481 277.602 254.873 233.188 254.873 178.4C254.873 123.613 210.481 79.1985 155.721 79.1985C100.96 79.1985 56.5685 123.613 56.5685 178.4C56.5685 233.188 100.96 277.602 155.721 277.602Z" fill="url(#paint2_linear_1696_484)"/>
<path d="M198.376 66.4643C198.376 89.1618 180.003 107.545 157.316 107.545C134.63 107.545 116.257 89.1618 116.257 66.4643C116.257 43.7668 134.63 25.384 157.316 25.384C180.003 25.384 198.376 43.7668 198.376 66.4643Z" fill="#0D6000"/>
<path d="M198.376 104.788C198.376 127.486 180.003 145.869 157.316 145.869C134.63 145.869 116.257 127.486 116.257 104.788C116.257 82.0909 134.63 63.7081 157.316 63.7081C180.003 63.7081 198.376 82.0909 198.376 104.788Z" fill="#0D6000"/>
<path d="M253.098 104.788C253.098 127.486 234.725 145.869 212.039 145.869C189.352 145.869 170.979 127.486 170.979 104.788C170.979 82.0909 189.352 63.7081 212.039 63.7081C234.725 63.7081 253.098 82.0909 253.098 104.788Z" fill="#0D6000"/>
<path d="M143.652 104.79C143.652 127.487 125.278 145.87 102.592 145.87C79.9059 145.87 61.5323 127.487 61.5323 104.79C61.5323 82.0923 79.9059 63.7095 102.592 63.7095C125.278 63.7095 143.652 82.0923 143.652 104.79Z" fill="#0D6000"/>
<path d="M232.109 190.256C232.109 190.256 232.109 163.62 201.668 163.62C171.227 163.62 171.227 190.256 171.227 190.256M144.591 190.256C144.591 190.256 144.591 163.62 114.15 163.62C83.7097 163.62 83.7097 190.256 83.7097 190.256" stroke="#0F0F0F" stroke-width="10" stroke-linecap="round"/>
<path d="M158.873 248.698C177.547 248.698 192.685 233.552 192.685 214.869C192.685 196.186 177.547 181.04 158.873 181.04C140.199 181.04 125.061 196.186 125.061 214.869C125.061 233.552 140.199 248.698 158.873 248.698Z" fill="#0D6000"/>
<path d="M243.052 91.7336C246.57 86.3154 254.966 88.5652 255.304 95.0167L255.421 97.2467C255.573 100.132 257.564 102.592 260.355 103.339L262.512 103.917C268.752 105.589 269.207 114.27 263.176 116.585L261.091 117.385C258.394 118.421 256.67 121.075 256.821 123.96L256.938 126.19C257.276 132.642 249.161 135.757 245.096 130.736L243.69 129.001C241.872 126.756 238.815 125.936 236.118 126.972L234.033 127.772C228.002 130.087 222.531 123.332 226.05 117.914L227.266 116.041C228.84 113.618 228.674 110.457 226.856 108.212L225.45 106.477C221.385 101.456 226.119 94.1659 232.359 95.8379L234.516 96.4159C237.307 97.1636 240.262 96.0294 241.835 93.6063L243.052 91.7336Z" fill="#FBBC05"/>
<path d="M187.352 119.391C189.785 115.645 195.589 117.201 195.823 121.661C195.928 123.655 197.305 125.356 199.234 125.873C203.548 127.029 203.862 133.03 199.693 134.63C197.828 135.346 196.636 137.181 196.741 139.176C196.975 143.636 191.365 145.789 188.554 142.319C187.297 140.766 185.183 140.2 183.319 140.916C179.149 142.516 175.367 137.846 177.8 134.101C178.888 132.426 178.773 130.24 177.516 128.688C174.706 125.217 177.978 120.178 182.293 121.333C184.222 121.85 186.265 121.066 187.352 119.391Z" fill="#FBBC05"/>
<path d="M119.408 254.064C121.84 250.318 127.645 251.873 127.878 256.333C127.983 258.328 129.36 260.029 131.289 260.545C135.603 261.701 135.918 267.702 131.748 269.303C129.883 270.019 128.692 271.854 128.796 273.848C129.03 278.309 123.42 280.462 120.609 276.991C119.352 275.439 117.239 274.873 115.374 275.588C111.204 277.189 107.423 272.519 109.855 268.773C110.943 267.098 110.829 264.913 109.572 263.361C106.761 259.89 110.034 254.85 114.348 256.006C116.277 256.523 118.32 255.739 119.408 254.064Z" fill="#FBBC05"/>
<path d="M62.3324 132.3C64.7649 128.555 70.5694 130.11 70.8031 134.57C70.9077 136.565 72.2847 138.265 74.214 138.782C78.528 139.938 78.8425 145.939 74.6729 147.54C72.8082 148.255 71.6165 150.09 71.721 152.085C71.9548 156.545 66.3447 158.699 63.534 155.228C62.277 153.676 60.1635 153.109 58.2988 153.825C54.1293 155.426 50.3475 150.755 52.78 147.01C53.8678 145.335 53.7533 143.15 52.4963 141.597C49.6857 138.126 52.9585 133.087 57.2725 134.243C59.2018 134.76 61.2446 133.975 62.3324 132.3Z" fill="#FBBC05"/>
<path d="M83.236 221.107C86.7545 215.689 95.1508 217.938 95.4889 224.39L95.6057 226.62C95.757 229.505 97.7488 231.965 100.54 232.713L102.696 233.291C108.937 234.963 109.392 243.643 103.36 245.958L101.276 246.759C98.5784 247.794 96.8545 250.448 97.0058 253.334L97.1226 255.564C97.4607 262.015 89.3457 265.13 85.28 260.11L83.8747 258.374C82.0565 256.129 78.9993 255.31 76.302 256.345L74.2173 257.145C68.186 259.461 62.7157 252.705 66.2343 247.287L67.4505 245.414C69.024 242.991 68.8584 239.831 67.0402 237.585L65.6349 235.85C61.5692 230.829 66.3035 223.539 72.5437 225.211L74.7006 225.789C77.4914 226.537 80.4462 225.403 82.0198 222.98L83.236 221.107Z" fill="#FBBC05"/>
<path d="M220.222 221.107C223.741 215.689 232.137 217.938 232.475 224.39L232.592 226.62C232.743 229.505 234.735 231.965 237.526 232.713L239.683 233.291C245.923 234.963 246.378 243.643 240.346 245.958L238.262 246.759C235.564 247.794 233.841 250.448 233.992 253.334L234.109 255.564C234.447 262.015 226.332 265.13 222.266 260.11L220.861 258.374C219.043 256.129 215.985 255.31 213.288 256.345L211.203 257.145C205.172 259.461 199.702 252.705 203.22 247.287L204.437 245.414C206.01 242.991 205.844 239.831 204.026 237.585L202.621 235.85C198.555 230.829 203.29 223.539 209.53 225.211L211.687 225.789C214.477 226.537 217.432 225.403 219.006 222.98L220.222 221.107Z" fill="#FBBC05"/>
<defs>
<linearGradient id="paint0_linear_1696_484" x1="158.893" y1="151.628" x2="25.3669" y2="151.628" gradientUnits="userSpaceOnUse">
<stop offset="0.5" stop-color="#37C122"/>
<stop offset="1" stop-color="#159A00"/>
</linearGradient>
<linearGradient id="paint1_linear_1696_484" x1="158.893" y1="151.628" x2="292.418" y2="151.628" gradientUnits="userSpaceOnUse">
<stop offset="0.5" stop-color="#37C122"/>
<stop offset="1" stop-color="#159A00"/>
</linearGradient>
<linearGradient id="paint2_linear_1696_484" x1="158.893" y1="25.384" x2="158.893" y2="277.648" gradientUnits="userSpaceOnUse">
<stop stop-color="#0D6000"/>
<stop offset="1" stop-color="#37C122"/>
</linearGradient>
</defs>
</svg>
