<svg width="375" height="293" viewBox="0 0 375 293" fill="none" xmlns="http://www.w3.org/2000/svg">
<path d="M373 132.608C373 132.608 366.643 130.432 362.564 131.028C248.979 147.634 69.0992 170.832 69.0992 170.832C48.6494 173.78 6.67464 172.475 2.37386 143.664C-3.00212 107.651 50.1252 7.51012 127.919 2.13977C205.712 -3.23058 167.23 150.668 143.23 179C112.556 200.692 61.7626 253.346 103.252 290.243C174.405 302.563 142.465 160.723 132.03 136.083C121.594 111.442 110.21 52.0524 127.919 27.0961C134.644 17.619 157.702 76.5134 155.747 101.965C153.792 127.417 151.061 142.537 135.825 158.512C120.588 174.486 107.68 144.612 108.312 130.08C108.945 115.549 113.688 72.5861 90.9193 67.8475C72.7042 64.0567 66.6747 104.387 65.9368 125.026L66.1955 158.691L64.9881 125.026C62.6691 113.548 54.4259 88.8235 40.0057 81.7473C21.9803 72.902 21.9803 156.616 25.1427 157.564C27.6725 158.322 25.2481 129.628 25.1427 114.465" stroke="#FFFFD2" stroke-width="4" stroke-linecap="round"/>
</svg>
