<svg width="434" height="500" viewBox="0 0 434 500" fill="none" xmlns="http://www.w3.org/2000/svg">
<rect width="434" height="434" fill="#65A3FF"/>
<path opacity="0.25" d="M5.28 168V8.39999H88.5C144.36 8.39999 144.36 8.39999 144.36 64.26V80.904H146.64V112.14C146.64 168 146.64 168 90.78 168H5.28ZM73.68 122.856C78.24 122.856 78.24 122.856 78.24 118.296V100.056H73.68V122.856ZM73.68 76.8H78.24V58.56C78.24 54 78.24 54 73.68 54V76.8ZM297.04 8.39999V168H228.64V99.6H224.08V168H155.68V64.26C155.68 8.39999 155.68 8.39999 211.54 8.39999H297.04ZM224.08 76.8H228.64V54C224.08 54 224.08 54 224.08 58.56V76.8ZM5.28 174.4H142.08V215.44H47.688C47.688 220 47.46 220 52.02 220H142.08V278.14C142.08 334 142.08 334 86.22 334H5.28V265.6H95.34C99.9 265.6 99.672 265.6 99.672 261.04H5.28V174.4ZM151.227 334V174.4H219.627V334H151.227ZM309.758 174.4C365.618 174.4 365.618 174.4 365.618 230.26V251.92H297.218V224.56C297.218 220 297.218 220 292.658 220V281.56C292.658 286.12 292.658 286.12 297.218 286.12V256.48H365.618V278.14C365.618 334 365.618 334 309.758 334H280.118C224.258 334 224.258 334 224.258 278.14V230.26C224.258 174.4 224.258 174.4 280.118 174.4H309.758ZM90.78 340.4C146.64 340.4 146.64 340.4 146.64 396.26V444.14C146.64 500 146.64 500 90.78 500H61.14C5.28 500 5.28 500 5.28 444.14V396.26C5.28 340.4 5.28 340.4 61.14 340.4H90.78ZM73.68 427.04C73.68 431.6 73.68 431.6 78.24 431.6V390.56C78.24 386 78.24 386 73.68 386V427.04Z" fill="white"/>
</svg>
