<svg width="57" height="50" viewBox="0 0 57 50" fill="none" xmlns="http://www.w3.org/2000/svg">
<circle cx="49.7998" cy="30.6668" r="7.18752" fill="url(#paint0_linear_1022_633)"/>
<circle cx="7.18752" cy="7.18752" r="7.18752" transform="matrix(-1 0 0 1 14.8203 23.4792)" fill="url(#paint1_linear_1022_633)"/>
<circle cx="28.7164" cy="28.7501" r="21.0834" fill="url(#paint2_linear_1022_633)"/>
<path d="M38.5392 34.9793C31.1121 34.9793 31.1121 27.7917 31.1121 27.7917H45.9663C45.9663 27.7917 45.9663 34.9793 38.5392 34.9793Z" fill="white"/>
<path d="M38.5392 32.1043C33.9871 32.1043 33.9871 27.7917 33.9871 27.7917H43.0913C43.0913 27.7917 43.0913 32.1043 38.5392 32.1043Z" fill="black"/>
<path d="M18.8934 34.9793C11.4663 34.9793 11.4663 27.7917 11.4663 27.7917H26.3205C26.3205 27.7917 26.3205 34.9793 18.8934 34.9793Z" fill="white"/>
<path d="M18.8934 32.1043C14.3413 32.1043 14.3413 27.7917 14.3413 27.7917H23.4455C23.4455 27.7917 23.4455 32.1043 18.8934 32.1043Z" fill="black"/>
<circle cx="28.7163" cy="34.0208" r="7.18752" fill="#00327D"/>
<path d="M45.9667 25.875H32.0708" stroke="black" stroke-width="3" stroke-linecap="round"/>
<path d="M11.4664 25.875H25.3623" stroke="black" stroke-width="3" stroke-linecap="round"/>
<path d="M35.9039 7.18752C35.9039 11.1571 32.686 14.375 28.7164 14.375C24.7469 14.375 21.5289 11.1571 21.5289 7.18752C21.5289 3.21796 24.7469 0 28.7164 0C32.686 0 35.9039 3.21796 35.9039 7.18752Z" fill="#00327D"/>
<path d="M26.3206 13.8959C26.3206 17.8654 23.1026 21.0834 19.1331 21.0834C15.1635 21.0834 11.9456 17.8654 11.9456 13.8959C11.9456 9.92631 15.1635 6.70835 19.1331 6.70835C23.1026 6.70835 26.3206 9.92631 26.3206 13.8959Z" fill="#00327D"/>
<path d="M45.4873 13.8959C45.4873 17.8654 42.2693 21.0834 38.2998 21.0834C34.3302 21.0834 31.1123 17.8654 31.1123 13.8959C31.1123 9.92631 34.3302 6.70835 38.2998 6.70835C42.2693 6.70835 45.4873 9.92631 45.4873 13.8959Z" fill="#00327D"/>
<path d="M35.9039 13.8959C35.9039 17.8654 32.686 21.0834 28.7164 21.0834C24.7469 21.0834 21.5289 17.8654 21.5289 13.8959C21.5289 9.92631 24.7469 6.70835 28.7164 6.70835C32.686 6.70835 35.9039 9.92631 35.9039 13.8959Z" fill="#00327D"/>
<defs>
<linearGradient id="paint0_linear_1022_633" x1="49.7998" y1="30.6668" x2="56.9873" y2="30.6668" gradientUnits="userSpaceOnUse">
<stop stop-color="#0064FC"/>
<stop offset="1" stop-color="#0548AF"/>
</linearGradient>
<linearGradient id="paint1_linear_1022_633" x1="7.18752" y1="7.18752" x2="14.375" y2="7.18752" gradientUnits="userSpaceOnUse">
<stop stop-color="#0064FC"/>
<stop offset="1" stop-color="#0548AF"/>
</linearGradient>
<linearGradient id="paint2_linear_1022_633" x1="28.7164" y1="7.66675" x2="28.7164" y2="49.8335" gradientUnits="userSpaceOnUse">
<stop stop-color="#003D99"/>
<stop offset="0.71" stop-color="#0064FC"/>
</linearGradient>
</defs>
</svg>
