<svg width="49" height="47" viewBox="0 0 49 47" fill="none" xmlns="http://www.w3.org/2000/svg">
<path d="M39.5607 22.0033C42.4158 22.0033 44.7331 24.3218 44.7331 27.1783C44.7331 30.0347 42.4158 32.3532 39.5607 32.3532C36.7057 32.3532 34.3883 30.0347 34.3883 27.1783C34.3883 24.3218 36.7057 22.0033 39.5607 22.0033ZM39.5607 18.1207C34.5713 18.1207 30.5077 22.1808 30.5077 27.1783C30.5077 32.1757 34.5657 36.2358 39.5607 36.2358C44.5557 36.2358 48.6137 32.1757 48.6137 27.1783C48.6137 22.1808 44.5557 18.1207 39.5607 18.1207Z" fill="#0F0F0F"/>
<path d="M9.05303 22.0033C11.9081 22.0033 14.2254 24.3218 14.2254 27.1783C14.2254 30.0347 11.9081 32.3532 9.05303 32.3532C6.19797 32.3532 3.88066 30.0347 3.88066 27.1783C3.88066 24.3218 6.19797 22.0033 9.05303 22.0033ZM9.05303 18.1207C4.06361 18.1207 0 22.1808 0 27.1783C0 32.1757 4.05806 36.2358 9.05303 36.2358C14.048 36.2358 18.1061 32.1757 18.1061 27.1783C18.1061 22.1808 14.048 18.1207 9.05303 18.1207Z" fill="#0F0F0F"/>
<path d="M24.0663 11.9973C32.443 11.9973 39.2342 18.7918 39.2342 27.1727C39.2342 35.5536 32.443 42.3481 24.0663 42.3481C15.6896 42.3481 8.89848 35.5536 8.89848 27.1727C8.89848 18.7918 15.6896 11.9973 24.0663 11.9973ZM24.0663 8.11466C13.5608 8.11466 5.01781 16.6619 5.01781 27.1727C5.01781 37.6834 13.5608 46.2307 24.0663 46.2307C34.5718 46.2307 43.1148 37.6834 43.1148 27.1727C43.1148 16.6619 34.5718 8.11466 24.0663 8.11466Z" fill="#0F0F0F"/>
<path d="M24.0661 3.8826C27.5365 3.8826 30.3472 6.69471 30.3472 10.1669C30.3472 13.639 27.5365 16.4511 24.0661 16.4511C20.5956 16.4511 17.7849 13.639 17.7849 10.1669C17.7849 6.69471 20.5956 3.8826 24.0661 3.8826ZM24.0661 0C18.4613 0 13.9043 4.55928 13.9043 10.1669C13.9043 15.7745 18.4613 20.3337 24.0661 20.3337C29.6708 20.3337 34.2279 15.7745 34.2279 10.1669C34.2279 4.55928 29.6708 0 24.0661 0Z" fill="#0F0F0F"/>
<path d="M15.6947 9.74537C19.1652 9.74537 21.9759 12.5575 21.9759 16.0296C21.9759 19.5018 19.1652 22.3139 15.6947 22.3139C12.2243 22.3139 9.41361 19.5018 9.41361 16.0296C9.41361 12.5575 12.2243 9.74537 15.6947 9.74537ZM15.6947 5.86277C10.09 5.86277 5.53294 10.422 5.53294 16.0296C5.53294 21.6372 10.09 26.1965 15.6947 26.1965C21.2995 26.1965 25.8565 21.6372 25.8565 16.0296C25.8565 10.422 21.2995 5.86277 15.6947 5.86277Z" fill="#0F0F0F"/>
<path d="M32.4427 9.74537C35.9131 9.74537 38.7238 12.5575 38.7238 16.0296C38.7238 19.5018 35.9131 22.3139 32.4427 22.3139C28.9722 22.3139 26.1615 19.5018 26.1615 16.0296C26.1615 12.5575 28.9722 9.74537 32.4427 9.74537ZM32.4427 5.86277C26.8379 5.86277 22.2809 10.422 22.2809 16.0296C22.2809 21.6372 26.8379 26.1965 32.4427 26.1965C38.0475 26.1965 42.6045 21.6372 42.6045 16.0296C42.6045 10.422 38.0475 5.86277 32.4427 5.86277Z" fill="#0F0F0F"/>
<path d="M39.7483 32.3517C42.6438 32.3517 44.991 30.0173 44.991 27.1377C44.991 24.258 42.6438 21.9236 39.7483 21.9236C36.8528 21.9236 34.5056 24.258 34.5056 27.1377C34.5056 30.0173 36.8528 32.3517 39.7483 32.3517Z" fill="#0F0F0F"/>
<path d="M8.8259 32.3517C11.7214 32.3517 14.0686 30.0173 14.0686 27.1377C14.0686 24.258 11.7214 21.9236 8.8259 21.9236C5.93043 21.9236 3.58319 24.258 3.58319 27.1377C3.58319 30.0173 5.93043 32.3517 8.8259 32.3517Z" fill="#0F0F0F"/>
<path d="M24.0427 42.4277C32.5336 42.4277 39.4168 35.5821 39.4168 27.1377C39.4168 18.6932 32.5336 11.8476 24.0427 11.8476C15.5518 11.8476 8.66854 18.6932 8.66854 27.1377C8.66854 35.5821 15.5518 42.4277 24.0427 42.4277Z" fill="#0F0F0F"/>
<path d="M30.4093 10.0034C30.4093 13.5018 27.5603 16.3351 24.0427 16.3351C20.5251 16.3351 17.6762 13.5018 17.6762 10.0034C17.6762 6.50499 20.5251 3.67163 24.0427 3.67163C27.5603 3.67163 30.4093 6.50499 30.4093 10.0034Z" fill="#0F0F0F"/>
<path d="M21.9243 15.9104C21.9243 19.4088 19.0754 22.2421 15.5577 22.2421C12.0401 22.2421 9.19118 19.4088 9.19118 15.9104C9.19118 12.412 12.0401 9.57864 15.5577 9.57864C19.0754 9.57864 21.9243 12.412 21.9243 15.9104Z" fill="#0F0F0F"/>
<path d="M38.8942 15.9104C38.8942 19.4088 36.0453 22.2421 32.5277 22.2421C29.0101 22.2421 26.1611 19.4088 26.1611 15.9104C26.1611 12.412 29.0101 9.57864 32.5277 9.57864C36.0453 9.57864 38.8942 12.412 38.8942 15.9104Z" fill="#0F0F0F"/>
<path d="M30.4093 15.9104C30.4093 19.4088 27.5603 22.2421 24.0427 22.2421C20.5251 22.2421 17.6762 19.4088 17.6762 15.9104C17.6762 12.412 20.5251 9.57864 24.0427 9.57864C27.5603 9.57864 30.4093 12.412 30.4093 15.9104Z" fill="#0F0F0F"/>
<path d="M39.5556 32.3408C42.4122 32.3408 44.728 30.0239 44.728 27.1658C44.728 24.3078 42.4122 21.9909 39.5556 21.9909C36.699 21.9909 34.3832 24.3078 34.3832 27.1658C34.3832 30.0239 36.699 32.3408 39.5556 32.3408Z" fill="url(#paint0_linear_1697_797)"/>
<path d="M9.0481 32.3408C11.9047 32.3408 14.2205 30.0239 14.2205 27.1658C14.2205 24.3078 11.9047 21.9909 9.0481 21.9909C6.19148 21.9909 3.87573 24.3078 3.87573 27.1658C3.87573 30.0239 6.19148 32.3408 9.0481 32.3408Z" fill="url(#paint1_linear_1697_797)"/>
<path d="M24.0607 42.3412C32.4377 42.3412 39.2285 35.547 39.2285 27.1658C39.2285 18.7847 32.4377 11.9904 24.0607 11.9904C15.6837 11.9904 8.89285 18.7847 8.89285 27.1658C8.89285 35.547 15.6837 42.3412 24.0607 42.3412Z" fill="url(#paint2_linear_1697_797)"/>
<path d="M30.3419 10.16C30.3419 13.6322 27.5312 16.4443 24.0607 16.4443C20.5903 16.4443 17.7796 13.6322 17.7796 10.16C17.7796 6.68784 20.5903 3.87573 24.0607 3.87573C27.5312 3.87573 30.3419 6.68784 30.3419 10.16Z" fill="#00327D"/>
<path d="M21.9707 16.0227C21.9707 19.4949 19.16 22.307 15.6896 22.307C12.2192 22.307 9.40848 19.4949 9.40848 16.0227C9.40848 12.5506 12.2192 9.73845 15.6896 9.73845C19.16 9.73845 21.9707 12.5506 21.9707 16.0227Z" fill="#00327D"/>
<path d="M38.713 16.0227C38.713 19.4949 35.9023 22.307 32.4319 22.307C28.9614 22.307 26.1507 19.4949 26.1507 16.0227C26.1507 12.5506 28.9614 9.73845 32.4319 9.73845C35.9023 9.73845 38.713 12.5506 38.713 16.0227Z" fill="#00327D"/>
<path d="M30.3419 16.0227C30.3419 19.4949 27.5312 22.307 24.0607 22.307C20.5903 22.307 17.7796 19.4949 17.7796 16.0227C17.7796 12.5506 20.5903 9.73845 24.0607 9.73845C27.5312 9.73845 30.3419 12.5506 30.3419 16.0227Z" fill="#00327D"/>
<path d="M22.5747 27.8869C22.5747 27.8869 22.5747 33.0618 17.2304 33.0618C11.8862 33.0618 11.8862 27.8869 11.8862 27.8869C11.8862 27.8869 11.8862 22.7119 17.2304 22.7119C22.5747 22.7119 22.5747 27.8869 22.5747 27.8869Z" fill="white"/>
<path d="M17.8238 27.8536C17.286 27.3433 16.7538 26.8385 16.2161 26.3283C16.8259 23.9599 18.733 22.6065 20.5624 23.6382C21.4217 24.1207 22.1092 25.1413 22.3974 26.3782C23.1403 29.5286 21.4439 32.4905 19.2984 32.4905C17.9291 32.4905 16.6929 31.2813 16.2216 29.4787C16.7538 28.9407 17.2916 28.3971 17.8238 27.8591V27.8536Z" fill="#0F0F0F"/>
<path d="M36.7117 27.8869C36.7117 27.8869 36.7117 33.0618 31.3675 33.0618C26.0232 33.0618 26.0232 27.8869 26.0232 27.8869C26.0232 27.8869 26.0232 22.7119 31.3675 22.7119C36.7117 22.7119 36.7117 27.8869 36.7117 27.8869Z" fill="white"/>
<path d="M31.9607 27.8536C31.423 27.3433 30.8908 26.8385 30.353 26.3283C30.9628 23.9599 32.8699 22.6065 34.6994 23.6382C35.5587 24.1207 36.2461 25.1413 36.5344 26.3782C37.2772 29.5286 35.5808 32.4905 33.4354 32.4905C32.0661 32.4905 30.8298 31.2813 30.3586 29.4787C30.8908 28.9407 31.4285 28.3971 31.9607 27.8591V27.8536Z" fill="#0F0F0F"/>
<path d="M24.2991 38.037C27.1557 38.037 29.4714 35.7201 29.4714 32.8621C29.4714 30.004 27.1557 27.6871 24.2991 27.6871C21.4424 27.6871 19.1267 30.004 19.1267 32.8621C19.1267 35.7201 21.4424 38.037 24.2991 38.037Z" fill="#00327D"/>
<path d="M34.1892 20.2492H28.5511C28.0337 20.2492 27.6142 20.6689 27.6142 21.1866C27.6142 21.7043 28.0337 22.124 28.5511 22.124H34.1892C34.7066 22.124 35.1261 21.7043 35.1261 21.1866C35.1261 20.6689 34.7066 20.2492 34.1892 20.2492Z" fill="#0F0F0F"/>
<path d="M20.0527 20.2492H14.4146C13.8972 20.2492 13.4777 20.6689 13.4777 21.1866C13.4777 21.7043 13.8972 22.124 14.4146 22.124H20.0527C20.5701 22.124 20.9896 21.7043 20.9896 21.1866C20.9896 20.6689 20.5701 20.2492 20.0527 20.2492Z" fill="#0F0F0F"/>
<defs>
<linearGradient id="paint0_linear_1697_797" x1="24.3018" y1="23.1291" x2="44.728" y2="23.1291" gradientUnits="userSpaceOnUse">
<stop stop-color="#0066FF"/>
<stop offset="1" stop-color="#004BBB"/>
</linearGradient>
<linearGradient id="paint1_linear_1697_797" x1="24.3018" y1="23.1291" x2="3.87573" y2="23.1291" gradientUnits="userSpaceOnUse">
<stop stop-color="#0066FF"/>
<stop offset="1" stop-color="#004BBB"/>
</linearGradient>
<linearGradient id="paint2_linear_1697_797" x1="24.3018" y1="3.87573" x2="24.3018" y2="42.3483" gradientUnits="userSpaceOnUse">
<stop stop-color="#003D99"/>
<stop offset="1" stop-color="#0066FF"/>
</linearGradient>
</defs>
</svg>
