<svg width="37" height="37" viewBox="0 0 37 37" fill="none" xmlns="http://www.w3.org/2000/svg">
<g clip-path="url(#clip0_637_1110)">
<rect width="37" height="37" rx="9" fill="url(#paint0_linear_637_1110)"/>
<path d="M15.7886 16.3896L12.6866 26.5228L11.7767 28.8803C11.7767 28.8803 13.1002 30.576 16.2436 31.2378C18.3943 31.6927 19.8419 31.7341 20.7931 31.6514C21.579 31.5686 22.5302 31.4032 22.0339 29.9556C21.3308 27.8049 21.579 26.4401 21.579 26.4401L22.6957 20.3602L15.7886 16.3896Z" fill="#EA9D7D"/>
<path d="M15.2923 21.8491C16.3011 23.2718 17.6337 24.4343 19.1801 25.2406C20.6277 25.9437 21.6617 26.1092 21.6617 26.1092L22.613 21.0633L15.83 16.3896L15.4578 17.0928L15.1683 18.2508C15.0855 18.2508 14.3411 20.3602 15.2923 21.8491Z" fill="url(#paint1_linear_637_1110)"/>
<path d="M11.9836 28.9216H11.9422C11.8595 28.8802 11.8181 28.7975 11.8181 28.7148L13.762 22.759C14.1343 21.5182 15.251 17.3409 15.251 17.3409C15.2923 17.2582 15.375 17.2168 15.4578 17.2168C15.5405 17.2582 15.5818 17.3409 15.5818 17.4236L14.0929 22.8417C13.762 23.9584 12.149 28.7561 12.149 28.7561C12.149 28.8802 12.0663 28.9216 11.9836 28.9216Z" fill="#CF7653"/>
<path d="M16.9054 18.7886L17.0295 18.954L17.1949 18.7886H16.9054Z" fill="#A84D3B"/>
<path d="M16.9467 18.499L16.8226 18.8713L17.2776 18.8299L16.9467 18.499ZM19.1388 20.1121V20.5256L19.5937 20.3188L19.1388 20.1121ZM18.0221 19.4089L17.9807 19.8225L18.4357 19.6985L18.0221 19.4089ZM17.4017 18.9126L17.3189 19.3676L17.8153 19.2435L17.4017 18.9126Z" fill="#A84D3B"/>
<path d="M16.6573 18.1267L16.4918 18.4989H16.9882L16.6573 18.1267ZM19.7593 21.0632L19.5525 20.8151L19.387 21.146L19.7593 21.0632ZM19.1802 20.6083L18.9321 20.2774L18.808 20.6496L19.1802 20.6083ZM20.876 21.5182L20.5864 21.1873L20.5037 21.5596L20.876 21.5182ZM22.1168 21.9318L21.8272 21.6009L21.7032 21.9731L22.1168 21.9318ZM19.9247 20.4842L19.6352 20.3601V20.691L19.9247 20.4842ZM20.5037 21.725L20.2969 21.5182L20.1729 21.8077L20.5037 21.725ZM18.8907 20.0706L18.6425 19.9465L18.6012 20.2774L18.8907 20.0706ZM21.0828 20.9392L20.6692 20.7737L20.7105 21.27L21.0828 20.9392ZM21.8686 21.1046L21.5377 21.0219L21.6204 21.4355L21.8686 21.1046ZM22.4063 21.725H22.0754L22.1995 22.0559L22.4063 21.725ZM21.2482 21.6423L21.0828 21.3941L20.9173 21.6836L21.2482 21.6423ZM22.2408 22.5935L22.2822 22.304L21.9513 22.4281L22.2408 22.5935ZM22.1581 23.1726L22.1995 22.8417L21.8686 22.9244L22.1581 23.1726ZM21.455 23.1312L21.2896 23.2967L21.4964 23.3794L21.455 23.1312ZM21.5791 21.5596L21.4136 21.6836L21.6618 21.8077L21.5791 21.5596ZM22.489 21.27L22.2822 21.2287L22.3649 21.4768L22.489 21.27ZM21.7445 23.6275L21.5791 23.793L21.8272 23.8757L21.7445 23.6275ZM17.6499 19.3261L17.4845 19.4502L17.6913 19.5743L17.6499 19.3261ZM16.2437 17.4236L16.0782 17.5477L16.285 17.6717L16.2437 17.4236ZM20.421 21.3114L20.2969 21.2287L20.2556 21.4355L20.421 21.3114ZM19.2629 21.0219L19.3043 20.8151L19.0975 20.8564L19.2629 21.0219ZM19.842 21.3941L19.9247 21.2287H19.7179L19.842 21.3941ZM20.7105 22.1799L20.7932 22.3867L20.9587 22.2213L20.7105 22.1799ZM21.91 21.3528L21.7859 21.4768L21.9513 21.5596L21.91 21.3528Z" fill="#A84D3B"/>
<path d="M21.9926 21.1461L21.7859 21.3115L22.034 21.477L21.9926 21.1461ZM21.4963 21.3115L21.3309 21.4356L21.4963 21.5183V21.3115ZM21.6618 24.248L21.4963 24.3721L21.6618 24.4548V24.248ZM21.2068 23.7931L21.2482 23.9585L21.4136 23.8345L21.2068 23.7931ZM21.1655 22.8005L21.2068 22.9659L21.3723 22.8418L21.1655 22.8005ZM21.9513 23.2141L21.8272 23.09L21.7859 23.2968L21.9513 23.2141ZM16.2023 21.2288L16.285 21.3529L16.3677 21.1874L16.2023 21.2288ZM16.9881 20.7325L16.9054 20.8152L17.0295 20.8566L16.9881 20.7325ZM17.8153 22.2214L17.6912 22.1801L17.7326 22.3041L17.8153 22.2214ZM17.4017 21.477L17.319 21.6424H17.4844L17.4017 21.477ZM20.2555 22.8418L20.2142 23.0486L20.4623 22.9659L20.2555 22.8418ZM19.8419 20.9393V21.1461L20.0901 21.0634L19.8419 20.9393ZM19.8833 20.5257V20.7738L20.1315 20.6498L19.8833 20.5257ZM16.6572 19.2849V19.4917L16.9054 19.409L16.6572 19.2849ZM21.6618 22.3041L21.455 22.3455L21.6204 22.5109L21.6618 22.3041ZM21.0414 23.9999L20.9587 23.8345L20.7932 23.9999H21.0414ZM21.1655 21.8492L21.2895 22.056L21.4136 21.8492H21.1655ZM21.8272 22.0973L21.9513 22.3041L22.0754 22.0973H21.8272ZM22.2408 21.3529L22.1167 21.477L22.3235 21.5597L22.2408 21.3529ZM21.9926 22.635L21.8272 22.5523V22.7591L21.9926 22.635ZM17.319 18.954L17.0708 19.1608L17.3604 19.3262L17.319 18.954ZM16.4918 19.2849L16.3677 19.2022L16.3264 19.3676L16.4918 19.2849ZM15.6646 18.8713L15.5819 18.7886L15.5405 18.954L15.6646 18.8713ZM15.4165 20.1534L15.4992 19.988L15.3337 20.0294L15.4165 20.1534Z" fill="#A84D3B"/>
<path d="M17.0294 19.2433L17.1122 19.4087L17.2776 19.2433H17.0294ZM16.5331 18.8297L16.6572 19.0778L16.864 18.871L16.5331 18.8297ZM16.4504 17.7129L16.285 17.9611L16.6158 18.0025L16.4504 17.7129ZM17.6912 19.7396L17.5671 19.8223L17.7326 19.905L17.6912 19.7396ZM18.0221 19.5741L17.898 19.6569L18.0221 19.7396V19.5741ZM18.3116 19.7396L18.1875 19.8223L18.353 19.905L18.3116 19.7396ZM17.7326 20.8149L17.6498 20.7322L17.6085 20.8976L17.7326 20.8149ZM15.251 19.4087L15.3337 19.5741L15.4578 19.4087H15.251ZM16.2023 18.4574L16.0782 18.5401L16.2436 18.6229L16.2023 18.4574ZM16.1609 20.0291L16.0368 19.9464L15.9955 20.1118L16.1609 20.0291ZM16.285 18.292L16.3677 18.4574L16.4918 18.292H16.285ZM16.6572 18.5401L16.7813 18.7056L16.9054 18.5401H16.6572ZM15.7473 18.0852L15.6232 18.2093L15.7887 18.2506L15.7473 18.0852ZM15.8714 17.6716L15.7473 17.5889L15.7059 17.7957L15.8714 17.6716ZM18.0634 19.9464V20.1118L18.2289 20.0291L18.0634 19.9464ZM18.8493 20.2772L18.6838 20.3186L18.8079 20.484L18.8493 20.2772ZM18.5184 19.9877L18.353 20.0291L18.477 20.1532L18.5184 19.9877ZM21.2481 21.2285H21.124L21.2481 21.394V21.2285ZM20.6691 20.939L20.545 20.9804L20.6277 21.1044L20.6691 20.939ZM18.7252 21.2699L18.6838 21.1044L18.5598 21.2699H18.7252ZM21.0413 23.2965L20.9586 23.1724L20.8759 23.2965H21.0413ZM18.5184 20.8149L18.4357 20.6908L18.3116 20.8149H18.5184ZM19.5937 20.6081V20.7736L19.7592 20.6908L19.5937 20.6081ZM20.2555 20.7322V20.939L20.4209 20.8563L20.2555 20.7322ZM21 21.1044L20.8345 21.1458L20.9586 21.2699L21 21.1044ZM20.4209 21.9316L20.3382 21.8076L20.2555 21.973L20.4209 21.9316ZM18.6425 21.8903V22.0971L18.8079 22.0144L18.6425 21.8903ZM19.4283 21.4767L19.3042 21.518L19.3869 21.6421L19.4283 21.4767ZM20.8345 21.8076L20.7932 21.6835L20.6691 21.8076H20.8345Z" fill="#A84D3B"/>
<path d="M24.5935 9.42195C24.5935 9.42195 25.7929 11.3659 25.9997 12.2758C26.1654 12.9385 26.2487 13.6192 26.2479 14.3024C26.2479 16.0395 26.1238 18.4797 25.917 19.8446C25.5034 22.2021 24.3867 23.6083 23.0632 24.0219C21.7397 24.4355 19.3408 23.567 17.7278 22.7398C16.3629 22.0367 15.5771 21.2922 15.3703 20.4236C15.1635 19.5137 14.7499 18.3556 14.7499 18.3556L14.8326 15.6673L18.0173 8.88428L24.5935 9.42195Z" fill="#EA9D7D"/>
<path d="M16.4043 16.9494C16.4043 16.9494 18.8031 14.261 20.3334 13.682C23.27 12.4825 26.1238 12.6066 26.1238 12.6066L25.3379 10.2078L18.555 10.4146L15.4116 15.2123L16.4043 16.9494Z" fill="url(#paint2_linear_637_1110)"/>
<path d="M13.8399 20.2995C15.0505 20.2995 16.032 19.244 16.032 17.942C16.032 16.64 15.0505 15.5845 13.8399 15.5845C12.6292 15.5845 11.6478 16.64 11.6478 17.942C11.6478 19.244 12.6292 20.2995 13.8399 20.2995Z" fill="#EA9D7D"/>
<path d="M13.8399 20.4651C12.5164 20.4651 11.441 19.307 11.441 17.9421C11.441 16.5773 12.5164 15.4192 13.8399 15.4192C15.1634 15.4192 16.2388 16.5773 16.2388 17.9421C16.2388 19.307 15.1634 20.4651 13.8399 20.4651ZM13.8399 15.7501C12.7232 15.7501 11.8133 16.7427 11.8133 17.9421C11.8133 19.1416 12.7232 20.1342 13.8399 20.1342C14.9566 20.1342 15.8665 19.1416 15.8665 17.9421C15.8665 16.7427 14.9566 15.7501 13.8399 15.7501Z" fill="#B76349"/>
<path d="M13.9639 18.9759C14.5122 18.9759 14.9566 18.513 14.9566 17.942C14.9566 17.3709 14.5122 16.908 13.9639 16.908C13.4157 16.908 12.9713 17.3709 12.9713 17.942C12.9713 18.513 13.4157 18.9759 13.9639 18.9759Z" fill="url(#paint3_linear_637_1110)"/>
<path d="M16.2387 16.4531L15.5356 17.0735L15.2461 19.3897L15.3702 20.0514C15.3702 20.0514 16.3628 19.5137 16.4455 18.4384C16.5282 17.363 16.2387 16.4531 16.2387 16.4531Z" fill="#EA9D7D"/>
<path d="M21.6982 24.2289C21.2433 24.2289 20.871 24.1461 20.0439 23.9393C18.5163 23.4905 17.105 22.7142 15.9079 21.6646C14.998 20.7547 15.0807 19.8861 15.0807 19.8447C15.0807 19.762 15.0807 19.6379 15.1634 19.6379C15.2461 19.6379 15.2875 19.7207 15.3289 19.8034C15.3702 19.9688 15.3702 20.6719 16.1147 21.4164C17.2658 22.4232 18.6199 23.1707 20.0852 23.6085C21.3674 23.898 21.6155 23.9807 22.5668 23.898C23.4767 23.8153 24.0144 23.443 24.0144 23.443C24.1385 23.3603 24.2625 23.319 24.1798 23.443C24.0971 23.5258 23.4353 24.0634 22.6082 24.1875C22.1946 24.2289 21.9464 24.2289 21.6982 24.2289Z" fill="#B76349"/>
<path d="M21.8224 17.9833L22.1119 17.7352L21.7397 17.5697L21.8224 17.9833ZM18.2241 17.8179L18.1 17.6111L17.9346 17.8179H18.2241ZM23.0218 18.2315L23.4354 18.4383V17.9833L23.0218 18.2315ZM21.9051 16.0808L22.4428 16.453L22.5669 15.7913L21.9051 16.0808Z" fill="#F4B9A6"/>
<path d="M21.905 15.7912L22.4427 15.4604L21.905 15.0468V15.7912ZM23.1458 19.4723L23.6835 19.1414L23.1458 18.7691V19.4723ZM23.6835 18.8105L23.8903 18.2315H23.2285L23.6835 18.8105ZM21.7396 17.6111L21.3673 17.6938L21.5741 17.9833L21.7396 17.6111ZM21.9464 17.1561L21.5741 17.2388L21.8223 17.5283L21.9464 17.1561ZM21.905 18.9346L22.0291 19.2655L22.3186 18.9759L21.905 18.9346ZM22.0705 19.555L22.36 19.7204L22.4013 19.3895L22.0705 19.555ZM23.7248 20.5476L23.394 20.6717L23.6421 20.9612L23.7248 20.5476ZM22.36 13.4751L22.2773 13.7646L22.6081 13.7233L22.36 13.4751ZM22.6909 15.5017H22.4013L22.5254 15.7912L22.6909 15.5017ZM22.9804 14.4677H22.6909L22.8149 14.7572L22.9804 14.4677ZM20.5815 15.0881L20.5401 15.419L20.9124 15.2949L20.5815 15.0881ZM21.3673 14.5091L21.0778 14.7159L21.4087 14.9227L21.3673 14.5091ZM20.0438 15.0054H19.837L19.9611 15.2122L20.0438 15.0054ZM23.1458 20.5476L22.8563 20.6717L23.0631 20.8785L23.1458 20.5476ZM22.8149 20.3822L22.5254 20.4649L22.7322 20.713L22.8149 20.3822ZM20.3747 18.5623L20.0438 18.6037L20.2506 18.8519L20.3747 18.5623ZM21.0365 19.1L20.7469 19.1827L20.9124 19.4309L21.0365 19.1ZM20.0852 17.6111L20.0438 17.9006L20.3747 17.8179L20.0852 17.6111ZM21.5741 17.3215L21.4914 17.0734L21.2433 17.2802L21.5741 17.3215ZM24.6348 19.7204L24.7588 19.555L24.4693 19.5136L24.6348 19.7204ZM23.4353 18.8519L23.6421 18.8932L23.6008 18.7278L23.4353 18.8519ZM25.2965 16.9907V17.1561L25.5033 17.0734L25.2965 16.9907ZM24.428 17.9006L24.6761 17.9419L24.5934 17.7351L24.428 17.9006Z" fill="#F4B9A6"/>
<path d="M25.3793 17.2801L25.4206 17.1147H25.2138L25.3793 17.2801ZM19.3408 15.7084L19.2581 15.8739H19.4649L19.3408 15.7084ZM22.0705 14.3849L22.4014 14.2609L22.1119 14.0127L22.0705 14.3849ZM22.4014 18.6036L23.1459 18.3968L22.5668 17.8178L22.4014 18.6036ZM21.8224 15.8325L21.5328 15.7498L21.6156 16.0807L21.8224 15.8325ZM19.6717 17.8178V17.5283L19.3821 17.6937L19.6717 17.8178ZM21.326 15.0053L21.3674 15.3362L21.7396 15.1294L21.326 15.0053ZM20.9124 15.6257V15.9566L21.2847 15.7498L20.9124 15.6257ZM21.2847 15.3776V15.7084L21.6569 15.5016L21.2847 15.3776ZM24.3453 15.0053L24.6348 15.1294V14.7985L24.3453 15.0053ZM21.8637 16.7838L21.6983 16.577L21.5328 16.8665L21.8637 16.7838ZM23.3113 20.2166L23.0218 20.2994L23.2286 20.5475L23.3113 20.2166ZM21.9878 18.4382L21.9051 18.645L22.1946 18.6036L21.9878 18.4382ZM22.3187 19.8444L22.1946 19.679L22.0292 19.8858L22.3187 19.8444ZM22.7323 20.0926L22.8977 19.9271L22.6495 19.8444L22.7323 20.0926ZM22.815 19.5549L23.0218 19.3895L22.7323 19.2654L22.815 19.5549Z" fill="#F4B9A6"/>
<path d="M22.7736 19.2654L23.0218 19.0586L22.7323 18.9346L22.7736 19.2654ZM22.6082 17.9833L22.815 17.8179L22.5255 17.6938L22.6082 17.9833ZM22.0705 18.1074L22.236 18.2314L22.3187 18.0246L22.0705 18.1074ZM24.5107 20.0513L24.2626 20.0926L24.4694 20.2994L24.5107 20.0513ZM23.2286 17.7351L23.1045 17.9419L23.394 17.9006L23.2286 17.7351ZM23.849 20.2167L23.7249 20.0513L23.5595 20.2994L23.849 20.2167ZM22.4014 21.0853L22.4428 21.3748L22.7323 21.168L22.4014 21.0853ZM21.6983 19.7618L21.4501 19.8445L21.6569 20.0099L21.6983 19.7618ZM19.0926 16.9907L18.9685 16.7839L18.8031 17.032L19.0926 16.9907ZM21.8637 20.3408L22.0705 20.4235V20.1754L21.8637 20.3408ZM21.1192 19.8858L21.326 19.9686V19.7204L21.1192 19.8858ZM19.8371 20.2167L19.713 20.4235H20.0025L19.8371 20.2167ZM20.7056 21.1266H20.4575L20.5402 21.3748L20.7056 21.1266ZM19.8785 21.4575L19.6303 21.4161L19.713 21.6643L19.8785 21.4575ZM22.1946 17.5697L22.6909 17.4043L22.2773 17.032L22.1946 17.5697ZM21.8224 16.4116L21.9878 16.6184L22.1119 16.4116H21.8224Z" fill="#F4B9A6"/>
<path d="M21.8637 16.8253L22.1532 17.2389L22.4428 16.784L21.8637 16.8253ZM23.27 15.9981L22.9391 16.329L23.4354 16.4944L23.27 15.9981ZM20.2093 16.8667V16.6185L19.9612 16.7426L20.2093 16.8667ZM22.815 16.6599L22.6496 16.8253L22.8977 16.908L22.815 16.6599ZM21.9051 15.2123L22.1532 15.1709L21.9464 14.9228L21.9051 15.2123ZM23.7249 15.8327L24.0144 15.75L23.8076 15.5432L23.7249 15.8327ZM21.7396 15.874L22.0292 15.7913L21.8224 15.5845L21.7396 15.874ZM23.7663 14.4678L24.0558 14.3851L23.849 14.1783L23.7663 14.4678ZM22.7736 13.8474L22.6082 14.0129L22.8564 14.0956L22.7736 13.8474ZM20.4989 14.716V14.4678L20.2507 14.5919L20.4989 14.716ZM20.8297 18.3556L20.7884 18.6865L21.1606 18.5624L20.8297 18.3556ZM20.3748 18.2315L20.0853 18.2729L20.2921 18.5211L20.3748 18.2315ZM21.0365 19.4723L20.9952 19.7618L21.2847 19.6791L21.0365 19.4723ZM21.4088 18.2729L21.4501 18.6038L21.781 18.397L21.4088 18.2729ZM21.1606 18.8933V19.2242L21.5329 19.0174L21.1606 18.8933ZM20.747 17.9834V17.7352L20.4989 17.8593L20.747 17.9834ZM24.428 15.9568L24.7175 15.9154L24.5107 15.6672L24.428 15.9568ZM23.3527 15.0468L23.4768 15.2123L23.6422 15.0055L23.3527 15.0468ZM25.5447 18.3143L25.7515 18.2315L25.5447 18.0661V18.3143ZM21.0779 14.6746V14.4264L20.8297 14.5505L21.0779 14.6746ZM22.815 15.1709L22.7736 15.4604L23.1045 15.3777L22.815 15.1709ZM22.4428 14.6332L22.4014 14.9228L22.7323 14.7987L22.4428 14.6332ZM22.6496 17.363L23.1872 17.7352L23.3113 17.1148L22.6496 17.363ZM23.849 17.4043L24.428 17.1975L24.0144 16.7426L23.849 17.4043ZM22.5255 17.6939L22.7323 17.7352L22.6909 17.5284L22.5255 17.6939ZM22.2773 16.5358L22.1946 16.7426H22.4841L22.2773 16.5358ZM22.7736 15.874L22.4841 15.9154L22.6909 16.2049L22.7736 15.874ZM23.6836 15.9981L23.394 16.0395L23.6008 16.329L23.6836 15.9981Z" fill="#F4B9A6"/>
<path d="M22.6082 16.453L23.2286 16.0808L22.5255 15.6672L22.6082 16.453ZM23.5181 14.0542L23.6422 13.7646H23.2286L23.5181 14.0542ZM23.0218 18.8105L23.1872 18.521L22.7736 18.4797L23.0218 18.8105ZM22.5255 17.2389L23.0218 16.9493L22.4427 16.5771L22.5255 17.2389ZM22.8563 14.7986L23.0218 14.9641L23.1045 14.7159L22.8563 14.7986ZM23.4767 15.2536L23.2286 15.6672L23.8076 15.7086L23.4767 15.2536ZM23.8903 14.6332L23.7662 14.84L24.0558 14.8814L23.8903 14.6332ZM24.1798 16.453L24.3453 16.6185L24.4694 16.3703L24.1798 16.453ZM23.394 14.385L23.2699 14.5918L23.5594 14.6332L23.394 14.385ZM19.713 16.8666L19.4648 16.9493L19.6716 17.1561L19.713 16.8666ZM20.168 15.6258L20.0025 15.874H20.3748L20.168 15.6258ZM20.747 15.5845L20.7056 15.3777L20.4988 15.5431L20.747 15.5845ZM20.4575 16.9493L20.3748 16.7012L20.168 16.908L20.4575 16.9493Z" fill="#F4B9A6"/>
<path d="M24.1385 10.9936L24.0971 11.2004L24.3039 11.1177L24.1385 10.9936ZM24.3453 11.4486L24.1798 11.3659L24.1385 11.5727L24.3453 11.4486ZM25.2138 10.6628L25.1311 10.4973L25.007 10.6628H25.2138ZM24.8416 11.035V11.2004L25.0484 11.0764L24.8416 11.035ZM25.5447 11.3659V11.5313L25.7101 11.4072L25.5447 11.3659ZM25.1725 11.4072L25.3379 11.4486V11.2418L25.1725 11.4072ZM24.6348 11.1177L24.4694 11.035V11.2418L24.6348 11.1177ZM25.462 11.1591L25.3793 10.9936L25.2552 11.2004L25.462 11.1591ZM23.973 11.3245L23.8076 11.2418L23.7662 11.4486L23.973 11.3245ZM21.1606 10.2905L21.0779 10.7041L21.5742 10.58L21.1606 10.2905ZM22.5668 10.9109L22.4427 11.0764L22.6909 11.1177L22.5668 10.9109ZM21.9464 10.8696L21.8637 11.1177L22.1119 11.0764L21.9464 10.8696ZM21.6569 11.6554L21.5742 11.8622L21.8637 11.8208L21.6569 11.6554ZM21.1192 11.4486L21.0779 11.6554L21.326 11.614L21.1192 11.4486ZM23.1045 11.0764H22.8563L22.939 11.2832L23.1045 11.0764ZM23.1045 11.035L23.2286 11.2832L23.4767 11.035H23.1045ZM24.8002 10.7041L24.8829 10.9109L25.0897 10.7455L24.8002 10.7041ZM23.8076 11.035L23.9317 11.2004L24.0558 10.9523L23.8076 11.035ZM22.3186 11.1591V11.3659L22.5668 11.2418L22.3186 11.1591ZM18.3068 11.7795V12.1104L18.6376 11.9449L18.3068 11.7795Z" fill="#A84D3B"/>
<path d="M25.2552 10.7041L25.0898 10.9523H25.3793L25.2552 10.7041ZM24.4694 10.8695L24.7176 11.035L24.8003 10.7041L24.4694 10.8695ZM22.8564 11.4486V11.614L23.0632 11.5313L22.8564 11.4486ZM21.3261 11.7795L21.2433 11.9449L21.4088 11.9863L21.3261 11.7795ZM21.0779 11.8622L20.9952 11.9863L21.202 12.0276L21.0779 11.8622ZM22.7323 11.1177L22.7737 11.2418L22.8564 11.1591L22.7323 11.1177ZM23.5595 11.1177L23.6422 11.2004L23.6836 11.0763L23.5595 11.1177ZM24.3453 10.9523L24.3867 11.035L24.4694 10.9523H24.3453ZM20.8711 11.6967L20.747 11.6554V11.8208L20.8711 11.6967ZM21.6983 11.1177L21.6569 11.4486L21.9878 11.3659L21.6983 11.1177ZM21.0365 11.6554L20.9125 11.5727L20.8711 11.7381L21.0365 11.6554ZM20.8297 11.5727L20.9125 11.4072H20.6643L20.8297 11.5727Z" fill="#A84D3B"/>
<path d="M22.0705 11.3247L22.1946 11.4488L22.2359 11.242L22.0705 11.3247ZM22.2773 10.9938L22.4427 11.0352L22.4014 10.8284L22.2773 10.9938ZM21.6982 11.0352L21.6155 11.2006L21.8223 11.1592L21.6982 11.0352ZM21.9464 11.6142L22.1118 11.6969V11.4901L21.9464 11.6142ZM20.6229 12.0692L20.4988 12.1519L20.6643 12.2346L20.6229 12.0692ZM21.5328 11.4488H21.3674L21.4501 11.6142L21.5328 11.4488ZM20.6643 11.4901L20.4575 11.6969L20.747 11.821L20.6643 11.4901ZM20.4161 11.9451L20.6229 11.9864L20.4988 11.7796L20.4161 11.9451ZM19.8371 12.1932H19.9611L19.9198 12.0692L19.8371 12.1932ZM20.0439 11.9864L20.292 12.0278L20.2093 11.7796L20.0439 11.9864ZM20.3747 12.4414L20.4161 12.5655L20.5402 12.5241L20.3747 12.4414ZM18.0586 13.1859V13.3513L18.224 13.3099L18.0586 13.1859ZM17.1487 14.7575V14.8816L17.3141 14.8403L17.1487 14.7575ZM19.5475 12.4414V12.6068L19.6716 12.5241L19.5475 12.4414ZM20.0852 12.276L20.292 12.3173L20.2507 12.1105L20.0852 12.276ZM19.0512 12.5241L19.2167 12.6068L19.1753 12.4L19.0512 12.5241ZM18.8858 12.1932L18.7617 12.1105V12.276L18.8858 12.1932ZM19.0926 12.1105L18.9685 12.0278L18.9271 12.1932L19.0926 12.1105ZM19.3821 12.3173L19.4648 12.1519H19.258L19.3821 12.3173ZM18.6376 12.5241L18.5136 12.6482L18.679 12.6896L18.6376 12.5241Z" fill="#A84D3B"/>
<path d="M18.679 11.9865L18.4722 12.1519L18.8031 12.276L18.679 11.9865ZM18.3068 12.4H18.5136L18.4309 12.1932L18.3068 12.4ZM18.8445 12.6896H19.0099L18.9272 12.5655L18.8445 12.6896ZM19.0512 12.3587H19.258L19.1753 12.1105L19.0512 12.3587ZM18.3895 12.8964V13.0204L18.5549 12.9791L18.3895 12.8964ZM18.2654 12.6896L18.4309 12.7723L18.3895 12.5655L18.2654 12.6896ZM18.1 13.0618L18.2654 13.1032L18.2241 12.8964L18.1 13.0618ZM21.6569 10.6216L21.6155 10.9111H21.9464L21.6569 10.6216ZM21.0779 11.1179L21.1606 11.2833L21.2847 11.0765L21.0779 11.1179ZM22.1119 10.7457L21.9878 11.0765H22.36L22.1119 10.7457ZM21.326 10.9938L21.4087 11.1593L21.5328 10.9525L21.326 10.9938ZM23.1872 11.6969H23.394L23.3527 11.5315L23.1872 11.6969Z" fill="#A84D3B"/>
<path d="M19.5889 12.2759L19.7543 12.3172L19.7129 12.1104L19.5889 12.2759ZM25.007 11.0351L25.1724 11.1178L25.2138 10.9524L25.007 11.0351ZM20.7469 11.366L21.1192 11.4073L20.9537 11.0764L20.7469 11.366ZM21.4914 10.6628L21.2846 10.911L21.6155 11.0351L21.4914 10.6628ZM22.0291 11.9864L21.905 11.945L21.8636 12.1104L22.0291 11.9864ZM17.8931 13.3512L17.8104 13.5167H18.0172L17.8931 13.3512ZM17.1486 13.7648L17.0659 14.013L17.3554 13.9716L17.1486 13.7648ZM17.3554 14.1371L17.2314 14.3025H17.4382L17.3554 14.1371Z" fill="#A84D3B"/>
<path d="M17.1073 14.1785L17.0246 14.344L17.2314 14.3853L17.1073 14.1785ZM17.0246 14.1785L16.9005 14.1372V14.2612L17.0246 14.1785ZM17.066 14.0131L16.9419 13.9304L16.9005 14.0958L17.066 14.0131ZM16.8592 13.9304L16.9419 13.7649H16.6937L16.8592 13.9304ZM17.5209 13.6822L17.6864 13.7236V13.5581L17.5209 13.6822ZM17.5623 13.8063H17.3968L17.4796 13.9717L17.5623 13.8063ZM17.2314 14.5508L17.1073 14.468L17.066 14.6748L17.2314 14.5508ZM21.3674 10.7457L21.2019 10.787L21.326 10.9525L21.3674 10.7457ZM21.4501 11.2006L21.3674 11.3247H21.5328L21.4501 11.2006ZM21.2847 10.9525L21.0365 10.787L20.9538 11.1179L21.2847 10.9525ZM21.8637 10.9938L21.7396 10.9525V11.1179L21.8637 10.9938ZM21.2019 11.1179L21.1192 11.242L21.2847 11.2833L21.2019 11.1179ZM22.0705 10.8284L21.905 10.6216L21.781 10.8697L22.0705 10.8284Z" fill="#A84D3B"/>
<path d="M14.8739 18.1487L14.9153 17.9833L14.7498 18.0247L14.8739 18.1487ZM14.1708 16.908L14.0054 16.9493L14.1295 17.1148L14.1708 16.908Z" fill="#964C38"/>
<path d="M14.1294 16.9907L13.9226 17.1975L14.2949 17.3216L14.1294 16.9907ZM13.7572 16.908L13.509 17.032L13.7158 17.2388L13.7572 16.908ZM14.8325 17.5284L14.7498 17.6524L14.9153 17.6938L14.8325 17.5284ZM14.4603 17.3629L14.3362 17.4456L14.5017 17.5284L14.4603 17.3629Z" fill="#964C38"/>
<path d="M14.7498 17.6523L14.6257 17.7764L14.7911 17.8178L14.7498 17.6523ZM13.7985 17.2801L13.7158 17.4042L13.8812 17.4455L13.7985 17.2801ZM13.6331 17.156L13.4263 17.3628L13.7158 17.4455L13.6331 17.156ZM14.2948 17.9418L14.3775 17.9832L14.4189 17.8591L14.2948 17.9418Z" fill="#964C38"/>
<path d="M14.7498 17.4042L14.7084 17.4869H14.8325L14.7498 17.4042ZM14.8325 17.8178L14.7912 17.9005H14.9152L14.8325 17.8178ZM13.3436 17.1147L13.2195 17.2801L13.4263 17.3628L13.3436 17.1147ZM13.7158 17.7764H13.5917L13.6744 17.8591L13.7158 17.7764ZM13.9226 18.1073L13.8812 18.0246L13.7985 18.0659L13.9226 18.1073ZM14.2535 17.1147L14.3776 16.9906L14.2121 16.9492L14.2535 17.1147ZM13.7572 17.0733L13.6744 17.1974L13.8399 17.2387L13.7572 17.0733ZM13.5504 17.1974L13.4263 17.156V17.2801L13.5504 17.1974Z" fill="#964C38"/>
<path d="M13.5503 17.1974L13.5917 17.0733L13.4263 17.1147L13.5503 17.1974ZM14.543 17.3629L14.6257 17.4869L14.7084 17.3629H14.543ZM14.3775 17.032L14.3362 17.2801L14.6671 17.1974L14.3775 17.032Z" fill="#964C38"/>
<path d="M14.2948 17.1975L14.3775 17.3216L14.4603 17.1561L14.2948 17.1975ZM13.2608 17.6111L13.1781 17.7352H13.3435L13.2608 17.6111ZM14.0053 16.9493L13.8812 16.908L13.9226 17.032L14.0053 16.9493ZM13.7571 17.6938L13.8399 17.7765L13.9226 17.6111L13.7571 17.6938ZM14.088 18.1901L14.0467 18.3142H14.1707L14.088 18.1901ZM13.2195 17.3216L13.1781 17.4043L13.3022 17.4456L13.2195 17.3216Z" fill="#964C38"/>
<path d="M13.633 18.1901L13.509 18.1488V18.3142L13.633 18.1901ZM13.1367 17.5284H13.2608L13.2194 17.4043L13.1367 17.5284Z" fill="#964C38"/>
<path d="M13.0127 18.0246L13.1368 17.9833L13.0541 17.8592L13.0127 18.0246ZM13.0954 17.5697H13.2195L13.1368 17.4456L13.0954 17.5697ZM13.3849 17.4456V17.5697L13.509 17.4869L13.3849 17.4456ZM13.0127 17.8178H13.1368L13.0954 17.6524L13.0127 17.8178ZM13.2195 17.8592V17.9833L13.3436 17.9005L13.2195 17.8592ZM14.0467 17.3629L13.9226 17.4042L14.0467 17.4869V17.3629ZM14.6257 17.9833L14.6671 18.1073L14.7912 18.0246L14.6257 17.9833ZM13.7985 17.032L13.8399 17.1974L13.964 17.1147L13.7985 17.032ZM14.2121 17.4869L14.1294 17.4042L14.088 17.5283L14.2121 17.4869Z" fill="#964C38"/>
<path d="M19.5475 15.047C19.5062 15.047 19.4235 15.047 19.3821 15.0056C19.258 14.9229 19.2167 14.7161 19.2994 14.592C19.3407 14.5507 20.0025 13.558 21.4914 13.6821C21.6569 13.6821 21.781 13.8475 21.781 14.013C21.781 14.1784 21.6155 14.3025 21.4501 14.3025C20.3334 14.2198 19.8371 14.9229 19.8371 14.9642C19.713 14.9642 19.6303 15.047 19.5475 15.047ZM25.6688 14.1371C25.6274 14.1371 25.5447 14.1371 25.5033 14.0957C25.1725 13.8475 24.6761 14.013 24.6348 14.013C24.4693 14.0543 24.3039 13.9716 24.2625 13.8062C24.2212 13.6407 24.3039 13.4753 24.4693 13.4339C24.5107 13.4339 25.2552 13.1858 25.8342 13.5994C25.9583 13.6821 25.9997 13.8889 25.9169 14.013C25.8756 14.0957 25.7515 14.1371 25.6688 14.1371Z" fill="#B4603F"/>
<path d="M21.0778 16.9911C21.3976 16.9911 21.6568 16.7318 21.6568 16.412C21.6568 16.0923 21.3976 15.833 21.0778 15.833C20.758 15.833 20.4988 16.0923 20.4988 16.412C20.4988 16.7318 20.758 16.9911 21.0778 16.9911Z" fill="#4F2B23"/>
<path d="M25.338 16.66C25.6577 16.66 25.917 16.4008 25.917 16.081C25.917 15.7612 25.6577 15.502 25.338 15.502C25.0182 15.502 24.7589 15.7612 24.7589 16.081C24.7589 16.4008 25.0182 16.66 25.338 16.66Z" fill="#4F2B23"/>
<path d="M23.4353 19.9273C23.3113 19.9273 23.1872 19.8445 23.1458 19.6791C23.1045 19.5137 23.2286 19.3482 23.394 19.3482C23.394 19.3482 23.8489 19.2655 23.8903 18.8933C23.9317 18.521 23.5594 17.487 23.3526 16.9494C23.2699 16.7839 23.3526 16.6185 23.5181 16.5771C23.6835 16.4944 23.8489 16.5771 23.8903 16.7426C23.973 16.908 24.5107 18.3142 24.4693 18.976C24.428 19.5964 23.8489 19.9273 23.5181 19.9686C23.4767 19.9273 23.4767 19.9273 23.4353 19.9273Z" fill="#B4603F"/>
<path d="M22.0292 21.7885C21.4868 21.7833 20.9606 21.6035 20.5285 21.2757C20.0964 20.9479 19.7814 20.4896 19.6303 19.9687C19.5889 19.8033 19.6717 19.6378 19.8371 19.5965C20.0025 19.5551 20.168 19.6378 20.2093 19.8033C20.3252 20.1965 20.5649 20.5417 20.8928 20.7876C21.2207 21.0336 21.6193 21.167 22.0292 21.1681C22.1946 21.1681 22.3187 21.3336 22.3187 21.4577C22.3187 21.6645 22.1946 21.7885 22.0292 21.7885Z" fill="#CF7653"/>
<path d="M11.5651 17.1976C11.5651 17.1976 10.5311 16.9494 10.1175 16.1222C9.70393 15.3364 10.407 14.1783 10.407 14.1783C10.407 14.1783 9.20761 13.9715 9.24897 12.5239C9.29033 11.2831 10.3243 11.1177 10.3243 11.1177C10.3243 11.1177 9.62121 10.0423 10.283 9.00836C10.9447 7.97437 12.0614 8.47068 12.0614 8.47068C12.0614 8.47068 11.3997 7.06445 12.5577 6.15454C13.5504 5.36871 14.5844 6.23726 14.5844 6.23726C14.5844 6.23726 14.4603 4.50015 16.032 4.12792C17.6036 3.75568 18.4308 5.20327 18.4308 5.20327C18.4308 5.20327 18.7203 3.92112 20.4161 4.00384C21.9464 4.08656 22.1945 5.45143 22.1945 5.45143C22.1945 5.45143 23.0217 4.50015 24.2625 4.91375C25.462 5.28599 25.5447 6.31998 25.5447 6.31998C25.5447 6.31998 27.1164 6.1959 27.654 8.22252C28.3571 10.7455 25.9169 12.1931 25.9169 12.1931L25.0897 10.5387C25.0897 10.5387 24.3866 11.1177 23.1458 11.1177C21.905 11.1177 21.1192 10.5387 21.1192 10.5387C21.1192 10.5387 20.9951 11.4899 20.0438 11.9863C19.0926 12.4826 18.1413 11.6967 18.1413 11.6967C18.1413 11.6967 18.5963 12.5239 17.9759 13.3098C17.3141 14.0956 16.6524 13.7234 16.6524 13.7234C16.6524 13.7234 17.7691 15.6673 16.6937 16.4117C15.4943 17.2389 15.5356 15.7913 14.3362 15.6259C13.0954 15.3777 12.1028 15.8327 11.5651 17.1976Z" fill="url(#paint4_linear_637_1110)"/>
<path d="M23.1459 4.87251L23.1046 5.12067L23.3941 5.20339L23.6422 4.78979L23.1459 4.87251ZM25.1725 7.43681L25.0071 7.35409L24.9657 7.56089L25.1725 7.43681ZM27.6128 7.93313L27.406 7.68497L27.2405 8.05721L27.6128 7.93313ZM24.883 7.89177V7.68497L24.6762 7.76769L24.883 7.89177ZM24.4694 5.49291L24.304 5.82379L24.6762 5.86515L24.4694 5.49291ZM23.8904 5.07931L23.7249 5.41019L24.0972 5.45155L23.8904 5.07931ZM25.9584 7.56089L25.7929 7.76769L26.0411 7.85041L25.9584 7.56089ZM23.1046 4.87251L22.7737 4.99659L23.0632 5.36883L23.1046 4.87251Z" fill="#C17959"/>
<path d="M22.6909 5.0794L22.3601 5.32756L22.7323 5.53436L22.6909 5.0794ZM20.8297 4.04541L20.8711 4.58309L21.3261 4.21085L21.0365 4.12813L20.8297 4.04541ZM15.2048 4.91396L15.453 5.32756L15.7839 4.91396H15.2048ZM21.4501 4.29357L21.3674 4.70716L21.7397 4.54173L21.4501 4.29357ZM19.4235 4.8726L19.3408 5.2862L19.713 5.12076L19.4235 4.8726ZM25.5448 6.15475L25.2139 6.03067L25.2552 6.44427L25.5448 6.15475ZM24.3867 5.94795V5.24484L23.8076 5.53436L24.3867 5.94795ZM25.2139 6.19611L24.8003 5.61708L24.5108 6.19611H25.2139Z" fill="#C17959"/>
<path d="M25.1725 6.07194L25.2139 5.65834L24.8417 5.82378L25.1725 6.07194ZM25.9584 6.85777L26.2065 7.23001L26.4547 6.81641L25.9584 6.85777ZM26.9924 6.94049L26.8269 7.47816L27.4059 7.4368L26.9924 6.94049ZM25.8756 7.14729L25.6275 7.4368L25.9584 7.56088L25.8756 7.14729ZM23.5595 6.69233L23.4354 6.85777L23.6422 6.89913L23.5595 6.69233ZM24.1385 7.56088L24.0145 7.72632L24.2213 7.76768L24.1385 7.56088ZM19.6303 4.08667L19.3408 4.54163L19.9199 4.66571L19.6303 4.08667Z" fill="#C17959"/>
<path d="M19.8371 4.58292L19.5889 4.99651L20.0852 5.07923L19.8371 4.58292ZM17.9759 4.707L17.9345 4.95516L18.224 4.87244L17.9759 4.707ZM15.9906 4.45884L15.9493 4.78972L16.2801 4.66564L15.9906 4.45884ZM15.3289 4.707L15.7425 4.87244L15.7838 4.41748L15.3289 4.707ZM16.3215 4.54156L16.2801 4.99651L16.7764 4.83108L16.3215 4.54156Z" fill="#C17959"/>
<path d="M16.3215 4.2522L16.2802 4.58307L16.6524 4.50035L16.3215 4.2522ZM14.419 6.07202L13.8399 5.90658V6.52698L14.419 6.07202ZM14.6671 5.69979L14.6258 6.11338L15.1221 6.07202L14.6671 5.69979ZM13.8399 5.86523H13.3436L13.5091 6.36154L13.8399 5.86523ZM20.2921 5.36891L20.168 5.53435L20.4161 5.57571L20.2921 5.36891ZM18.3481 5.07939L18.2241 5.24483L18.4722 5.28619L18.3481 5.07939ZM18.9272 5.45163L18.9685 5.20347L18.679 5.28619L18.9272 5.45163ZM26.041 6.89922L25.7515 7.23009L26.1651 7.39553L26.041 6.89922ZM26.8269 7.43689L26.6201 7.64369L26.951 7.80913L26.8269 7.43689ZM26.7442 8.34681L26.8269 8.51224L26.951 8.30544L26.7442 8.34681ZM27.1991 7.39553L27.075 7.76777L27.4886 7.68505L27.1991 7.39553ZM27.1991 7.89185L27.0337 7.76777L26.9923 7.97457L27.1991 7.89185ZM23.1045 7.23009L23.2699 7.31281V7.14737L23.1045 7.23009ZM22.4428 6.77514L22.4014 6.89922L22.5255 6.85786L22.4428 6.77514ZM23.8076 8.01593L23.6835 7.97457L23.7249 8.14001L23.8076 8.01593ZM22.7323 6.56834L22.6909 6.73378L22.8564 6.65106L22.7323 6.56834ZM24.7175 8.5536H24.5521L24.6762 8.67768L24.7175 8.5536ZM26.1651 8.42952L26.0824 8.30544L25.9997 8.38816L26.1651 8.42952ZM26.2065 7.72641L26.2478 7.97457L26.4546 7.80913L26.2065 7.72641ZM24.8003 5.07939L24.7589 5.53435L25.0898 5.32755L24.8003 5.07939ZM22.5668 6.07202L22.6496 6.32018L22.815 6.11338L22.5668 6.07202ZM26.9096 6.89922L26.7028 7.14737L27.0337 7.31281L26.9096 6.89922ZM25.8756 8.09865L25.7515 7.93321L25.6274 8.14001L25.8756 8.09865ZM26.6614 6.6097V6.85786L26.9096 6.8165L26.6614 6.6097Z" fill="#C17959"/>
<path d="M26.496 7.22994L26.6614 7.43673L26.7855 7.14722L26.496 7.22994Z" fill="#C17959"/>
<path d="M26.3719 6.94063L26.6201 7.23015L26.7855 6.85791L26.3719 6.94063ZM25.1725 7.31287L25.1311 7.51967H25.3379L25.1725 7.31287ZM25.7929 7.56103L25.5861 7.51967L25.6274 7.76782L25.7929 7.56103ZM20.9952 5.07945L20.8297 5.36896L21.1606 5.41032L20.9952 5.07945ZM22.4841 5.41032L22.3187 5.36896L22.36 5.57576L22.4841 5.41032ZM20.4161 4.91401L20.4575 4.29361L19.7544 4.58313L20.4161 4.91401ZM21.0365 4.29361L20.6229 4.12817L20.7056 4.62449L21.0365 4.29361ZM19.5476 4.78993L19.2581 4.66585L19.2994 5.03809L19.5476 4.78993ZM19.6717 4.83129L19.713 4.50041L19.3408 4.62449L19.6717 4.83129ZM19.5889 4.29361L19.2994 4.21089L19.134 4.29361L19.3408 4.58313L19.5889 4.29361ZM18.8445 5.16217L18.5136 5.03809L18.5549 5.41032L18.8445 5.16217ZM18.0173 4.62449L17.7277 4.41769L17.645 4.78993L18.0173 4.62449ZM16.9833 4.58313L16.6524 4.50041L16.6938 4.87265L16.9833 4.58313ZM17.4382 4.66585L17.1074 4.58313L17.1487 4.95537L17.4382 4.66585ZM14.998 5.20352L14.8326 5.12081L14.7085 5.45168L14.998 5.20352ZM16.2802 4.50041L16.4042 4.12817L15.9493 4.16953L16.2802 4.50041ZM16.1974 4.78993L15.7011 4.62449L15.7838 5.24489L16.1974 4.78993ZM14.9567 5.3276L15.3289 5.5344L15.3702 4.99673L14.9567 5.3276Z" fill="#C17959"/>
<path d="M14.7085 5.57565L15.1221 5.78245V5.28613L14.7085 5.57565Z" fill="#C17959"/>
<path d="M15.1221 5.53421L15.3702 5.90645L15.6184 5.45149L15.1221 5.53421ZM20.4161 4.50022V4.08662L20.0439 4.25206L20.4161 4.50022ZM19.6716 4.04527L19.9612 4.4175L20.1266 4.00391L19.6716 4.04527ZM17.2314 4.45886L17.5209 4.8311L17.7277 4.4175L17.2314 4.45886Z" fill="#C17959"/>
<path d="M17.1487 4.12817L17.1901 4.58313L17.6037 4.33497L17.1487 4.12817ZM15.3702 4.45905L15.7425 4.70721L15.6184 4.25225L15.3702 4.45905ZM22.1119 5.5344L22.2359 5.69984L22.3187 5.49304L22.1119 5.5344ZM22.9391 5.86528L23.0631 6.03072L23.1459 5.78256L22.9391 5.86528ZM22.9804 5.16217L22.6082 5.5344L23.1872 5.7412L22.9804 5.16217ZM21.781 5.07945L21.4915 5.20352L21.6983 5.41032L21.781 5.07945Z" fill="#C17959"/>
<path d="M21.3674 4.37622L20.9952 4.5003L21.2433 4.83118L21.3674 4.37622ZM21.9051 4.7071L21.5328 4.78982L21.781 5.12069L21.9051 4.7071ZM20.7884 4.54166L20.4575 4.7071L20.7884 4.99662V4.54166ZM20.2507 4.9139L19.9198 5.12069L20.2507 5.36885V4.9139Z" fill="#C17959"/>
<path d="M20.7885 4.99663L20.4576 4.78983L20.4162 5.20343L20.7885 4.99663ZM20.0026 5.24479L19.6717 5.03799L19.6304 5.45158L20.0026 5.24479ZM21.0366 4.74847L20.9125 4.70711V4.91391L21.0366 4.74847ZM21.1193 5.12071L20.9539 4.91391L20.7885 5.20343L21.1193 5.12071ZM21.3675 4.58303L21.0366 4.95527L21.5329 5.07935L21.3675 4.58303ZM22.0292 4.91391L21.8224 5.24479L22.236 5.3275L22.0292 4.91391ZM20.3749 4.66575L20.0853 4.78983L20.2921 4.99663L20.3749 4.66575ZM15.0395 4.74847L14.874 5.03799L15.2463 5.12071L15.0395 4.74847ZM15.9494 4.16943L15.7012 4.25215L16.0735 4.50031L15.9494 4.16943ZM15.329 4.45895L15.0808 4.70711L15.4944 4.74847L15.329 4.45895ZM23.27 6.56829L23.1046 6.52694V6.69237L23.27 6.56829ZM23.4768 6.44422L23.6423 6.56829L23.6836 6.3615L23.4768 6.44422ZM18.9273 6.03062L18.8446 6.19606H19.01L18.9273 6.03062ZM20.9953 5.65838L20.8712 5.61702L20.9125 5.82382L20.9953 5.65838ZM22.0292 5.41022L21.7811 5.36886L21.8638 5.61702L22.0292 5.41022ZM20.4576 5.45158L20.623 5.61702L20.6644 5.36886L20.4576 5.45158Z" fill="#C17959"/>
<path d="M20.4575 5.32741H20.7884L20.6229 4.99654L20.4575 5.32741ZM21.0779 5.12062L21.3674 5.36878L21.4501 4.99654L21.0779 5.12062ZM17.7278 4.8311L17.8519 4.95518L17.9346 4.74838L17.7278 4.8311ZM20.2094 5.86509L20.1266 6.03053H20.3334L20.2094 5.86509ZM21.4088 5.57557L21.3261 5.74101H21.5329L21.4088 5.57557ZM15.2876 7.85036L15.2048 7.97443H15.3703L15.2876 7.85036ZM20.5402 4.37614L20.7057 4.00391H20.2921L20.5402 4.37614ZM20.0026 5.61693L19.713 5.57557L19.7544 5.90645L20.0026 5.61693ZM19.7544 5.49285L19.9612 5.45149L19.7958 5.2447L19.7544 5.49285Z" fill="#C17959"/>
<path d="M19.7958 5.49282L20.0853 5.65826L20.1267 5.28602L19.7958 5.49282ZM18.4723 5.78234L18.6791 5.69962L18.5137 5.49282L18.4723 5.78234ZM19.0513 4.95514L19.1754 4.62427H18.8032L19.0513 4.95514ZM18.7618 6.60953L18.8032 6.73361L18.9272 6.60953H18.7618Z" fill="#C17959"/>
<path d="M18.9686 4.8726L18.8032 4.62445L18.5964 4.95532L18.9686 4.8726ZM16.5284 5.20348L16.6111 4.91396L16.2389 4.95532L16.5284 5.20348ZM16.6111 4.37629L16.7352 4.08677L16.3629 4.04541L16.6111 4.37629ZM20.4989 6.15475L20.5403 6.27883L20.6643 6.15475H20.4989ZM21.1607 6.19611L21.202 6.36155L21.3261 6.23747L21.1607 6.19611ZM19.6304 6.40291L19.4649 6.48563L19.6304 6.56835V6.40291ZM14.7499 8.92585L14.5845 9.00857L14.7499 9.09129V8.92585ZM20.0853 6.36155L19.9612 6.44427L20.1267 6.56835L20.0853 6.36155ZM23.1459 5.2862L23.3114 5.65844L23.5595 5.61708L23.6009 5.36892L23.1459 5.2862ZM24.3867 4.91396H24.0145L23.9731 5.12076L24.1386 5.32756L24.3867 4.91396ZM24.0558 4.78988H23.6422L23.6009 5.03804L23.7663 5.24484L24.0558 4.78988ZM24.3454 6.56835L24.0972 6.32019L23.9731 6.69243L24.3454 6.56835Z" fill="#C17959"/>
<path d="M23.7663 6.23747L23.5181 5.98931L23.394 6.36155L23.7663 6.23747ZM23.7663 5.2862L23.5181 5.03804L23.394 5.41028L23.7663 5.2862ZM24.3867 6.11339L24.1385 5.86524L24.0144 6.23747L24.3867 6.11339ZM23.0632 5.74116L22.815 5.53436L22.6909 5.90659L23.0632 5.74116ZM25.1725 7.80914L25.0898 7.68506L24.9657 7.8505L25.1725 7.80914ZM23.9731 6.27883L23.8904 6.19611L23.8076 6.36155L23.9731 6.27883ZM24.5935 6.89923L24.6348 7.10603L24.8003 6.94059L24.5935 6.89923ZM24.7175 5.03804L24.5107 4.95532L24.3453 5.20348L24.5935 5.493L24.7175 5.03804ZM25.5034 6.98195L25.9583 7.18874L25.6688 6.69243L25.5034 6.98195ZM26.0411 7.89186L26.0824 8.0573L26.2892 7.93322L26.0411 7.89186ZM24.5521 8.0573L24.3867 8.14002L24.5521 8.22274V8.0573ZM25.5034 6.03067L25.3793 5.94795L25.3379 6.11339L25.5034 6.03067ZM25.9583 6.89923L26.3306 6.69243L25.8756 6.44427L25.9583 6.89923ZM25.3793 7.56098L25.2552 7.72642L25.462 7.76778L25.3793 7.56098ZM25.0898 5.36892L24.883 5.65844L25.2966 5.61708L25.0898 5.36892ZM26.7028 7.80914L26.7442 8.0573L26.951 7.89186L26.7028 7.80914Z" fill="#C17959"/>
<path d="M26.9096 8.05718L27.075 8.26397L27.1578 8.01581L26.9096 8.05718ZM26.2892 7.47814L26.4546 7.64358L26.5787 7.39542L26.2892 7.47814ZM26.5787 8.30533L26.4546 8.18125L26.3719 8.34669L26.5787 8.30533ZM27.6954 8.18125L27.5714 8.01581L27.4886 8.22261L27.6954 8.18125ZM24.5107 7.39542L24.5521 7.60222L24.7175 7.43678L24.5107 7.39542ZM25.2966 6.44415L25.0484 6.60959L25.3379 6.81638L25.2966 6.44415ZM25.3379 8.13989L25.2139 8.01581L25.1311 8.18125L25.3379 8.13989ZM26.2478 6.40279L25.9583 6.32007L25.9997 6.65095L26.2478 6.40279Z" fill="#C17959"/>
<path d="M25.2553 6.23739L24.883 6.19603L25.0485 6.60963L25.2553 6.23739ZM25.4621 5.98924L25.338 5.617L25.1312 5.90652L25.4621 5.98924ZM22.3601 6.27875L22.3187 6.07196L22.1119 6.23739L22.3601 6.27875ZM23.4354 5.617L23.1873 5.98924L23.6836 6.11331L23.4354 5.617ZM23.27 6.11331L23.2286 6.23739H23.3527L23.27 6.11331ZM23.9731 6.77507L23.9318 6.94051L24.0972 6.85779L23.9731 6.77507ZM23.9318 5.49292H23.6009L23.5595 5.69972L23.7663 5.74108L23.9318 5.49292ZM24.5108 6.23739L24.4694 6.07196L24.304 6.19603L24.5108 6.23739Z" fill="#C17959"/>
<path d="M24.4693 6.85779L24.428 6.69235L24.2212 6.81643L24.4693 6.85779ZM24.3453 6.23739L24.5107 6.44419L24.6348 6.19603L24.3453 6.23739ZM25.7101 6.81643L25.9169 6.32011L25.5033 6.27875L25.7101 6.81643ZM26.1651 6.94051L26.5787 6.65099L26.2892 6.40283L26.1651 6.94051ZM22.36 5.65836L22.5668 5.78244V5.49292L22.36 5.65836ZM20.3334 5.90652L20.5402 5.98924V5.69972L20.3334 5.90652ZM23.6421 5.78244L23.8903 6.19603L24.1798 5.69972L23.6421 5.78244ZM25.2965 6.27875L25.2138 6.40283L25.3793 6.44419L25.2965 6.27875Z" fill="#C17959"/>
<path d="M25.0071 6.48553L24.6348 6.32009L24.7175 6.73369L25.0071 6.48553ZM25.4207 6.98185L25.2966 6.89913L25.2552 7.10593L25.4207 6.98185ZM24.1385 7.23001L24.0558 7.35409L24.2212 7.39544L24.1385 7.23001ZM25.6688 6.65097L25.3793 6.48553V6.85777L25.6688 6.65097ZM25.0071 6.98185L24.9243 7.14729L25.1311 7.18865L25.0071 6.98185ZM26.0824 7.51952L26.1238 7.72632L26.3306 7.60224L26.0824 7.51952ZM26.3719 7.68496L26.4133 7.8504L26.6201 7.72632L26.3719 7.68496ZM26.7028 7.35409L26.5787 7.4368L26.7028 7.56088V7.35409ZM26.5374 7.27137L26.2479 7.02321L26.1238 7.47816L26.5374 7.27137ZM26.496 8.09856L26.3719 7.97448L26.3306 8.18128L26.496 8.09856ZM27.075 7.47816L26.951 7.35409L26.9096 7.56088L27.075 7.47816ZM23.849 7.18865L23.7249 7.06457L23.6836 7.23001L23.849 7.18865ZM18.5136 6.60961L18.555 6.40281L18.3068 6.48553L18.5136 6.60961ZM16.1561 4.95522L15.8252 5.12066L16.1561 5.41018V4.95522ZM18.1827 5.61698L18.2654 5.24474L17.8518 5.36882L18.1827 5.61698ZM16.3629 6.27873L16.1561 6.60961L16.5283 6.69233L16.3629 6.27873ZM19.134 4.33483L18.8858 4.54163L19.2167 4.66571L19.134 4.33483ZM16.8178 7.51952L16.9419 7.60224L16.9833 7.4368L16.8178 7.51952ZM15.7425 6.73369L15.7011 6.85777H15.8666L15.7425 6.73369ZM17.521 7.4368L17.3969 7.39544L17.4382 7.56088L17.521 7.4368ZM16.6524 6.52689L16.611 6.77505L16.9006 6.69233L16.6524 6.52689ZM16.611 6.85777L16.5697 7.10593L16.8592 7.02321L16.611 6.85777ZM18.3482 7.31273L18.2241 7.35409L18.3068 7.47816L18.3482 7.31273ZM15.0394 5.78242L15.1635 6.19601L15.4943 5.86514L15.0394 5.78242ZM14.5017 7.76768L14.7085 8.0572L14.8739 7.68496L14.5017 7.76768ZM16.8592 4.08667L16.487 4.50027L17.066 4.66571V4.37619L16.8592 4.08667ZM16.611 5.24474L16.3629 5.53426L16.7351 5.65834L16.7765 5.36882L16.611 5.24474ZM16.6938 5.6997L16.3629 5.65834L16.1561 5.78242L16.4456 6.32009L16.6938 5.6997Z" fill="#C17959"/>
<path d="M15.1635 6.36159L14.9567 6.65111L15.3703 6.69247L15.1635 6.36159ZM16.5697 5.03809L15.9079 5.28624L16.3629 5.65848L16.5697 5.03809Z" fill="#C17959"/>
<path d="M15.9493 5.2862H15.7012L15.4944 5.493L15.908 5.78252L15.9493 5.2862ZM17.521 5.24484L16.9833 5.32756L17.3142 5.82387L17.521 5.24484ZM18.2655 4.95532L17.7278 5.03804L18.0587 5.53436L18.2655 4.95532ZM18.1828 5.78252L17.9346 5.61708L17.8932 5.94795L18.1828 5.78252Z" fill="#C17959"/>
<path d="M16.1561 6.27875L15.6598 6.0306L15.5357 6.32011L15.577 6.60963L16.1561 6.27875ZM15.2048 6.07196H14.7499L14.9153 6.52691L15.2048 6.07196ZM14.8326 6.36147L14.3776 6.07196L14.2535 6.65099L14.8326 6.36147ZM17.7691 5.94788V5.49292L17.3142 5.65836L17.7691 5.94788ZM17.4796 6.07196L17.645 5.90652L17.3969 5.78244L17.4796 6.07196ZM14.7912 6.94051L15.0394 6.69235L14.6671 6.52691L14.7912 6.94051ZM14.6258 7.51954L14.8326 7.31275L14.5431 7.18867L14.6258 7.51954ZM16.9006 6.44419L16.6524 6.11332L16.4042 6.52691L16.9006 6.44419Z" fill="#C17959"/>
<path d="M17.3142 6.73366L17.1487 6.4855L16.9419 6.77501L17.3142 6.73366ZM16.487 7.02317L16.2802 6.77501L16.0734 7.06453L16.487 7.02317ZM16.2802 5.49287L15.7839 5.57559L16.0734 6.0719L16.2802 5.49287ZM17.2728 4.70703L16.7351 4.78975L17.0246 5.28607L17.2728 4.70703ZM17.1487 5.45151L16.6524 5.57559L16.9419 6.0719L17.1487 5.45151ZM16.7765 5.8651L16.5697 6.11326L16.9006 6.23734L16.7765 5.8651ZM15.8666 7.39541L15.7011 7.31269V7.51949L15.8666 7.39541ZM15.6184 6.85773L15.4116 6.77501V7.02317L15.6184 6.85773Z" fill="#C17959"/>
<path d="M16.8178 6.48569L16.9833 6.65112L17.0246 6.40297L16.8178 6.48569ZM16.5697 4.95538L16.6524 5.16218L16.7765 4.99674L16.5697 4.95538ZM17.3969 6.03073L17.1073 5.78257L16.9833 6.15481L17.3969 6.03073ZM16.3629 6.03073H15.9906L16.1561 6.36161L16.3629 6.03073ZM16.0733 6.60976H15.7425L15.9079 6.94064L16.0733 6.60976ZM15.0807 7.02336H14.9153L14.9566 7.1888L15.0807 7.02336ZM15.5357 6.19617H15.2048L15.3702 6.52705L15.5357 6.19617ZM17.6037 5.49305L17.5209 5.36897L17.4382 5.53441L17.6037 5.49305ZM18.2654 5.90665L18.3481 6.07209L18.5136 5.94801L18.2654 5.90665ZM18.1827 6.7752L18.0173 6.89928L18.1827 6.982V6.7752ZM17.7277 6.19617L17.7691 6.40297L17.9345 6.23753L17.7277 6.19617ZM16.9833 5.36897L16.9005 5.07946L16.6524 5.28625L16.9833 5.36897ZM17.3969 4.8313L17.1073 5.0381L17.1487 5.20353L17.645 5.32761L17.3969 4.8313ZM17.5623 4.87266L17.5209 4.99674L17.6864 4.95538L17.5623 4.87266ZM17.2314 6.11345L17.1901 6.40297L17.4796 6.32025L17.2314 6.11345ZM17.3141 7.10608L17.2728 7.27152L17.4382 7.23016L17.3141 7.10608Z" fill="#C17959"/>
<path d="M17.7692 5.32756L17.6451 5.2862V5.493L17.7692 5.32756ZM19.6304 5.61708L19.5476 5.2862L19.2581 5.53436L19.6304 5.61708ZM19.6304 6.07203L19.589 5.86524L19.4236 5.98931L19.6304 6.07203ZM15.0808 7.68506L15.0394 7.51962L14.8326 7.6437L15.0808 7.68506ZM18.9686 4.99668L19.1754 5.2862L19.3408 4.95532L18.9686 4.99668Z" fill="#C17959"/>
<path d="M18.9272 5.5344L19.3408 5.45168L19.0927 5.1208L18.9272 5.5344ZM15.4117 5.98936L15.7839 6.1548V5.69984L15.4117 5.98936ZM17.5624 5.03809L17.6865 5.20352L17.8105 5.03809H17.5624ZM19.3408 5.7412L19.2168 5.65848V5.86528L19.3408 5.7412ZM14.9567 8.34686L14.7913 8.26414V8.47094L14.9567 8.34686ZM16.942 7.02335L16.8179 7.14743L17.0247 7.18879L16.942 7.02335ZM17.5624 6.60975L17.4383 6.48567L17.3969 6.65111L17.5624 6.60975ZM10.0349 9.87717L10.6553 9.83581L10.1176 9.38085L10.0349 9.87717ZM14.419 8.38822L14.2536 8.5123L14.4604 8.63638L14.419 8.38822ZM13.5918 6.65111L13.2196 6.94063L13.7159 7.14743L13.5918 6.65111ZM14.0468 8.42958L13.8814 8.3055L13.84 8.5123L14.0468 8.42958ZM14.1709 7.6851L13.9641 7.51967L13.8814 7.80918L14.1709 7.6851Z" fill="#C17959"/>
<path d="M10.8621 9.09131L11.0275 9.46355L11.3584 9.13267L10.8621 9.09131ZM13.5505 6.56837L13.7159 6.94061L14.0468 6.60973L13.5505 6.56837ZM14.2536 6.36157L14.3363 6.56837L14.5431 6.36157H14.2536ZM14.419 6.85789L14.5017 7.06469L14.6672 6.85789H14.419ZM9.53859 11.6556L9.33179 12.1519H10.0349L9.53859 11.6556ZM9.70402 12.6896L9.78674 13.3927L10.2831 12.8964L9.70402 12.6896ZM10.9034 12.5655L10.9862 12.7723L11.1516 12.6069L10.9034 12.5655ZM9.66266 13.4341L9.74538 13.6409L9.95218 13.4341H9.66266Z" fill="#C17959"/>
<path d="M9.41447 12.6481L9.49718 12.8549L9.70398 12.6481H9.41447ZM10.2417 12.5654L10.283 12.979L10.7793 12.7722L10.2417 12.5654ZM12.1028 8.13989V8.51213L12.4751 8.30533L12.1028 8.13989ZM11.5652 9.50476L11.3997 9.38069L11.3584 9.62884L11.5652 9.50476ZM11.5652 9.877L11.2343 9.58748L11.1929 10.0011L11.5652 9.877ZM11.7306 10.4147L11.5238 10.2079L11.4824 10.5388L11.7306 10.4147ZM12.9714 7.80902L13.3436 7.76766L13.1368 7.39542L12.9714 7.80902ZM13.1782 8.71893L13.2609 8.92573L13.385 8.76029L13.1782 8.71893ZM10.9861 11.6555L11.0689 11.8209L11.2343 11.6968L10.9861 11.6555ZM11.7306 12.2345H11.5238L11.6479 12.4413L11.7306 12.2345ZM11.1516 11.9863L10.9861 12.0277L11.1102 12.1931L11.1516 11.9863ZM10.8621 12.2345L10.6553 12.2759L10.7793 12.4413L10.8621 12.2345ZM9.29039 12.1931L9.24902 12.6481L9.91078 12.4827L9.29039 12.1931ZM10.7793 13.1858L10.8621 13.3512L11.0275 13.1858H10.7793ZM10.6966 13.2685L10.4898 13.4753L10.7793 13.558L10.6966 13.2685ZM13.7986 6.8991L13.9227 7.43678L14.419 6.98182L13.7986 6.8991ZM12.806 7.39542L13.3436 7.35406L13.0541 6.85774L12.806 7.39542ZM12.9714 6.77502L13.385 6.73367L13.1782 6.32007L12.9714 6.77502ZM14.2949 6.52687L14.0054 6.69231L14.3363 6.8991L14.2949 6.52687ZM10.8621 12.6895L10.9861 12.6481L10.8621 12.524V12.6895ZM10.3657 11.6141L10.5312 11.9863L10.8207 11.6141H10.3657ZM12.8887 10.4147L12.806 10.5388L12.9714 10.5801L12.8887 10.4147ZM12.806 9.95972L12.7232 10.0424L12.8887 10.0838L12.806 9.95972ZM11.7306 12.979L11.6479 13.1031L11.772 13.1444L11.7306 12.979Z" fill="#C17959"/>
<path d="M11.1103 12.2757L11.0689 12.3584L11.193 12.3998L11.1103 12.2757ZM11.3171 13.682L11.2343 13.7647L11.3998 13.806L11.3171 13.682ZM11.4825 11.5726L11.6066 11.6553L11.6479 11.4899L11.4825 11.5726ZM10.7794 12.1516L10.9862 11.8621L10.5726 11.7794L10.7794 12.1516ZM12.2683 10.7868L12.227 10.8695H12.3511L12.2683 10.7868ZM12.227 10.3318L12.1443 10.4145H12.3097L12.227 10.3318ZM14.5018 7.47801L14.295 7.39529L14.3363 7.6848L14.5018 7.47801ZM13.3437 8.05704L13.5918 8.13976L13.5505 7.8916L13.3437 8.05704ZM11.5652 8.34656L11.6893 8.80152L11.9375 8.42928L11.5652 8.34656ZM10.1176 11.2417L10.2831 11.4072L10.3658 11.159L10.1176 11.2417ZM9.70404 12.648L10.0763 12.772L10.0349 12.3584L9.70404 12.648ZM9.57996 11.614L9.9522 11.7794L9.91083 11.3245L9.57996 11.614ZM12.5579 6.98169V7.18849L12.806 7.10577L12.5579 6.98169ZM12.3097 7.02305V7.22985L12.5165 7.14713L12.3097 7.02305ZM13.9227 7.56073L13.5091 7.64345L13.7986 8.05704L13.9227 7.56073ZM13.2196 7.80888L12.8474 7.85024L13.0955 8.18112L13.2196 7.80888Z" fill="#C17959"/>
<path d="M13.5504 7.18875L13.3436 7.23012L13.4677 7.43691L13.5504 7.18875ZM12.5164 6.9406L12.5991 6.56836L12.1855 6.69244L12.5164 6.9406ZM12.7646 7.35419L12.3923 7.18875L12.4337 7.60235L12.7646 7.35419ZM12.351 7.10604L12.1028 6.7338L11.9374 7.18875L12.351 7.10604Z" fill="#C17959"/>
<path d="M12.2269 7.60236L12.3096 7.18877L11.9374 7.35421L12.2269 7.60236ZM13.3022 6.65109L13.5504 6.60973L13.385 6.40293L13.3022 6.65109ZM12.9714 6.73381L12.5991 6.77517L12.8059 7.10605L12.9714 6.73381ZM12.351 6.40293L12.5164 6.60973L12.6819 6.36157L12.351 6.40293Z" fill="#C17959"/>
<path d="M13.7159 6.19604L13.3437 6.56828L13.8814 6.77508L13.7159 6.19604ZM10.5312 12.8963L10.6139 13.1858L10.8621 12.9377L10.5312 12.8963ZM10.1176 11.2006L9.99354 11.3246L10.1176 11.4074V11.2006ZM10.4485 13.5581L10.3244 13.6408L10.4899 13.7235L10.4485 13.5581ZM10.5726 13.2685L10.4485 13.1445L10.4071 13.3513L10.5726 13.2685ZM9.91082 12.1518L10.3658 12.1105L10.0763 11.6555L9.91082 12.1518ZM10.3244 11.0351H10.6553L10.4485 10.7042L10.3244 11.0351ZM9.78674 12.1932L9.86946 12.6068L10.2831 12.3173L9.78674 12.1932Z" fill="#C17959"/>
<path d="M10.2003 11.9864L10.283 12.4827L10.6966 12.1104L10.2003 11.9864ZM10.4485 10.5388H10.1176L10.2417 10.911L10.4485 10.5388ZM10.7793 11.1592L10.4898 11.49L10.7793 11.5728V11.1592ZM10.6966 9.54614L10.3657 9.91838L10.6553 10.1252L10.6966 9.54614ZM9.45582 13.4753L9.91078 13.0204L9.24902 12.7308L9.45582 13.4753ZM9.5799 13.6407L9.9935 14.0543L10.2003 13.4753L9.5799 13.6407ZM10.6553 12.3586L10.4485 12.5654L10.738 12.6895L10.6553 12.3586ZM9.95214 13.2272L10.3657 13.4753V13.0617L9.95214 13.2272Z" fill="#C17959"/>
<path d="M11.0275 13.0617L11.1102 13.1858L11.2343 13.0617H11.0275ZM10.738 13.5994L10.6139 13.7235L10.7794 13.8062L10.738 13.5994ZM11.9788 9.13256L11.8961 9.33936L12.1442 9.38072L11.9788 9.13256ZM11.2757 8.6776L11.1516 8.92576H11.4411L11.2757 8.6776ZM10.738 9.04984L10.4485 9.54615L10.9034 9.58752L10.738 9.04984ZM11.9374 8.42944L11.8547 8.59488L12.0615 8.63624L11.9374 8.42944Z" fill="#C17959"/>
<path d="M11.5238 9.17401L11.1102 9.21537L11.317 9.5876L11.5238 9.17401ZM11.6893 8.80177L11.9374 8.92585V8.59497L11.6893 8.80177ZM9.99353 11.6142L10.4071 11.821V11.3247L9.99353 11.6142ZM10.5312 10.5389L10.8621 10.663L10.8207 10.2494L10.5312 10.5389Z" fill="#C17959"/>
<path d="M13.0955 8.47088L13.2196 8.51224V8.3468L13.0955 8.47088ZM12.351 8.30544L12.4751 8.38816V8.22272L12.351 8.30544ZM12.0615 8.09864L12.2683 8.18136V7.89185L12.0615 8.09864ZM10.6553 10.1253L10.8621 10.4148L10.9862 9.95983L10.6553 10.1253ZM11.5238 8.67768L11.3997 9.00856H11.7306L11.5238 8.67768ZM11.0689 9.04992V8.7604L10.7794 8.92584L11.0689 9.04992Z" fill="#C17959"/>
<path d="M11.1103 8.80178L11.0689 8.38818L10.6553 8.59498L11.1103 8.80178ZM11.8961 8.92586H11.772L11.8134 9.0913L11.8961 8.92586ZM11.5652 8.96722L11.4411 9.21538H11.8134L11.5652 8.96722ZM11.1516 9.54625L10.7794 9.5049L10.8207 9.91849L11.1516 9.54625ZM10.7794 14.0545L10.8621 13.889H10.6553L10.7794 14.0545ZM10.6139 14.9644L10.6553 14.7989H10.4899L10.6139 14.9644ZM10.3658 14.0545L10.4899 13.6822L10.0349 13.7236L10.3658 14.0545ZM10.738 15.2125L10.9035 15.2539L10.8621 15.0884L10.738 15.2125Z" fill="#C17959"/>
<path d="M10.5312 14.5506L10.6139 14.3852L10.4071 14.3438L10.5312 14.5506ZM10.6553 14.3025L10.7794 14.1784L10.5726 14.137L10.6553 14.3025ZM10.2003 14.013L10.4899 14.137L10.4485 13.8062L10.2003 14.013ZM10.3658 14.3438L10.2003 14.7574H10.6553L10.3658 14.3438ZM10.159 14.7988L10.0349 15.2537L10.4485 15.0883L10.159 14.7988ZM10.0349 15.626L10.159 16.1223L10.4071 15.7087L10.0349 15.626Z" fill="#C17959"/>
<path d="M10.1589 15.1296L10.283 15.5846L10.5312 15.2124L10.1589 15.1296ZM11.2343 14.4679L11.0275 14.592L11.2756 14.6333L11.2343 14.4679ZM10.9034 14.2611L10.6966 14.4265L10.9447 14.4679L10.9034 14.2611ZM10.6139 15.0056V15.1296L10.7793 15.0883L10.6139 15.0056ZM10.1176 10.456L10.5725 10.5387L10.5312 10.1251L10.1176 10.456ZM10.3657 8.96704L10.1589 9.33928L10.6139 9.38064L10.3657 8.96704Z" fill="#C17959"/>
<path d="M10.4485 9.91846L10.2831 10.3734L10.6967 10.3321L10.4485 9.91846Z" fill="#C17959"/>
<path d="M10.0349 9.95984L10.0763 10.4148L10.4071 10.1666L10.0349 9.95984ZM11.5239 10.0426L11.2343 10.0839L11.4411 10.3734L11.5239 10.0426ZM13.8814 7.10602L13.5505 7.18874L13.7986 7.47826L13.8814 7.10602ZM13.261 7.10602H13.4678L13.385 6.89923L13.261 7.10602ZM12.8887 5.98931L13.1369 6.32019L13.3437 5.86523L12.8887 5.98931ZM13.3437 7.35418L13.4264 7.68506L13.7159 7.4369L13.3437 7.35418ZM12.4338 6.32019L12.8474 6.48563V6.03067L12.4338 6.32019ZM11.9375 7.97458L12.3511 7.72642L11.8961 7.47826L11.9375 7.97458Z" fill="#C17959"/>
<path d="M14.0882 9.00856L13.8814 9.04992L14.0468 9.21536L14.0882 9.00856ZM13.5092 8.42952L13.3851 8.47088L13.4678 8.63632L13.5092 8.42952ZM11.1517 10.208L10.9862 10.2493L11.1103 10.4148L11.1517 10.208ZM11.0689 8.47088L11.3171 8.71904L11.4825 8.3468L11.0689 8.47088ZM12.682 6.48562L13.2196 6.65106L13.1369 6.07202L12.682 6.48562ZM10.3245 9.00856L10.8208 9.13264L10.7381 8.59496L10.3245 9.00856ZM12.1029 9.71167L12.3097 9.79439L12.2684 9.58759L12.1029 9.71167ZM14.0882 8.14001L14.295 8.22272L14.2536 8.01592L14.0882 8.14001ZM12.3511 8.01592L12.5579 8.18136L12.6406 7.89185L12.3511 8.01592ZM12.5579 7.51961L12.5165 7.80913L12.806 7.72641L12.5579 7.51961ZM12.1029 7.60233L12.3097 7.76777L12.3924 7.47825L12.1029 7.60233ZM11.9788 8.01592L12.1443 8.18136L12.2684 7.89185L11.9788 8.01592ZM12.2684 8.5536L12.1443 8.59496L12.227 8.7604L12.2684 8.5536ZM12.806 8.3468H12.6406L12.7233 8.51224L12.806 8.3468ZM11.8134 10.3734L12.0202 10.4561L11.9788 10.208L11.8134 10.3734ZM11.6893 9.33943V9.58759L11.9788 9.50487L11.6893 9.33943Z" fill="#C17959"/>
<path d="M11.2343 10.001L11.0275 9.67017L10.8621 10.0838L11.2343 10.001ZM11.772 10.8282L11.8961 10.9937L12.0201 10.8282H11.772ZM11.0689 10.1251L10.9861 10.3319L11.2343 10.3733L11.0689 10.1251Z" fill="#C17959"/>
<path d="M10.9447 10.1664L11.1102 10.2491V10.0837L10.9447 10.1664ZM10.9447 10.4146L10.7793 10.7868L11.1929 10.7041L10.9447 10.4146ZM11.0688 11.0763L11.2342 11.159V10.9109L11.0688 11.0763ZM11.6478 9.91825L11.896 10.001L11.8546 9.71145L11.6478 9.91825ZM11.3997 11.4072L11.6065 11.4899L11.5651 11.2831L11.3997 11.4072ZM11.1929 10.4559V10.6214L11.3583 10.58L11.1929 10.4559ZM12.9714 7.56075L12.5578 7.47803L12.6818 7.93298L12.9714 7.56075ZM12.93 8.80154H12.7646L12.8886 8.96698L12.93 8.80154ZM11.7306 10.8282L11.6065 10.8695L11.6892 11.035L11.7306 10.8282Z" fill="#C17959"/>
<path d="M9.2537 31.6514C9.2537 31.6514 2.76023 34.4638 -3.07148 37.7312C-9.02727 40.9987 -11.1366 43.4389 -12.6669 45.6723C-14.404 48.3193 -14.5695 52.1658 -14.6522 58.0802C-14.7349 63.9946 -14.1559 76.1957 -14.1559 76.1957C-14.1559 76.1957 -14.8176 78.76 -13.9491 81.862C-13.0805 84.9226 -12.6669 85.1708 -12.5015 85.6257C-12.2947 86.0393 -11.7984 85.543 -11.7984 85.543C-11.7984 85.543 -11.331 86.6928 -10.7933 86.7342C-10.2557 86.7755 -10.3094 86.1221 -10.3094 86.1221C-10.3094 86.1221 -9.73039 86.3702 -9.39951 86.2875C-9.06864 86.2048 -8.90319 84.8813 -9.02727 84.0127C-9.15135 83.1442 -8.73775 80.9107 -8.69639 80.4558C-8.65503 80.0422 -8.14631 81.3781 -7.89815 82.0399C-7.65 82.7016 -6.79385 82.9498 -7.00065 81.709L-7.37289 79.0082C-7.4556 78.6773 -7.53832 77.817 -7.78648 77.238C-7.99328 76.659 -8.20008 76.6507 -8.20008 76.6507C-8.20008 76.6507 -8.44824 76.1957 -8.15872 74.9136C-7.8692 73.6314 -4.56043 60.5204 -3.94003 58.6179C-3.1542 56.1363 0.320009 52.8689 2.18119 51.7935C5.53133 49.891 12.7279 46.1273 12.7279 46.1273L9.2537 31.6514Z" fill="#EA9D7D"/>
<path d="M-9.10999 39.551C-9.10999 39.551 -2.16156 33.4711 2.96704 30.7C8.09564 27.9289 13.4724 25.0338 18.3115 30.7C23.1506 36.3663 17.4843 42.8184 13.9687 46.3754C10.4531 49.9323 4.99366 54.8541 4.99366 54.8541L-9.10999 39.551Z" fill="url(#paint5_linear_637_1110)"/>
<path d="M14.0101 46.4168C17.5257 42.8599 23.192 36.4492 18.3529 30.7415C14.2583 25.9438 9.79146 27.2673 5.40733 29.4594C5.40733 29.4594 2.59488 32.6027 -1.04477 37.8967C-2.82324 40.461 -3.19548 42.6117 -4.18811 44.8865L5.0351 54.8542C5.0351 54.8542 10.4946 49.9324 14.0101 46.4168Z" fill="url(#paint6_linear_637_1110)"/>
<path d="M1.23004 69.0405C1.23004 69.1232 1.18867 69.4127 1.14731 69.4954V69.5368C1.14731 69.6609 1.10596 69.7022 1.10596 69.7436V69.7849H34.5659C34.5659 69.7849 31.2985 48.6915 30.1404 43.8938C28.7756 38.3102 26.5008 24.7856 16.3677 25.0751C14.6719 25.1165 12.9762 25.1992 11.3632 26.2332C11.3218 26.2332 10.4532 26.895 10.3292 26.9777C9.62605 27.5567 7.18583 30.3692 5.20056 41.2468C4.33201 46.1272 1.23004 69.0405 1.23004 69.0405Z" fill="url(#paint7_linear_637_1110)"/>
<path d="M9.83276 35.0842L12.852 57.0049C12.852 57.0049 17.2775 57.0049 18.7251 61.1408C20.09 65.1114 20.9585 69.785 20.9585 69.785L34.5659 69.8264L33.6559 58.0388L9.83276 35.0842Z" fill="url(#paint8_linear_637_1110)"/>
<path d="M13.1416 54.4818C13.1416 54.4818 10.1223 45.7549 9.50192 39.9646C8.88153 34.1329 8.21977 28.0944 15.3336 25.7782C22.4061 23.4207 26.2526 31.1136 28.1965 35.7045C30.1404 40.2955 32.622 47.2025 32.622 47.2025L13.1416 54.4818Z" fill="url(#paint9_linear_637_1110)"/>
<path d="M13.1003 26.8123C13.1003 26.8123 12.9348 32.4785 16.6572 39.5097C20.3796 46.5408 26.3767 49.4774 26.3767 49.4774L13.183 54.4819C13.183 54.4819 10.536 46.2513 9.87423 41.9913C9.21248 37.7726 9.0884 33.7607 10.1637 30.7414C11.2391 27.6808 13.1003 26.8123 13.1003 26.8123Z" fill="url(#paint10_linear_637_1110)"/>
<path d="M12.9348 54.6059C12.8935 54.4818 9.58471 44.0592 9.04703 37.1521C8.55072 30.6586 11.4459 27.9702 11.57 27.8462L11.9836 27.5566C12.1077 27.5566 11.9422 27.7221 11.8595 27.8462C11.8181 27.8875 8.92296 30.8654 9.37791 37.1934C9.87423 44.0591 13.183 54.3163 13.2244 54.4404L12.9348 54.6059Z" fill="url(#paint11_linear_637_1110)"/>
<path d="M7.7235 43.4389L8.09574 43.1493L7.59942 43.0253L7.7235 43.4389ZM4.53881 55.3504L4.95241 55.4745L4.86968 54.9782L4.53881 55.3504ZM8.26118 53.4479L7.88894 53.7788L8.30254 53.9442L8.26118 53.4479ZM7.47534 38.3103L7.43399 38.5584L7.7235 38.4757L7.47534 38.3103ZM7.35126 37.6071L7.10311 37.6485L7.26855 37.8967L7.35126 37.6071ZM6.06912 47.1199L5.5728 46.9958L5.65552 47.4094L6.06912 47.1199ZM9.95692 43.9765V43.687L9.75013 43.8111L9.95692 43.9765ZM9.83284 46.2927H10.0396L9.95692 46.0859L9.83284 46.2927ZM9.54333 45.0932L9.58469 45.2587L9.70877 45.1346L9.54333 45.0932ZM10.9909 45.7964V45.6309L10.8668 45.7136L10.9909 45.7964ZM7.76486 39.3443L7.88894 39.5511L7.80622 39.7579L8.17846 39.7165L8.01302 39.427L8.05438 39.3029L7.76486 39.3443ZM7.30991 36.5732V36.2423L7.02039 36.4491L7.30991 36.5732ZM7.68214 34.7533L7.47534 34.5879L7.43399 34.836L7.68214 34.7533ZM9.12973 36.5732L9.25381 36.325H9.00565L9.12973 36.5732ZM6.93767 53.9442L7.06175 53.6547L6.81359 53.6961L6.93767 53.9442ZM4.45609 53.572L4.33201 53.9029H4.62153L4.45609 53.572ZM7.59942 50.5114L7.64079 50.7595L7.88894 50.5941L7.59942 50.5114ZM4.45609 51.7935L4.29065 51.8762L4.49745 52.0417L4.45609 52.083L4.78696 52.2485V51.8349H4.74561L4.78696 51.7522L4.45609 51.7935ZM5.73824 56.0122L5.53144 55.4332L5.65552 55.3091L5.28328 55.185L5.40736 55.5986L5.53144 55.4745L5.366 55.7227L5.32464 55.64L5.15921 55.9295H5.28328L5.24192 55.9708L5.73824 56.0122ZM6.4 55.1023L6.64815 54.9369L6.35863 54.8541L6.4 55.1023ZM6.89631 51.4213H6.68951L6.85495 51.5867L6.89631 51.4213ZM6.60679 50.3873L6.77223 50.3046L6.60679 50.2632V50.3873ZM6.52407 48.0711V47.8643L6.35863 47.9471L6.52407 48.0711ZM7.68214 45.6723L7.84758 45.8377L7.88894 45.6309L7.68214 45.6723ZM8.50934 46.4995L8.42662 46.6649L8.63342 46.6236L8.50934 46.4995ZM6.11047 45.8377L6.27592 45.7964L6.1932 45.6723L6.11047 45.8377ZM10.1637 48.0711L9.99829 47.9884L10.0396 48.1952L10.1637 48.0711ZM9.12973 49.9737H9.17109L9.29517 49.6015L8.92293 49.6428L9.04701 49.8496H9.00565L9.12973 49.9737ZM8.09574 48.3193L8.05438 48.4847L8.21982 48.4434L8.09574 48.3193ZM9.25381 52.7861L9.21245 52.9516L9.37789 52.9102L9.25381 52.7861ZM8.7575 51.1731L8.5507 51.2145L8.63342 51.3386L8.7575 51.1731ZM6.06912 54.1924H6.56543L6.35863 53.8201L6.06912 54.1924ZM5.82096 55.2677L5.69688 55.5159H5.86232L5.90367 55.6813L6.11047 55.4745L5.90367 55.3918L5.82096 55.2677ZM5.40736 57.7493L5.44872 57.7079L5.53144 57.9147L5.7796 57.6252L5.61416 57.5839L5.7796 57.3771L5.24192 57.2116L5.366 57.1289L5.11784 56.9635L5.07648 57.2944L5.24192 57.2116L5.40736 57.7493ZM6.02775 57.0462L5.82096 57.1703L5.9864 57.253L6.02775 57.0462ZM5.65552 52.7034L5.366 52.8689L5.61416 52.9929L5.65552 52.7034ZM5.73824 46.6236L5.44872 46.6649V46.6236L4.95241 47.1612L5.5728 47.3267L5.49008 46.789L5.5728 46.9131L5.73824 46.6236ZM6.77223 45.4655L6.64815 45.2173L6.48271 45.4241L6.77223 45.4655Z" fill="#D17A69"/>
<path d="M7.18585 47.4507V47.7402L7.39265 47.5748L7.18585 47.4507ZM5.57282 46.1272L5.40738 46.334L5.6969 46.4167L5.57282 46.1272ZM6.1105 48.3606V48.4847L5.40738 48.2779L5.61418 48.8156L5.57282 48.7742L5.73826 49.2705L5.77962 49.2292L5.82098 49.3533L6.44137 48.6088L6.19322 48.5261L6.27594 48.4434L6.1105 48.3606ZM6.77225 41.6604L6.60682 41.9085L6.93769 41.9912L6.77225 41.6604ZM7.39265 44.3901V44.721L7.64081 44.5142L7.39265 44.3901ZM7.02041 41.9912H7.30993L7.18585 41.7017L7.02041 41.9912ZM8.6748 41.04L8.8816 41.2054V41.04L9.17112 40.9986L8.92295 40.6264L8.6748 41.04ZM7.47537 41.04L7.68216 41.2468L7.72353 40.9573L7.47537 41.04ZM7.51673 42.9425L7.43401 42.9012V42.8598L7.22721 42.8184L7.06177 42.7771L7.18585 43.1493L7.22721 43.108V43.1493L7.51673 42.9425ZM4.95243 50.5527L5.11787 50.2632L4.78699 50.3459L4.95243 50.5527ZM8.34392 30.3278L8.2612 30.7414L8.75752 30.6587L8.34392 30.3278ZM9.54335 29.0457H9.75015L9.37791 28.3426L9.00567 28.9216L9.46063 29.0043L9.54335 29.0457ZM8.34392 31.61L8.59208 31.9408L8.75752 31.61H8.63344L8.6748 31.155L9.04703 31.3204L9.0884 30.8241L8.71616 31.0723L8.75752 30.8655L8.59208 30.9482L8.468 30.8241L8.42664 31.0309L8.13712 31.1964L8.17848 31.2377L8.01304 31.3618L8.34392 31.61ZM8.38528 31.61V31.4859L8.59208 31.61H8.38528ZM10.4533 27.929L10.3292 28.1771L10.6187 28.1358L10.4533 27.929ZM8.71616 32.189L8.79887 31.8581L8.50936 32.0236L8.71616 32.189ZM8.2612 32.8094L8.38528 32.9748L8.42664 32.768L8.2612 32.8094ZM8.8816 33.8847H9.0884L9.00567 33.7607L8.8816 33.8847ZM8.13712 34.7947L7.80624 34.5465L7.84761 35.4151L8.50936 35.0428L8.21984 34.836L8.2612 34.7947H8.13712ZM8.63344 34.5051L8.468 34.6706L8.71616 34.7533L8.63344 34.5051ZM9.04703 37.0281L9.2952 36.8626L9.0884 36.7386L9.04703 37.0281ZM7.93033 36.9454L7.72353 36.8213V37.1108L7.93033 36.9454ZM4.45611 62.4229L4.37339 61.9266L4.04251 62.2575L4.45611 62.4229ZM4.70427 59.6518L4.37339 60.0241L4.78699 60.1481L4.70427 59.6518ZM4.08387 61.0994L4.37339 61.0167L4.12524 60.8513L4.08387 61.0994ZM7.14449 61.6371L6.81361 61.6785L7.06177 61.9266L7.14449 61.6371ZM5.2833 61.4717L5.11787 61.7198L5.36603 61.7612L5.2833 61.4717ZM7.47537 59.2796H7.14449L7.39265 59.5277L7.47537 59.2796ZM5.40738 59.3209L5.65554 59.3623L5.57282 59.1141L5.40738 59.3209ZM7.47537 65.649L7.59945 65.3595L7.26857 65.4008L7.47537 65.649ZM7.14449 63.4983L7.18585 63.7464L7.43401 63.6224L7.14449 63.4983ZM6.81361 69.2473L6.89633 68.9577L6.56545 68.9991L6.81361 69.2473ZM5.03515 68.7509L4.8697 68.9991L5.0765 69.0405L5.03515 69.4541L5.44874 69.2886L5.11787 68.9991L5.03515 68.7509ZM6.73089 67.2206L6.44137 67.1379L6.48274 67.3861L6.73089 67.2206ZM5.94506 68.0478L6.15186 68.296L6.27594 68.0065L5.94506 68.0478ZM4.20795 68.0892L4.45611 68.1306L4.37339 67.8824L4.20795 68.0892ZM5.77962 66.1867L5.82098 66.4348L6.06914 66.2694L5.77962 66.1867ZM4.49747 64.9872L4.45611 64.9045L4.29067 65.194H4.41475L4.37339 65.2354L4.91107 65.3181L4.70427 64.7391L4.49747 64.9872ZM5.73826 64.2427L5.44874 64.16L5.4901 64.4082L5.73826 64.2427ZM3.87708 63.0433L3.95979 63.3742L4.24931 63.126L3.87708 63.0433ZM4.91107 62.547L4.74563 62.8365L5.0765 62.7952L4.91107 62.547Z" fill="#D17A69"/>
<path d="M6.44133 37.9793L7.02037 37.483L6.56541 37.2762L7.26852 37.1521L7.47532 37.9379L8.05436 37.4416L7.35124 37.1107L7.5994 37.0694L6.81357 36.3662L6.77221 35.9526L6.56541 36.1594L6.39997 35.994L7.76484 35.7458L7.88892 36.2008L7.55804 36.0354L7.64076 35.8699L7.30989 35.9113V35.9526L7.51668 36.7798L8.09572 36.2835L7.97164 36.2008L8.50931 35.7045L7.76484 35.3736L7.8062 35.4563L7.02037 34.7532L7.47532 34.8773L7.3926 34.3396L8.4266 34.2155L8.09572 33.8847H8.05436L7.55804 33.3883L7.68212 33.3056V33.3883L8.30251 32.9747L8.2198 32.9334L8.30251 32.7266H8.79883L8.84019 32.8507L9.12971 32.6025L8.75747 32.4371V32.5198L7.93028 31.4031L7.35124 32.7266H7.64076L7.68212 33.2643L7.3926 33.1815L7.26852 33.0575L6.85493 34.4223L7.10309 34.381L6.89629 34.5464L6.97901 34.5878L6.89629 34.6705L6.81357 34.5878L6.52405 35.994L6.48269 35.9526L6.15181 37.3589L6.39997 37.3175L6.44133 37.9793ZM7.3926 44.2659L6.56541 44.0178L6.89629 44.845L7.3926 44.2659ZM6.93764 42.8183L7.5994 42.2393L6.89629 41.9498L6.93764 42.8183ZM6.31725 43.9351L6.60677 43.6869V43.7283H6.93764L6.85493 43.4801L7.02037 43.356L6.31725 43.0665V43.9351ZM8.26116 40.4608L8.17843 39.7577L7.68212 40.254L8.26116 40.4608ZM9.04699 42.9838L9.12971 43.356L9.46059 43.1492L9.04699 42.9838ZM8.2198 44.1005L7.97164 44.5141H8.13708L8.09572 44.5968H8.26116L8.17843 44.7622H8.46796L8.4266 44.5968L8.92291 44.6795L8.63339 43.811L8.34388 44.2246L8.2198 44.1005ZM6.48269 46.5821L6.60677 46.4166L6.93764 46.4994L6.97901 46.6234L7.06172 46.5407H7.14444L7.02037 45.8376L6.64813 46.2512L6.35861 46.1685L6.39997 46.2512L5.61414 46.003L5.82093 46.6234L5.77958 46.6648H5.82093L5.90365 46.8302L6.02773 46.7062H6.06909V46.6648L6.39997 46.2926L6.48269 46.5821Z" fill="#D17A69"/>
<path d="M7.68217 39.4683L6.60682 39.1788L7.06178 40.2542L7.68217 39.4683ZM5.03516 42.4462L5.20059 42.4049L5.15924 42.8185L5.61419 42.653L5.82099 42.7358L5.73827 42.2808L6.27595 42.1567L5.98643 42.4462L6.44138 42.5703V42.6117H6.77226L6.60682 42.4462L6.56546 41.9086L6.48274 41.9913L6.19323 41.7431L6.44138 41.5777L6.1105 41.495L6.15187 41.7018L5.98643 41.5777L5.94507 41.4536L5.90371 41.5363L5.77963 41.4536L5.86235 41.4122L5.73827 41.3709L6.06915 40.9986L6.23458 41.04L6.19323 40.5851L6.7309 40.461L6.85498 40.5023L6.81362 40.461L6.89634 40.4196L6.77226 40.3369L6.89634 40.2542L6.60682 40.1715V40.2128L6.35866 40.006V39.8819L6.27595 39.9233L6.1105 39.7992L6.56546 39.2615L5.98643 39.0961L6.7309 38.972L6.81362 39.1375L6.97906 38.9307L7.18586 38.8893L7.10314 38.8066L7.30994 38.5584H7.26858L7.39266 38.3103L7.10314 38.3516V37.8139L6.5241 38.2689L6.9377 38.4343L6.68954 38.3516H6.64818L6.06915 37.8139L6.35866 37.7312L6.1105 37.5244L6.06915 37.7726H6.02779L5.69691 39.1788L5.82099 39.1375L5.90371 39.427L5.77963 39.5097L5.61419 39.3856L5.40739 40.7505L5.28331 40.7091L5.49011 41.2054L5.32467 41.0814L5.03516 42.4462ZM5.28331 42.4049L5.20059 42.3635L5.32467 42.3222L5.28331 42.4049ZM7.10314 38.3103L7.18586 38.4343L7.10314 38.393V38.3103ZM5.90371 39.427L6.02779 39.6751L5.86235 39.5511L5.90371 39.427ZM5.73827 40.6264L5.61419 40.7505L5.44875 40.7091L5.73827 40.6264ZM7.97169 41.8672L8.67481 41.8258L8.38529 41.2882L7.97169 41.8672ZM9.17112 43.8525L9.00568 43.5629L8.79888 43.8938L9.17112 43.8525ZM8.84024 42.9012L8.75753 42.8185H9.00568L8.84024 42.5703V42.4876L8.59208 42.6117L8.63345 42.653L8.42665 42.9839L8.84024 42.9012ZM8.26121 34.0502L8.84024 33.5953L8.09577 33.223L8.26121 34.0502ZM8.71616 30.3692L9.25384 29.997H9.33656L9.46064 30.0797L9.58472 29.3766L8.96432 29.7488V29.542L8.79888 29.6247L8.63345 29.5007L8.71616 30.3692ZM11.0737 26.8123L11.4873 26.7296L11.2391 26.3987L11.0737 26.8123L10.9082 26.6055L10.8255 26.9777H10.4946L9.99832 27.5568L10.3706 27.6395L10.3292 27.7222H10.6187L10.4946 27.0191L10.7428 27.3086L10.7014 27.474L11.4045 27.2672L11.5286 27.3913L11.8595 26.7709L11.1564 26.895L11.0737 26.8123Z" fill="#D17A69"/>
<path d="M12.4385 26.1505L12.9762 26.0264L12.6867 25.6542L12.4385 26.1505ZM13.1416 25.5714L13.4725 25.9023L13.6793 25.406L13.1416 25.5714ZM12.0249 26.5227L12.149 25.9023L11.57 26.1918L12.0249 26.5227ZM9.91559 28.5493L9.95694 28.4666L10.0397 28.5907H9.75014L10.0397 28.9216L10.1224 28.7561L10.1637 28.7975L10.3705 28.508L9.99831 28.4253L10.1637 27.9289L10.2051 27.9703L10.3705 27.5567L9.87423 27.5981L10.081 27.8462L9.46063 28.053L9.91559 28.5493ZM-7.37276 40.2128L-7.04188 39.5924L-7.745 39.7165L-7.37276 40.2128ZM-7.99315 38.7238L-8.19995 39.551L-7.45548 39.3856L-7.99315 38.7238ZM-7.00052 40.2955L-6.25605 40.13L-6.75236 39.4269L-7.00052 40.2955ZM-4.02263 43.3561L-3.89855 42.9839L-4.27078 43.1493L-4.02263 43.3561ZM-0.217533 35.0428L0.0719833 35.6218L0.48558 35.0428H-0.217533ZM0.361501 33.9675H-0.382975L-0.0934591 34.5465L0.361501 33.9675ZM-0.920652 36.2836L-0.176177 36.2422L-0.589774 35.4978L-0.920652 36.2836ZM-4.9739 38.5997L-5.22206 39.4269L-4.47758 39.2615L-4.9739 38.5997ZM-4.10535 37.9793L-3.23679 37.938L-3.60903 37.2762L-4.10535 37.9793ZM-5.09798 38.3929L-4.22943 38.3516L-4.60166 37.6898L-5.09798 38.3929ZM-2.82319 36.2836L-2.45096 36.8213L-2.07872 36.2009L-2.82319 36.2836ZM1.60229 34.4224L2.01589 33.8434L1.27141 33.8847L1.60229 34.4224Z" fill="#D17A69"/>
<path d="M-4.10541 38.6825L-4.60173 38.6411L-4.43629 39.0133L-4.10541 38.6825ZM-2.24423 36.9454L-2.53375 37.1522L-2.16151 37.3589L-2.24423 36.9454ZM-2.45103 40.7504L-2.03743 40.585L-2.32695 40.3368L-2.45103 40.7504ZM-5.01533 39.6337L-4.43629 40.2128L-4.14677 39.3442L-5.01533 39.6337ZM-1.99607 40.0473L-1.58247 40.0887L-1.83063 39.7164L-1.99607 40.0473ZM-5.38756 38.8893L-5.09804 38.8479L-5.59436 38.1861L-5.67708 38.517L-5.84252 38.2689H-5.80116L-6.09068 37.8966L-5.18076 38.2689L-5.59436 36.6558L-6.62835 37.6485L-6.33883 37.7725L-6.54563 38.4343L-6.29748 38.3929L-6.25612 38.517L-6.04932 38.3102H-6.00796L-6.1734 38.9306L-6.3802 38.6411L-6.50428 39.0961L-6.83515 37.8139L-7.86914 38.7652L-6.54563 39.3442L-6.58699 39.5097L-5.84252 39.3442L-5.92524 39.2201L-5.26349 39.0547L-5.38756 38.8893ZM-4.93261 37.1108L-5.18076 36.9867L-5.05669 37.4003L-4.76716 37.1522L-4.84989 37.1108L-4.60173 36.6558L-4.06405 36.9454L-4.51901 37.0281L-4.14677 37.5244L-3.85725 37.0694L-3.69182 37.1522L-3.85725 36.1182L-3.27822 36.0354L-3.23686 36.1182L-3.73317 36.449L-2.86462 36.904L-2.78191 35.7873L-3.07142 35.9941L-2.86462 35.7046L-2.32695 35.9941L-2.45103 35.291L-1.74791 35.2082L-2.16151 34.4638L-2.45103 35.1669L-2.57511 34.3811L-3.69182 35.2496L-3.07142 35.6218H-3.48502L-3.69182 35.291L-3.89862 35.8286L-3.93997 35.4564L-5.05669 36.325L-4.76716 36.4904L-5.18076 36.5731L-4.93261 37.1108ZM1.27134 35.5805L1.64358 35.7046L1.60222 35.3323L1.27134 35.5805ZM-1.29295 36.2836H-1.21024L-1.29295 36.1595L-1.25159 35.9114L-1.37567 35.9941L-1.78927 35.3323L-2.20287 36.4077L-1.37567 36.2836H-1.29295ZM-2.28558 39.0961L-2.24423 38.7238L-2.45103 38.8065V38.7238L-2.82326 38.8479L-2.49238 39.0547V38.9306L-2.28558 39.0961ZM-2.61646 38.1034L-2.53375 37.483L-3.1955 37.6898L-2.61646 38.1034ZM-0.837996 37.0694L-0.79664 36.6558L-1.25159 36.7799L-0.837996 37.0694ZM-2.82326 40.0473L-2.78191 39.7164L-3.15414 39.8405L-2.82326 40.0473ZM5.15916 30.2451L5.11779 30.0796L5.28323 30.3692L5.57275 29.9556L5.11779 29.9969L5.07643 29.7074L4.4974 30.121V29.9969L3.50477 30.5346L3.58749 30.576L3.25661 31.1964H3.75292L3.83564 31.3204L3.21525 31.6927V30.7414L2.22262 31.3204L2.42942 31.4859L1.9331 31.5272V31.4859L0.899109 32.189V32.1476L-0.217601 32.8921V32.8507L-0.92072 33.3471L-2.20287 34.2983L-1.21024 34.7946L-1.45839 35.3737L-0.713922 35.291L-0.92072 34.9601L-0.837996 35.0014L-0.879358 34.7119L-0.79664 34.8774L-0.383043 34.2983H-0.92072L-1.00344 33.5125L-0.134882 34.0088L-0.300325 32.9335L0.361432 33.3471H-0.134882L0.154634 33.9261L0.485513 33.4711L0.816391 33.6779L0.485513 34.4224L1.22999 34.3811L0.899109 33.7193L0.981828 33.7607L0.940465 33.3471L1.35406 32.8094H0.857747L0.775029 32.2717L1.47814 32.8094L1.18863 33.4711L1.9331 33.3884L1.85038 33.2643L2.5535 33.3057L2.26398 32.6853L1.80902 33.1816L1.68494 32.9748L1.80902 33.0575L1.76766 31.5272L2.05718 31.9822L2.3467 31.5272L2.92573 31.9408H2.76029L2.96709 32.3958L3.33933 31.9408H3.00845V31.6927L3.67021 32.0649L3.75292 31.4032L3.79429 31.4859L4.0838 31.0723L4.33196 31.2791V30.6587L4.82828 30.6173H4.86963L4.911 30.8241L5.11779 30.7828L5.15916 30.8241L5.40731 30.7828L5.15916 30.2451ZM3.75292 31.1136L3.54613 30.6173L4.12516 31.0723L3.75292 31.1136ZM4.45604 30.6587V30.3692L4.53876 30.4105L4.45604 30.6587ZM3.21525 32.8094L4.00109 32.8507L3.71157 32.2303L3.21525 32.8094ZM3.09117 35.0842L3.13253 34.6706L2.71893 34.7946L3.09117 35.0842ZM0.485513 35.291L0.816391 35.2496L0.650949 34.9187L0.485513 35.291ZM2.09854 32.0649L2.1399 32.3958L2.01582 32.3544L2.1399 32.6853L2.38805 32.4371L2.18126 32.3958L2.38805 32.2303L2.09854 32.0649ZM21.6203 29.6247H21.3308L21.4549 29.9142L21.6203 29.6247ZM12.8521 28.2185L13.2243 28.1771L12.9348 27.8876L12.8521 28.2185ZM12.1489 27.6394L12.0662 27.9703L12.4385 27.9289L12.1489 27.6394ZM19.511 27.2258L19.3869 27.474H19.7178L19.511 27.2258ZM14.8787 28.3425L15.2096 28.3012L15.0028 28.053L14.8787 28.3425ZM13.762 28.053L13.6792 28.3012H14.0101L13.762 28.053ZM12.6039 28.3425L12.5212 28.5907L12.8521 28.5493L12.6039 28.3425ZM12.1903 28.7561L12.5212 28.7148L12.3144 28.4666L12.1903 28.7561ZM22.737 28.8802L22.6129 29.1284L22.9438 29.087L22.737 28.8802ZM13.886 29.1284L14.0928 29.1697L14.0515 28.9629L13.886 29.1284ZM14.5892 27.9289L14.4237 27.8462V28.0117L14.5892 27.9289ZM16.7399 28.9216L16.5744 28.9629L16.6985 29.1284L16.7399 28.9216ZM15.6231 28.6321L15.8299 28.508L15.5818 28.4253L15.6231 28.6321ZM22.8197 30.7828L22.9852 30.9068V30.7L22.8197 30.7828Z" fill="#D17A69"/>
<path d="M19.1802 30.4519L19.0974 30.6174L19.3042 30.576L19.1802 30.4519ZM20.7105 31.6513L20.5864 31.5273L20.5037 31.6927L20.7105 31.6513ZM18.1875 33.1403L18.3943 33.0989L18.2703 32.9749L18.1875 33.1403ZM19.9246 28.4667L20.1314 28.1771H19.7592L19.9246 28.4667ZM18.3943 27.8049L18.7252 27.7222L18.4357 27.5154L18.3943 27.8049ZM12.3145 28.3426L12.6453 28.3012L12.3972 28.0944L12.3145 28.3426ZM11.5286 28.6321H11.2805L11.4045 28.8803L11.5286 28.6321ZM11.9422 28.1771L11.7354 28.3426L11.9836 28.4253L11.9422 28.1771ZM13.8448 27.3086L13.5552 27.4327L13.762 27.5981L13.8448 27.3086ZM13.2244 27.4327L12.8521 27.474L12.7694 26.9777L12.2731 27.3499L12.8521 27.6395L12.9762 27.8463L13.0176 27.8049L13.0589 27.929L13.3071 27.5981H13.1003L13.2244 27.4327ZM14.0929 27.5154L14.1756 27.2259L13.8861 27.3913L14.0929 27.5154ZM12.9762 27.0191L12.8935 27.2259H13.1416L12.9762 27.0191ZM15.3337 27.5154L15.4992 27.3086L15.251 27.2672L15.3337 27.5154ZM13.5966 28.0117V27.6808L13.3484 27.8876L13.5966 28.0117ZM11.8595 29.5006L12.1077 29.4593L11.9009 29.2938L11.8595 29.5006ZM12.5213 27.6395L12.6453 27.8876L12.7694 27.6395H12.5213ZM12.8935 29.0457L12.6453 29.2111L12.8935 29.3352V29.0457ZM13.7207 29.9142L13.9688 29.8729L13.762 29.7074L13.7207 29.9142ZM11.115 29.0457L11.0737 29.2938L11.3218 29.2111L11.115 29.0457ZM12.6867 30.0383L12.8108 30.2865L12.9349 30.0383H12.6867ZM11.8595 29.1284L11.6527 28.963V29.2111L11.8595 29.1284ZM10.4946 30.3278L10.7014 30.2038L10.4946 30.0797V30.3278ZM11.0737 29.4593L10.8669 29.3352V29.5834L11.0737 29.4593ZM10.536 30.9069L10.6601 30.6587L10.4119 30.7001L10.536 30.9069ZM10.3706 31.8995L10.4946 31.6927L10.2465 31.7341L10.3706 31.8995ZM10.8669 30.2038L11.115 30.121L10.9082 29.8729L10.8669 30.2038ZM12.1077 29.9142L12.2317 29.7074H11.9836L12.1077 29.9142ZM11.7354 30.8242L11.6527 30.576L11.4873 30.7414L11.7354 30.8242ZM11.4459 31.3618L11.2805 31.5273L11.5286 31.61L11.4459 31.3618ZM10.1638 32.8921L10.2878 32.6853H10.0397L10.1638 32.8921ZM11.6527 32.3545L11.9009 32.4372L11.8181 32.189L11.6527 32.3545ZM11.3632 33.802L11.6113 33.8848L11.5286 33.6366L11.3632 33.802ZM16.8227 27.1431L17.0295 26.9777L16.8227 26.895V27.1431ZM18.1048 31.7341L17.8567 31.9409H17.9394L17.6085 32.2304L18.0221 32.3958V31.9409L18.2289 31.9822L18.1048 31.7341ZM16.864 32.189L16.7813 32.3958L16.9881 32.3545L16.864 32.189ZM17.7326 31.031L17.898 30.7414L17.5671 30.7828L17.7326 31.031ZM16.3263 31.7754L16.4918 31.5273L16.1609 31.5686L16.3263 31.7754ZM15.0856 33.0162L15.251 32.7681L14.9201 32.8094L15.0856 33.0162ZM13.0589 31.4032L13.2244 31.155L12.8935 31.1964L13.0589 31.4032ZM23.8952 28.7975L24.102 28.963L24.0606 29.0457L24.0192 28.8803L23.5643 29.3352L23.8538 29.4593L23.7297 29.7488L23.068 29.0457L22.9025 29.5834H22.6957L22.7785 29.7488L22.6957 29.997L23.6056 29.9142L23.4816 30.121L24.3088 29.9556L24.4328 30.6587L24.9705 30.3278L24.5156 30.9896L24.3915 30.9482L24.4328 31.155L24.3915 31.2378H24.4742L24.5569 31.6927L24.8051 31.5273L24.9705 31.6927L25.0532 31.3618L25.3014 31.2378L25.1773 31.1964H25.4255L25.3428 31.7341L25.9218 31.5686L25.1773 32.4785L26.7655 32.7184L26.1038 31.4363L26.0459 31.4032L25.715 31.155L26.0293 31.2129L25.2435 30.0135L25.1773 30.1624L24.5156 29.9556L25.1153 29.8605L24.3088 28.7148L24.226 28.8803L24.3088 28.6735L23.8952 28.7975ZM18.1462 26.6468L18.0635 26.7295L17.4017 26.9777L17.6499 27.1845H17.4844L17.6499 27.4327L17.7739 27.2672L18.1875 27.6395L18.5598 26.6055L18.1462 26.6468ZM15.9128 27.5154H16.2436L16.1196 27.2672L15.9128 27.5154ZM17.1122 26.9777L16.9467 27.2259H17.2776L17.1122 26.9777ZM15.2096 28.8803L15.1269 28.508L14.8788 28.7975L15.2096 28.8803ZM18.4771 27.2259L18.6425 27.0191L18.4357 26.9777L18.4771 27.2259ZM16.9467 27.8049L16.8227 28.0117H17.0708L16.9467 27.8049ZM14.5892 31.61L14.7547 31.6927L14.7133 31.4859L14.5892 31.61ZM16.1609 31.1137L16.0782 31.2378L16.285 31.2791L16.1609 31.1137Z" fill="#D17A69"/>
<path d="M15.6232 29.7074L15.83 29.5006L15.5405 29.4592L15.6232 29.7074ZM17.7739 29.8728L17.5258 30.0382L17.7739 30.1623V29.8728ZM15.1269 29.9969L14.8787 30.1623L15.1269 30.2864V29.9969ZM16.285 30.3278L16.409 30.0796H16.1609L16.285 30.3278ZM14.3411 30.3691V30.5759L14.5892 30.4518L14.3411 30.3691ZM18.5184 26.4399L18.5598 26.6881L18.7252 26.4813L18.5184 26.4399ZM21.4549 26.9363L21.2068 26.8535L21.2481 27.1017L21.4549 26.9363ZM16.285 28.0116L16.4918 27.8462L16.3677 27.7634H16.3263L16.285 27.7221V27.7634H15.4991L15.8714 28.4252L16.285 27.8875V28.0116ZM20.2141 28.0116L20.0073 28.632L20.7105 28.5493L20.2141 28.0116ZM19.8005 29.5006L19.9246 29.1283L20.0073 29.2938L20.1728 29.0456H19.9246L20.0487 28.6734L19.2215 28.9629L19.8005 29.5006ZM17.2362 27.7634L16.9881 28.3425L17.3603 28.3011L17.2362 28.4666H17.5671L17.443 28.2598H17.7326L17.2362 27.7634ZM16.6158 27.4326L16.7399 27.3499L16.4918 27.2671L16.5331 27.4326L16.409 27.7634H16.9054L16.6158 27.4326ZM19.1801 28.2184L19.4283 27.8875H19.3456L19.2629 27.5567L19.0147 27.8875H19.0561L19.1801 28.2184ZM16.9054 30.1623L16.5331 30.3691L16.9467 30.5345L16.9054 30.1623ZM18.3943 29.666L18.1462 29.5006V29.3765L17.9807 29.4592L18.0221 29.5006L17.9807 29.7901L18.3943 29.666ZM20.6691 32.0235L20.7105 32.1476L20.9586 31.8581L20.545 31.7753L20.6277 31.8994L20.3796 31.9408L20.5864 32.313L20.6691 32.0235Z" fill="#D17A69"/>
<path d="M17.9807 28.8803L17.4844 28.7562L17.6912 29.2111L17.9807 28.8803ZM15.4164 28.1358V27.7222L15.0855 27.9703L15.4164 28.1358ZM13.5138 27.35L14.2583 26.9364L14.1342 26.895V26.6055L14.4238 26.895H14.2997L14.3824 27.0191L14.217 27.1432L14.4238 27.2259L14.2583 27.4327L14.5892 27.474L14.5478 27.2672L14.8374 27.35L14.8787 27.4327V27.3913H14.9201V27.3086L15.0028 26.8536L15.2096 26.9777L15.2509 26.7296V26.8536L15.375 26.8123V27.2672L15.4577 27.2259L16.0368 27.1845L15.9127 27.0191L16.0368 26.9777L15.7059 26.8123L15.6645 26.7709V26.8123L15.375 26.6468V26.7709L15.2509 26.7296L15.0028 26.8536L15.0441 26.5641L15.2923 26.44L15.2509 26.4814L15.4991 26.5641L15.4164 26.3987L15.5405 26.3573L16.1195 27.1432V27.1018V27.2672L16.864 26.8536L16.9467 26.9364L16.9881 26.7709L17.0708 26.7296H17.0294L17.1121 26.44L16.9467 26.4814L16.8226 26.2746L16.6158 26.5228H16.8226L16.6572 26.6055L16.2849 26.44L16.3677 26.2332L16.7399 26.3987V26.2746L17.1535 26.2332L17.4844 26.8536L17.3189 26.8123L17.3603 27.0604L17.4844 26.895L17.5257 26.9777L17.8566 26.316L17.9807 26.44V26.5228L17.9393 26.6468L18.1461 26.6055L18.3116 26.7709L18.6011 25.9851L18.2288 26.1092L18.5597 25.6956L18.8079 26.9364L18.4356 27.0604L18.9733 27.5981L19.2628 26.8123L19.2215 26.6882L19.6764 26.1505L19.7178 26.2746L20.0073 25.9437L19.8832 25.5715L19.482 25.5384L18.7169 25.406L18.6011 25.6211H18.1875V25.5798H17.8152L17.8814 25.3481L17.0956 25.3895L17.0708 25.5798L16.6158 25.6211H16.4504L16.4917 25.7038L16.409 25.7452L16.4504 25.6625L15.9954 25.7452L16.0368 25.7038L15.1269 25.952H15.0855L15.0028 25.9934L13.6379 26.4483L13.6793 26.4897L13.3898 26.6137L13.8447 26.986L13.2243 26.7378V26.8619L13.1416 26.7792L13.183 27.1101L13.4311 27.0687L13.5138 27.3582V27.35ZM19.4283 26.5641L19.3042 26.6055L19.3456 26.5641H19.4283ZM18.2288 25.9437L18.2702 25.7369L18.3529 25.9024L18.2288 25.9437ZM17.1949 25.7783L17.1121 25.6956V25.6542L17.1949 25.7783ZM15.5818 26.1092L15.2923 25.9851L15.3337 25.7783L15.5818 26.1092ZM20.545 29.6661L20.1314 29.5834L20.2968 29.9556L20.545 29.6661Z" fill="#D17A69"/>
<path d="M18.8907 31.1549L18.808 31.5271L19.0975 31.4444L19.1802 31.6098L19.3456 31.3203H19.1388L18.8907 31.1549ZM17.7326 28.3011L18.1048 28.1356L17.7326 27.9702L17.774 27.8875L17.4431 27.9288L17.6085 28.1356L17.6913 28.0115V28.3011H17.7326ZM20.3796 26.0263L19.8006 26.1917H19.7592V26.2331L19.5938 26.2744L19.7592 26.4399L20.0901 26.8121L20.1315 26.6467L20.2556 26.7294V26.9775L20.1728 26.9362L20.2142 26.7294L20.0488 26.8121L19.5524 26.3158L19.3456 26.9362L19.966 26.8948L19.8833 26.9775L20.1315 27.1843L20.1728 27.0189V27.1843L19.842 27.3084L20.0901 27.5566L20.2142 27.8047L20.2556 27.722L20.3796 27.8461L20.6278 27.2257L20.6692 27.1843L20.9173 27.2671L20.8346 27.0603L21.6204 26.5226L21.4136 26.3985L21.3723 26.2331L21.2895 26.3158L20.9587 26.1504V26.0676L20.9173 26.109L20.7105 26.0263H20.7519L20.421 25.8608L20.3796 26.0263ZM19.0148 28.7974L18.6839 28.6733L18.8493 28.5492L18.6425 28.4251V28.6319L18.353 28.5079L18.5184 29.211L19.0148 28.7974ZM23.6057 33.471L24.3502 33.0988L24.0193 32.9333L24.102 32.5197L23.4816 32.6852L23.523 32.7265L23.6057 33.471ZM24.4742 31.8166L24.3088 32.5611L25.136 32.3543L24.4742 31.8166ZM23.6057 31.1135L24.4329 30.5758L23.3162 30.245L23.4402 30.9067L23.068 31.279H23.1094L23.0267 31.3617L23.4402 31.4444L23.3989 31.3617L23.7298 31.4858L23.6057 31.1135ZM22.6131 29.5832L22.2408 29.7486L22.6131 30.0795V29.5832ZM23.9366 31.9407L23.7711 31.9821L24.0606 32.3543L24.1847 31.8994L24.3502 31.858L24.1434 31.5685L23.9366 31.9407ZM20.2556 34.3396L20.5864 33.9673H20.0901L20.2556 34.3396ZM22.4063 32.1889L22.1167 32.3957L22.489 32.6025L22.4063 32.1889ZM22.3649 35.5804L22.2822 35.994L22.6544 35.8285L22.3649 35.5804ZM17.1122 33.4297L17.2777 32.9747L16.8227 33.0988L17.1122 33.4297ZM18.2289 31.0308L18.6425 31.0722L18.4357 30.6999L18.2289 31.0308ZM19.5111 34.3396L19.8006 34.0501L19.4697 33.926L19.5111 34.3396ZM20.7105 30.6172L20.421 30.2863H20.5037V30.2036H20.5451L20.4624 30.1209L20.421 29.9968L20.3796 30.0382L20.1728 29.8314L20.1315 29.9968L20.0901 29.9141L19.9247 30.369L19.6352 30.3277V30.0382L19.2629 30.369L19.5111 30.4518L19.5938 30.6586L19.9247 30.369L19.8006 30.6172H20.7105ZM21.0827 32.3129H21.5377L21.2068 31.6926L21 32.1475L20.7932 32.1062L20.9173 32.5197L21.0827 32.3129ZM18.932 27.8875L18.4771 27.9288L18.6839 28.2183L18.932 27.8875ZM14.3411 29.7073L14.217 30.2036L14.6306 30.1209L14.3411 29.7073ZM16.5332 27.9702L16.285 28.2183L16.6573 28.3838L16.5332 27.9702ZM21.7859 31.279L21.9513 31.2376L21.7859 31.0722L21.8686 31.0308L21.5791 30.7413L21.5377 31.1549H21.5791L21.4136 31.403L21.8686 31.4444L21.7859 31.279ZM23.9366 30.2036L24.2261 30.4931L24.2674 30.0795L23.9366 30.2036ZM23.068 33.7605H22.5717L22.7785 34.1328L23.068 33.7605ZM24.3502 34.0087L24.2674 33.8846L24.3915 33.2642L23.7711 33.4297L24.0606 33.7605L23.9366 34.0501L24.3502 34.0087Z" fill="#D17A69"/>
<path d="M21.7859 34.0501L21.4963 34.2983L21.8686 34.4637L21.7859 34.0501ZM22.4062 27.8462L22.1995 28.0116L22.1581 27.9703L21.9099 28.2184L22.1995 28.3011V28.4252L22.4062 28.3011L22.3649 28.2598L22.4062 27.8462Z" fill="#D17A69"/>
<path d="M21.5791 26.564L21.4964 27.2671H21.455L21.4964 27.3084L21.2482 27.3498L21.2896 27.2257L21 27.3498L21.0414 27.3912L20.876 27.4325L21.0414 27.6393H20.5037L20.8346 28.2184L20.7932 28.6733L20.1729 28.756L20.5864 29.3764L20.9587 28.756L21.0414 28.7147V28.8387L21.2896 28.6733L21.4964 29.0869V29.1696L21.5377 29.1283V29.1696L21.6204 29.0869L21.7859 29.8314L22.3649 29.3351L21.7032 29.0042L21.7859 28.9628L21.7445 28.9215L21.9927 28.6319L22.0754 28.7147L21.9927 28.7974L22.6544 29.0455L22.5717 28.8387H22.6958L22.5717 28.7147L23.2748 28.4665L23.4816 29.0042L23.7298 28.756H23.7711L23.7298 28.7147V28.2597L22.8612 27.3498L22.6958 27.1844L21.5791 26.564ZM22.8199 27.6393L22.7372 27.8875L22.489 28.3011H22.6131L22.489 28.6733L22.4063 28.4252L22.0754 28.7974L22.1581 28.5079L21.8686 28.6319L21.2482 28.4665L20.9173 28.2597L21 28.1356L20.9587 28.3011L21.1241 28.177L21.3309 28.1356L21.1241 27.9702L21.2068 27.8875L21.3309 28.0529L21.3723 28.0116L21.455 28.0943V28.177L21.4964 28.1356L21.7859 28.5079L22.1581 27.722L22.6131 27.4325L22.489 27.6393H22.8199ZM20.5451 30.7827L20.4624 31.1963L20.7932 31.1135L20.5451 30.7827ZM20.6278 32.9334L20.3796 33.471L20.876 33.4297L20.6278 32.9334ZM23.3989 31.4858L23.0267 31.6926L23.4403 31.9821L23.3989 31.4858ZM24.8879 34.6291L24.8051 35.3736L25.6323 35.1254L24.8879 34.6291ZM25.0533 34.4637H25.5083L25.3428 34.1328L25.0533 34.4637ZM22.1168 33.8019L21.7445 33.6365L21.8686 34.0501L22.1168 33.8019ZM20.7932 35.994L21.2068 35.7045L20.7105 35.5804L20.7932 35.994ZM23.2748 34.7532V34.3396L22.944 34.505L23.2748 34.7532ZM22.4063 38.0206L22.8199 37.9379L22.5717 37.6484L22.4063 38.0206ZM23.3162 35.5804L23.4403 35.994L23.8125 35.6631L23.3162 35.5804ZM24.8465 35.7045L24.6397 36.0767H25.0119L24.8465 35.7045ZM21.91 35.994L21.7032 36.1181L22.0754 36.3662L22.1168 36.1594L22.1581 36.2008V35.7872L21.8272 35.9526L21.91 35.994ZM27.3281 33.8846L26.7077 32.5611L25.8391 33.5538L25.4255 33.2642L26.0459 33.0988L25.3428 32.6025L25.2601 33.347L25.4255 33.3056L25.3428 34.0087L26.0459 33.8019H26.2527L25.8805 33.926L26.3768 34.4637L26.5009 33.8433H26.7077L26.5836 34.5877L26.9145 34.505L26.6663 34.7532L26.2527 34.4637L26.2114 34.8359L25.6323 35.0013L26.0046 35.4149L25.5083 35.5804L25.9632 36.1181L26.0873 35.539L26.1286 35.5804L26.17 35.2081L26.4182 35.1254L27.0799 35.2081L27.0386 35.539L27.1626 35.4977L27.0799 36.1594L27.2867 36.1181L27.2454 36.4076L27.5349 36.3249L27.2454 36.6144L26.5836 36.1181L26.5009 36.8625L27.2454 36.6557L27.0799 36.8212L27.3281 36.8625L27.1626 37.4002L27.9071 37.2761L27.659 36.9452L28.2794 37.028L27.9898 36.9866L28.0726 37.1934H28.0312L28.1139 37.3588L28.3207 37.607L27.9071 37.9792L27.9898 37.607L27.4522 37.7724L27.4108 37.7311L27.3694 37.8138L27.1213 38.5583L27.8658 38.4342L27.8244 38.3928L28.0312 38.4342L27.4108 39.0546L28.4448 39.4682L28.3621 39.1373L28.6516 39.5509L28.238 39.9645L28.8584 40.0472L28.7343 40.6676L29.5615 40.5022L29.0652 40.0886L29.8924 40.2127L29.3961 38.8478L29.3133 38.9305L28.9411 38.5996L29.2306 38.641L28.817 37.2761L28.6102 37.4416L28.6929 37.1107V37.0693L28.1966 35.7458L28.1139 35.8285L27.5762 35.4563L27.9071 35.3736L27.8244 35.3322H27.9898L27.4108 34.0087L27.1626 34.2569L26.6663 33.926L27.3281 33.8846ZM28.7343 39.4268L28.8584 38.9719L29.272 38.8891L28.7343 39.4268ZM28.6102 38.8064L28.4034 38.8478L28.2794 38.3515L28.7343 38.4342L28.6102 38.8064ZM28.3621 37.0693L28.4448 36.9866H28.5689L28.3621 37.0693ZM27.8244 35.994L27.7417 35.9526L27.9071 35.9113L27.8244 35.994ZM28.4448 42.777L28.6102 42.0738L27.9898 42.2393L28.4448 42.777ZM27.4522 41.7843L28.2794 41.5775L27.5762 41.0399L27.4522 41.7843Z" fill="#D17A69"/>
<path d="M29.1892 42.8599L29.0238 43.6044L29.851 43.439L29.1892 42.8599ZM29.396 44.597L29.4787 43.8526L28.8997 44.0594L29.396 44.597ZM26.3354 36.9455L26.3768 36.201L25.6323 36.5319L26.17 36.9455L26.3768 37.4005L26.5836 36.9455H26.3354ZM26.9972 39.5925L26.6663 39.2616L26.5836 40.0475L27.204 39.7993L27.0385 39.6339L27.3694 39.6752L27.2453 39.303L26.9972 39.5925ZM23.8952 38.6412L24.2261 38.4344L23.8952 38.2277V38.6412ZM24.7637 39.303L25.1773 39.2203L24.9292 38.9308L24.7637 39.303ZM24.1847 37.6073L23.7711 37.9381L24.1847 38.1036V37.6073ZM24.2674 35.0843L24.2261 35.4566L24.5983 35.3325L24.2674 35.0843ZM26.9144 37.5245L26.5422 37.5659L26.749 37.9381L26.9144 37.5245ZM22.613 33.7608L23.0266 33.7194L22.7371 33.4299L22.613 33.7608ZM24.8878 36.3251L24.5156 36.2837L24.6397 36.656L24.8878 36.3251ZM27.9898 39.9648L28.1139 39.2616L27.4935 39.4684L27.9898 39.9648L27.783 39.8407L27.7416 40.6679L27.7003 40.7092H27.7416V40.792L27.8657 40.7506L28.1139 40.8333L28.0725 40.7092L28.817 40.4611L27.9898 39.9648ZM27.5348 44.1421H27.9071L27.7003 43.7699L27.5348 44.1421ZM27.4108 39.2203L27.4521 38.5172L26.8731 38.9308L27.4108 39.2203ZM27.204 40.9574V40.5024L26.8317 40.7506L27.204 40.9574ZM25.5082 38.269V37.8554L25.1773 38.1036L25.5082 38.269ZM26.3354 38.5172L26.0045 38.7653L26.0872 38.8067L25.9218 38.9308L26.2527 39.0962V38.848L26.3354 38.8894V38.5172ZM32.3326 46.4582L32.1258 46.2514H32.2498L31.7949 45.2174L31.5881 45.4656L31.6294 45.052L31.7949 45.0934L31.2986 43.8939H31.3399L30.885 42.5704L30.2232 43.1908L30.3887 42.5291L30.885 42.5704L30.5541 41.7432L30.0578 40.2129L29.2306 41.0815L28.6515 40.5852L28.4861 41.3296L29.0651 41.2056L28.9411 41.371L29.0651 41.4124L28.8997 41.4537L29.3133 42.0327L29.4787 41.4951L30.43 41.7019L29.7269 42.405L29.8096 42.0741L29.1892 42.2395L29.6442 42.8186L29.7269 42.4463L30.3473 42.5291L29.7269 42.6945L30.1405 43.2322L29.6442 43.6458L30.1405 43.7285L30.4714 44.1421L30.5541 43.8112L31.2158 43.8939L30.1405 44.8452L31.3813 45.052L31.0504 45.1761L31.464 45.5897L31.2986 45.7551L30.7195 46.2514L31.464 46.6237L31.2572 46.7064L31.6294 47.12L31.7122 46.5823L32.3326 46.4582ZM31.5881 46.5409L31.5054 46.1687L31.7535 46.2101L31.6294 46.4996H31.6708L31.5881 46.5409ZM30.0164 46.1687L30.6782 46.086L30.3059 45.4242L30.0164 46.1687ZM30.7195 47.3681L31.3813 47.3268L31.0091 46.665L30.7195 47.3681Z" fill="#D17A69"/>
<path d="M4.9937 39.1786V39.675L4.08379 39.8818L4.04243 39.7577L3.33931 40.4608L4.37331 40.8744L4.12515 40.0472L4.74555 40.5435L4.70418 40.5849L4.49739 40.5435L4.53875 40.7503L4.37331 40.9158L5.03506 41.2053L4.20787 41.4121L4.12515 41.0398L3.58747 41.5361L3.75291 41.6189L4.08379 41.867V42.5701L4.20787 42.4461L4.04243 42.6942L4.5801 42.7769L3.38068 43.0665L4.04243 43.6041L3.75291 43.8523L3.62883 43.5214L3.50476 43.6869L3.42203 43.2319L2.92572 43.6455L2.47076 43.6869L2.26397 43.1078L1.72629 43.6455L2.38804 43.8937L2.4294 43.9764L2.30532 44.0177L2.51212 44.2245L2.13989 44.514L2.05717 44.3486L1.85037 44.6381L2.2226 44.7208L2.18124 44.6381L2.71892 44.8863L2.76028 44.1005L2.88436 43.7696L3.2566 43.935L3.13252 44.0591L3.2566 44.1005L2.843 44.6381L3.29796 44.7622L3.58747 45.0104L2.88436 45.5067L3.54611 45.8376L3.58747 45.0104L4.37331 45.6308L2.88436 46.0444L3.17388 46.2925L2.47076 46.7888L3.13252 47.1197L3.17388 46.2925L3.95971 46.8715L3.42203 47.2851L3.38068 47.1611L2.96708 47.616V47.4919L3.09116 47.3679L2.80164 47.2438V47.4092L1.76765 47.6987L1.93309 47.8228L1.22997 48.1123L1.39541 48.2778L1.06453 48.7327L1.60221 48.6914L1.80901 49.1463L1.60221 49.229L1.93309 49.4358L1.68493 49.684L2.47076 49.9322L2.2226 49.9735L2.67756 50.3044L2.76028 50.8421L2.47076 50.8834L2.2226 50.3871L1.80901 51.0075L2.4294 51.1316L3.46339 52.0001L3.62883 50.6766L3.83563 49.6013H3.79427L3.91835 48.65L3.95971 48.6914L4.08379 47.5747L3.09116 48.1951L3.2566 48.2778L2.92572 48.65L3.67019 48.6914L3.58747 48.4846L3.83563 48.65L3.2566 49.0222L3.13252 48.7327L2.843 49.0636L2.88436 48.7741L1.93309 49.0636L2.18124 48.6087L2.67756 48.7327L2.38804 48.1123L2.01581 48.5673L2.09852 47.7401L2.96708 48.3605L3.09116 47.5333L3.75291 47.5747L3.58747 47.2024L4.12515 47.4919L4.16651 46.7888L4.29059 46.8715L4.49739 45.4653H4.45602L4.70418 44.0591L3.75291 44.2659L3.62883 43.9764L3.95971 44.0591L3.83563 43.6869L4.45602 44.0177L4.37331 43.5628L4.74555 43.8523L4.95235 42.5701L4.9937 42.4461L4.91098 42.4874L4.66282 42.0325L5.03506 42.322L5.28322 40.9158H5.24186L5.15914 40.5435L5.32458 40.6676L5.57274 39.2614H5.49002L5.65546 39.1373L4.9937 39.1786ZM2.55348 49.9735L2.76028 50.0976L2.6362 50.139L2.55348 49.9735ZM2.843 51.0902L3.09116 50.8007L3.29796 50.9662L2.843 51.0902ZM3.17388 49.5186L3.79427 49.8908L2.843 50.0976L2.88436 49.5186H3.17388ZM4.45602 39.675L4.74555 39.0132L5.49002 39.0546L4.9937 38.3101L4.82826 38.5996L3.91835 38.641L4.45602 39.675ZM5.49002 34.96V35.8285L6.19314 35.2908L5.49002 34.96ZM4.16651 38.5169L4.5801 37.8965L3.95971 37.8551L4.16651 38.5169ZM4.66282 37.5656V37.607L4.37331 37.6897L4.86962 38.1447L4.91098 38.2687L4.95235 38.2274L5.6141 38.8064L5.90361 37.4002L4.7869 37.607L4.66282 37.5656ZM1.02318 41.9084L0.692297 41.5361L0.568217 41.7843L0.320057 41.8257L0.609579 42.1979L0.650935 41.9084H1.02318ZM1.43677 43.7282V43.3146L1.10589 43.5628L1.43677 43.7282ZM-0.383057 41.0398L-0.300339 41.4534L-0.052178 41.1225L-0.383057 41.0398Z" fill="#562828"/>
<path d="M3.0912 40.5849L3.29799 40.2127L2.92575 40.1713L3.0912 40.5849ZM4.8283 35.7045L4.29062 36.2422L5.0351 36.5731L4.91102 36.1181L5.98637 37.1934L6.39997 35.8286L4.91102 36.0354L4.8283 35.7045ZM6.44133 35.1668L6.81357 34.0088L5.49005 34.1742L6.44133 35.1668ZM6.27589 32.9334L6.93764 33.5952L7.1858 32.8093L6.27589 32.9334ZM2.30536 41.4535L2.63624 40.8331L1.93312 40.9572L2.30536 41.4535ZM1.39545 45.7963L1.89176 45.7135L1.64361 45.3827L1.39545 45.7963ZM-0.0521424 47.9056L0.196018 47.6161L-0.217578 47.492L-0.0521424 47.9056ZM-0.631175 44.5141V44.1005L-0.962054 44.3487L-0.631175 44.5141ZM-2.16149 39.1787L-1.70653 39.3855L-1.78925 38.8892L-2.16149 39.1787ZM0.154656 40.4609L0.071938 40.8745L0.444172 40.709L0.154656 40.4609ZM-2.98868 41.8671L-2.8646 41.5362H-3.2782L-2.98868 41.8671ZM1.89176 47.0784L2.59487 46.5407L1.89176 46.1685V47.0784ZM-0.962054 43.0252L-1.37565 43.1492L-1.04477 43.3974L-0.962054 43.0252ZM0.857769 43.811L1.14729 43.3974H0.650971L0.857769 43.811ZM2.71895 41.4121L2.42944 41.7017L2.80167 41.8257L2.71895 41.4121ZM3.04983 45.2172L3.42207 45.0104L3.0912 44.845L3.04983 45.2172Z" fill="#562828"/>
<path d="M2.3468 34.3809L2.22272 34.7945L2.71903 34.7117L2.3468 34.3809ZM5.24197 34.4636H4.86973L5.03518 34.8358L5.24197 34.4636ZM3.04991 37.1106L2.71903 37.3588L3.13263 37.4415L3.04991 37.1106ZM-0.0520656 45.2998L0.402893 45.0517L-0.0934277 44.8449L-0.0520656 45.2998ZM1.7264 47.4919L1.64368 47.3678L1.85048 47.2024L1.47824 47.0783L1.5196 47.2437L1.35416 47.5332L1.7264 47.4919ZM2.38815 45.2998V45.9202L3.04991 45.6307L2.38815 45.2998ZM-0.0934277 43.0664L0.237451 42.8182L-0.176146 42.7355L-0.0934277 43.0664ZM-2.40957 42.9837L-1.91325 42.7769L-2.45093 42.4874L-2.40957 42.9837ZM-1.16878 45.5893H-0.672461L-0.837897 45.2171L-1.16878 45.5893ZM1.10601 47.3678L0.609692 47.9882L1.27144 48.1536L1.10601 47.3678ZM1.64368 46.2924L1.06464 46.8715L1.7264 47.0783L1.64368 46.2924ZM0.899208 46.4165L0.444249 46.4992L0.69241 46.8301L0.899208 46.4165ZM0.0306525 46.4579L0.237451 46.0856L-0.217502 46.1684L0.0306525 46.4579ZM1.3128 44.059L1.10601 44.3485L1.47824 44.4313L1.3128 44.059ZM2.51223 47.161L2.22272 47.0369V47.4092L2.51223 47.161ZM2.01592 47.616L1.5196 47.5332L1.64368 48.0709L2.01592 47.616ZM13.7207 47.0369L13.1003 47.2024L13.5966 47.74L13.7207 47.0369ZM13.638 46.5406L14.3825 46.127L13.8034 45.672L13.638 46.5406ZM11.4873 45.1757L11.0323 44.8449L11.4873 44.3899L10.4533 44.2245L10.7014 45.1344L10.8669 44.9689L10.7428 45.548L11.4873 45.1757ZM11.1564 47.161L11.9836 46.9542L11.7768 46.706L11.9422 46.8301L11.9009 46.127L11.3632 46.4165L11.6527 46.127V46.1684L12.3972 45.7548L11.8182 45.2998L11.7354 45.9202L10.8255 45.7961L11.0737 46.7474L11.4046 46.4165L11.5286 46.4992L11.1564 47.161ZM12.9349 46.7474L12.4799 46.1684L12.1077 46.9542L12.9349 46.7474ZM12.2731 43.8522L12.8935 44.2658L12.8522 43.5627L12.5213 43.7695L12.4799 43.3145L12.1077 43.5213L12.5213 43.8109L12.2731 43.8522ZM12.6454 45.9202L12.7281 46.2924L13.0589 46.0029L12.6454 45.9202ZM15.0856 43.2318L14.9201 43.6041L15.2924 43.6454L15.0856 43.2318ZM16.74 43.48L16.4918 43.8936L16.9881 43.8522L16.74 43.48ZM14.3411 44.3072L14.0102 44.4313L14.3411 44.7208V44.3072ZM16.864 46.6647L17.2363 46.4579L16.864 46.2924V46.6647ZM14.0102 43.025L13.5139 42.8182L13.6793 43.3145L14.0102 43.025ZM12.8108 40.833L12.6454 40.5021L12.3972 40.833H12.8108ZM11.2391 43.6041L10.9082 43.6868L11.1978 44.0177L11.2391 43.6041ZM10.7428 43.48L10.1638 43.7695L10.7842 44.1831L10.7428 43.48ZM11.9836 43.1078L11.0737 43.0664L10.9496 42.7769L10.4533 43.48L11.1978 43.4386L11.4873 44.1004L11.9836 43.1078Z" fill="#562828"/>
</g>
<defs>
<linearGradient id="paint0_linear_637_1110" x1="0" y1="0" x2="37" y2="37" gradientUnits="userSpaceOnUse">
<stop offset="0.495" stop-color="#41A131"/>
<stop offset="1" stop-color="#146107"/>
</linearGradient>
<linearGradient id="paint1_linear_637_1110" x1="17.0915" y1="23.3794" x2="19.9329" y2="19.7191" gradientUnits="userSpaceOnUse">
<stop stop-color="#BC5A32" stop-opacity="0"/>
<stop offset="0.99" stop-color="#BC5A32"/>
</linearGradient>
<linearGradient id="paint2_linear_637_1110" x1="20.8752" y1="13.864" x2="19.5683" y2="10.8447" gradientUnits="userSpaceOnUse">
<stop stop-color="#BC5A32" stop-opacity="0"/>
<stop offset="0.99" stop-color="#BC5A32"/>
</linearGradient>
<linearGradient id="paint3_linear_637_1110" x1="13.8771" y1="19.2985" x2="14.0177" y2="17.0941" gradientUnits="userSpaceOnUse">
<stop stop-color="#CC7A5E" stop-opacity="0"/>
<stop offset="0.92" stop-color="#AA5F4B"/>
</linearGradient>
<linearGradient id="paint4_linear_637_1110" x1="18.9065" y1="12.1848" x2="15.6721" y2="4.33885" gradientUnits="userSpaceOnUse">
<stop offset="0.01" stop-color="#974C36"/>
<stop offset="0.98" stop-color="#B5674C"/>
</linearGradient>
<linearGradient id="paint5_linear_637_1110" x1="-304.978" y1="-44.393" x2="-288.371" y2="-39.8683" gradientUnits="userSpaceOnUse">
<stop stop-color="#8B4433"/>
<stop offset="0.98" stop-color="#AF614E"/>
</linearGradient>
<linearGradient id="paint6_linear_637_1110" x1="-0.423139" y1="36.8082" x2="8.28886" y2="40.7067" gradientUnits="userSpaceOnUse">
<stop stop-color="#552828" stop-opacity="0"/>
<stop offset="1" stop-color="#552828"/>
</linearGradient>
<linearGradient id="paint7_linear_637_1110" x1="19.8034" y1="47.4884" x2="-4.80269" y2="47.7464" gradientUnits="userSpaceOnUse">
<stop stop-color="#8B4433"/>
<stop offset="0.98" stop-color="#AF614E"/>
</linearGradient>
<linearGradient id="paint8_linear_637_1110" x1="14.1561" y1="57.9793" x2="25.281" y2="50.3389" gradientUnits="userSpaceOnUse">
<stop stop-color="#552828" stop-opacity="0"/>
<stop offset="1" stop-color="#552828"/>
</linearGradient>
<linearGradient id="paint9_linear_637_1110" x1="21.7092" y1="52.9288" x2="19.8394" y2="27.2271" gradientUnits="userSpaceOnUse">
<stop stop-color="#8B4433"/>
<stop offset="0.98" stop-color="#AF614E"/>
</linearGradient>
<linearGradient id="paint10_linear_637_1110" x1="16.9947" y1="39.4923" x2="8.59332" y2="43.6192" gradientUnits="userSpaceOnUse">
<stop stop-color="#6C372A" stop-opacity="0"/>
<stop offset="1" stop-color="#6C372A"/>
</linearGradient>
<linearGradient id="paint11_linear_637_1110" x1="5.73123" y1="32.3027" x2="19.1926" y2="49.8284" gradientUnits="userSpaceOnUse">
<stop stop-color="#823735"/>
<stop offset="1" stop-color="#552828"/>
</linearGradient>
<clipPath id="clip0_637_1110">
<rect width="37" height="37" rx="9" fill="white"/>
</clipPath>
</defs>
</svg>
