<svg width="57" height="50" viewBox="0 0 57 50" fill="none" xmlns="http://www.w3.org/2000/svg">
<circle cx="49.3544" cy="30.6668" r="7.18752" fill="url(#paint0_linear_1022_554)"/>
<circle cx="7.18752" cy="7.18752" r="7.18752" transform="matrix(-1 0 0 1 14.375 23.4792)" fill="url(#paint1_linear_1022_554)"/>
<circle cx="28.2711" cy="28.7501" r="21.0834" fill="url(#paint2_linear_1022_554)"/>
<path d="M38.094 34.9793C30.6669 34.9793 30.6669 27.7917 30.6669 27.7917H45.5211C45.5211 27.7917 45.5211 34.9793 38.094 34.9793Z" fill="white"/>
<path d="M38.094 32.1043C33.5419 32.1043 33.5419 27.7917 33.5419 27.7917H42.6461C42.6461 27.7917 42.6461 32.1043 38.094 32.1043Z" fill="black"/>
<path d="M18.4481 34.9793C11.021 34.9793 11.021 27.7917 11.021 27.7917H25.8752C25.8752 27.7917 25.8752 34.9793 18.4481 34.9793Z" fill="white"/>
<path d="M18.4481 32.1043C13.896 32.1043 13.896 27.7917 13.896 27.7917H23.0002C23.0002 27.7917 23.0002 32.1043 18.4481 32.1043Z" fill="black"/>
<circle cx="28.271" cy="34.0208" r="7.18752" fill="#0D6000"/>
<path d="M45.5212 25.875H31.6254" stroke="black" stroke-width="3" stroke-linecap="round"/>
<path d="M11.021 25.875H24.9169" stroke="black" stroke-width="3" stroke-linecap="round"/>
<path d="M35.4588 7.18752C35.4588 11.1571 32.2408 14.375 28.2712 14.375C24.3017 14.375 21.0837 11.1571 21.0837 7.18752C21.0837 3.21796 24.3017 0 28.2712 0C32.2408 0 35.4588 3.21796 35.4588 7.18752Z" fill="#0D6000"/>
<path d="M25.8754 13.8959C25.8754 17.8654 22.6574 21.0834 18.6879 21.0834C14.7183 21.0834 11.5004 17.8654 11.5004 13.8959C11.5004 9.92631 14.7183 6.70835 18.6879 6.70835C22.6574 6.70835 25.8754 9.92631 25.8754 13.8959Z" fill="#0D6000"/>
<path d="M45.0421 13.8959C45.0421 17.8654 41.8242 21.0834 37.8546 21.0834C33.885 21.0834 30.6671 17.8654 30.6671 13.8959C30.6671 9.92631 33.885 6.70835 37.8546 6.70835C41.8242 6.70835 45.0421 9.92631 45.0421 13.8959Z" fill="#0D6000"/>
<path d="M35.4588 13.8959C35.4588 17.8654 32.2408 21.0834 28.2712 21.0834C24.3017 21.0834 21.0837 17.8654 21.0837 13.8959C21.0837 9.92631 24.3017 6.70835 28.2712 6.70835C32.2408 6.70835 35.4588 9.92631 35.4588 13.8959Z" fill="#0D6000"/>
<defs>
<linearGradient id="paint0_linear_1022_554" x1="49.3544" y1="30.6668" x2="56.5419" y2="30.6668" gradientUnits="userSpaceOnUse">
<stop stop-color="#37C122"/>
<stop offset="1" stop-color="#16A200"/>
</linearGradient>
<linearGradient id="paint1_linear_1022_554" x1="7.18752" y1="7.18752" x2="14.375" y2="7.18752" gradientUnits="userSpaceOnUse">
<stop stop-color="#37C122"/>
<stop offset="1" stop-color="#16A200"/>
</linearGradient>
<linearGradient id="paint2_linear_1022_554" x1="28.2711" y1="7.66675" x2="28.2711" y2="49.8335" gradientUnits="userSpaceOnUse">
<stop stop-color="#1B840C"/>
<stop offset="0.71" stop-color="#3ABC26"/>
</linearGradient>
</defs>
</svg>
