<svg width="64" height="61" viewBox="0 0 64 61" fill="none" xmlns="http://www.w3.org/2000/svg">
<circle cx="51.9043" cy="32.807" r="7.13193" fill="url(#paint0_linear_1022_566)"/>
<circle cx="7.13193" cy="7.13193" r="7.13193" transform="matrix(-1 0 0 1 17.1957 25.675)" fill="url(#paint1_linear_1022_566)"/>
<circle cx="30.9842" cy="30.9052" r="20.9203" fill="url(#paint2_linear_1022_566)"/>
<path d="M38.116 7.13193C38.116 11.0708 34.9229 14.2639 30.9841 14.2639C27.0452 14.2639 23.8521 11.0708 23.8521 7.13193C23.8521 3.19307 27.0452 0 30.9841 0C34.9229 0 38.116 3.19307 38.116 7.13193Z" fill="#0D6000"/>
<path d="M28.6068 13.7884C28.6068 17.7273 25.4137 20.9203 21.4748 20.9203C17.536 20.9203 14.3429 17.7273 14.3429 13.7884C14.3429 9.84954 17.536 6.65647 21.4748 6.65647C25.4137 6.65647 28.6068 9.84954 28.6068 13.7884Z" fill="#0D6000"/>
<path d="M47.6252 13.7884C47.6252 17.7273 44.4322 20.9203 40.4933 20.9203C36.5545 20.9203 33.3614 17.7273 33.3614 13.7884C33.3614 9.84954 36.5545 6.65647 40.4933 6.65647C44.4322 6.65647 47.6252 9.84954 47.6252 13.7884Z" fill="#0D6000"/>
<path d="M38.116 13.7884C38.116 17.7273 34.9229 20.9203 30.9841 20.9203C27.0452 20.9203 23.8521 17.7273 23.8521 13.7884C23.8521 9.84954 27.0452 6.65647 30.9841 6.65647C34.9229 6.65647 38.116 9.84954 38.116 13.7884Z" fill="#0D6000"/>
<path d="M19.0975 37.0862C19.0975 37.0862 19.0975 43.9804 30.9841 43.9804C42.8706 43.9804 42.8706 37.0862 42.8706 37.0862" stroke="black" stroke-width="2" stroke-linecap="round"/>
<path d="M45.248 32.8069C45.248 32.8069 45.248 28.5277 39.3048 28.5277C33.3615 28.5277 33.3615 32.8069 33.3615 32.8069" stroke="black" stroke-width="2" stroke-linecap="round"/>
<path d="M28.6069 32.8069C28.6069 32.8069 28.6069 28.5277 22.6637 28.5277C16.7204 28.5277 16.7204 32.8069 16.7204 32.8069" stroke="black" stroke-width="2" stroke-linecap="round"/>
<circle cx="30.984" cy="38.5125" r="7.13193" fill="#0D6000"/>
<path d="M51.159 10.8346C52.1651 9.28539 54.5659 9.92868 54.6626 11.7734C54.7058 12.5984 55.2754 13.3017 56.0733 13.5156C57.8576 13.9937 57.9877 16.4757 56.2632 17.1377C55.4919 17.4338 54.999 18.1928 55.0422 19.0178C55.1389 20.8625 52.8185 21.7532 51.656 20.3176C51.1361 19.6756 50.2619 19.4414 49.4907 19.7374C47.7661 20.3994 46.2019 18.4679 47.208 16.9186C47.658 16.2258 47.6106 15.322 47.0907 14.68C45.9282 13.2444 47.2819 11.1599 49.0662 11.638C49.8642 11.8518 50.7091 11.5275 51.159 10.8346Z" fill="#FBBC05"/>
<path d="M39.7918 15.7052C40.431 14.7209 41.9565 15.1296 42.0179 16.3017C42.0454 16.8259 42.4073 17.2728 42.9143 17.4087C44.0481 17.7125 44.1307 19.2896 43.0349 19.7102C42.5449 19.8983 42.2317 20.3806 42.2592 20.9048C42.3206 22.0769 40.8462 22.6429 40.1076 21.7307C39.7772 21.3228 39.2218 21.1739 38.7317 21.3621C37.6359 21.7827 36.6421 20.5554 37.2813 19.571C37.5672 19.1307 37.5371 18.5565 37.2068 18.1486C36.4681 17.2364 37.3283 15.9119 38.462 16.2157C38.969 16.3516 39.5059 16.1455 39.7918 15.7052Z" fill="#FBBC05"/>
<path d="M21.2487 49.9384C21.888 48.954 23.4134 49.3628 23.4748 50.5349C23.5023 51.0591 23.8642 51.506 24.3712 51.6418C25.505 51.9456 25.5876 53.5227 24.4918 53.9434C24.0018 54.1315 23.6886 54.6137 23.7161 55.1379C23.7775 56.3101 22.3031 56.876 21.5645 55.9639C21.2341 55.5559 20.6787 55.4071 20.1886 55.5952C19.0928 56.0158 18.099 54.7885 18.7383 53.8041C19.0241 53.3639 18.994 52.7897 18.6637 52.3817C17.925 51.4695 18.7852 50.1451 19.9189 50.4488C20.426 50.5847 20.9628 50.3786 21.2487 49.9384Z" fill="#FBBC05"/>
<path d="M9.36221 21.4108C10.0015 20.4264 11.5269 20.8352 11.5884 22.0073C11.6158 22.5315 11.9777 22.9784 12.4847 23.1142C13.6185 23.418 13.7012 24.9951 12.6054 25.4158C12.1153 25.6039 11.8021 26.0862 11.8296 26.6103C11.891 27.7825 10.4167 28.3484 9.67799 27.4363C9.34766 27.0283 8.79221 26.8795 8.30216 27.0676C7.20637 27.4883 6.21251 26.2609 6.85178 25.2765C7.13767 24.8363 7.10757 24.2621 6.77723 23.8541C6.03857 22.942 6.8987 21.6175 8.03245 21.9213C8.53948 22.0571 9.07632 21.851 9.36221 21.4108Z" fill="#FBBC05"/>
<path d="M12.1711 42.215C13.1772 40.6658 15.578 41.3091 15.6747 43.1538C15.7179 43.9788 16.2874 44.6821 17.0854 44.8959C18.8697 45.374 18.9998 47.8561 17.2752 48.5181C16.504 48.8142 16.0111 49.5732 16.0543 50.3982C16.151 52.2429 13.8306 53.1336 12.6681 51.698C12.1482 51.056 11.274 50.8218 10.5028 51.1178C8.77818 51.7798 7.21402 49.8482 8.22011 48.299C8.67005 47.6061 8.62269 46.7024 8.10279 46.0604C6.94027 44.6248 8.29396 42.5403 10.0783 43.0184C10.8763 43.2322 11.7212 42.9079 12.1711 42.215Z" fill="#FBBC05"/>
<path d="M46.88 43.6413C47.886 42.092 50.2868 42.7353 50.3835 44.5801C50.4268 45.4051 50.9963 46.1084 51.7943 46.3222C53.5786 46.8003 53.7087 49.2824 51.9841 49.9444C51.2128 50.2404 50.7199 50.9994 50.7632 51.8244C50.8599 53.6692 48.5395 54.5599 47.3769 53.1243C46.857 52.4823 45.9829 52.248 45.2116 52.5441C43.487 53.2061 41.9229 51.2745 42.929 49.7253C43.3789 49.0324 43.3315 48.1286 42.8117 47.4866C41.6491 46.051 43.0028 43.9665 44.7871 44.4446C45.5851 44.6585 46.43 44.3341 46.88 43.6413Z" fill="#FBBC05"/>
<defs>
<linearGradient id="paint0_linear_1022_566" x1="51.9043" y1="32.807" x2="59.0362" y2="32.807" gradientUnits="userSpaceOnUse">
<stop stop-color="#34BE1F"/>
<stop offset="1" stop-color="#138A00"/>
</linearGradient>
<linearGradient id="paint1_linear_1022_566" x1="7.13193" y1="7.13193" x2="14.2639" y2="7.13193" gradientUnits="userSpaceOnUse">
<stop stop-color="#34BE1F"/>
<stop offset="1" stop-color="#138A00"/>
</linearGradient>
<linearGradient id="paint2_linear_1022_566" x1="30.9842" y1="9.98486" x2="30.9842" y2="51.8255" gradientUnits="userSpaceOnUse">
<stop stop-color="#1A5611"/>
<stop offset="0.525" stop-color="#39BC25"/>
</linearGradient>
</defs>
</svg>
