<svg width="49" height="47" viewBox="0 0 49 47" fill="none" xmlns="http://www.w3.org/2000/svg">
<path d="M24.0542 3.88076C27.523 3.88076 30.3323 6.69153 30.3323 10.162C30.3323 13.6325 27.523 16.4433 24.0542 16.4433C20.5854 16.4433 17.776 13.6325 17.776 10.162C17.776 6.69153 20.5854 3.88076 24.0542 3.88076ZM24.0542 0C18.4521 0 13.8972 4.55712 13.8972 10.162C13.8972 15.767 18.4521 20.3241 24.0542 20.3241C29.6563 20.3241 34.2112 15.767 34.2112 10.162C34.2112 4.55712 29.6563 0 24.0542 0Z" fill="#0F0F0F"/>
<path d="M15.6868 9.74062C19.1555 9.74062 21.9649 12.5514 21.9649 16.0219C21.9649 19.4924 19.1555 22.3032 15.6868 22.3032C12.218 22.3032 9.40861 19.4924 9.40861 16.0219C9.40861 12.5514 12.218 9.74062 15.6868 9.74062ZM15.6868 5.85986C10.0846 5.85986 5.52979 10.417 5.52979 16.0219C5.52979 21.6268 10.0846 26.1839 15.6868 26.1839C21.2889 26.1839 25.8437 21.6268 25.8437 16.0219C25.8437 10.417 21.2889 5.85986 15.6868 5.85986Z" fill="#0F0F0F"/>
<path d="M32.4267 9.74062C35.8955 9.74062 38.7049 12.5514 38.7049 16.0219C38.7049 19.4924 35.8955 22.3032 32.4267 22.3032C28.958 22.3032 26.1486 19.4924 26.1486 16.0219C26.1486 12.5514 28.958 9.74062 32.4267 9.74062ZM32.4267 5.85986C26.8246 5.85986 22.2698 10.417 22.2698 16.0219C22.2698 21.6268 26.8246 26.1839 32.4267 26.1839C38.0289 26.1839 42.5837 21.6268 42.5837 16.0219C42.5837 10.417 38.0289 5.85986 32.4267 5.85986Z" fill="#0F0F0F"/>
<path d="M24.0544 11.9911C32.4271 11.9911 39.215 18.7824 39.215 27.1593C39.215 35.5362 32.4271 42.3275 24.0544 42.3275C15.6816 42.3275 8.89371 35.5362 8.89371 27.1593C8.89371 18.7824 15.6816 11.9911 24.0544 11.9911ZM24.0544 8.11035C13.5538 8.11035 5.01489 16.6536 5.01489 27.1593C5.01489 37.6651 13.5538 46.2083 24.0544 46.2083C34.5549 46.2083 43.0938 37.6651 43.0938 27.1593C43.0938 16.6536 34.5549 8.11035 24.0544 8.11035Z" fill="#0F0F0F"/>
<path d="M9.04873 21.9926C11.9024 21.9926 14.2186 24.3099 14.2186 27.1651C14.2186 30.0202 11.9024 32.3376 9.04873 32.3376C6.19503 32.3376 3.87882 30.0202 3.87882 27.1651C3.87882 24.3099 6.19503 21.9926 9.04873 21.9926ZM9.04873 18.1118C4.06168 18.1118 0 22.17 0 27.1651C0 32.1602 4.05614 36.2183 9.04873 36.2183C14.0413 36.2183 18.0975 32.1602 18.0975 27.1651C18.0975 22.17 14.0413 18.1118 9.04873 18.1118Z" fill="#0F0F0F"/>
<path d="M39.5417 21.9926C42.3954 21.9926 44.7116 24.3099 44.7116 27.1651C44.7116 30.0202 42.3954 32.3376 39.5417 32.3376C36.6879 32.3376 34.3717 30.0202 34.3717 27.1651C34.3717 24.3099 36.6879 21.9926 39.5417 21.9926ZM39.5417 18.1118C34.5546 18.1118 30.4929 22.17 30.4929 27.1651C30.4929 32.1602 34.5491 36.2183 39.5417 36.2183C44.5342 36.2183 48.5904 32.1602 48.5904 27.1651C48.5904 22.17 44.5342 18.1118 39.5417 18.1118Z" fill="#0F0F0F"/>
<path d="M20.0479 20.2466H14.4125C13.8953 20.2466 13.4761 20.6661 13.4761 21.1835C13.4761 21.701 13.8953 22.1204 14.4125 22.1204H20.0479C20.5651 22.1204 20.9844 21.701 20.9844 21.1835C20.9844 20.6661 20.5651 20.2466 20.0479 20.2466Z" fill="#0F0F0F"/>
<path d="M34.1783 20.2466H28.5429C28.0257 20.2466 27.6064 20.6661 27.6064 21.1835C27.6064 21.701 28.0257 22.1204 28.5429 22.1204H34.1783C34.6955 22.1204 35.1147 21.701 35.1147 21.1835C35.1147 20.6661 34.6955 20.2466 34.1783 20.2466Z" fill="#0F0F0F"/>
<path d="M9.04857 32.3324C11.9038 32.3324 14.2185 30.0166 14.2185 27.1599C14.2185 24.3032 11.9038 21.9874 9.04857 21.9874C6.19331 21.9874 3.87866 24.3032 3.87866 27.1599C3.87866 30.0166 6.19331 32.3324 9.04857 32.3324Z" fill="url(#paint0_linear_1697_800)"/>
<path d="M39.5416 32.3324C42.3969 32.3324 44.7115 30.0166 44.7115 27.1599C44.7115 24.3032 42.3969 21.9874 39.5416 21.9874C36.6863 21.9874 34.3717 24.3032 34.3717 27.1599C34.3717 30.0166 36.6863 32.3324 39.5416 32.3324Z" fill="url(#paint1_linear_1697_800)"/>
<path d="M23.8101 42.4462C32.1831 42.4462 38.9708 35.6551 38.9708 27.2779C38.9708 18.9008 32.1831 12.1097 23.8101 12.1097C15.4371 12.1097 8.64947 18.9008 8.64947 27.2779C8.64947 35.6551 15.4371 42.4462 23.8101 42.4462Z" fill="url(#paint2_linear_1697_800)"/>
<path d="M30.3322 10.1626C30.3322 13.6331 27.5229 16.4439 24.0541 16.4439C20.5853 16.4439 17.7759 13.6331 17.7759 10.1626C17.7759 6.69212 20.5853 3.88135 24.0541 3.88135C27.5229 3.88135 30.3322 6.69212 30.3322 10.1626Z" fill="#00327D"/>
<path d="M30.3322 16.0225C30.3322 19.493 27.5229 22.3038 24.0541 22.3038C20.5853 22.3038 17.7759 19.493 17.7759 16.0225C17.7759 12.552 20.5853 9.7412 24.0541 9.7412C27.5229 9.7412 30.3322 12.552 30.3322 16.0225Z" fill="#00327D"/>
<path d="M38.6994 16.0225C38.6994 19.493 35.89 22.3038 32.4213 22.3038C28.9525 22.3038 26.1431 19.493 26.1431 16.0225C26.1431 12.552 28.9525 9.7412 32.4213 9.7412C35.89 9.7412 38.6994 12.552 38.6994 16.0225Z" fill="#00327D"/>
<path d="M21.9647 16.0227C21.9647 19.4932 19.1554 22.304 15.6866 22.304C12.2178 22.304 9.40844 19.4932 9.40844 16.0227C9.40844 12.5522 12.2178 9.74141 15.6866 9.74141C19.1554 9.74141 21.9647 12.5522 21.9647 16.0227Z" fill="#00327D"/>
<path d="M35.4902 29.0905C35.4902 29.0905 35.4902 25.0178 30.8357 25.0178C26.1813 25.0178 26.1813 29.0905 26.1813 29.0905M22.1085 29.0905C22.1085 29.0905 22.1085 25.0178 17.454 25.0178C12.7996 25.0178 12.7996 29.0905 12.7996 29.0905" stroke="#0F0F0F" stroke-width="2" stroke-linecap="round"/>
<path d="M24.2922 38.0264C27.1475 38.0264 29.4621 35.7106 29.4621 32.8539C29.4621 29.9972 27.1475 27.6814 24.2922 27.6814C21.437 27.6814 19.1223 29.9972 19.1223 32.8539C19.1223 35.7106 21.437 38.0264 24.2922 38.0264Z" fill="#00327D"/>
<path d="M37.1632 14.0263C37.7012 13.1979 38.985 13.5419 39.0367 14.5283L39.0546 14.8693C39.0777 15.3104 39.3823 15.6865 39.809 15.8009L40.1388 15.8892C41.0929 16.1449 41.1625 17.4722 40.2403 17.8262L39.9215 17.9485C39.5091 18.1068 39.2455 18.5127 39.2687 18.9539L39.2865 19.2948C39.3382 20.2813 38.0974 20.7576 37.4758 19.9899L37.2609 19.7246C36.9829 19.3813 36.5154 19.256 36.103 19.4143L35.7842 19.5367C34.862 19.8907 34.0256 18.8578 34.5636 18.0293L34.7496 17.743C34.9902 17.3725 34.9649 16.8892 34.6868 16.5459L34.472 16.2806C33.8503 15.5129 34.5742 14.3982 35.5283 14.6539L35.8582 14.7422C36.2849 14.8566 36.7367 14.6832 36.9773 14.3127L37.1632 14.0263Z" fill="#FBBC05"/>
<path d="M28.6467 18.2552C29.0186 17.6825 29.9061 17.9203 29.9419 18.6023C29.9579 18.9073 30.1684 19.1673 30.4634 19.2463C31.123 19.423 31.1711 20.3406 30.5336 20.5853C30.2485 20.6948 30.0662 20.9754 30.0822 21.2804C30.118 21.9623 29.2602 22.2916 28.8304 21.7609C28.6382 21.5235 28.315 21.437 28.0299 21.5464C27.3924 21.7911 26.8141 21.0771 27.1861 20.5043C27.3524 20.2482 27.3349 19.9141 27.1427 19.6768C26.7129 19.1461 27.2134 18.3755 27.873 18.5522C28.168 18.6313 28.4803 18.5114 28.6467 18.2552Z" fill="#FBBC05"/>
<path d="M18.2577 38.847C18.6297 38.2743 19.5172 38.5121 19.5529 39.1941C19.5689 39.499 19.7795 39.7591 20.0745 39.8381C20.7341 40.0148 20.7822 40.9324 20.1446 41.1771C19.8595 41.2866 19.6773 41.5672 19.6933 41.8722C19.729 42.5541 18.8712 42.8834 18.4415 42.3527C18.2493 42.1153 17.9261 42.0288 17.641 42.1382C17.0035 42.3829 16.4252 41.6689 16.7971 41.0961C16.9635 40.84 16.946 40.5059 16.7538 40.2686C16.324 39.7379 16.8244 38.9673 17.4841 39.144C17.7791 39.223 18.0914 39.1031 18.2577 38.847Z" fill="#FBBC05"/>
<path d="M9.53079 20.2291C9.90272 19.6564 10.7902 19.8942 10.826 20.5761C10.842 20.8811 11.0525 21.1411 11.3475 21.2201C12.0071 21.3969 12.0552 22.3145 11.4177 22.5592C11.1326 22.6686 10.9504 22.9492 10.9663 23.2542C11.0021 23.9362 10.1443 24.2654 9.71451 23.7347C9.52232 23.4974 9.19916 23.4108 8.91404 23.5203C8.2765 23.765 7.69826 23.0509 8.0702 22.4782C8.23653 22.2221 8.21902 21.888 8.02682 21.6506C7.59706 21.1199 8.09749 20.3493 8.75712 20.5261C9.05211 20.6051 9.36446 20.4852 9.53079 20.2291Z" fill="#FBBC05"/>
<path d="M12.727 33.8078C13.265 32.9794 14.5488 33.3234 14.6005 34.3098L14.6184 34.6508C14.6415 35.092 14.946 35.4681 15.3728 35.5824L15.7026 35.6708C16.6567 35.9264 16.7263 37.2537 15.8041 37.6077L15.4853 37.7301C15.0729 37.8884 14.8093 38.2942 14.8324 38.7354L14.8503 39.0764C14.902 40.0628 13.6612 40.5391 13.0395 39.7715L12.8247 39.5061C12.5467 39.1628 12.0792 39.0375 11.6668 39.1959L11.348 39.3182C10.4258 39.6722 9.58939 38.6393 10.1274 37.8109L10.3134 37.5245C10.554 37.154 10.5286 36.6707 10.2506 36.3274L10.0357 36.0621C9.41409 35.2944 10.138 34.1797 11.0921 34.4354L11.4219 34.5238C11.8486 34.6381 12.3004 34.4647 12.541 34.0942L12.727 33.8078Z" fill="#FBBC05"/>
<path d="M33.6725 33.8078C34.2105 32.9794 35.4943 33.3234 35.546 34.3098L35.5639 34.6508C35.587 35.092 35.8916 35.4681 36.3183 35.5824L36.6481 35.6708C37.6022 35.9264 37.6718 37.2537 36.7496 37.6077L36.4308 37.7301C36.0184 37.8884 35.7548 38.2942 35.778 38.7354L35.7958 39.0764C35.8475 40.0628 34.6067 40.5391 33.9851 39.7715L33.7702 39.5061C33.4922 39.1628 33.0247 39.0375 32.6123 39.1959L32.2936 39.3182C31.3713 39.6722 30.5349 38.6393 31.0729 37.8109L31.2589 37.5245C31.4995 37.154 31.4742 36.6707 31.1961 36.3274L30.9813 36.0621C30.3596 35.2944 31.0835 34.1797 32.0377 34.4354L32.3675 34.5238C32.7942 34.6381 33.246 34.4647 33.4866 34.0942L33.6725 33.8078Z" fill="#FBBC05"/>
<defs>
<linearGradient id="paint0_linear_1697_800" x1="24.2951" y1="23.1844" x2="3.87866" y2="23.1844" gradientUnits="userSpaceOnUse">
<stop stop-color="#0066FF"/>
<stop offset="1" stop-color="#003F9E"/>
</linearGradient>
<linearGradient id="paint1_linear_1697_800" x1="24.2951" y1="23.1844" x2="44.7115" y2="23.1844" gradientUnits="userSpaceOnUse">
<stop stop-color="#0066FF"/>
<stop offset="1" stop-color="#003F9E"/>
</linearGradient>
<linearGradient id="paint2_linear_1697_800" x1="24.2951" y1="3.88135" x2="24.2951" y2="42.4532" gradientUnits="userSpaceOnUse">
<stop offset="0.379261" stop-color="#003D99"/>
<stop offset="1" stop-color="#0066FF"/>
</linearGradient>
</defs>
</svg>
