<svg width="37" height="37" viewBox="0 0 37 37" fill="none" xmlns="http://www.w3.org/2000/svg">
<g clip-path="url(#clip0_651_2344)">
<rect width="37" height="37" rx="9" fill="url(#paint0_linear_651_2344)"/>
<path d="M13.7721 30.2158C13.7721 30.2158 15.5813 29.5979 19.1114 29.7303C21.1412 29.8186 23.3034 30.3482 23.7888 30.5689C24.7596 31.0103 26.2599 31.3193 28.5545 30.7896C32.8347 29.7744 32.4817 26.464 32.1728 24.875C31.5992 21.8294 29.6135 20.0197 28.8192 18.0776C28.2897 16.7975 21.1412 16.5327 16.861 20.5493C14.6546 22.5356 13.5956 28.4061 13.7721 30.2158Z" fill="#321011"/>
<path d="M17.4344 19.5341L14.125 30.3482L13.1542 32.8641C13.1542 32.8641 14.5662 34.6738 17.9198 35.3801C20.2144 35.8656 21.7588 35.9097 22.7737 35.8215C23.6121 35.7332 24.627 35.5566 24.0975 34.0118C23.3474 31.7165 23.6121 30.2599 23.6121 30.2599L24.8035 23.7715L17.4344 19.5341Z" fill="#EA9D7D"/>
<path d="M16.9051 25.3605C18.0083 27.0378 19.9498 28.4502 21.053 28.9799C22.5974 29.7303 23.7006 29.9068 23.7006 29.9068L24.6714 24.5218L17.4346 19.5341L17.0375 20.2845L16.7286 21.5204C16.6845 21.5645 15.8902 23.8156 16.9051 25.3605Z" fill="url(#paint1_linear_651_2344)"/>
<path d="M13.4191 32.9524H13.375C13.3344 32.9317 13.3005 32.9001 13.2771 32.8611C13.2537 32.822 13.2418 32.7772 13.2426 32.7317L15.3165 26.3757C15.7137 25.0515 16.9051 20.5935 16.9051 20.5935C16.9258 20.5529 16.9574 20.519 16.9964 20.4956C17.0354 20.4722 17.0802 20.4602 17.1257 20.461C17.1662 20.4817 17.2001 20.5134 17.2236 20.5524C17.247 20.5914 17.2589 20.6362 17.2581 20.6817L15.6695 26.464C15.3165 27.6557 13.5956 32.7759 13.5956 32.7759C13.5956 32.9083 13.5074 32.9524 13.4191 32.9524Z" fill="#CF7653"/>
<path d="M18.67 22.0942L18.7583 22.3149L18.9348 22.1383L18.67 22.0942Z" fill="#A84D3B"/>
<path d="M18.6701 21.8294L18.5377 22.2266L19.0231 22.1383L18.6701 21.8294ZM21.0088 23.5067V23.9922L21.4942 23.7715L21.0088 23.5067ZM19.8174 22.7563L19.7733 23.2418L20.2587 23.0653L19.8174 22.7563ZM19.1555 22.2708L19.0672 22.7563L19.5968 22.6239L19.1555 22.2708Z" fill="#A84D3B"/>
<path d="M18.3612 21.388L18.1847 21.8294H18.7142L18.3612 21.388ZM21.6707 24.566L21.45 24.3012L21.2735 24.6101L21.6707 24.566ZM21.0529 24.0805L20.7882 23.7273L20.6558 24.1246L21.0529 24.0805ZM22.8621 25.0074L22.5532 24.6984L22.465 25.0515L22.8621 25.0074ZM24.1859 25.4929L23.877 25.1398L23.7446 25.537L24.1859 25.4929ZM21.8472 23.9039L21.5824 23.7715V24.1687L21.8472 23.9039ZM22.465 25.2722L22.2443 25.0515L22.1119 25.3605L22.465 25.2722ZM20.744 23.5066L20.4793 23.3301L20.4351 23.7273L20.744 23.5066ZM23.0827 24.4336L22.6415 24.257L22.6856 24.7867L23.0827 24.4336ZM23.9211 24.566L23.5681 24.5218L23.6564 24.9191L23.9211 24.566ZM24.4948 25.2722H24.1418L24.2741 25.5812L24.4948 25.2722ZM23.2592 25.1839L23.1269 24.875L22.9062 25.1839H23.2592ZM24.3183 26.1991L24.3624 25.8902L24.0094 25.9784L24.3183 26.1991ZM24.23 26.7729L24.2741 26.464L23.9211 26.5522L24.23 26.7729ZM23.4799 26.7729L23.3034 26.9054L23.524 27.0378L23.4799 26.7729ZM23.6122 25.0515L23.4357 25.2281L23.7005 25.3605L23.6122 25.0515ZM24.6271 24.7425L24.3624 24.6984L24.4506 24.9632L24.6271 24.7425ZM23.7887 27.3026L23.6122 27.435L23.877 27.5674L23.7887 27.3026ZM19.4202 22.7121L19.2437 22.8446L19.4644 22.977L19.4202 22.7121ZM22.3767 24.8308L22.2443 24.6984L22.2002 24.9191L22.3767 24.8308ZM21.1412 24.4777L21.1853 24.3012H20.9647L21.1412 24.4777ZM21.7589 24.875L21.8472 24.6984H21.6266L21.7589 24.875ZM22.6856 25.7577L22.7738 25.9784L22.9945 25.8019L22.6856 25.7577ZM23.9653 24.875L23.8329 25.0074L24.0094 25.0957L23.9653 24.875Z" fill="#A84D3B"/>
<path d="M24.0534 24.6543L23.8328 24.8308L24.0976 24.9632L24.0534 24.6543ZM23.5239 24.8308L23.3474 24.9632L23.5239 25.0515V24.8308ZM23.7004 27.9647L23.5239 28.053L23.7004 28.1854V27.9647ZM23.215 27.4792L23.3033 27.6557L23.4357 27.4792H23.215ZM23.1709 26.4198L23.2592 26.5964L23.3915 26.4198H23.1709ZM24.0093 26.8171L23.8769 26.7288L23.8328 26.9054L24.0093 26.8171ZM17.8757 24.7425L17.964 24.8308L18.0523 24.6984L17.8757 24.7425ZM18.7142 24.2129L18.6259 24.3012H18.7583L18.7142 24.2129ZM19.5967 25.7577L19.4643 25.7136L19.5084 25.8902L19.5967 25.7577ZM19.1554 25.0074L19.0672 25.1398H19.2437L19.1554 25.0074ZM22.2001 26.4198L22.156 26.6847L22.4208 26.5523L22.2001 26.4198ZM21.803 24.4336V24.6543L22.0236 24.566L21.803 24.4336ZM21.803 23.9922V24.2129L22.0678 24.0805L21.803 23.9922ZM18.4053 22.6239V22.8887L18.6259 22.7563L18.4053 22.6239ZM23.7004 25.846L23.4798 25.8902L23.6563 26.0667L23.7004 25.846ZM23.0385 27.6999L22.9503 27.5233L22.7738 27.6999H23.0385ZM23.1709 25.4046L23.3033 25.5812L23.4357 25.3605L23.1709 25.4046ZM23.8769 25.6695L24.0093 25.8902L24.1417 25.6253L23.8769 25.6695ZM24.3182 24.8308L24.1858 25.0074L24.4065 25.0515L24.3182 24.8308ZM24.0534 26.2433L23.8769 26.1109V26.3757L24.0534 26.2433ZM19.0672 22.3149L18.8024 22.4915L19.1113 22.668L19.0672 22.3149ZM18.1846 22.668L18.0523 22.5356L18.0081 22.7563L18.1846 22.668ZM17.3021 22.2266L17.2139 22.1383L17.1697 22.3149L17.3021 22.2266ZM17.0815 23.5949L17.1256 23.4184H16.9491L17.0815 23.5949ZM18.7583 22.6239L18.8465 22.8004L19.023 22.6239H18.7583ZM18.2288 22.1825L18.3611 22.4473L18.5818 22.2266L18.2288 22.1825ZM18.1405 20.9907L17.964 21.2556L18.317 21.2997L18.1405 20.9907ZM19.4643 23.1094L19.3319 23.1977L19.5084 23.3301L19.4643 23.1094ZM19.8173 22.9328L19.6849 23.0211L19.8614 23.1094L19.8173 22.9328ZM20.1703 23.1094L20.0379 23.1977L20.1703 23.3301V23.1094ZM19.5084 24.3012L19.4202 24.2129L19.376 24.3894L19.5084 24.3012ZM16.8608 22.8004L16.9491 22.9328L17.0815 22.7563L16.8608 22.8004ZM17.8757 21.7852L17.7434 21.8735L17.9199 21.9618L17.8757 21.7852ZM17.8316 23.4184L17.6992 23.3301L17.6551 23.5067L17.8316 23.4184ZM17.964 21.6087L18.0523 21.7411L18.1846 21.5645L17.964 21.6087ZM18.4053 21.8294L18.4935 22.0059L18.6259 21.8294H18.4053ZM17.3904 21.388L17.258 21.5204L17.4345 21.5645L17.3904 21.388ZM17.5227 20.9466L17.3904 20.8583L17.3462 21.0349L17.5227 20.9466ZM19.8614 23.3742V23.5508L20.0821 23.4625L19.8614 23.3742ZM20.6998 23.7274L20.5233 23.7715L20.6557 23.9039L20.6998 23.7274ZM20.3468 23.3742L20.1703 23.4184L20.3027 23.5508L20.3468 23.3742ZM23.3033 24.6984L23.1268 24.7425L23.2592 24.875L23.3033 24.6984ZM22.6414 24.4336L22.509 24.4777L22.5973 24.6101L22.6414 24.4336ZM20.5675 24.7425L20.5233 24.6101L20.391 24.7425H20.5675ZM23.0385 26.9495L22.9944 26.8171L22.862 26.9495H23.0385ZM20.3468 24.3012L20.2586 24.1687L20.1262 24.3012H20.3468ZM21.4941 24.0363V24.257L21.6706 24.1687L21.4941 24.0363ZM22.2001 24.2129V24.3894L22.3766 24.3012L22.2001 24.2129ZM22.9944 24.6101L22.8179 24.6543L22.9503 24.7867L22.9944 24.6101ZM22.3766 25.4929L22.2884 25.3605L22.2001 25.4929H22.3766ZM20.4792 25.4488V25.6253L20.6557 25.5371L20.4792 25.4488ZM21.3176 25.0074L21.1852 25.0515L21.2735 25.1839L21.3176 25.0074ZM22.8179 25.3605L22.7738 25.2281L22.6414 25.3605H22.8179Z" fill="#A84D3B"/>
<path d="M28.378 8.19037C29.3488 9.42626 29.6576 10.4856 29.8341 11.7656L29.9665 14.1492C29.9665 16.003 29.8341 18.6072 29.6135 20.0638C29.1723 22.5797 27.9808 24.0805 26.5688 24.5218C25.1567 24.9632 22.5974 24.0363 20.8765 23.1535C19.4203 22.4032 18.5819 21.6087 18.3613 20.6817C18.1407 19.7107 17.6994 18.4748 17.6994 18.4748L15.1842 16.7534C15.1842 16.7534 13.2426 10.0884 17.5229 7.21931C21.2295 4.74752 26.657 6.02755 28.378 8.19037Z" fill="#EA9D7D"/>
<path d="M25.0684 24.7426C24.583 24.7426 24.1859 24.6543 23.3034 24.4336C21.8913 24.0805 19.9056 22.977 18.8907 22.0059C17.9199 21.0349 18.0082 20.1079 18.0082 20.0638C18.0082 19.9755 18.0082 19.8431 18.0964 19.8431C18.1847 19.8431 18.2288 19.9314 18.273 20.0197C18.3171 20.1962 18.3171 20.9466 19.1114 21.7411C20.038 22.668 22.0237 23.7274 23.3475 24.0805C24.7154 24.3894 24.9802 24.4777 25.9951 24.3894C26.9659 24.3012 27.4954 23.9922 27.4954 23.9922C27.6719 23.8598 27.716 23.8598 27.6277 23.9922C27.5395 24.0805 27.01 24.5219 26.0392 24.6984C25.6421 24.7426 25.3773 24.7426 25.0684 24.7426Z" fill="#B76349"/>
<path d="M22.818 14.9437C22.7527 14.8929 22.7079 14.8204 22.6917 14.7394C22.6755 14.6584 22.689 14.5742 22.7297 14.5023C22.7738 14.4581 23.4799 13.3988 25.0684 13.5312C25.2449 13.5312 25.3773 13.7078 25.3773 13.8843C25.3773 14.0609 25.2008 14.1933 25.0243 14.1933C23.8329 14.105 23.3475 14.8554 23.3034 14.8995C23.1269 15.0319 22.8621 14.9878 22.818 14.9437ZM29.3928 14.1492C29.3487 14.1492 29.2604 14.1492 29.2163 14.105C28.9074 13.8843 28.5544 13.9285 28.5103 13.9285C28.3338 13.9726 28.1573 13.8402 28.1131 13.6636C28.069 13.4871 28.2014 13.3105 28.3779 13.2664C28.422 13.2664 29.0398 13.0898 29.6134 13.5754C29.7458 13.6636 29.7458 13.8843 29.6576 14.0167C29.6134 14.105 29.4811 14.1492 29.3928 14.1492Z" fill="#4F2B23"/>
<path d="M25.2449 22.0059C23.5681 21.9176 22.8621 20.7259 22.6856 20.0638C22.6414 19.8872 22.7297 19.7107 22.9062 19.6666C23.0827 19.6224 23.2592 19.7107 23.3033 19.8872C23.3033 19.9314 23.6563 21.2556 25.2449 21.3438C25.4214 21.3438 25.5538 21.5204 25.5538 21.6528C25.5538 21.8735 25.4214 22.0059 25.2449 22.0059Z" fill="#CF7653"/>
<path d="M26.657 19.5783H26.5687C26.3922 19.5783 26.304 19.4017 26.304 19.2693C26.304 19.0928 26.4805 19.0045 26.6128 19.0045C26.7011 19.0045 26.9217 19.0045 27.01 18.7396C27.0982 18.4748 26.8776 18.0776 26.7893 17.9451C26.7011 17.8127 26.7011 17.6362 26.8335 17.5479C26.9658 17.4596 27.1424 17.4596 27.2306 17.592C27.2747 17.6803 27.7601 18.2982 27.5836 18.9162C27.4071 19.4459 26.9659 19.5783 26.657 19.5783Z" fill="#B4603F"/>
<path d="M24.3624 17.1948C24.7036 17.1948 24.9802 16.9181 24.9802 16.5768C24.9802 16.2355 24.7036 15.9589 24.3624 15.9589C24.0212 15.9589 23.7446 16.2355 23.7446 16.5768C23.7446 16.9181 24.0212 17.1948 24.3624 17.1948Z" fill="#4F2B23"/>
<path d="M24.2299 16.4003C24.1417 16.4003 23.8769 16.4444 23.8328 16.3561C23.7886 16.2237 24.0093 16.003 24.1416 15.9589C24.5829 15.7382 24.9359 15.7823 25.0683 15.7823C25.1268 15.7823 25.1829 15.8056 25.2243 15.847C25.2657 15.8883 25.2889 15.9445 25.2889 16.003C25.2889 16.0615 25.2657 16.1177 25.2243 16.1591C25.1829 16.2005 25.1268 16.2237 25.0683 16.2237C24.9359 16.2237 24.6712 16.2237 24.3182 16.3561C24.3182 16.4003 24.274 16.4003 24.2299 16.4003Z" fill="#4F2B23"/>
<path d="M28.9515 16.8416C29.2927 16.8416 29.5693 16.565 29.5693 16.2237C29.5693 15.8824 29.2927 15.6057 28.9515 15.6057C28.6103 15.6057 28.3337 15.8824 28.3337 16.2237C28.3337 16.565 28.6103 16.8416 28.9515 16.8416Z" fill="#4F2B23"/>
<path d="M28.8191 16.0471C28.7309 16.0471 28.4661 16.1354 28.422 16.0471C28.3779 15.9147 28.5985 15.694 28.7309 15.6058C29.1721 15.3851 29.5252 15.4292 29.6575 15.4292C29.716 15.4292 29.7722 15.4525 29.8135 15.4938C29.8549 15.5352 29.8782 15.5914 29.8782 15.6499C29.8782 15.7084 29.8549 15.7646 29.8135 15.806C29.7722 15.8473 29.716 15.8706 29.6575 15.8706C29.5252 15.8706 29.2604 15.8706 28.9074 16.003C28.9074 16.0472 28.8633 16.0471 28.8191 16.0471Z" fill="#4F2B23"/>
<path d="M25.5979 18.5189L25.9068 18.3424L25.5538 18.1658L25.5979 18.5189ZM22.2443 18.0775L22.1561 17.8568L21.9354 18.0775H22.2443ZM26.5246 18.2541H26.9217L26.7452 17.8127L26.5246 18.2541ZM25.8185 16.8858L26.1274 17.1065L26.2157 16.7534L25.8185 16.8858ZM25.9951 16.4885L26.3922 16.2678L26.0392 16.003L25.9951 16.4885ZM26.7011 20.0638L27.0541 19.8872L26.7452 19.5783L26.7011 20.0638ZM27.716 19.6665L27.9366 19.2251H27.4512L27.716 19.6665ZM25.5097 18.1658L25.2008 18.2099L25.3773 18.5189L25.5097 18.1658Z" fill="#F4B9A6"/>
<path d="M25.7744 17.7686L25.4214 17.8127L25.642 18.0775L25.7744 17.7686ZM25.5538 19.4017L25.642 19.7107L25.9509 19.49L25.5538 19.4017ZM25.642 20.0197L25.9068 20.1962L26.0391 19.8872L25.642 20.0197ZM27.1423 21.1231L26.8334 21.1673L27.0541 21.4321L27.1423 21.1231ZM26.4804 14.3698L26.348 14.5905H26.701L26.4804 14.3698ZM26.6128 16.312L26.348 16.2237L26.4363 16.5327L26.6128 16.312ZM26.9658 15.385L26.701 15.2968L26.7893 15.6057L26.9658 15.385ZM25.1125 16.6209L25.0242 16.8858L25.3772 16.8416L25.1125 16.6209ZM25.4655 15.2526L25.2007 15.385L25.4655 15.6057V15.2526ZM24.1858 15.5616L24.0093 15.6057L24.0976 15.7823L24.1858 15.5616ZM26.6128 21.0349L26.348 21.1231L26.5245 21.3438L26.6128 21.0349ZM26.3039 20.8583L26.0391 20.9024L26.2157 21.1673L26.3039 20.8583ZM24.1858 18.9603H23.877L24.0093 19.2251L24.1858 18.9603ZM24.7595 19.5341H24.4947L24.6271 19.799L24.7595 19.5341ZM24.0093 18.0334L23.9652 18.2982L24.2741 18.2099L24.0093 18.0334ZM25.4214 17.8568L25.3772 17.6361L25.1125 17.8568H25.4214ZM28.069 20.4169L28.2013 20.2403L27.9366 20.1962L28.069 20.4169ZM27.0982 19.5783L27.2306 19.6224L27.2747 19.4458L27.0982 19.5783ZM28.9515 17.8568L28.9074 18.0775L29.0839 17.9893L28.9515 17.8568ZM28.0248 18.6955L28.2455 18.7396L28.2013 18.5189L28.0248 18.6955Z" fill="#F4B9A6"/>
<path d="M28.9956 18.21L29.0398 18.0334H28.8191L28.9956 18.21ZM23.4798 16.1796L23.3475 16.3561L23.5681 16.4003L23.4798 16.1796ZM26.0833 15.1644L26.4804 15.1202L26.2157 14.8112L26.0833 15.1644ZM26.0392 19.0486L26.4804 19.0045L26.1715 18.6514L26.0392 19.0486ZM25.7744 16.4885L25.5096 16.4444L25.5538 16.7092L25.7744 16.4885ZM23.6122 18.21L23.6563 17.9451L23.3033 18.0775L23.6122 18.21ZM25.3773 15.7382L25.4214 16.0471L25.7303 15.8706L25.3773 15.7382ZM24.9801 16.312L25.0243 16.621L25.3773 16.4885L24.9801 16.312ZM25.3331 16.0913L25.289 16.4003L25.642 16.2237L25.3331 16.0913ZM27.9366 16.1796L28.2014 16.312V16.003L27.9366 16.1796ZM25.7303 17.4155L25.5979 17.2389L25.4214 17.4596L25.7303 17.4155ZM26.7452 20.77L26.5246 20.8142L26.7011 21.0349L26.7452 20.77ZM25.7303 19.0045L25.642 19.181L25.9068 19.1369L25.7303 19.0045ZM25.8627 20.3286L25.7744 20.1079L25.642 20.3286H25.8627ZM26.2598 20.5493L26.4363 20.4169L26.1715 20.3286L26.2598 20.5493ZM26.3922 20.1079L26.6128 19.9755L26.348 19.799L26.3922 20.1079ZM26.3039 19.7548L26.5246 19.6224L26.3039 19.4459V19.7548ZM26.348 18.6072L26.5246 18.4748L26.3039 18.2982L26.348 18.6072ZM25.7744 18.6514L25.9509 18.8279L26.0833 18.6072L25.7744 18.6514ZM27.9366 20.6818L27.716 20.7259L27.8925 20.9466L27.9366 20.6818ZM26.9217 18.3865L26.7893 18.5631L27.0099 18.6514L26.9217 18.3865ZM27.3188 20.8142L27.1423 20.6376L27.0099 20.8142H27.3188ZM25.8627 21.4763L25.9068 21.7411L26.1715 21.6087L25.8627 21.4763ZM25.3331 20.1521L25.1125 20.2404L25.289 20.4169L25.3331 20.1521ZM23.1268 17.3713L22.9944 17.1948L22.8621 17.4155L23.1268 17.3713ZM25.4214 20.77L25.5979 20.8583L25.642 20.5935L25.4214 20.77ZM24.8036 20.2404L24.9801 20.3728V20.1079L24.8036 20.2404ZM24.2741 21.9618L24.1417 22.1383H24.4065L24.2741 21.9618ZM23.9211 21.6528L23.7005 21.6087L23.7446 21.8294L23.9211 21.6528ZM23.4798 21.5645H23.2592L23.3033 21.7852L23.4798 21.5645ZM25.995 18.1658L26.4804 18.0775L26.1274 17.6803L25.995 18.1658ZM25.7303 17.0623L25.8185 17.283L25.995 17.0623H25.7303Z" fill="#F4B9A6"/>
<path d="M25.7303 17.4596L25.9509 17.8568L26.304 17.4596H25.7303ZM26.9217 16.974L26.5687 17.283L27.0541 17.4154L26.9217 16.974ZM23.9653 17.4154L24.0094 17.2389L23.7446 17.3272L23.9653 17.4154ZM26.657 17.4154L26.4805 17.5479L26.7011 17.6361L26.657 17.4154ZM25.8627 15.9588L26.1716 15.9147L25.9951 15.694L25.8627 15.9588ZM27.5395 16.7092L27.8484 16.6651L27.6278 16.4002L27.5395 16.7092ZM25.6862 16.5768L25.9951 16.5327L25.7744 16.2678L25.6862 16.5768ZM27.716 15.4292L27.9808 15.385L27.8043 15.1643L27.716 15.4292ZM26.8335 14.7671L26.657 14.8554L26.8776 14.9878L26.8335 14.7671ZM24.6713 15.3409V15.1643L24.4065 15.2526L24.6713 15.3409ZM24.6272 18.8279L24.583 19.1369L24.936 19.0486L24.6272 18.8279ZM24.23 18.6072L23.9653 18.6513L24.0976 18.9162L24.23 18.6072ZM24.7154 19.8872L24.6272 20.1521L24.9802 20.0638L24.7154 19.8872ZM25.2008 18.7396V19.0486L25.5097 18.9162L25.2008 18.7396ZM24.8919 19.3134V19.6665L25.2449 19.49L24.8919 19.3134ZM24.583 18.4306L24.6272 18.1658L24.3624 18.2982L24.583 18.4306ZM28.2014 16.8858L28.4662 16.8416L28.2896 16.6209L28.2014 16.8858ZM27.2747 15.9147L27.363 16.0913L27.5395 15.9147H27.2747ZM28.9957 19.181L29.2604 19.0927L29.0839 18.9603L28.9957 19.181ZM25.1567 15.3409V15.1643L24.936 15.2526L25.1567 15.3409ZM26.7893 16.003L26.7011 16.2678L27.01 16.1795L26.7893 16.003ZM26.4805 15.4733L26.3922 15.7381L26.7011 15.6499L26.4805 15.4733ZM27.0982 17.4596L27.4954 17.7244L27.6719 17.283L27.0982 17.4596ZM27.6278 18.1658L28.1131 18.0775L27.8043 17.6361L27.6278 18.1658ZM26.1275 18.2982L26.304 18.3424V18.2099L26.1275 18.2982ZM26.1716 17.1947L26.0392 17.3713L26.3481 17.4154L26.1716 17.1947ZM26.657 16.6651H26.3922L26.5687 16.9299L26.657 16.6651ZM27.4954 16.8416L27.2306 16.8858L27.363 17.1506L27.4954 16.8416Z" fill="#F4B9A6"/>
<path d="M26.701 16.9741L27.1423 16.7534L26.701 16.4444V16.9741ZM27.4953 15.0319L27.6718 14.7671L27.2747 14.723L27.4953 15.0319ZM26.1715 19.4017L26.348 19.1369H25.9509L26.1715 19.4017ZM26.2598 17.4596L26.6569 17.283L26.3039 17.0182L26.2598 17.4596ZM26.8334 15.6499L26.9658 15.7823L27.0982 15.5616L26.8334 15.6499ZM27.3629 16.1354L27.054 16.4885L27.6277 16.5768L27.3629 16.1354ZM27.8042 15.6057L27.6718 15.7823L27.9366 15.8264L27.8042 15.6057ZM27.9366 17.3272L28.0689 17.5037L28.2013 17.283L27.9366 17.3272ZM27.3629 15.3409L27.2305 15.5175H27.4953L27.3629 15.3409ZM23.7446 17.283L23.4357 17.3713L23.6563 17.592L23.7446 17.283ZM24.9801 16.9299L24.8036 17.1506H25.1125L24.9801 16.9299ZM24.7595 17.283L24.7153 17.1065L24.5388 17.2389L24.7595 17.283ZM24.4506 17.5037V17.3272L24.2299 17.4596L24.4506 17.5037Z" fill="#F4B9A6"/>
<path d="M13.3307 32.9524H13.2866C13.2461 32.9317 13.2122 32.9001 13.1888 32.8611C13.1654 32.822 13.1534 32.7772 13.1542 32.7317L15.2282 26.3757C15.6253 25.0515 16.8167 20.5935 16.8167 20.5935C16.8374 20.5529 16.869 20.519 16.908 20.4956C16.947 20.4722 16.9919 20.4602 17.0373 20.461C17.0779 20.4817 17.1118 20.5134 17.1352 20.5524C17.1586 20.5914 17.1706 20.6362 17.1697 20.6817L15.5812 26.464C15.2282 27.6557 13.5072 32.7759 13.5072 32.7759C13.5072 32.9083 13.419 32.9524 13.3307 32.9524Z" fill="#CF7653"/>
<path d="M19.5526 15.9147L23.171 13.4871C25.5979 12.3394 29.0398 12.5601 29.0398 12.5601L26.0392 10.4856H21.7148L19.5526 15.9147Z" fill="url(#paint2_linear_651_2344)"/>
<path d="M19.7291 5.76273C19.7291 5.76273 17.1697 6.15998 15.4047 8.89661C14.3015 10.618 13.3749 10.7946 11.6539 11.545C10.4625 12.0746 9.35936 14.0609 9.57999 16.3561C9.80062 18.8279 8.9181 19.6224 7.02067 20.6818C5.12323 21.7411 3.71119 23.3301 4.37308 26.9054C5.03498 30.4806 8.65334 31.1427 10.8597 31.0545C13.1101 30.9662 13.9044 30.6572 14.7428 29.1565C16.6402 25.7578 17.7434 16.2237 17.7434 16.2237C17.7434 16.2237 16.6843 13.6636 17.6551 9.69111C18.67 5.67445 19.7291 5.76273 19.7291 5.76273Z" fill="#321011"/>
<path d="M17.9199 20.6817L17.7434 20.8141L17.964 20.9466L17.9199 20.6817Z" fill="#A84D3B"/>
<path d="M18.1405 16.5327C18.1405 16.5327 19.685 17.6803 20.8764 15.2526C22.0237 12.825 22.4208 10.7504 22.4208 10.7504L22.6856 12.1187C22.7297 12.2953 22.8621 12.3836 22.9945 12.3836H30.6724C30.8931 12.3836 31.0696 12.1629 31.0696 11.9422C30.8931 10.7946 30.2312 7.61656 27.3188 6.4248C23.7005 4.92407 20.9205 5.54202 20.9205 5.54202L18.9348 7.35172L17.8758 11.0153L17.7434 14.1933L18.1405 16.5327Z" fill="#321011"/>
<path d="M16.6843 20.5052C17.9759 20.5052 19.023 19.3788 19.023 17.9893C19.023 16.5998 17.9759 15.4733 16.6843 15.4733C15.3927 15.4733 14.3456 16.5998 14.3456 17.9893C14.3456 19.3788 15.3927 20.5052 16.6843 20.5052Z" fill="#EA9D7D"/>
<path d="M16.8167 19.0928C17.4016 19.0928 17.8758 18.5987 17.8758 17.9893C17.8758 17.3798 17.4016 16.8858 16.8167 16.8858C16.2318 16.8858 15.7577 17.3798 15.7577 17.9893C15.7577 18.5987 16.2318 19.0928 16.8167 19.0928Z" fill="url(#paint3_linear_651_2344)"/>
<path d="M18.2288 19.6665C17.8317 20.1079 17.258 20.3286 16.6844 20.3286C15.493 20.3286 14.5222 19.2693 14.5222 17.9893C14.5222 16.7092 15.493 15.6499 16.6844 15.6499C17.5228 15.6499 18.2729 16.1795 18.626 16.9299C18.626 16.9299 18.7142 16.9741 18.8466 16.8858C18.979 16.7975 18.9348 16.6209 18.9348 16.6209C18.4936 15.8264 17.6552 15.2526 16.7285 15.2526C15.3165 15.2526 14.1692 16.4444 14.1692 17.9451C14.1692 19.4017 15.3165 20.6376 16.7285 20.6376C17.3463 20.6376 17.8317 20.461 18.2729 20.1079L18.2288 19.6665Z" fill="#B76349"/>
<path d="M17.7875 18.2541V18.0775L17.611 18.1217L17.7875 18.2541ZM17.0373 16.9299L16.8608 16.9741L16.9932 17.1506L17.0373 16.9299Z" fill="#964C38"/>
<path d="M16.9933 16.9741L16.7727 17.2389L17.1698 17.3272L16.9933 16.9741ZM16.5962 16.9299L16.3314 17.0182L16.5521 17.2389L16.5962 16.9299ZM17.7435 17.592L17.6111 17.6803L17.7876 17.7686L17.7435 17.592ZM17.3463 17.3713L17.2139 17.5037L17.3905 17.5479L17.3463 17.3713Z" fill="#964C38"/>
<path d="M17.611 17.6803L17.5227 17.8127L17.6992 17.901L17.611 17.6803ZM16.6402 17.3272L16.5078 17.4155L16.7284 17.5037L16.6402 17.3272Z" fill="#964C38"/>
<path d="M16.4197 17.1948L16.2432 17.4155L16.552 17.5037L16.4197 17.1948ZM17.1698 17.9893L17.2581 18.0775L17.3022 17.9451L17.1698 17.9893ZM17.6552 17.4596L17.6111 17.5479H17.7434L17.6552 17.4596ZM17.7434 17.8569L17.6993 17.9893H17.8317L17.7434 17.8569ZM16.1549 17.1506L15.9784 17.3272L16.2432 17.3713L16.1549 17.1506ZM16.5079 17.8127H16.4197L16.4638 17.9451L16.5079 17.8127ZM16.7727 18.21L16.7285 18.0775L16.6403 18.1658L16.7727 18.21ZM17.1257 17.1065L17.2139 17.0182L17.0816 16.9299L17.1257 17.1065ZM16.5962 17.1065L16.4638 17.2389L16.6844 17.283L16.5962 17.1065ZM16.3755 17.2389L16.2432 17.1506V17.3272L16.3755 17.2389Z" fill="#964C38"/>
<path d="M16.3755 17.2389V17.1065H16.2432L16.3755 17.2389ZM17.4346 17.4155L17.5228 17.5479L17.6111 17.4155H17.4346ZM17.2581 17.0182L17.2139 17.3272L17.5228 17.2389L17.2581 17.0182Z" fill="#964C38"/>
<path d="M17.1256 17.2389L17.258 17.3272L17.3021 17.1506L17.1256 17.2389ZM16.0666 17.6362L15.9783 17.7686H16.1107L16.0666 17.6362ZM16.8609 16.9299L16.7285 16.8858L16.7726 17.0624L16.8609 16.9299ZM16.5961 17.7244L16.6844 17.8569L16.7726 17.6803L16.5961 17.7244ZM16.9491 18.2983L16.905 18.3865L17.0374 18.4307L16.9491 18.2983ZM16.0225 17.3272L15.9342 17.4596L16.1107 17.5037L16.0225 17.3272Z" fill="#964C38"/>
<path d="M16.4196 18.2982L16.2872 18.2541L16.3313 18.3865L16.4196 18.2982ZM15.9342 17.592L16.0666 17.5479L15.9783 17.4155L15.9342 17.592Z" fill="#964C38"/>
<path d="M15.8018 18.0775H15.8901L15.8459 17.9451L15.8018 18.0775ZM15.8901 17.6362L15.9783 17.592L15.9342 17.5037L15.8901 17.6362ZM16.199 17.5037V17.6362L16.3313 17.5479L16.199 17.5037ZM15.7577 17.901H15.9342L15.8459 17.7244L15.7577 17.901ZM16.0225 17.9451V18.0334L16.1548 17.9451H16.0225ZM16.905 17.3713L16.7726 17.4596L16.905 17.5479V17.3713ZM17.5227 18.0334L17.5669 18.21L17.6993 18.1217L17.5227 18.0334ZM16.6402 17.0623L16.6843 17.2389L16.8167 17.1065L16.6402 17.0623ZM17.0815 17.5479L16.9932 17.4596L16.9491 17.592L17.0815 17.5479Z" fill="#964C38"/>
<path d="M16.4638 15.2526C16.4638 15.2526 16.0225 9.82352 17.611 7.44001C19.2437 5.0565 20.9646 5.0565 20.9646 5.0565C20.9646 5.0565 21.1412 4.96822 22.4649 5.01236C23.7887 5.0565 24.0535 5.49789 24.0535 5.49789C24.0535 5.49789 22.2002 5.40961 21.1853 5.89514C19.9939 6.46895 18.5818 7.74898 18.3171 10.2649C18.0523 12.7808 18.1406 15.7382 18.1406 15.7382C18.1406 15.7382 17.6552 15.2085 16.4638 15.2526Z" fill="url(#paint4_linear_651_2344)"/>
<path d="M21.8912 5.67443V5.93926L22.2001 6.07168L22.4208 5.58615L21.8912 5.67443ZM24.4064 7.66069L24.1858 7.61655L24.2741 7.88139L24.4064 7.66069ZM27.3629 6.77791L27.1864 6.86618L27.4512 6.9986L27.3629 6.77791ZM24.0976 7.74897L24.0534 7.57241L23.8328 7.70483L24.0976 7.74897ZM23.215 5.76271L23.0827 6.11582H23.4798L23.215 5.76271ZM25.8626 7.35172V7.61655L26.1274 7.52827L25.8626 7.35172ZM21.6706 5.71857L21.2735 5.89513L21.6706 6.2041V5.71857ZM21.1411 5.93926L20.7881 6.15996L21.1411 6.42479V5.93926Z" fill="#633535"/>
<path d="M15.2282 9.20556L15.8019 9.29384L15.5812 8.72003L15.4047 8.98486L15.2282 9.20556ZM11.6099 11.6332L11.9629 11.9422L12.1394 11.4125L11.6099 11.6332ZM15.846 8.36691L16.2873 8.45519L16.1108 8.05794L15.846 8.36691ZM25.2449 5.71857L24.8919 5.85098L25.2008 6.15996L25.2449 5.71857ZM23.3034 6.68963L23.2592 5.93926L22.7297 6.29238L23.3034 6.68963ZM23.9653 6.29238L23.6122 5.93926L23.4799 6.38065L23.9653 6.29238ZM24.7154 6.55721L24.6271 6.15996L24.2741 6.38065L24.7154 6.55721ZM25.4214 6.68963L25.8627 6.86618L25.8186 6.33652L25.4214 6.68963Z" fill="#633535"/>
<path d="M25.2449 5.71857L25.4655 6.29238L25.9509 5.93926L25.2449 5.71857ZM25.4655 7.04274V7.26344L25.6861 7.2193L25.4655 7.04274ZM21.7589 7.48413L21.7148 7.70483H21.9354L21.7589 7.48413ZM22.2002 7.08688L22.0678 7.26344L22.2884 7.30757L22.2002 7.08688ZM15.3606 9.77937L15.5371 10.309L16.0225 9.91178L15.3606 9.77937ZM14.0809 10.7504L14.1692 11.0594L14.4339 10.8387L14.0809 10.7504ZM10.8156 12.6925L10.9479 13.0457L11.2568 12.7367L10.8156 12.6925Z" fill="#633535"/>
<path d="M11.1685 12.6484L11.345 13.0016L11.6097 12.7367L11.1685 12.6484Z" fill="#633535"/>
<path d="M10.948 13.3988L11.6099 13.3105L11.2569 12.7367L10.948 13.3988ZM11.8747 12.3836L11.6099 12.825L12.1394 12.9574L11.8747 12.3836Z" fill="#633535"/>
<path d="M10.4625 13.6195L10.9479 13.3988L10.5508 12.9574L10.4625 13.6195ZM16.2431 9.07314L16.3755 9.2497L16.5078 8.98486L16.2431 9.07314ZM14.7869 10.5297V10.7504L15.0075 10.6622L14.7869 10.5297ZM15.4047 10.5297L15.3606 10.2649L15.0958 10.4856L15.4047 10.5297ZM25.5979 6.77791L25.5096 6.9986L25.7744 6.95446L25.5979 6.77791ZM26.8775 6.46893L26.9658 6.73377L27.1423 6.55721L26.8775 6.46893ZM27.2306 7.70483L27.4512 7.74897L27.3629 7.52827L27.2306 7.70483ZM26.6569 6.64549H26.8334L26.7452 6.42479L26.6569 6.64549ZM27.0099 6.77791L26.7893 6.86618L27.0099 7.04274V6.77791ZM22.0236 8.58761L22.2443 8.67589L22.2001 8.49933L22.0236 8.58761ZM20.2145 10.3532L20.391 10.4415L20.3468 10.2649L20.2145 10.3532ZM21.3617 7.26344L21.3176 7.39585L21.4941 7.30758L21.3617 7.26344ZM22.7738 8.45519L22.6414 8.41105L22.7738 8.58761V8.45519ZM20.3468 9.73523L20.2145 9.69109L20.3027 9.86765L20.3468 9.73523ZM22.0236 7.88139L21.9795 8.0138L22.2001 7.96966L22.0236 7.88139ZM26.0833 7.96966L25.9509 8.0138L26.0391 8.10208L26.0833 7.96966ZM28.4661 8.0138L28.3337 7.96966V8.14622L28.4661 8.0138ZM24.8919 7.17516L25.0684 7.35172L25.2007 7.04274L24.8919 7.17516ZM24.5388 5.58615L24.6271 6.07168L25.0242 5.67443L24.5388 5.58615ZM21.3176 6.51307L21.45 6.73377L21.6265 6.46893L21.3176 6.51307ZM26.0833 5.9834L26.1715 6.33652L26.5245 6.15996L26.0833 5.9834ZM26.6569 8.2345L26.4804 8.27864L26.5245 8.49933L26.6569 8.2345ZM25.3772 7.39585L25.2007 7.43999L25.2449 7.66069L25.3772 7.39585ZM25.7744 6.2041L26.0391 6.29238L25.995 5.9834L25.7744 6.2041Z" fill="#633535"/>
<path d="M26.1716 6.55723H26.4364L26.2158 6.24826L26.1716 6.55723Z" fill="#633535"/>
<path d="M25.9068 6.5131L26.1715 6.55724L26.0833 6.2924L25.9068 6.5131ZM24.4065 7.35174L24.3623 7.57244L24.583 7.5283L24.4065 7.35174ZM25.7303 7.44002L25.5096 7.5283L25.6861 7.70485L25.7303 7.44002ZM16.4637 8.01383L16.6402 8.14624L16.7285 7.96969L16.4637 8.01383ZM21.45 6.11584H21.2294L21.3176 6.33654L21.45 6.11584ZM16.0225 8.80833L15.846 9.11731L16.2431 9.20558L16.0225 8.80833ZM15.6253 10.7063H15.2282L15.4929 11.0594L15.6253 10.7063ZM15.8901 9.42628L15.5812 9.5587L15.9342 9.77939L15.8901 9.42628ZM15.1841 10.3091H14.8311L15.0517 10.6622L15.1841 10.3091ZM14.6104 10.3973L14.478 10.0884L14.2133 10.3532L14.6104 10.3973ZM13.3307 10.8387L13.0219 11.0153L13.3307 11.236V10.8387ZM14.0809 10.6622H13.7279L13.9485 11.0153L14.0809 10.6622ZM11.5216 12.0305L11.1244 12.0746L11.3451 12.4719L11.5216 12.0305ZM11.2127 12.6484L11.1244 12.2512L10.7273 12.5602L11.2127 12.6484ZM12.5365 11.3243L12.1835 11.3684L12.4041 11.7215L12.5365 11.3243ZM11.5216 12.1629L11.9628 12.207L11.7422 11.6774L11.5216 12.1629Z" fill="#633535"/>
<path d="M11.3892 12.516L11.8746 12.5601L11.6981 12.0305L11.3892 12.516ZM11.8304 12.3836L12.2717 12.6484V12.0746L11.8304 12.3836ZM16.1548 8.63175L15.8018 8.49933V8.94072L16.1548 8.63175ZM14.5221 10.0442L14.9193 10.309L14.831 9.73523L14.5221 10.0442ZM13.8603 10.5739L14.2574 10.7946L14.2133 10.3532L13.8603 10.5739ZM13.3749 10.8387L13.772 11.1035L13.8161 10.618L13.3749 10.8387ZM10.286 13.0015L10.7714 13.0457L10.5508 12.6043L10.286 13.0015ZM20.9646 6.86618L21.097 6.9986L21.1852 6.73377L20.9646 6.86618ZM21.8471 6.60135L21.9795 6.68963L22.0678 6.46893L21.8471 6.60135Z" fill="#633535"/>
<path d="M21.7148 5.89515L21.45 6.38068L22.0678 6.46896L21.7148 5.89515ZM20.6999 6.24826L20.4351 6.42482L20.744 6.60137L20.6999 6.24826ZM11.4775 11.6774L11.2568 11.8981L11.5216 12.0746L11.4775 11.6774ZM10.7715 12.2953L10.5508 12.6043L10.9038 12.6926L10.7715 12.2953ZM10.2861 13.0457L10.1537 13.3105L10.5067 13.3547L10.2861 13.0457ZM22.1119 6.95449L21.9354 6.91035V7.0869L22.1119 6.95449ZM22.0237 7.48416L22.1561 7.66071L22.2002 7.39588L22.0237 7.48416ZM17.1257 7.13104V7.3076L17.3463 7.21932L17.1257 7.13104ZM16.6403 8.36694L16.552 8.49935H16.7285L16.6403 8.36694ZM16.2431 8.85247L16.4638 8.76419L16.199 8.63177L16.2431 8.85247ZM14.4339 10.6622L14.6546 10.7505L14.6105 10.4856L14.4339 10.6622ZM16.905 7.3076V7.48416L17.0815 7.39588L16.905 7.3076ZM13.8603 14.0609L13.8162 14.2374L14.0368 14.1933L13.8603 14.0609ZM15.2724 9.29386L15.493 9.69111L15.8019 9.338L15.2724 9.29386ZM17.4787 6.91035H17.3022L17.4345 7.13104L17.4787 6.91035ZM16.1107 9.77939L16.2431 9.64697L16.0666 9.55869L16.1107 9.77939ZM15.7136 11.4125L15.8901 11.2801L15.6254 11.1477L15.7136 11.4125ZM15.3165 9.77939L15.0958 9.42628L14.8752 9.73525L15.3165 9.77939ZM15.7577 11.7215L15.8901 11.8098L15.9784 11.6332L15.7577 11.7215ZM15.3606 10.2208L15.2724 9.95595L14.9635 10.1325L15.3606 10.2208ZM13.0219 11.3243L12.9337 11.0594L12.5365 11.1918L13.0219 11.3243ZM11.2568 12.2512L11.0803 11.9422L10.8597 12.2512H11.2568ZM15.9784 10.3532L16.1107 10.4415L16.199 10.2649L15.9784 10.3532ZM16.9492 7.83727L16.905 8.01382L17.0815 8.05796L16.9492 7.83727ZM15.14 13.8402L15.0076 13.9726L15.1841 14.0609L15.14 13.8402ZM16.3314 7.74899L16.1549 7.96968L16.4196 8.1021L16.3314 7.74899ZM22.0237 6.0717L22.2002 6.46896L22.5091 6.38068L22.465 6.11584L22.0237 6.0717ZM23.3034 5.49789L22.9062 5.54203V5.76273L23.0827 5.93929L23.3034 5.49789ZM22.7738 5.54203L22.465 5.80687L22.5973 6.02756L22.8621 6.0717L22.7738 5.54203ZM23.2592 6.86621L22.9503 6.64551L22.8621 7.04276L23.2592 6.86621ZM24.4948 8.05796L24.3624 7.96968L24.3183 8.14624L24.4948 8.05796ZM22.8621 6.60137L22.7297 6.51309L22.6856 6.68965L22.8621 6.60137ZM24.0094 5.54203L24.1418 6.02756L24.4506 5.93929L24.4065 5.58617L24.0094 5.54203ZM23.5681 7.21932L23.6564 7.44002L23.8329 7.21932H23.5681ZM23.4357 5.49789L23.3475 5.71859L23.6564 5.80687L23.877 5.49789H23.4357ZM24.6713 7.04276L24.8036 7.39588L24.936 6.99863L24.6713 7.04276ZM25.1567 7.74899L25.2008 7.96968L25.3773 7.74899H25.1567ZM23.9211 8.45522L23.7887 8.58763L23.9652 8.63177L23.9211 8.45522ZM25.0243 6.11584H24.8919L24.936 6.2924L25.0243 6.11584ZM25.3773 6.73379L25.2008 6.68965L25.2449 6.91035L25.3773 6.73379ZM27.3189 6.42482L27.363 6.64551L27.5395 6.51309L27.3189 6.42482ZM27.8042 6.64551L27.8484 6.95449L28.0249 6.82207L27.8042 6.64551Z" fill="#633535"/>
<path d="M27.054 6.33652L27.0981 6.55721L27.3187 6.42479L27.054 6.33652ZM26.7892 6.2041L26.8333 6.46893L27.0098 6.29238L26.7892 6.2041ZM23.7445 5.76271L23.921 6.02754L24.0975 5.71857L23.7445 5.76271ZM27.9365 7.17516L28.1571 7.30757V7.08688L27.9365 7.17516ZM26.5686 7.52827H26.8333L26.701 7.26344L26.5686 7.52827ZM26.2597 6.86618H26.4803L26.348 6.60135L26.2597 6.86618ZM27.9806 7.43999L27.8041 7.48413L27.8924 7.66069L27.9806 7.43999ZM27.2746 7.08688H27.1422L27.2305 7.26344L27.2746 7.08688ZM23.568 7.74897L23.6562 7.96966L23.7886 7.74897H23.568ZM24.274 6.60135L24.0534 6.86618L24.4064 6.9986L24.274 6.60135ZM24.7594 8.36691L24.5829 8.27864V8.45519L24.7594 8.36691ZM25.4654 6.33652L25.2889 6.29238L25.333 6.51307L25.4654 6.33652Z" fill="#633535"/>
<path d="M24.1859 6.42481L23.8329 6.46895L24.0535 6.8662L24.1859 6.42481ZM24.4065 6.02756H24.0094L24.23 6.33653L24.4065 6.02756ZM22.5973 7.26345L22.5532 7.04276L22.3767 7.21931L22.5973 7.26345ZM22.2884 6.60137L22.1119 6.91034L22.5091 6.95448L22.2884 6.60137ZM22.0678 6.46895L22.0237 6.60137H22.2002L22.0678 6.46895ZM22.8621 7.13104V7.30759L22.9945 7.21931L22.8621 7.13104ZM22.9503 6.0717L22.5973 6.11584V6.33653L22.7738 6.38067L22.9503 6.0717ZM23.3916 6.51309L23.3475 6.33653L23.171 6.51309H23.3916Z" fill="#633535"/>
<path d="M23.4357 7.17517L23.3475 7.04275L23.2151 7.17517H23.4357ZM23.2151 6.55722L23.3916 6.73378L23.4798 6.46895L23.2151 6.55722ZM24.8478 6.82206L25.3773 6.6455L25.1125 6.29239L24.8478 6.82206ZM24.0094 7.13103L24.2741 7.35173L24.3624 7.08689L24.0094 7.13103ZM21.3176 6.95448L21.5383 6.99862L21.4941 6.73378L21.3176 6.95448ZM16.3755 7.70484L16.905 7.61656L16.6402 7.44001L16.3755 7.70484ZM22.4208 6.55722L22.7738 6.95448L22.9944 6.46895L22.4208 6.55722ZM24.2741 6.42481L24.1859 6.60136H24.3624L24.2741 6.42481Z" fill="#633535"/>
<path d="M23.9211 6.68964L23.5239 6.60136L23.6563 6.99861L23.9211 6.68964ZM24.5388 7.13103L24.4065 7.08689L24.4506 7.30759L24.5388 7.13103ZM23.1709 7.61656L23.0827 7.79312H23.2592L23.1709 7.61656ZM24.6271 6.73378L24.4947 6.68964L24.5388 6.91034L24.6271 6.73378ZM23.9211 6.91034L23.8328 7.13103H24.0535L23.9211 6.91034ZM25.9509 7.21931L26.0833 7.35173L26.2157 7.13103L25.9509 7.21931ZM26.5245 6.91034L26.701 6.95447L26.6569 6.73378L26.5245 6.91034ZM26.3922 6.4248V6.60136L26.5687 6.55722L26.3922 6.4248ZM26.0833 6.77792L25.9068 6.73378L25.995 6.95447L26.0833 6.77792ZM20.9646 8.32279L20.8322 8.45521L21.097 8.54348L20.9646 8.32279ZM18.9348 10.4415L18.7142 10.3973L18.7583 10.618L18.9348 10.4415ZM20.3468 9.29385L20.1262 9.20557V9.4704L20.3468 9.29385ZM21.4941 7.30759L21.6706 7.44001L21.7148 7.17517L21.4941 7.30759ZM19.7732 7.08689L19.6849 7.44001L20.0821 7.35173L19.7732 7.08689ZM19.1113 8.85246L18.7583 8.45521L18.5818 8.8966L19.1113 8.85246ZM20.2145 7.92554L19.8173 7.83726L19.8614 8.23451L20.2145 7.92554ZM20.6999 7.39587L21.0529 7.08689L20.5675 6.8662L20.6999 7.39587ZM19.6408 7.04275L20.2586 7.13103L20.1703 6.55722L19.6408 7.04275Z" fill="#633535"/>
<path d="M21.0088 7.52828L21.2294 7.61656L21.2736 7.39586L21.0088 7.52828ZM20.8323 7.26345L21.0088 7.44L21.0529 7.21931L20.8323 7.26345ZM20.8323 8.05795L21.0971 8.01381L20.8764 7.74898L20.8323 8.05795ZM19.1996 7.6607L19.685 7.79312L19.5526 7.26345L19.1996 7.6607ZM21.2736 7.79312L21.2294 7.96967H21.4501L21.2736 7.79312ZM20.4352 6.86619L20.6117 6.6455L20.3028 6.55722L20.4352 6.86619ZM20.744 6.86619L20.9205 6.6455L20.6117 6.60136L20.744 6.86619ZM18.5377 11.0153L18.7584 11.1477L18.8025 10.9711L18.5377 11.0153ZM19.5526 9.64696L19.7291 9.77938L19.8174 9.55868L19.5526 9.64696ZM21.4942 7.48414L21.4501 7.70484L21.7148 7.61656L21.4942 7.48414ZM21.4501 8.85245L21.2736 8.89659L21.4501 9.02901V8.85245ZM19.0231 8.05795L19.4644 8.19037L19.5526 7.88139L19.1996 7.74898L19.0231 8.05795ZM20.6117 8.23451L21.0088 8.27865L20.6999 7.96967L20.6117 8.23451ZM19.1555 8.76418L19.5526 8.80832L19.2437 8.49934L19.1555 8.76418ZM21.4942 8.10209L21.7148 8.19037L21.5824 7.92553L21.4942 8.10209ZM19.9939 7.44L19.9056 7.57242L20.0821 7.61656L19.9939 7.44ZM20.6999 7.44L20.5675 7.57242L20.7882 7.6607L20.6999 7.44ZM21.2736 8.54348L21.3618 8.76418L21.5383 8.54348H21.2736ZM19.1555 10.0442L19.2437 10.2208L19.4202 10.0442H19.1555ZM19.0672 8.41106H19.3761L19.1555 8.10209L19.0672 8.41106ZM20.0821 8.36692L20.1704 8.63176L20.4793 8.41106L20.0821 8.36692ZM18.7584 8.94073L18.8466 9.24971L19.1555 9.02901L18.7584 8.94073ZM21.8472 8.76418L21.6707 8.85245L21.8472 8.94073V8.76418ZM19.2437 10.5739L19.0672 10.6622L19.2437 10.7504V10.5739Z" fill="#633535"/>
<path d="M19.8175 8.98487L19.6409 9.11729L19.8175 9.20556V8.98487ZM20.3911 7.17516L20.2587 7.30758L20.4794 7.39586L20.3911 7.17516ZM19.8616 8.32278L19.7292 8.67589L20.1705 8.63175L19.8616 8.32278ZM18.5378 9.73523L18.4054 10.0442H18.8467L18.5378 9.73523ZM19.6409 7.96967L19.4203 8.32278L19.8175 8.27864L19.6409 7.96967ZM20.5235 7.96967L20.6117 7.39586L20.1705 7.48414L20.5235 7.96967ZM18.4054 9.64696L18.9349 9.38212L18.5819 9.02901L18.4054 9.64696ZM19.9057 8.27864L19.994 8.41106L20.0822 8.27864H19.9057ZM20.6559 8.36692L20.5235 8.4552L20.7441 8.54348L20.6559 8.36692ZM20.347 8.10209L20.2587 8.2345L20.4352 8.27864L20.347 8.10209ZM20.5676 8.76417L20.7 8.94073L20.7882 8.72003L20.5676 8.76417ZM19.3321 9.11729L19.4644 9.2497L19.5527 9.07314L19.3321 9.11729ZM21.0971 6.33652L20.8324 6.60135L21.406 6.73377L21.0971 6.33652ZM26.9659 7.04275L26.7894 7.08688L26.9218 7.2193L26.9659 7.04275ZM26.7012 6.2041L26.5247 6.24824L26.657 6.38066L26.7012 6.2041ZM22.818 7.57242L22.6857 7.44L22.5974 7.61655L22.818 7.57242ZM15.9343 12.516L15.802 12.2953L15.6696 12.4719L15.9343 12.516ZM12.4925 11.2801L12.2718 11.6332L12.7131 11.7215L12.4925 11.2801ZM15.2724 10.8387L15.0959 10.4856L14.8312 10.7946L15.2724 10.8387ZM13.5956 12.9574L13.5515 13.3546L13.9486 13.3105L13.5956 12.9574ZM14.9194 12.4277L14.8753 12.7367L15.1842 12.6484L14.9194 12.4277ZM14.4782 13.3988H14.6547L14.5664 13.2664L14.4782 13.3988ZM13.0661 13.2222L13.1102 13.3988L13.2426 13.2664L13.0661 13.2222ZM14.9194 13.0898H14.787L14.9194 13.2222V13.0898ZM14.081 12.9574L14.1693 13.1781L14.3899 13.0015L14.081 12.9574ZM17.6994 6.68963H17.567L17.6994 6.82205V6.68963ZM12.0071 12.9132L12.316 13.2664L12.4925 12.7808L12.0071 12.9132ZM13.1102 14.0167L13.1985 14.3698L13.4633 14.0609L13.1102 14.0167ZM13.0661 11.0594L12.9337 11.6332L13.5515 11.5449L13.4633 11.236L13.0661 11.0594ZM13.2426 11.7656L13.1544 12.1629L13.5515 12.1187L13.4633 11.8098L13.2426 11.7656ZM13.6839 12.0746L13.375 12.2512L13.2426 12.4719L13.728 12.825L13.6839 12.0746ZM13.1544 14.9437L13.022 15.3409L13.4633 15.2526L13.1544 14.9437Z" fill="#633535"/>
<path d="M13.1542 11.4567L12.6247 11.9422L13.2425 12.1629L13.1542 11.4567ZM12.4482 11.6774L12.2276 11.8539L12.0952 12.0746L12.6247 12.207L12.4482 11.6774ZM14.6987 10.6622L14.2574 10.9711L14.7869 11.3684L14.6987 10.6622Z" fill="#633535"/>
<path d="M15.1841 10.7505L14.6987 11.1036L15.2282 11.4567L15.1841 10.7505Z" fill="#633535"/>
<path d="M15.4047 11.3684L15.0076 11.3242L15.0958 11.8098L15.4047 11.3684ZM13.066 12.6484L12.5365 12.6043V12.9574L12.713 13.2222L13.066 12.6484ZM12.9337 13.134L12.4483 13.3547L12.8454 13.6636L12.9337 13.134ZM12.1835 12.8691H11.6099L11.8746 13.4429L12.1835 12.8691ZM15.0517 12.0746L14.8752 11.6774L14.4781 12.0305L15.0517 12.0746ZM14.4339 12.7808L14.6105 12.3836H14.1251L14.4339 12.7808ZM13.9044 13.796L14.0809 13.5312L13.6838 13.4871L13.9044 13.796ZM13.0219 14.9878L13.2425 14.6788L12.8013 14.5905L13.0219 14.9878Z" fill="#633535"/>
<path d="M12.6247 15.9589L12.8012 15.694L12.4923 15.6057L12.6247 15.9589ZM12.2275 14.2374H12.5364L12.4482 13.9285L12.2275 14.2374ZM14.1691 12.6926L13.772 12.516L13.7278 13.0015L14.1691 12.6926ZM13.1542 11.8981L12.6688 12.207L13.2424 12.5601L13.1542 11.8981ZM14.125 10.9711L13.6837 11.2801L14.1691 11.6332L14.125 10.9711ZM14.5662 11.5008L14.0809 11.8098L14.6104 12.1629L14.5662 11.5008ZM14.0367 11.9422L13.9043 12.2953L14.3456 12.2512L14.0367 11.9422ZM14.478 14.3257H14.3456L14.3897 14.4581L14.478 14.3257Z" fill="#633535"/>
<path d="M13.6397 13.4429H13.2425L13.4632 13.8402L13.6397 13.4429ZM13.8603 12.4719L14.0368 12.5601V12.2953L13.8603 12.4719ZM13.5073 11.1477L13.6838 11.3242L13.7721 11.1035L13.5073 11.1477ZM14.787 11.4567L14.4781 11.3242V11.7215L14.787 11.4567ZM13.5073 12.516L13.1984 12.6484L13.4632 12.9574L13.5073 12.516ZM13.2867 12.825L12.9337 12.9132L13.2867 13.2222V12.825ZM10.8597 16.2237L10.5067 16.312L10.7715 16.6209L10.8597 16.2237ZM12.5365 12.825L12.1835 13.0457L12.5807 13.2664L12.5365 12.825ZM14.3457 11.3242L14.1692 11.236L14.2133 11.4567L14.3457 11.3242ZM15.9343 12.0305L16.0666 12.207L16.1549 11.9863L15.9343 12.0305ZM15.6695 12.7808L15.5812 12.9574H15.7578L15.6695 12.7808ZM15.3165 12.1629L15.4489 12.3394L15.5371 12.0746L15.3165 12.1629ZM14.3457 12.0305L14.2133 11.8539L14.081 12.0746L14.3457 12.0305ZM13.7721 11.4125L13.5956 11.7656L13.7279 11.9422L14.2575 11.8098L13.7721 11.4125ZM13.5514 11.4567L13.5956 11.6332L13.6838 11.5008L13.5514 11.4567ZM14.5222 11.8098L14.6105 11.9863L14.6987 11.8539L14.5222 11.8098Z" fill="#633535"/>
<path d="M14.5664 12.8691L14.6546 13.0015L14.7429 12.9133L14.5664 12.8691ZM14.2575 10.927H14.081L14.1693 11.1477L14.2575 10.927ZM16.1991 10.7504L16.0667 10.5739L15.9784 10.8387L16.1991 10.7504ZM16.3314 11.3684L16.1991 11.236L16.1108 11.4567L16.3314 11.3684ZM14.081 15.385L13.9927 15.2085L13.8162 15.385H14.081ZM15.5372 10.7946L15.7578 10.9711L15.8019 10.6622L15.5372 10.7946ZM12.2277 12.6043H12.669L12.4483 12.1629L12.2277 12.6043ZM14.1251 11.4125L14.3458 11.5449L14.3016 11.3242L14.1251 11.4125ZM9.62423 18.6955L9.84486 18.9162L9.97724 18.6072L9.62423 18.6955ZM10.1537 17.6361L10.2861 17.8127L10.4185 17.6361H10.1537ZM10.6391 17.7244L10.9039 17.9893L11.1245 17.6803L10.6391 17.7244ZM10.9039 18.3424L11.0363 18.5189L11.1687 18.3424H10.9039ZM11.3893 17.2389L11.5217 17.3713L11.654 17.1948L11.3893 17.2389ZM10.595 16.9741L10.3303 16.8416V17.1506L10.595 16.9741ZM10.8156 16.5768L10.5509 16.8416L10.948 16.9299L10.8156 16.5768ZM10.3744 16.1796L9.97724 16.6209L10.5509 16.7092L10.3744 16.1796ZM10.2861 17.1948L10.0214 17.4596L10.4185 17.592L10.2861 17.1948ZM9.93312 17.6803L9.62423 17.5037V17.8568L9.93312 17.6803ZM9.05059 19.181L8.82996 19.4458L9.2271 19.5341L9.05059 19.181ZM9.5801 18.6513L9.27122 18.8279L9.62423 19.0045L9.5801 18.6513Z" fill="#633535"/>
<path d="M9.66832 17.4596L10.1537 17.3713L9.66832 17.0623V17.4596ZM9.35943 18.6513H9.84482L9.53594 18.2982L9.35943 18.6513ZM9.05055 19.181H9.53594L9.31531 18.6955L9.05055 19.181ZM9.9772 17.9451L10.1978 17.8568L9.9772 17.7244V17.9451ZM10.0213 16.7534L9.66832 16.6209V17.0182L10.0213 16.7534ZM10.3302 17.0182L10.1096 16.8858L10.0213 17.2389L10.3302 17.0182ZM8.82992 20.0638V19.5341L8.43278 19.799L8.82992 20.0638ZM8.34453 19.8872L7.94739 20.1521L8.4769 20.5493L8.34453 19.8872ZM10.7274 17.5479L10.3302 17.4154L10.3743 17.8568L10.7274 17.5479ZM8.91817 19.49L9.09468 20.0197L9.53594 19.6665L9.31531 19.4458L8.91817 19.49Z" fill="#633535"/>
<path d="M9.1829 19.799L8.96227 20.5052L9.62416 20.3728L9.1829 19.799ZM10.1096 18.3424L9.88892 18.8279L10.5067 18.9162L10.1096 18.3424ZM9.62416 17.8127L9.49178 18.3865L10.1096 18.2541L9.62416 17.8127ZM11.0803 18.6072L10.6832 18.7396L11.0362 19.0928L11.0803 18.6072ZM7.72672 20.77L7.32959 20.9466L7.6826 21.2997L7.72672 20.77ZM11.301 16.6651L10.9038 16.8417L11.2568 17.1948L11.301 16.6651ZM10.5949 17.9451L10.1978 18.1217L10.5508 18.4748L10.5949 17.9451ZM10.8597 19.9314L10.4626 20.108L10.8156 20.4611L10.8597 19.9314ZM8.47687 21.7852L8.12387 21.9618L8.43275 22.3149L8.47687 21.7852ZM11.1245 19.3576L10.7714 19.1369L10.5949 19.6224L11.1245 19.3576Z" fill="#633535"/>
<path d="M9.75652 18.9162L9.53589 19.4017L10.1537 19.4459L9.75652 18.9162ZM10.4184 19.1369L10.1537 19.6224L10.7714 19.6666L10.4184 19.1369Z" fill="#633535"/>
<path d="M9.35938 19.3576L9.58001 19.4017L9.53588 19.181L9.35938 19.3576ZM10.9038 17.1506L10.5508 17.1948L10.8155 17.5479L10.9038 17.1506ZM10.1537 19.0486L9.97715 19.0927L10.1095 19.2693L10.1537 19.0486ZM11.6981 18.7396L11.4774 18.7838L11.654 18.9603L11.6981 18.7396ZM11.2568 17.901L11.0803 17.9451L11.2127 18.1217L11.2568 17.901ZM9.53588 19.6224L9.62414 19.7107L9.66827 19.5783L9.53588 19.6224ZM9.8889 18.7396L9.71239 18.872L9.93302 19.0045L9.8889 18.7396ZM12.1835 17.1948L12.4482 17.2389L12.3158 17.0182L12.1835 17.1948ZM16.0666 11.0594H15.8901L15.9783 11.1918L16.0666 11.0594ZM13.9926 15.8264L13.772 15.7382L13.8161 15.9589L13.9926 15.8264ZM14.9193 12.1629L14.8752 12.3395L15.0517 12.2953L14.9193 12.1629ZM14.6545 12.2512L14.478 12.1629L14.4339 12.3836L14.6545 12.2512ZM13.1101 15.4733L12.9777 15.6499H13.1984L13.1101 15.4733ZM11.654 14.9437L11.3009 15.3409L11.8746 15.4292L11.654 14.9437ZM12.2276 16.5327L12.0952 16.4444L12.0511 16.6651L12.2276 16.5327ZM12.1835 15.9589L11.9187 15.8264V16.1796L12.1835 15.9589ZM10.9038 14.1492L11.2568 14.414L11.3892 13.9285L10.9038 14.1492ZM11.4774 13.5753L11.6981 13.7078L11.7422 13.4871L11.4774 13.5753ZM11.8746 13.9726L12.0511 14.1492L12.1393 13.8402L11.8746 13.9726ZM9.62414 16.003V16.4444L10.1095 16.1354L9.62414 16.003ZM11.1686 16.003L11.5216 15.8264L11.2127 15.5175L11.1686 16.003ZM11.3009 16.4003L11.4333 16.5768L11.5216 16.4003H11.3009ZM11.8746 13.4871L12.2717 13.8843L12.4924 13.2664L11.8746 13.4871ZM11.654 14.6788L12.1393 14.3699L11.6098 14.0609L11.654 14.6788Z" fill="#633535"/>
<path d="M10.4626 14.6347L10.8156 14.3699L10.4184 14.105L10.4626 14.6347ZM11.5657 13.7078L11.3892 14.0167H11.8305L11.5657 13.7078ZM12.36 14.7671L12.1394 14.8112L12.2276 15.0319L12.36 14.7671ZM10.7273 15.6499H11.301L11.0362 15.0319L10.7273 15.6499ZM10.2419 14.7671L10.2861 14.9878L10.4626 14.8112L10.2419 14.7671ZM9.97717 14.8554L10.0213 15.0761L10.2419 14.9437L9.97717 14.8554ZM12.5806 14.3699L12.1835 14.5464L12.5806 14.8995V14.3699ZM12.713 15.0319L12.36 15.2085L12.6689 15.4733L12.713 15.0319Z" fill="#633535"/>
<path d="M15.5812 11.545L15.2282 11.7656L15.6253 11.9422L15.5812 11.545ZM10.1537 14.723V14.3257L9.75653 14.5464L10.1537 14.723ZM10.5508 15.0761L10.1537 14.9878L10.2419 15.4292L10.5508 15.0761ZM10.0213 14.9437L9.7124 14.5906L9.62415 15.1202L10.0213 14.9437Z" fill="#633535"/>
<path d="M10.0654 15.4733L10.0213 15.0319L9.62415 15.2526L10.0654 15.4733ZM10.7273 14.3699L10.9038 14.1933L10.6391 14.0609L10.7273 14.3699ZM10.5949 14.3699L10.1978 14.5464L10.5067 14.8112L10.5949 14.3699ZM9.7124 14.5464L9.93303 14.6788L9.97716 14.3699L9.7124 14.5464ZM10.8597 13.4429L10.7273 13.9726L11.3451 13.9285L10.8597 13.4429ZM9.88891 16.2678L9.75653 16.7534L10.3302 16.7092L9.88891 16.2678ZM10.7714 15.7382L10.9479 15.8264L10.9038 15.6499L10.7714 15.7382ZM10.3302 16.1796L10.5067 16.2237L10.4625 16.0471L10.3302 16.1796ZM9.97716 16.0471L10.2419 16.0913L10.1978 15.7382L9.97716 16.0471ZM11.654 14.5905L11.3009 14.723L11.654 14.9878V14.5905Z" fill="#633535"/>
<path d="M10.8596 14.8995L11.4774 14.7671L10.992 14.3257L10.8596 14.8995ZM9.93298 13.796L10.4625 13.7519L10.1536 13.3546L9.93298 13.796Z" fill="#633535"/>
<path d="M10.5949 14.8112L10.7714 15.1202L10.9921 14.8112H10.5949ZM9.75653 14.3698L10.2419 14.2816L9.93303 13.8402L9.75653 14.3698ZM9.62415 15.9589L10.0654 15.694L9.62415 15.385V15.9589ZM11.2568 14.9437L11.0803 15.0319L11.3009 15.1644L11.2568 14.9437Z" fill="#633535"/>
<path d="M11.5658 16.003L11.4334 16.0913L11.5658 16.2237V16.003ZM10.1096 14.1492L10.5067 14.0609L10.2861 13.7078L10.1096 14.1492ZM12.0953 15.5616L12.3159 15.6057L12.2277 15.3851L12.0953 15.5616ZM10.2861 15.8706L10.5067 16.003L10.5509 15.694L10.2861 15.8706ZM10.3743 15.2968V15.6057L10.6832 15.4733L10.3743 15.2968ZM9.88896 15.5175L10.1537 15.694L10.1978 15.3409L9.88896 15.5175ZM9.8007 15.9589L10.0655 16.0913V15.7823L9.8007 15.9589ZM11.6981 17.7686L11.5658 17.8568L11.6981 17.9893V17.7686ZM11.301 17.3713L11.1686 17.4155L11.301 17.592V17.3713ZM9.49182 20.8142V21.0349L9.71245 20.9907L9.49182 20.8142ZM9.1388 21.1231V21.3438L9.35944 21.2997L9.1388 21.1231ZM10.2861 20.6376L10.242 20.8583L10.4626 20.8142L10.2861 20.6376ZM5.82932 25.5371L5.7852 25.7136L6.00583 25.6695L5.82932 25.5371ZM5.47632 26.7729V26.9495L5.69695 26.9054L5.47632 26.7729ZM6.71185 25.4929L6.84423 25.5812L6.93248 25.3605L6.71185 25.4929ZM10.0213 19.5783H9.66833L9.88896 19.9314L10.0213 19.5783ZM9.05055 20.8583L8.69754 20.6817V21.1673L9.05055 20.8583ZM9.66833 20.6376L9.27118 20.4611V20.9466L9.66833 20.6376ZM8.69754 21.5645L8.65342 21.1673L8.16802 21.388L8.69754 21.5645ZM9.97721 20.2845L9.66833 20.0638L9.6242 20.4611L9.97721 20.2845ZM9.40356 21.9618L9.22706 21.8294V22.0501L9.40356 21.9618ZM10.1096 22.4032L10.2861 22.5797L10.3302 22.359L10.1096 22.4032ZM10.1096 21.2556H9.97721L9.93308 21.4321L10.1096 21.2556ZM11.0362 16.2237L10.8597 16.2678L11.0362 16.4002V16.2237ZM12.8895 13.5753L12.5365 13.8843L12.9778 14.105L12.8895 13.5753ZM6.18234 21.2114L6.80011 21.4321L6.66773 20.9466L6.18234 21.2114ZM5.47632 22.3149L5.60869 22.668L5.91758 22.359L5.47632 22.3149Z" fill="#633535"/>
<path d="M5.82922 22.2708L6.00573 22.6239L6.27049 22.359L5.82922 22.2708Z" fill="#633535"/>
<path d="M5.60864 23.0211L6.27054 22.9328L5.91753 22.359L5.60864 23.0211ZM6.5353 22.0059L6.27054 22.4473L6.80006 22.5797L6.5353 22.0059Z" fill="#633535"/>
<path d="M5.12329 23.1977L5.60868 23.0211L5.21154 22.5797L5.12329 23.1977ZM6.18232 21.6528L5.78519 21.6969L6.00582 22.0942L6.18232 21.6528ZM5.87344 22.2707L5.78519 21.8735L5.38805 22.1383L5.87344 22.2707ZM7.06485 20.6817L6.71184 20.8583L7.06485 21.1673V20.6817ZM6.18232 21.7852L6.62359 21.8293L6.40295 21.2997L6.18232 21.7852Z" fill="#633535"/>
<path d="M6.04999 22.1384H6.53539L6.35888 21.6528L6.04999 22.1384ZM6.49126 22.0059L6.93252 22.2708V21.697L6.49126 22.0059ZM4.90271 22.6239H5.3881L5.16746 22.2266L4.90271 22.6239ZM6.09412 21.2997L5.87349 21.5204L6.13825 21.697L6.09412 21.2997Z" fill="#633535"/>
<path d="M5.43208 21.9176L5.21145 22.2266L5.56446 22.3149L5.43208 21.9176ZM4.90256 22.6239L4.77018 22.977L5.07907 22.9328L4.90256 22.6239ZM7.6384 20.8142L7.59427 20.3728L7.10888 20.6376L7.6384 20.8142ZM5.91747 21.9176L5.78509 21.6087L5.47621 21.9176H5.91747ZM7.15301 20.9024L6.93237 21.2556L7.37364 21.3438L7.15301 20.9024ZM7.72665 22.8446L7.77078 22.977L7.90316 22.8887L7.72665 22.8446ZM6.88825 22.4915L7.19713 22.8446L7.37364 22.359L6.88825 22.4915ZM7.77078 23.6391L7.85903 23.9922L8.12379 23.6832L7.77078 23.6391ZM8.16791 20.6376L8.07966 21.0349L8.4768 20.9907L8.38855 20.6817L8.16791 20.6376ZM4.28479 25.0515V25.5812L4.59368 25.3605L4.28479 25.0515Z" fill="#633535"/>
<path d="M7.99153 20.9907L7.41789 21.4762L8.07978 21.6969L7.99153 20.9907ZM8.03565 20.1521L7.46202 20.6376L8.12391 20.8583L8.03565 20.1521ZM7.109 21.2997L6.88837 21.4762L6.75599 21.6969L7.28551 21.8294L7.109 21.2997ZM5.52045 24.9191L5.03506 25.0957L5.4322 25.4046L5.52045 24.9191ZM8.91818 20.0197L8.47692 20.2403L8.82993 20.5493L8.91818 20.0197ZM6.88837 22.4914H6.2706L6.53536 23.0653L6.88837 22.4914ZM4.54967 26.1991L4.81443 25.846L4.37317 25.8019L4.54967 26.1991ZM6.88837 23.8598H7.19726L7.109 23.5066L6.88837 23.8598Z" fill="#633535"/>
<path d="M7.81496 21.5204L7.32958 21.8294L7.90322 22.1825L7.81496 21.5204ZM7.94734 22.4473L7.63846 22.5356L7.94734 22.8446V22.4473ZM6.88831 22.2266H7.32958L7.15307 21.7852L6.88831 22.2266ZM5.56452 23.7715L5.91753 24.0363L6.04991 23.5508L5.56452 23.7715ZM6.13816 23.1977L6.3588 23.3301L6.40292 23.1094L6.13816 23.1977ZM6.5353 23.5949L6.7118 23.7715L6.80006 23.4625L6.5353 23.5949ZM5.12326 24.2129L5.47627 23.9922L5.07913 23.6832L5.12326 24.2129ZM6.22642 23.3301L6.04991 23.6391H6.49117L6.22642 23.3301ZM7.02069 24.3894H6.80006L6.88831 24.6543L7.02069 24.3894ZM5.52039 26.155H5.29976L5.38801 26.4198L5.52039 26.155ZM5.16738 27.3467H4.94675L5.07913 27.6116L5.16738 27.3467ZM4.90262 24.3894L4.94675 24.566L5.12326 24.4336L4.90262 24.3894ZM4.63786 24.4777L4.68199 24.6984L4.90262 24.566L4.63786 24.4777ZM4.63786 26.4198L4.32898 26.5964L4.63786 26.8612V26.4198Z" fill="#633535"/>
<path d="M4.81431 24.3453V23.9481L4.41717 24.1688L4.81431 24.3453ZM5.21145 24.6984L4.81431 24.6101L4.90256 25.0515L5.21145 24.6984ZM4.68193 24.566L4.32892 24.257L4.28479 24.7867L4.68193 24.566ZM4.72605 25.0957L4.68193 24.6543L4.28479 24.875L4.72605 25.0957Z" fill="#633535"/>
<path d="M5.38807 23.9922L5.56458 23.7715L5.34395 23.6832L5.38807 23.9922ZM5.2557 23.9922L4.85856 24.1687L5.16744 24.4336L5.2557 23.9922ZM4.37317 24.1687L4.5938 24.3012L4.63792 23.9922L4.37317 24.1687ZM5.52045 23.0653L5.38807 23.5949L6.00584 23.5067L5.52045 23.0653ZM6.31473 24.2129L5.96171 24.3453L6.31473 24.6101V24.2129ZM5.69696 24.3012L5.91759 24.257L5.74108 24.1246L5.69696 24.3012ZM4.50554 23.4625L5.03506 23.4184L4.72617 22.977L4.50554 23.4625ZM5.2557 24.4336L5.4322 24.7426L5.65283 24.3894L5.2557 24.4336ZM4.37317 24.0363L4.90268 23.9039L4.50554 23.5067L4.37317 24.0363ZM5.91759 24.566L5.74108 24.6543L5.96171 24.7867L5.91759 24.566Z" fill="#633535"/>
<path d="M4.77026 23.7715L5.1674 23.6832L4.94677 23.3301L4.77026 23.7715ZM5.1674 25.2281L4.81439 25.4929L5.25566 25.7136L5.1674 25.2281ZM10.9921 15.694L10.5067 15.9147L10.948 16.1796L10.9921 15.694Z" fill="#633535"/>
<path d="M18.1405 29.5979C21.6707 27.435 30.3635 32.2903 37.6444 44.4727C44.5722 55.9931 48.4554 61.6429 53.7064 64.7326C59.487 68.1313 61.958 69.4996 62.5317 73.0749C63.1053 76.6502 60.1047 81.7703 58.7368 83.8448C57.3689 85.9194 51.8972 88.2588 43.6456 83.3152C35.3498 78.4157 31.9521 66.4099 28.7309 59.4801C25.4655 52.5502 19.685 46.2383 19.0231 40.8975C18.2288 34.5856 14.0368 32.1138 18.1405 29.5979Z" fill="url(#paint5_linear_651_2344)"/>
<path d="M36.409 52.3736C36.2325 50.2108 35.9236 45.3997 33.8497 40.5885C31.0256 34.3207 25.7745 28.5385 19.1997 28.8475C17.6111 28.8916 12.5807 28.9799 9.75665 40.5885C9.40364 42.0892 2.96118 76.4736 2.96118 76.4736H37.9534C37.9534 76.4295 36.5855 54.0509 36.409 52.3736Z" fill="url(#paint6_linear_651_2344)"/>
<path d="M32.1287 48.7542L31.908 48.4011L31.7315 48.7101L32.1287 48.7542ZM32.4376 47.8273L32.261 47.4742L32.0404 47.739L32.4376 47.8273ZM31.5991 37.0574L31.6433 37.6312L32.0845 37.3222L31.5991 37.0574ZM30.6725 35.7332L30.3636 35.8215L30.5401 36.0422L30.6725 35.7332ZM31.4668 37.4988L31.1579 37.9401L31.5991 38.0284L31.4668 37.4988ZM31.7315 39.2643L31.4226 39.6616L31.8639 39.794L31.7315 39.2643ZM32.8347 40.6326L32.5699 40.9416L32.9671 41.074L32.8347 40.6326ZM32.4376 41.9127L32.0404 41.692L31.9963 42.0892L32.4376 41.9127ZM32.3934 40.7209L32.0404 40.5444V40.8975L32.3934 40.7209ZM31.2903 37.3663L30.849 37.1898V37.587L31.2903 37.3663ZM30.5842 35.5125L30.3636 35.3801V35.6449L30.5842 35.5125ZM29.8341 35.1594L30.0106 34.9387L29.7458 34.8945L29.8341 35.1594ZM29.5693 34.8063L29.7017 34.6297L29.4811 34.5856L29.5693 34.8063ZM31.5109 38.0726L31.0255 38.514L31.555 38.7347L31.5109 38.0726ZM32.8788 39.8823L32.2169 39.7057L32.261 40.2795L32.8788 39.8823ZM32.5258 38.5581L31.8639 38.4257L31.9963 38.9553L32.5258 38.5581Z" fill="#609ECC"/>
<path d="M32.4376 40.3236H33.6731L33.1877 39.2202L32.4376 40.3236ZM32.8788 41.383H34.1585L33.7172 40.2795L32.8788 41.383ZM31.0696 37.1015L31.8198 37.0132L31.4226 36.3511L31.0696 37.1015ZM30.849 35.8214V36.4835L31.4226 36.2628L30.849 35.8214Z" fill="#609ECC"/>
<path d="M23.5681 30.8337C27.1864 33.5262 29.5693 39.7057 20.5233 50.6081C11.4774 61.5104 8.87399 68.1754 7.9032 75.7674C6.97655 83.3593 7.9032 85.3897 4.99086 87.6849C2.07852 89.9802 -4.49631 89.2739 -7.01152 88.8767C-9.52672 88.4794 -14.2924 87.6408 -13.9835 76.5177C-13.6746 65.3947 -8.55594 54.0509 -4.09918 47.2976C0.401712 40.5002 5.25562 34.7621 9.66826 31.4958C14.9634 27.6999 19.2878 27.6999 23.5681 30.8337Z" fill="url(#paint7_linear_651_2344)"/>
<path d="M23.9211 42.3541L23.2592 42.7955L24.0535 43.2368L23.9211 42.3541ZM23.0386 44.9583L22.2884 45.2673L22.8621 45.8852L23.0386 44.9583ZM25.9951 38.514L26.7893 38.8671L26.7452 37.896L25.9951 38.514ZM23.4357 41.4713L22.7738 41.2947L22.8621 42.0451L23.4357 41.4713ZM22.2002 44.252L21.6707 43.7665L21.4059 44.4727L22.2002 44.252ZM24.2741 39.9264L23.9653 39.6616L23.7887 40.2354L24.2741 39.9264ZM22.9062 42.8396L23.0386 42.4865L22.5973 42.4423L22.9062 42.8396ZM24.6713 36.5277L25.1125 36.5718L24.9802 36.1304L24.6713 36.5277ZM25.8186 33.9235L25.5538 34.3207L26.0392 34.409L25.8186 33.9235ZM25.9068 35.8656L25.4655 35.6891L25.5097 36.1746L25.9068 35.8656ZM18.626 44.0755L18.7142 43.6782L18.2729 43.8107L18.626 44.0755ZM26.0392 34.718L25.8627 35.2035L26.3922 35.1594L26.0392 34.718ZM25.1567 35.6891L25.1125 35.3801L24.7154 35.6008L25.1567 35.6891ZM26.0833 37.4105L25.9068 37.0574L25.6421 37.3663L26.0833 37.4105ZM23.0827 40.6768L23.4799 40.9858L23.6564 40.5002L23.0827 40.6768ZM25.5979 38.6905L25.2008 38.6022L25.3332 38.9995L25.5979 38.6905Z" fill="#609ECC"/>
<path d="M20.8323 43.5017L21.0529 43.8107L21.2294 43.4134L20.8323 43.5017ZM19.9056 42.3982L19.5085 42.2216V42.663L19.9056 42.3982ZM25.4214 38.6464V39.0436L25.8627 38.8229L25.4214 38.6464ZM23.0827 41.383L22.6414 41.2947L22.8179 41.7361L23.0827 41.383ZM26.3039 40.8533L26.5687 39.5733L25.3332 39.794L26.3039 40.8533ZM25.5979 42.7072L26.0833 41.2506L24.8036 41.5596L25.5979 42.7072ZM24.936 44.2079L25.5538 42.9279L24.23 43.1927L24.936 44.2079ZM23.877 46.1059L24.4947 45.0466L23.3475 44.87L23.877 46.1059ZM25.1566 37.896L25.4214 38.205L25.5538 37.8077L25.1566 37.896ZM26.1716 36.3953L26.7452 36.7043V35.9539L26.1716 36.3953ZM23.5681 37.8077L23.8329 38.0726L23.9652 37.6312L23.5681 37.8077ZM26.2157 37.2339L26.5246 37.4546L26.6569 37.0574L26.2157 37.2339ZM21.3176 46.5473L20.744 46.1059L20.5234 46.8121L21.3176 46.5473ZM22.5532 46.5914L21.9795 46.15L21.7589 46.8563L22.5532 46.5914ZM21.1853 48.9749L20.9646 49.328L21.4059 49.4163L21.1853 48.9749ZM21.45 44.5169L20.6999 44.8259L21.3618 45.4879L21.45 44.5169ZM24.3624 43.4575L23.7887 43.6782L24.2741 44.1196L24.3624 43.4575ZM23.7005 45.7528L23.2592 45.3997L23.0827 46.0176L23.7005 45.7528ZM23.1268 44.2079L22.6856 43.8548L22.5091 44.5169L23.1268 44.2079ZM22.5091 46.8121L21.7589 47.1652L22.4208 47.7832L22.5091 46.8121ZM21.7148 46.9004L20.9205 47.2094L21.5824 47.8273L21.7148 46.9004ZM22.4208 45.3555L21.6707 45.6645L22.3326 46.3266L22.4208 45.3555ZM20.6999 48.4011L19.8615 48.7101L20.5234 49.3722L20.6999 48.4011ZM21.4059 47.8273L20.5675 48.0921L21.2294 48.7542L21.4059 47.8273ZM20.3027 46.9887L19.8174 46.5031L19.5526 47.2094L20.3027 46.9887ZM22.9503 42.5748L22.6414 42.2658L22.4208 42.7513L22.9503 42.5748ZM21.4059 46.0617L21.6265 45.7528L21.1853 45.6645L21.4059 46.0617ZM20.7881 41.5596L21.1853 41.692L21.097 41.2506L20.7881 41.5596ZM22.3326 40.8975L21.9795 41.1623L22.4649 41.4271L22.3326 40.8975ZM20.4351 43.9431L20.0821 43.7224L19.9939 44.1638L20.4351 43.9431ZM16.7285 45.3555L16.905 45.0024H16.4637L16.7285 45.3555ZM18.4053 45.3114L18.0964 45.6204L18.6259 45.7969L18.4053 45.3114Z" fill="#609ECC"/>
<path d="M-4.49634 49.3722L-4.36396 49.5929L-4.18746 49.4163L-4.49634 49.3722ZM-4.01095 49.1515L-4.67284 48.2687L-5.20236 49.1074L-4.01095 49.1515ZM-4.7611 50.0343L-5.33474 49.2839L-5.776 50.0784L-4.7611 50.0343ZM7.90318 34.3208L8.38857 34.1883L8.16793 33.7911L7.90318 34.3208ZM6.84414 34.718L6.93239 35.0711L7.15302 34.8504L6.84414 34.718ZM7.41779 33.4821L8.03555 33.5704L7.90318 32.9966L7.41779 33.4821ZM7.81492 34.4973L8.25618 34.9828L8.43269 34.409L7.81492 34.4973ZM7.63842 35.6449L8.03555 36.0863L8.30031 35.6008L7.63842 35.6449ZM7.24128 34.8063L7.7708 35.2477L7.90318 34.7621L7.24128 34.8063ZM9.80061 36.3512L10.1977 36.307L10.0212 36.0422L9.80061 36.3512ZM7.63842 34.6739L7.24128 33.5263L6.44701 34.2325L7.63842 34.6739ZM4.10831 39.5733L4.5937 39.2643L4.19656 38.9995L4.10831 39.5733ZM3.57879 38.7788L4.02005 38.5581L3.62291 38.2933L3.57879 38.7788ZM2.82864 39.5292L3.31403 39.2202L2.87277 38.9112L2.82864 39.5292ZM3.31403 39.3526L3.84355 39.0878L3.40228 38.8229L3.31403 39.3526ZM4.50544 38.7788L5.07909 39.1319L5.16734 38.5581L4.50544 38.7788Z" fill="#E6F7FF"/>
<path d="M4.02009 37.3664L4.50548 37.8077L4.68199 37.2339L4.02009 37.3664ZM4.68199 36.307L5.2115 36.7484L5.34388 36.2187L4.68199 36.307ZM3.26994 38.9112L2.91693 38.1167L2.47567 38.6464L3.26994 38.9112ZM3.04931 39.7499L3.57883 40.0588L3.66708 39.485L3.04931 39.7499ZM3.88771 38.1609L4.3731 38.5581L4.59374 38.0284L3.88771 38.1609ZM2.21091 40.1913L2.78455 40.5885L2.91693 40.0147L2.21091 40.1913ZM7.24132 35.9098L7.72671 36.3512L7.90322 35.8215L7.24132 35.9098ZM6.66768 36.4836L6.13816 36.7484L6.53529 37.1015L6.66768 36.4836ZM7.10894 35.7773L6.53529 36.0863L6.97656 36.4394L7.10894 35.7773ZM5.2115 37.6753L5.74102 37.4988L5.34388 37.1015L5.2115 37.6753ZM3.13756 40.5444L3.57883 40.3237L3.18169 40.0147L3.13756 40.5444ZM2.38742 40.0147L2.78455 39.7499L2.43154 39.485L2.38742 40.0147ZM7.24132 36.5277L7.50607 36.307L7.24132 36.1305V36.5277ZM6.09403 37.7636L5.96165 37.4988L5.74102 37.6753L6.09403 37.7636ZM8.56511 37.9843L8.25622 38.0284L8.3886 38.2933L8.56511 37.9843ZM5.91753 38.2933L6.53529 38.1609L6.27053 37.7195L5.91753 38.2933ZM7.99147 38.3816L8.03559 38.0726L7.77083 38.1609L7.99147 38.3816ZM6.44704 39.1319L6.53529 38.7347L6.22641 38.8229L6.44704 39.1319ZM4.54961 41.6478L4.50548 41.2947L4.24072 41.4713L4.54961 41.6478ZM5.91753 42.4865L5.56452 42.3982L5.6969 42.663L5.91753 42.4865ZM6.53529 40.2354H6.22641L6.35879 40.5002L6.53529 40.2354ZM5.38801 41.5596L5.29975 41.8685H5.56452L5.38801 41.5596ZM7.94734 39.8381L7.63845 39.6616L7.59433 39.9264L7.94734 39.8381ZM7.68258 42.001L7.37369 41.8685L7.32957 42.1334L7.68258 42.001ZM3.3582 43.7665H3.66708L3.5347 43.4576L3.3582 43.7665ZM3.31407 42.972L3.40232 42.6189L3.09343 42.7072L3.31407 42.972ZM2.16678 43.0162V42.7513L1.94615 42.7955L2.16678 43.0162ZM3.26994 42.2217L3.57883 42.3099L3.5347 42.001L3.26994 42.2217ZM2.47567 41.7803L3.00518 41.9127L2.96105 41.383L2.47567 41.7803ZM1.59314 41.6037L1.94615 42.0892L2.21091 41.6037H1.59314ZM4.68199 39.7499L5.25563 40.0147L5.16737 39.485L4.68199 39.7499ZM1.99027 42.4424L2.25504 42.5306L2.21091 42.2217L1.99027 42.4424Z" fill="#E6F7FF"/>
<path d="M4.81444 37.0574L5.34396 36.7484L4.94682 36.5277L4.81444 37.0574ZM5.03508 37.1456L5.78522 37.1898L5.60871 36.5277L5.03508 37.1456ZM4.54968 37.8519L5.16745 38.3374L5.34396 37.6312L4.54968 37.8519ZM6.88838 35.027L7.50615 35.6449L7.72678 34.9828L6.88838 35.027ZM5.87347 36.5277L6.40299 36.3511L6.04998 35.998L5.87347 36.5277ZM5.65284 35.9539L6.18236 35.8215L5.82935 35.4242L5.65284 35.9539Z" fill="#E6F7FF"/>
<path d="M4.41729 40.1471L4.28491 40.412H4.54967L4.41729 40.1471ZM5.96172 35.5125L6.00584 35.8215L6.22648 35.6008L5.96172 35.5125ZM4.90268 38.3374L5.16744 38.2933L5.03507 38.0726L4.90268 38.3374ZM6.49123 34.718L6.93249 35.2035L7.15313 34.5856L6.49123 34.718ZM6.71186 35.5125L6.35886 34.3649L5.56458 35.1153L6.71186 35.5125ZM5.82933 36.3953L5.4322 35.2918L4.63792 35.998L5.82933 36.3953ZM4.94681 37.2781L4.50554 36.2629L3.79952 36.9691L4.94681 37.2781ZM4.10841 38.205L3.71127 37.1457L2.917 38.0284L4.10841 38.205ZM2.87287 39.794L2.4316 38.6023L1.72559 39.3526L2.87287 39.794ZM7.28551 37.5871L7.15313 37.8519H7.41789L7.28551 37.5871ZM6.49123 37.0132L6.22648 37.4988H6.66774L6.49123 37.0132ZM5.52045 38.3374L5.4322 38.6905L5.74108 38.6464L5.52045 38.3374Z" fill="#E6F7FF"/>
<path d="M8.78569 36.5277L8.60918 36.7925H8.87394L8.78569 36.5277ZM7.28539 37.4546L7.10889 37.6753L7.41777 37.7194L7.28539 37.4546ZM12.4482 34.5414H12.8453L12.6688 34.1883L12.4482 34.5414ZM15.9342 29.5096L16.3313 29.5537L16.1989 29.2006L15.9342 29.5096ZM15.6694 31.0103H16.0665L15.9342 30.7455L15.6694 31.0103ZM10.8596 33.8793L11.1685 33.6586L10.8596 33.438V33.8793ZM9.75647 35.1594L9.62409 34.8945L9.44759 35.0711L9.75647 35.1594ZM12.2275 35.2035L11.9628 35.2477L12.1393 35.4684L12.2275 35.2035ZM15.6694 29.8627L15.9783 29.7303L15.8018 29.5096L15.6694 29.8627ZM14.6986 30.9662L14.6104 30.6572L14.3897 30.8337L14.6986 30.9662ZM15.2723 32.0696L15.1399 31.8048L14.9634 32.0255L15.2723 32.0696ZM17.2138 30.2158L17.1697 29.8627L16.9491 30.0392L17.2138 30.2158ZM18.3611 30.1717L18.317 29.8627L18.0964 29.9951L18.3611 30.1717ZM18.0081 29.5096L17.9199 29.2006L17.7433 29.3772L18.0081 29.5096ZM18.7583 29.1123L18.67 28.8033L18.4935 28.9358L18.7583 29.1123ZM17.3462 30.8337H17.0373L17.1697 31.0544L17.3462 30.8337ZM17.0373 29.2006L16.7284 29.1565L16.8167 29.4213L17.0373 29.2006ZM11.5656 35.9097V35.6008L11.345 35.689L11.5656 35.9097ZM11.8745 37.2339L11.6098 37.0132L11.5215 37.3663L11.8745 37.2339ZM10.8596 35.1152L10.7272 35.4242H10.992L10.8596 35.1152Z" fill="#E6F7FF"/>
<path d="M10.9038 34.9387L10.7273 35.2477H11.0361L10.9038 34.9387ZM2.608 40.5002L2.12261 40.8092L2.51974 41.1182L2.608 40.5002ZM3.75528 41.2065L3.66703 41.4713H3.97591L3.75528 41.2065ZM4.02004 39.6174L4.24067 39.8381L4.2848 39.5292L4.02004 39.6174ZM2.03435 40.7651L2.21086 40.5885L2.07848 40.4561L2.03435 40.7651ZM1.46071 41.5154L1.81372 41.2947L1.46071 41.0299V41.5154ZM1.24008 40.8533L1.63721 40.5885L1.28421 40.3237L1.24008 40.8533ZM1.72547 40.5444L1.81372 40.8533L1.99022 40.6768L1.72547 40.5444ZM2.25499 40.4119L1.63721 39.485L1.06357 40.2795L2.25499 40.4119ZM1.41658 41.2065L0.931194 40.4561L0.445801 41.0299L1.41658 41.2065ZM7.94729 32.8642L8.60918 33.0407L8.52093 32.4228L7.94729 32.8642ZM12.4041 31.9372L12.9336 31.8048L12.5806 31.4076L12.4041 31.9372ZM12.051 31.0986L12.5364 30.922L12.3158 30.5689L12.051 31.0986ZM11.1685 31.54L11.698 31.4076L11.3891 31.0103L11.1685 31.54ZM11.6539 31.54L12.1834 31.4076L11.8745 31.0103L11.6539 31.54ZM12.9777 31.2752L13.419 31.8048L13.6396 31.2752H12.9777ZM12.9777 29.9068L13.2866 30.4806L13.6396 29.9951L12.9777 29.9068ZM14.0367 29.2448L14.3456 29.8186L14.6986 29.3772L14.0367 29.2448ZM11.8304 31.0986L11.7422 30.2599L11.0361 30.6572L11.8304 31.0986ZM11.2568 31.8048L11.698 32.2903L11.9187 31.8048H11.2568ZM12.5806 30.5689L12.8894 31.0545L13.1983 30.5689H12.5806ZM10.4184 32.0697L10.7714 32.5552L11.0803 32.0255L10.4184 32.0697ZM11.0803 32.6435L11.6539 32.5552L11.345 32.1138L11.0803 32.6435ZM10.5949 31.9372L11.0803 31.8048L10.7714 31.4076L10.5949 31.9372Z" fill="#E6F7FF"/>
<path d="M12.8454 32.3345L13.3308 32.6876L13.4631 32.1138L12.8454 32.3345ZM14.3898 29.951L14.7428 30.3482L15.0076 29.9068L14.3898 29.951ZM15.9783 28.6709L16.3755 29.1123L16.5961 28.6268L15.9783 28.6709ZM17.1698 28.5827L17.4345 28.8916L17.611 28.5385L17.1698 28.5827ZM13.1984 30.4365L13.5955 31.1869L14.0368 30.6131L13.1984 30.4365ZM12.5365 32.6435L12.2717 32.7759L12.5365 32.9083V32.6435Z" fill="#E6F7FF"/>
<path d="M13.4632 30.9662L13.7721 31.0545L13.6838 30.7896L13.4632 30.9662ZM13.9486 30.3924L14.0368 29.2006L13.0219 29.5537L13.9486 30.3924ZM12.8454 30.8779L12.8013 29.6861L11.7423 30.1717L12.8454 30.8779ZM15.1841 29.5096L15.3606 28.7592L14.6987 28.9358L15.1841 29.5096ZM8.38866 34.8946L8.96231 34.7621L8.65342 34.3649L8.38866 34.8946ZM8.21216 34.0118L8.69754 33.8794L8.43279 33.5262L8.21216 34.0118ZM9.00643 34.2766L9.35944 34.7621L9.66833 34.3207L9.00643 34.2766ZM8.69754 33.5262L9.05056 34.0118L9.35944 33.5704L8.69754 33.5262Z" fill="#E6F7FF"/>
<path d="M9.75651 34.2325L10.1978 34.5856L10.3302 34.1442L9.75651 34.2325ZM9.53587 33.129L10.0213 33.8352L10.3743 33.2614L9.53587 33.129ZM9.53587 33.9676L9.80063 34.0559L9.75651 33.7911L9.53587 33.9676ZM8.87398 33.7469L8.96223 32.5552L7.81494 33.0407L8.87398 33.7469ZM11.2127 31.8048L10.9479 30.6572L10.1536 31.1869L11.2127 31.8048ZM10.639 32.4228L10.0654 32.5552L10.3743 32.9524L10.639 32.4228ZM11.6098 33.3938L11.4333 33.7028L11.6981 33.7469L11.6098 33.3938ZM12.2717 32.0255L12.4482 32.2021L12.5806 31.9814L12.2717 32.0255ZM10.0213 32.5552L10.286 32.4228L10.1095 32.2903L10.0213 32.5552ZM9.31524 33.0848L9.75651 32.9966L9.53587 32.6876L9.31524 33.0848Z" fill="#E6F7FF"/>
<path d="M9.35938 32.3345L9.8889 32.2903L9.66827 31.8931L9.35938 32.3345ZM9.93302 32.2903V32.5552L10.1537 32.4228L9.93302 32.2903Z" fill="#E6F7FF"/>
<path d="M10.4185 32.2462L10.1979 31.1869L9.35946 31.7165L10.4185 32.2462ZM9.49184 32.8641L9.40359 31.8931L8.65344 32.3345L9.49184 32.8641Z" fill="#E6F7FF"/>
</g>
<defs>
<linearGradient id="paint0_linear_651_2344" x1="0" y1="0" x2="37" y2="37" gradientUnits="userSpaceOnUse">
<stop offset="0.5" stop-color="#41A131"/>
<stop offset="1" stop-color="#146107"/>
</linearGradient>
<linearGradient id="paint1_linear_651_2344" x1="18.7959" y1="27.0025" x2="21.8294" y2="23.0979" gradientUnits="userSpaceOnUse">
<stop stop-color="#BC5A32" stop-opacity="0"/>
<stop offset="0.99" stop-color="#BC5A32"/>
</linearGradient>
<linearGradient id="paint2_linear_651_2344" x1="23.5222" y1="13.1648" x2="21.8315" y2="10.8224" gradientUnits="userSpaceOnUse">
<stop stop-color="#BC5A32" stop-opacity="0"/>
<stop offset="0.99" stop-color="#BC5A32"/>
</linearGradient>
<linearGradient id="paint3_linear_651_2344" x1="16.7227" y1="19.4759" x2="16.8715" y2="17.1246" gradientUnits="userSpaceOnUse">
<stop stop-color="#CC7A5E" stop-opacity="0"/>
<stop offset="0.924" stop-color="#AA5F4B"/>
</linearGradient>
<linearGradient id="paint4_linear_651_2344" x1="20.3928" y1="14.7759" x2="20.1411" y2="7.39941" gradientUnits="userSpaceOnUse">
<stop offset="0.007" stop-color="#FF7A00"/>
<stop offset="0.983" stop-color="#FFB600"/>
</linearGradient>
<linearGradient id="paint5_linear_651_2344" x1="37.7719" y1="58.6529" x2="56.2173" y2="64.4638" gradientUnits="userSpaceOnUse">
<stop stop-color="#7BA1C8"/>
<stop offset="1" stop-color="#8FC3E5"/>
</linearGradient>
<linearGradient id="paint6_linear_651_2344" x1="9.95522" y1="52.6561" x2="34.5424" y2="52.6883" gradientUnits="userSpaceOnUse">
<stop stop-color="#7BA1C8"/>
<stop offset="1" stop-color="#8FC3E5"/>
</linearGradient>
<linearGradient id="paint7_linear_651_2344" x1="-4.21876" y1="44.6563" x2="15.2606" y2="71.0012" gradientUnits="userSpaceOnUse">
<stop stop-color="#B9E4FF"/>
<stop offset="1" stop-color="#84B4D7"/>
</linearGradient>
<clipPath id="clip0_651_2344">
<rect width="37" height="37" rx="9" fill="white"/>
</clipPath>
</defs>
</svg>
