<svg width="37" height="37" viewBox="0 0 37 37" fill="none" xmlns="http://www.w3.org/2000/svg">
<g clip-path="url(#clip0_651_318)">
<rect width="37" height="37" rx="9" fill="#65A3FF"/>
<path d="M13.7721 30.2158C13.7721 30.2158 15.5813 29.5978 19.1114 29.7302C21.1412 29.8185 23.3034 30.3482 23.7888 30.5689C24.7596 31.0103 26.2599 31.3192 28.5545 30.7896C32.8347 29.7744 32.4817 26.4639 32.1728 24.8749C31.5992 21.8293 29.6135 20.0196 28.8192 18.0775C28.2897 16.7975 21.1412 16.5326 16.861 20.5493C14.6546 22.5355 13.5956 28.406 13.7721 30.2158Z" fill="#321011"/>
<path d="M17.4346 19.5342L14.1251 30.3483L13.1543 32.8642C13.1543 32.8642 14.5663 34.6739 17.9199 35.3801C20.2145 35.8657 21.7589 35.9098 22.7739 35.8215C23.6123 35.7332 24.6272 35.5567 24.0976 34.0118C23.3475 31.7166 23.6123 30.26 23.6123 30.26L24.8037 23.7715L17.4346 19.5342Z" fill="#EA9D7D"/>
<path d="M16.9051 25.3605C18.0083 27.0378 19.9498 28.4503 21.053 28.98C22.5974 29.7303 23.7006 29.9069 23.7006 29.9069L24.6714 24.5219L17.4346 19.5342L17.0375 20.2845L16.7286 21.5204C16.6845 21.5646 15.8902 23.8157 16.9051 25.3605Z" fill="url(#paint0_linear_651_318)"/>
<path d="M13.419 32.9523H13.3749C13.3343 32.9317 13.3004 32.9 13.277 32.861C13.2536 32.822 13.2416 32.7772 13.2425 32.7317L15.3164 26.3756C15.7135 25.0514 16.905 20.5934 16.905 20.5934C16.9256 20.5529 16.9573 20.5189 16.9963 20.4955C17.0353 20.4721 17.0801 20.4601 17.1256 20.461C17.1661 20.4817 17.2 20.5133 17.2234 20.5523C17.2468 20.5914 17.2588 20.6362 17.258 20.6817L15.6694 26.4639C15.3164 27.6557 13.5955 32.7758 13.5955 32.7758C13.5955 32.9082 13.5072 32.9523 13.419 32.9523Z" fill="#CF7653"/>
<path d="M18.6702 22.0942L18.7584 22.3149L18.9349 22.1384L18.6702 22.0942Z" fill="#A84D3B"/>
<path d="M18.67 21.8293L18.5376 22.2266L19.023 22.1383L18.67 21.8293ZM21.0087 23.5066V23.9922L21.4941 23.7715L21.0087 23.5066ZM19.8173 22.7563L19.7731 23.2418L20.2585 23.0652L19.8173 22.7563ZM19.1554 22.2707L19.0671 22.7563L19.5966 22.6239L19.1554 22.2707Z" fill="#A84D3B"/>
<path d="M18.3611 21.3882L18.1846 21.8296H18.7141L18.3611 21.3882ZM21.6706 24.5662L21.4499 24.3014L21.2734 24.6103L21.6706 24.5662ZM21.0528 24.0807L20.788 23.7276L20.6557 24.1248L21.0528 24.0807ZM22.862 25.0076L22.5531 24.6986L22.4648 25.0517L22.862 25.0076ZM24.1858 25.4931L23.8769 25.14L23.7445 25.5373L24.1858 25.4931ZM21.8471 23.9041L21.5823 23.7717V24.169L21.8471 23.9041ZM22.4648 25.2724L22.2442 25.0517L22.1118 25.3607L22.4648 25.2724ZM20.7439 23.5069L20.4791 23.3303L20.435 23.7276L20.7439 23.5069ZM23.0826 24.4338L22.6413 24.2572L22.6855 24.7869L23.0826 24.4338ZM23.921 24.5662L23.568 24.5221L23.6562 24.9193L23.921 24.5662ZM24.4946 25.2724H24.1416L24.274 25.5814L24.4946 25.2724ZM23.2591 25.1841L23.1267 24.8752L22.9061 25.1841H23.2591ZM24.3181 26.1993L24.3623 25.8904L24.0093 25.9787L24.3181 26.1993ZM24.2299 26.7732L24.274 26.4642L23.921 26.5525L24.2299 26.7732ZM23.4797 26.7732L23.3032 26.9056L23.5239 27.038L23.4797 26.7732ZM23.6121 25.0517L23.4356 25.2283L23.7004 25.3607L23.6121 25.0517ZM24.627 24.7428L24.3623 24.6986L24.4505 24.9635L24.627 24.7428ZM23.7886 27.3028L23.6121 27.4352L23.8769 27.5677L23.7886 27.3028ZM19.4201 22.7124L19.2436 22.8448L19.4642 22.9772L19.4201 22.7124ZM22.3766 24.831L22.2442 24.6986L22.2001 24.9193L22.3766 24.831ZM21.141 24.4779L21.1852 24.3014H20.9645L21.141 24.4779ZM21.7588 24.8752L21.8471 24.6986H21.6264L21.7588 24.8752ZM22.6855 25.758L22.7737 25.9787L22.9944 25.8021L22.6855 25.758ZM23.9651 24.8752L23.8327 25.0076L24.0093 25.0959L23.9651 24.8752Z" fill="#A84D3B"/>
<path d="M24.0534 24.6544L23.8328 24.8309L24.0976 24.9633L24.0534 24.6544ZM23.5239 24.8309L23.3474 24.9633L23.5239 25.0516V24.8309ZM23.7004 27.9648L23.5239 28.0531L23.7004 28.1855V27.9648ZM23.215 27.4793L23.3033 27.6558L23.4357 27.4793H23.215ZM23.1709 26.4199L23.2592 26.5965L23.3915 26.4199H23.1709ZM24.0093 26.8172L23.8769 26.7289L23.8328 26.9055L24.0093 26.8172ZM17.8757 24.7426L17.964 24.8309L18.0523 24.6985L17.8757 24.7426ZM18.7142 24.213L18.6259 24.3012H18.7583L18.7142 24.213ZM19.5967 25.7578L19.4643 25.7137L19.5084 25.8903L19.5967 25.7578ZM19.1554 25.0075L19.0672 25.1399H19.2437L19.1554 25.0075ZM22.2001 26.4199L22.156 26.6848L22.4208 26.5523L22.2001 26.4199ZM21.803 24.4337V24.6544L22.0236 24.5661L21.803 24.4337ZM21.803 23.9923V24.213L22.0678 24.0806L21.803 23.9923ZM18.4053 22.624V22.8888L18.6259 22.7564L18.4053 22.624ZM23.7004 25.8461L23.4798 25.8903L23.6563 26.0668L23.7004 25.8461ZM23.0385 27.7L22.9503 27.5234L22.7738 27.7H23.0385ZM23.1709 25.4047L23.3033 25.5813L23.4357 25.3606L23.1709 25.4047ZM23.8769 25.6696L24.0093 25.8903L24.1417 25.6254L23.8769 25.6696ZM24.3182 24.8309L24.1858 25.0075L24.4065 25.0516L24.3182 24.8309ZM24.0534 26.2434L23.8769 26.111V26.3758L24.0534 26.2434ZM19.0672 22.315L18.8024 22.4915L19.1113 22.6681L19.0672 22.315ZM18.1846 22.6681L18.0523 22.5357L18.0081 22.7564L18.1846 22.6681ZM17.3021 22.2267L17.2139 22.1384L17.1697 22.315L17.3021 22.2267ZM17.0815 23.595L17.1256 23.4185H16.9491L17.0815 23.595ZM18.7583 22.624L18.8465 22.8005L19.023 22.624H18.7583ZM18.2288 22.1826L18.3611 22.4474L18.5818 22.2267L18.2288 22.1826ZM18.1405 20.9908L17.964 21.2556L18.317 21.2998L18.1405 20.9908ZM19.4643 23.1095L19.3319 23.1978L19.5084 23.3302L19.4643 23.1095ZM19.8173 22.9329L19.6849 23.0212L19.8614 23.1095L19.8173 22.9329ZM20.1703 23.1095L20.0379 23.1978L20.1703 23.3302V23.1095ZM19.5084 24.3012L19.4202 24.213L19.376 24.3895L19.5084 24.3012ZM16.8608 22.8005L16.9491 22.9329L17.0815 22.7564L16.8608 22.8005ZM17.8757 21.7853L17.7434 21.8736L17.9199 21.9619L17.8757 21.7853ZM17.8316 23.4185L17.6992 23.3302L17.6551 23.5067L17.8316 23.4185ZM17.964 21.6088L18.0523 21.7412L18.1846 21.5646L17.964 21.6088ZM18.4053 21.8295L18.4935 22.006L18.6259 21.8295H18.4053ZM17.3904 21.3881L17.258 21.5205L17.4345 21.5646L17.3904 21.3881ZM17.5227 20.9467L17.3904 20.8584L17.3462 21.035L17.5227 20.9467ZM19.8614 23.3743V23.5509L20.0821 23.4626L19.8614 23.3743ZM20.6998 23.7274L20.5233 23.7716L20.6557 23.904L20.6998 23.7274ZM20.3468 23.3743L20.1703 23.4185L20.3027 23.5509L20.3468 23.3743ZM23.3033 24.6985L23.1268 24.7426L23.2592 24.8751L23.3033 24.6985ZM22.6414 24.4337L22.509 24.4778L22.5973 24.6102L22.6414 24.4337ZM20.5675 24.7426L20.5233 24.6102L20.391 24.7426H20.5675ZM23.0385 26.9496L22.9944 26.8172L22.862 26.9496H23.0385ZM20.3468 24.3012L20.2586 24.1688L20.1262 24.3012H20.3468ZM21.4941 24.0364V24.2571L21.6706 24.1688L21.4941 24.0364ZM22.2001 24.213V24.3895L22.3766 24.3012L22.2001 24.213ZM22.9944 24.6102L22.8179 24.6544L22.9503 24.7868L22.9944 24.6102ZM22.3766 25.493L22.2884 25.3606L22.2001 25.493H22.3766ZM20.4792 25.4489V25.6254L20.6557 25.5371L20.4792 25.4489ZM21.3176 25.0075L21.1852 25.0516L21.2735 25.184L21.3176 25.0075ZM22.8179 25.3606L22.7738 25.2282L22.6414 25.3606H22.8179Z" fill="#A84D3B"/>
<path d="M28.378 8.19028C29.3488 9.42617 29.6576 10.4855 29.8341 11.7655L29.9665 14.1491C29.9665 16.0029 29.8341 18.6071 29.6135 20.0637C29.1723 22.5796 27.9808 24.0804 26.5688 24.5218C25.1567 24.9631 22.5974 24.0362 20.8765 23.1534C19.4203 22.4031 18.5819 21.6086 18.3613 20.6817C18.1407 19.7106 17.6994 18.4747 17.6994 18.4747L15.1842 16.7533C15.1842 16.7533 13.2426 10.0883 17.5229 7.21922C21.2295 4.74743 26.657 6.02746 28.378 8.19028Z" fill="#EA9D7D"/>
<path d="M25.0684 24.7425C24.583 24.7425 24.1859 24.6542 23.3034 24.4335C21.8913 24.0804 19.9056 22.9769 18.8907 22.0058C17.9199 21.0348 18.0082 20.1079 18.0082 20.0637C18.0082 19.9754 18.0082 19.843 18.0964 19.843C18.1847 19.843 18.2288 19.9313 18.273 20.0196C18.3171 20.1961 18.3171 20.9465 19.1114 21.741C20.038 22.6679 22.0237 23.7273 23.3475 24.0804C24.7154 24.3893 24.9802 24.4776 25.9951 24.3893C26.9659 24.3011 27.4954 23.9921 27.4954 23.9921C27.6719 23.8597 27.716 23.8597 27.6277 23.9921C27.5395 24.0804 27.01 24.5218 26.0392 24.6983C25.6421 24.7425 25.3773 24.7425 25.0684 24.7425Z" fill="#B76349"/>
<path d="M22.818 14.9437C22.7527 14.893 22.7079 14.8205 22.6917 14.7394C22.6755 14.6584 22.689 14.5742 22.7297 14.5023C22.7738 14.4582 23.4799 13.3988 25.0684 13.5312C25.2449 13.5312 25.3773 13.7078 25.3773 13.8844C25.3773 14.0609 25.2008 14.1933 25.0243 14.1933C23.8329 14.1051 23.3475 14.8554 23.3034 14.8996C23.1269 15.032 22.8621 14.9878 22.818 14.9437ZM29.3928 14.1492C29.3487 14.1492 29.2604 14.1492 29.2163 14.1051C28.9074 13.8844 28.5544 13.9285 28.5103 13.9285C28.3338 13.9726 28.1573 13.8402 28.1131 13.6637C28.069 13.4871 28.2014 13.3105 28.3779 13.2664C28.422 13.2664 29.0398 13.0899 29.6134 13.5754C29.7458 13.6637 29.7458 13.8844 29.6576 14.0168C29.6134 14.1051 29.4811 14.1492 29.3928 14.1492Z" fill="#4F2B23"/>
<path d="M25.2449 22.0059C23.5681 21.9176 22.8621 20.7259 22.6856 20.0638C22.6414 19.8872 22.7297 19.7107 22.9062 19.6665C23.0827 19.6224 23.2592 19.7107 23.3033 19.8872C23.3033 19.9314 23.6563 21.2555 25.2449 21.3438C25.4214 21.3438 25.5538 21.5204 25.5538 21.6528C25.5538 21.8735 25.4214 22.0059 25.2449 22.0059Z" fill="#CF7653"/>
<path d="M26.657 19.5783H26.5687C26.3922 19.5783 26.304 19.4017 26.304 19.2693C26.304 19.0927 26.4805 19.0044 26.6128 19.0044C26.7011 19.0044 26.9217 19.0044 27.01 18.7396C27.0982 18.4748 26.8776 18.0775 26.7893 17.9451C26.7011 17.8127 26.7011 17.6361 26.8335 17.5479C26.9658 17.4596 27.1424 17.4596 27.2306 17.592C27.2747 17.6803 27.7601 18.2982 27.5836 18.9162C27.4071 19.4458 26.9659 19.5783 26.657 19.5783Z" fill="#B4603F"/>
<path d="M24.3624 17.1946C24.7036 17.1946 24.9802 16.918 24.9802 16.5767C24.9802 16.2354 24.7036 15.9587 24.3624 15.9587C24.0212 15.9587 23.7446 16.2354 23.7446 16.5767C23.7446 16.918 24.0212 17.1946 24.3624 17.1946Z" fill="#4F2B23"/>
<path d="M24.23 16.4001C24.1418 16.4001 23.877 16.4443 23.8329 16.356C23.7888 16.2236 24.0094 16.0029 24.1418 15.9587C24.583 15.738 24.936 15.7822 25.0684 15.7822C25.1269 15.7822 25.1831 15.8054 25.2244 15.8468C25.2658 15.8882 25.2891 15.9443 25.2891 16.0029C25.2891 16.0614 25.2658 16.1175 25.2244 16.1589C25.1831 16.2003 25.1269 16.2236 25.0684 16.2236C24.936 16.2236 24.6713 16.2236 24.3183 16.356C24.3183 16.4001 24.2742 16.4001 24.23 16.4001Z" fill="#4F2B23"/>
<path d="M28.9515 16.8416C29.2927 16.8416 29.5693 16.5649 29.5693 16.2237C29.5693 15.8824 29.2927 15.6057 28.9515 15.6057C28.6103 15.6057 28.3337 15.8824 28.3337 16.2237C28.3337 16.5649 28.6103 16.8416 28.9515 16.8416Z" fill="#4F2B23"/>
<path d="M28.8191 16.0471C28.7309 16.0471 28.4661 16.1354 28.422 16.0471C28.3779 15.9147 28.5985 15.694 28.7309 15.6057C29.1721 15.385 29.5252 15.4291 29.6575 15.4291C29.716 15.4291 29.7722 15.4524 29.8135 15.4938C29.8549 15.5352 29.8782 15.5913 29.8782 15.6498C29.8782 15.7084 29.8549 15.7645 29.8135 15.8059C29.7722 15.8473 29.716 15.8705 29.6575 15.8705C29.5252 15.8705 29.2604 15.8705 28.9074 16.003C28.9074 16.0471 28.8633 16.0471 28.8191 16.0471Z" fill="#4F2B23"/>
<path d="M25.5978 18.5189L25.9067 18.3423L25.5537 18.1657L25.5978 18.5189ZM22.2442 18.0775L22.1559 17.8568L21.9353 18.0775H22.2442ZM26.5245 18.254H26.9216L26.7451 17.8126L26.5245 18.254ZM25.8184 16.8857L26.1273 17.1064L26.2156 16.7533L25.8184 16.8857ZM25.9949 16.4885L26.3921 16.2678L26.0391 16.0029L25.9949 16.4885ZM26.701 20.0637L27.054 19.8872L26.7451 19.5782L26.701 20.0637ZM27.7159 19.6665L27.9365 19.2251H27.4511L27.7159 19.6665ZM25.5095 18.1657L25.2007 18.2099L25.3772 18.5189L25.5095 18.1657Z" fill="#F4B9A6"/>
<path d="M25.7741 17.7686L25.4211 17.8127L25.6418 18.0776L25.7741 17.7686ZM25.5535 19.4017L25.6418 19.7107L25.9506 19.49L25.5535 19.4017ZM25.6418 20.0197L25.9065 20.1962L26.0389 19.8873L25.6418 20.0197ZM27.1421 21.1232L26.8332 21.1673L27.0538 21.4321L27.1421 21.1232ZM26.4802 14.3699L26.3478 14.5906H26.7008L26.4802 14.3699ZM26.6125 16.312L26.3478 16.2237L26.436 16.5327L26.6125 16.312ZM26.9656 15.3851L26.7008 15.2968L26.789 15.6058L26.9656 15.3851ZM25.1122 16.621L25.024 16.8858L25.377 16.8417L25.1122 16.621ZM25.4653 15.2527L25.2005 15.3851L25.4653 15.6058V15.2527ZM24.1856 15.5616L24.0091 15.6058L24.0973 15.7823L24.1856 15.5616ZM26.6125 21.0349L26.3478 21.1232L26.5243 21.3439L26.6125 21.0349ZM26.3037 20.8583L26.0389 20.9025L26.2154 21.1673L26.3037 20.8583ZM24.1856 18.9603H23.8767L24.0091 19.2252L24.1856 18.9603ZM24.7592 19.5342H24.4945L24.6269 19.799L24.7592 19.5342ZM24.0091 18.0334L23.965 18.2983L24.2738 18.21L24.0091 18.0334ZM25.4211 17.8569L25.377 17.6362L25.1122 17.8569H25.4211ZM28.0687 20.4169L28.2011 20.2404L27.9363 20.1962L28.0687 20.4169ZM27.0979 19.5783L27.2303 19.6224L27.2744 19.4459L27.0979 19.5783ZM28.9512 17.8569L28.9071 18.0776L29.0836 17.9893L28.9512 17.8569ZM28.0246 18.6955L28.2452 18.7396L28.2011 18.519L28.0246 18.6955Z" fill="#F4B9A6"/>
<path d="M28.9956 18.21L29.0398 18.0334H28.8191L28.9956 18.21ZM23.4798 16.1796L23.3475 16.3561L23.5681 16.4003L23.4798 16.1796ZM26.0833 15.1644L26.4804 15.1203L26.2157 14.8113L26.0833 15.1644ZM26.0392 19.0486L26.4804 19.0045L26.1715 18.6514L26.0392 19.0486ZM25.7744 16.4886L25.5096 16.4444L25.5538 16.7093L25.7744 16.4886ZM23.6122 18.21L23.6563 17.9452L23.3033 18.0776L23.6122 18.21ZM25.3773 15.7382L25.4214 16.0472L25.7303 15.8706L25.3773 15.7382ZM24.9801 16.312L25.0243 16.621L25.3773 16.4886L24.9801 16.312ZM25.3331 16.0913L25.289 16.4003L25.642 16.2237L25.3331 16.0913ZM27.9366 16.1796L28.2014 16.312V16.003L27.9366 16.1796ZM25.7303 17.4155L25.5979 17.2389L25.4214 17.4596L25.7303 17.4155ZM26.7452 20.7701L26.5246 20.8142L26.7011 21.0349L26.7452 20.7701ZM25.7303 19.0045L25.642 19.1811L25.9068 19.1369L25.7303 19.0045ZM25.8627 20.3287L25.7744 20.108L25.642 20.3287H25.8627ZM26.2598 20.5494L26.4363 20.417L26.1715 20.3287L26.2598 20.5494ZM26.3922 20.108L26.6128 19.9756L26.348 19.799L26.3922 20.108ZM26.3039 19.7549L26.5246 19.6224L26.3039 19.4459V19.7549ZM26.348 18.6072L26.5246 18.4748L26.3039 18.2983L26.348 18.6072ZM25.7744 18.6514L25.9509 18.8279L26.0833 18.6072L25.7744 18.6514ZM27.9366 20.6818L27.716 20.7259L27.8925 20.9466L27.9366 20.6818ZM26.9217 18.3865L26.7893 18.5631L27.0099 18.6514L26.9217 18.3865ZM27.3188 20.8142L27.1423 20.6376L27.0099 20.8142H27.3188ZM25.8627 21.4763L25.9068 21.7411L26.1715 21.6087L25.8627 21.4763ZM25.3331 20.1521L25.1125 20.2404L25.289 20.417L25.3331 20.1521ZM23.1268 17.3714L22.9944 17.1948L22.8621 17.4155L23.1268 17.3714ZM25.4214 20.7701L25.5979 20.8583L25.642 20.5935L25.4214 20.7701ZM24.8036 20.2404L24.9801 20.3728V20.108L24.8036 20.2404ZM24.2741 21.9618L24.1417 22.1384H24.4065L24.2741 21.9618ZM23.9211 21.6528L23.7005 21.6087L23.7446 21.8294L23.9211 21.6528ZM23.4798 21.5646H23.2592L23.3033 21.7853L23.4798 21.5646ZM25.995 18.1659L26.4804 18.0776L26.1274 17.6803L25.995 18.1659ZM25.7303 17.0624L25.8185 17.2831L25.995 17.0624H25.7303Z" fill="#F4B9A6"/>
<path d="M25.7303 17.4596L25.9509 17.8568L26.304 17.4596H25.7303ZM26.9217 16.974L26.5687 17.283L27.0541 17.4154L26.9217 16.974ZM23.9653 17.4154L24.0094 17.2389L23.7446 17.3272L23.9653 17.4154ZM26.657 17.4154L26.4805 17.5479L26.7011 17.6361L26.657 17.4154ZM25.8627 15.9588L26.1716 15.9147L25.9951 15.694L25.8627 15.9588ZM27.5395 16.7092L27.8484 16.6651L27.6278 16.4002L27.5395 16.7092ZM25.6862 16.5768L25.9951 16.5327L25.7744 16.2678L25.6862 16.5768ZM27.716 15.4292L27.9808 15.385L27.8043 15.1643L27.716 15.4292ZM26.8335 14.7671L26.657 14.8554L26.8776 14.9878L26.8335 14.7671ZM24.6713 15.3409V15.1643L24.4065 15.2526L24.6713 15.3409ZM24.6272 18.8279L24.583 19.1369L24.936 19.0486L24.6272 18.8279ZM24.23 18.6072L23.9653 18.6513L24.0976 18.9162L24.23 18.6072ZM24.7154 19.8872L24.6272 20.1521L24.9802 20.0638L24.7154 19.8872ZM25.2008 18.7396V19.0486L25.5097 18.9162L25.2008 18.7396ZM24.8919 19.3134V19.6665L25.2449 19.49L24.8919 19.3134ZM24.583 18.4306L24.6272 18.1658L24.3624 18.2982L24.583 18.4306ZM28.2014 16.8858L28.4662 16.8416L28.2896 16.6209L28.2014 16.8858ZM27.2747 15.9147L27.363 16.0913L27.5395 15.9147H27.2747ZM28.9957 19.181L29.2604 19.0927L29.0839 18.9603L28.9957 19.181ZM25.1567 15.3409V15.1643L24.936 15.2526L25.1567 15.3409ZM26.7893 16.003L26.7011 16.2678L27.01 16.1795L26.7893 16.003ZM26.4805 15.4733L26.3922 15.7381L26.7011 15.6499L26.4805 15.4733ZM27.0982 17.4596L27.4954 17.7244L27.6719 17.283L27.0982 17.4596ZM27.6278 18.1658L28.1131 18.0775L27.8043 17.6361L27.6278 18.1658ZM26.1275 18.2982L26.304 18.3424V18.2099L26.1275 18.2982ZM26.1716 17.1947L26.0392 17.3713L26.3481 17.4154L26.1716 17.1947ZM26.657 16.6651H26.3922L26.5687 16.9299L26.657 16.6651ZM27.4954 16.8416L27.2306 16.8858L27.363 17.1506L27.4954 16.8416Z" fill="#F4B9A6"/>
<path d="M26.7009 16.974L27.1422 16.7533L26.7009 16.4443V16.974ZM27.4952 15.0319L27.6717 14.767L27.2745 14.7229L27.4952 15.0319ZM26.1714 19.4016L26.3479 19.1368H25.9507L26.1714 19.4016ZM26.2596 17.4595L26.6568 17.283L26.3038 17.0181L26.2596 17.4595ZM26.8333 15.6498L26.9657 15.7822L27.098 15.5615L26.8333 15.6498ZM27.3628 16.1354L27.0539 16.4885L27.6276 16.5767L27.3628 16.1354ZM27.8041 15.6057L27.6717 15.7822L27.9364 15.8264L27.8041 15.6057ZM27.9364 17.3271L28.0688 17.5037L28.2012 17.283L27.9364 17.3271ZM27.3628 15.3408L27.2304 15.5174H27.4952L27.3628 15.3408ZM23.7444 17.283L23.4355 17.3712L23.6562 17.5919L23.7444 17.283ZM24.98 16.9299L24.8035 17.1506H25.1124L24.98 16.9299ZM24.7593 17.283L24.7152 17.1064L24.5387 17.2388L24.7593 17.283ZM24.4505 17.5037V17.3271L24.2298 17.4595L24.4505 17.5037Z" fill="#F4B9A6"/>
<path d="M13.3308 32.9523H13.2867C13.2462 32.9317 13.2123 32.9 13.1889 32.861C13.1655 32.822 13.1535 32.7772 13.1543 32.7317L15.2283 26.3756C15.6254 25.0514 16.8168 20.5934 16.8168 20.5934C16.8375 20.5529 16.8691 20.5189 16.9082 20.4955C16.9472 20.4721 16.992 20.4601 17.0375 20.461C17.078 20.4817 17.1119 20.5133 17.1353 20.5523C17.1587 20.5914 17.1707 20.6362 17.1698 20.6817L15.5813 26.4639C15.2283 27.6557 13.5073 32.7758 13.5073 32.7758C13.5073 32.9082 13.4191 32.9523 13.3308 32.9523Z" fill="#CF7653"/>
<path d="M19.5527 15.9147L23.1711 13.4871C25.598 12.3394 29.0399 12.5601 29.0399 12.5601L26.0393 10.4856H21.7149L19.5527 15.9147Z" fill="url(#paint1_linear_651_318)"/>
<path d="M19.7291 5.76261C19.7291 5.76261 17.1697 6.15986 15.4047 8.89649C14.3015 10.6179 13.3749 10.7945 11.6539 11.5448C10.4625 12.0745 9.35936 14.0608 9.57999 16.356C9.80062 18.8278 8.9181 19.6223 7.02067 20.6816C5.12323 21.741 3.71119 23.33 4.37308 26.9053C5.03498 30.4805 8.65334 31.1426 10.8597 31.0543C13.1101 30.966 13.9044 30.6571 14.7428 29.1563C16.6402 25.7576 17.7434 16.2236 17.7434 16.2236C17.7434 16.2236 16.6843 13.6635 17.6551 9.69099C18.67 5.67433 19.7291 5.76261 19.7291 5.76261Z" fill="#321011"/>
<path d="M17.9199 20.6816L17.7434 20.8141L17.964 20.9465L17.9199 20.6816Z" fill="#A84D3B"/>
<path d="M18.1405 16.5327C18.1405 16.5327 19.685 17.6803 20.8764 15.2527C22.0237 12.825 22.4208 10.7505 22.4208 10.7505L22.6856 12.1188C22.7297 12.2953 22.8621 12.3836 22.9945 12.3836H30.6724C30.8931 12.3836 31.0696 12.1629 31.0696 11.9422C30.8931 10.7946 30.2312 7.61659 27.3188 6.42483C23.7005 4.9241 20.9205 5.54205 20.9205 5.54205L18.9348 7.35175L17.8758 11.0153L17.7434 14.1933L18.1405 16.5327Z" fill="#321011"/>
<path d="M16.6844 20.5052C17.976 20.5052 19.0231 19.3788 19.0231 17.9893C19.0231 16.5998 17.976 15.4734 16.6844 15.4734C15.3928 15.4734 14.3457 16.5998 14.3457 17.9893C14.3457 19.3788 15.3928 20.5052 16.6844 20.5052Z" fill="#EA9D7D"/>
<path d="M16.8168 19.0927C17.4017 19.0927 17.8759 18.5987 17.8759 17.9892C17.8759 17.3798 17.4017 16.8857 16.8168 16.8857C16.232 16.8857 15.7578 17.3798 15.7578 17.9892C15.7578 18.5987 16.232 19.0927 16.8168 19.0927Z" fill="url(#paint2_linear_651_318)"/>
<path d="M18.2288 19.6666C17.8317 20.108 17.258 20.3287 16.6844 20.3287C15.493 20.3287 14.5222 19.2693 14.5222 17.9893C14.5222 16.7093 15.493 15.6499 16.6844 15.6499C17.5228 15.6499 18.2729 16.1796 18.626 16.93C18.626 16.93 18.7142 16.9741 18.8466 16.8858C18.979 16.7976 18.9348 16.621 18.9348 16.621C18.4936 15.8265 17.6552 15.2527 16.7285 15.2527C15.3165 15.2527 14.1692 16.4444 14.1692 17.9452C14.1692 19.4018 15.3165 20.6377 16.7285 20.6377C17.3463 20.6377 17.8317 20.4611 18.2729 20.108L18.2288 19.6666Z" fill="#B76349"/>
<path d="M17.7877 18.2541V18.0775L17.6112 18.1217L17.7877 18.2541ZM17.0376 16.9299L16.8611 16.9741L16.9935 17.1506L17.0376 16.9299Z" fill="#964C38"/>
<path d="M16.9934 16.9741L16.7728 17.2389L17.1699 17.3272L16.9934 16.9741ZM16.5963 16.9299L16.3315 17.0182L16.5522 17.2389L16.5963 16.9299ZM17.7436 17.592L17.6112 17.6803L17.7877 17.7686L17.7436 17.592ZM17.3465 17.3713L17.2141 17.5037L17.3906 17.5479L17.3465 17.3713Z" fill="#964C38"/>
<path d="M17.6112 17.6803L17.523 17.8127L17.6995 17.901L17.6112 17.6803ZM16.6404 17.3271L16.5081 17.4154L16.7287 17.5037L16.6404 17.3271Z" fill="#964C38"/>
<path d="M16.4198 17.1948L16.2433 17.4155L16.5522 17.5037L16.4198 17.1948ZM17.1699 17.9893L17.2582 18.0775L17.3023 17.9451L17.1699 17.9893ZM17.6553 17.4596L17.6112 17.5479H17.7436L17.6553 17.4596ZM17.7436 17.8569L17.6994 17.9893H17.8318L17.7436 17.8569ZM16.155 17.1506L15.9785 17.3272L16.2433 17.3713L16.155 17.1506ZM16.508 17.8127H16.4198L16.4639 17.9451L16.508 17.8127ZM16.7728 18.21L16.7287 18.0775L16.6404 18.1658L16.7728 18.21ZM17.1258 17.1065L17.2141 17.0182L17.0817 16.9299L17.1258 17.1065ZM16.5963 17.1065L16.4639 17.2389L16.6845 17.283L16.5963 17.1065ZM16.3757 17.2389L16.2433 17.1506V17.3272L16.3757 17.2389Z" fill="#964C38"/>
<path d="M16.3755 17.2388V17.1063H16.2432L16.3755 17.2388ZM17.4346 17.4153L17.5228 17.5477L17.6111 17.4153H17.4346ZM17.2581 17.0181L17.2139 17.327L17.5228 17.2388L17.2581 17.0181Z" fill="#964C38"/>
<path d="M17.1257 17.2389L17.2581 17.3271L17.3022 17.1506L17.1257 17.2389ZM16.0667 17.6361L15.9784 17.7685H16.1108L16.0667 17.6361ZM16.861 16.9299L16.7286 16.8857L16.7727 17.0623L16.861 16.9299ZM16.5962 17.7244L16.6845 17.8568L16.7727 17.6802L16.5962 17.7244ZM16.9492 18.2982L16.9051 18.3865L17.0375 18.4306L16.9492 18.2982ZM16.0226 17.3271L15.9343 17.4595L16.1108 17.5037L16.0226 17.3271Z" fill="#964C38"/>
<path d="M16.4197 18.2981L16.2873 18.2539L16.3315 18.3863L16.4197 18.2981ZM15.9343 17.5918L16.0667 17.5477L15.9784 17.4153L15.9343 17.5918Z" fill="#964C38"/>
<path d="M15.8019 18.0775H15.8902L15.8461 17.945L15.8019 18.0775ZM15.8902 17.6361L15.9784 17.5919L15.9343 17.5036L15.8902 17.6361ZM16.1991 17.5036V17.6361L16.3315 17.5478L16.1991 17.5036ZM15.7578 17.9009H15.9343L15.8461 17.7243L15.7578 17.9009ZM16.0226 17.945V18.0333L16.155 17.945H16.0226ZM16.9051 17.3712L16.7727 17.4595L16.9051 17.5478V17.3712ZM17.5229 18.0333L17.567 18.2099L17.6994 18.1216L17.5229 18.0333ZM16.6403 17.0623L16.6845 17.2388L16.8168 17.1064L16.6403 17.0623ZM17.0816 17.5478L16.9934 17.4595L16.9492 17.5919L17.0816 17.5478Z" fill="#964C38"/>
<path d="M16.4638 15.2526C16.4638 15.2526 16.0225 9.82352 17.611 7.44001C19.2437 5.0565 20.9646 5.0565 20.9646 5.0565C20.9646 5.0565 21.1412 4.96822 22.4649 5.01236C23.7887 5.0565 24.0535 5.49789 24.0535 5.49789C24.0535 5.49789 22.2002 5.40961 21.1853 5.89514C19.9939 6.46895 18.5818 7.74898 18.3171 10.2649C18.0523 12.7808 18.1406 15.7382 18.1406 15.7382C18.1406 15.7382 17.6552 15.2085 16.4638 15.2526Z" fill="url(#paint3_linear_651_318)"/>
<path d="M21.8915 5.67446V5.93929L22.2004 6.07171L22.421 5.58618L21.8915 5.67446ZM24.4067 7.66072L24.1861 7.61658L24.2743 7.88142L24.4067 7.66072ZM27.3632 6.77794L27.1867 6.86622L27.4514 6.99863L27.3632 6.77794ZM24.0978 7.749L24.0537 7.57244L23.833 7.70486L24.0978 7.749ZM23.2153 5.76274L23.0829 6.11585H23.48L23.2153 5.76274ZM25.8629 7.35175V7.61658L26.1276 7.5283L25.8629 7.35175ZM21.6709 5.7186L21.2737 5.89516L21.6709 6.20413V5.7186ZM21.1413 5.93929L20.7883 6.15999L21.1413 6.42482V5.93929Z" fill="#633535"/>
<path d="M15.2282 9.2055L15.8019 9.29377L15.5812 8.71997L15.4047 8.9848L15.2282 9.2055ZM11.6099 11.6331L11.9629 11.9421L12.1394 11.4125L11.6099 11.6331ZM15.846 8.36685L16.2873 8.45513L16.1108 8.05788L15.846 8.36685ZM25.2449 5.71851L24.8919 5.85092L25.2008 6.1599L25.2449 5.71851ZM23.3034 6.68957L23.2592 5.9392L22.7297 6.29231L23.3034 6.68957ZM23.9653 6.29231L23.6122 5.9392L23.4799 6.38059L23.9653 6.29231ZM24.7154 6.55715L24.6271 6.1599L24.2741 6.38059L24.7154 6.55715ZM25.4214 6.68957L25.8627 6.86612L25.8186 6.33645L25.4214 6.68957Z" fill="#633535"/>
<path d="M25.245 5.71851L25.4656 6.29231L25.951 5.9392L25.245 5.71851ZM25.4656 7.04268V7.26338L25.6863 7.21924L25.4656 7.04268ZM21.759 7.48407L21.7149 7.70477H21.9355L21.759 7.48407ZM22.2003 7.08682L22.0679 7.26338L22.2885 7.30751L22.2003 7.08682ZM15.3607 9.77931L15.5372 10.309L16.0226 9.91172L15.3607 9.77931ZM14.081 10.7504L14.1693 11.0593L14.434 10.8386L14.081 10.7504ZM10.8157 12.6925L10.9481 13.0456L11.2569 12.7366L10.8157 12.6925Z" fill="#633535"/>
<path d="M11.1687 12.6484L11.3452 13.0016L11.61 12.7367L11.1687 12.6484Z" fill="#633535"/>
<path d="M10.948 13.3987L11.6099 13.3105L11.2569 12.7367L10.948 13.3987ZM11.8747 12.3835L11.6099 12.8249L12.1394 12.9574L11.8747 12.3835Z" fill="#633535"/>
<path d="M10.4626 13.6195L10.948 13.3988L10.5509 12.9574L10.4626 13.6195ZM16.2432 9.07317L16.3756 9.24973L16.508 8.98489L16.2432 9.07317ZM14.787 10.5298V10.7505L15.0077 10.6622L14.787 10.5298ZM15.4048 10.5298L15.3607 10.2649L15.0959 10.4856L15.4048 10.5298ZM25.598 6.77794L25.5097 6.99863L25.7745 6.95449L25.598 6.77794ZM26.8777 6.46896L26.9659 6.7338L27.1424 6.55724L26.8777 6.46896ZM27.2307 7.70486L27.4513 7.749L27.3631 7.5283L27.2307 7.70486ZM26.657 6.64552H26.8335L26.7453 6.42482L26.657 6.64552ZM27.01 6.77794L26.7894 6.86622L27.01 7.04277V6.77794ZM22.0238 8.58764L22.2444 8.67592L22.2003 8.49936L22.0238 8.58764ZM20.2146 10.3532L20.3911 10.4415L20.347 10.2649L20.2146 10.3532ZM21.3619 7.26347L21.3177 7.39589L21.4942 7.30761L21.3619 7.26347ZM22.7739 8.45522L22.6415 8.41108L22.7739 8.58764V8.45522ZM20.347 9.73526L20.2146 9.69112L20.3028 9.86768L20.347 9.73526ZM22.0238 7.88142L21.9796 8.01383L22.2003 7.96969L22.0238 7.88142ZM26.0834 7.96969L25.951 8.01383L26.0393 8.10211L26.0834 7.96969ZM28.4662 8.01383L28.3338 7.96969V8.14625L28.4662 8.01383ZM24.892 7.17519L25.0685 7.35175L25.2009 7.04277L24.892 7.17519ZM24.539 5.58618L24.6272 6.07171L25.0244 5.67446L24.539 5.58618ZM21.3177 6.5131L21.4501 6.7338L21.6266 6.46896L21.3177 6.5131ZM26.0834 5.98343L26.1716 6.33655L26.5247 6.15999L26.0834 5.98343ZM26.657 8.23453L26.4805 8.27867L26.5247 8.49936L26.657 8.23453ZM25.3774 7.39589L25.2009 7.44003L25.245 7.66072L25.3774 7.39589ZM25.7745 6.20413L26.0393 6.29241L25.9951 5.98343L25.7745 6.20413Z" fill="#633535"/>
<path d="M26.1716 6.55702H26.4364L26.2158 6.24805L26.1716 6.55702Z" fill="#633535"/>
<path d="M25.9068 6.51297L26.1715 6.55711L26.0833 6.29228L25.9068 6.51297ZM24.4065 7.35162L24.3623 7.57231L24.583 7.52817L24.4065 7.35162ZM25.7303 7.4399L25.5096 7.52817L25.6861 7.70473L25.7303 7.4399ZM16.4637 8.01371L16.6402 8.14612L16.7285 7.96956L16.4637 8.01371ZM21.45 6.11572H21.2294L21.3176 6.33642L21.45 6.11572ZM16.0225 8.80821L15.846 9.11718L16.2431 9.20546L16.0225 8.80821ZM15.6253 10.7062H15.2282L15.4929 11.0593L15.6253 10.7062ZM15.8901 9.42616L15.5812 9.55857L15.9342 9.77927L15.8901 9.42616ZM15.1841 10.3089H14.8311L15.0517 10.6621L15.1841 10.3089ZM14.6104 10.3972L14.478 10.0882L14.2133 10.3531L14.6104 10.3972ZM13.3307 10.8386L13.0219 11.0152L13.3307 11.2359V10.8386ZM14.0809 10.6621H13.7279L13.9485 11.0152L14.0809 10.6621ZM11.5216 12.0304L11.1244 12.0745L11.3451 12.4718L11.5216 12.0304ZM11.2127 12.6483L11.1244 12.2511L10.7273 12.56L11.2127 12.6483ZM12.5365 11.3241L12.1835 11.3683L12.4041 11.7214L12.5365 11.3241ZM11.5216 12.1628L11.9628 12.2069L11.7422 11.6773L11.5216 12.1628Z" fill="#633535"/>
<path d="M11.3893 12.5158L11.8747 12.5599L11.6982 12.0303L11.3893 12.5158ZM11.8306 12.3834L12.2718 12.6482V12.0744L11.8306 12.3834ZM16.1549 8.63157L15.8019 8.49915V8.94054L16.1549 8.63157ZM14.5223 10.044L14.9194 10.3089L14.8312 9.73504L14.5223 10.044ZM13.8604 10.5737L14.2575 10.7944L14.2134 10.353L13.8604 10.5737ZM13.375 10.8385L13.7721 11.1034L13.8162 10.6178L13.375 10.8385ZM10.2861 13.0013L10.7715 13.0455L10.5509 12.6041L10.2861 13.0013ZM20.9647 6.866L21.0971 6.99842L21.1853 6.73358L20.9647 6.866ZM21.8472 6.60117L21.9796 6.68945L22.0679 6.46875L21.8472 6.60117Z" fill="#633535"/>
<path d="M21.7149 5.89506L21.4502 6.38059L22.0679 6.46886L21.7149 5.89506ZM20.7 6.24817L20.4353 6.42472L20.7441 6.60128L20.7 6.24817ZM11.4776 11.6773L11.257 11.898L11.5217 12.0745L11.4776 11.6773ZM10.7716 12.2952L10.551 12.6042L10.904 12.6925L10.7716 12.2952ZM10.2862 13.0456L10.1538 13.3104L10.5068 13.3546L10.2862 13.0456ZM22.1121 6.95439L21.9356 6.91026V7.08681L22.1121 6.95439ZM22.0238 7.48406L22.1562 7.66062L22.2003 7.39578L22.0238 7.48406ZM17.1258 7.13095V7.30751L17.3464 7.21923L17.1258 7.13095ZM16.6404 8.36685L16.5521 8.49926H16.7286L16.6404 8.36685ZM16.2433 8.85238L16.4639 8.7641L16.1991 8.63168L16.2433 8.85238ZM14.4341 10.6621L14.6547 10.7504L14.6106 10.4855L14.4341 10.6621ZM16.9051 7.30751V7.48406L17.0817 7.39578L16.9051 7.30751ZM13.8604 14.0608L13.8163 14.2374L14.0369 14.1932L13.8604 14.0608ZM15.2725 9.29377L15.4931 9.69102L15.802 9.33791L15.2725 9.29377ZM17.4788 6.91026H17.3023L17.4347 7.13095L17.4788 6.91026ZM16.1109 9.7793L16.2433 9.64688L16.0667 9.5586L16.1109 9.7793ZM15.7137 11.4124L15.8902 11.28L15.6255 11.1476L15.7137 11.4124ZM15.3166 9.7793L15.096 9.42619L14.8753 9.73516L15.3166 9.7793ZM15.7579 11.7214L15.8902 11.8097L15.9785 11.6331L15.7579 11.7214ZM15.3607 10.2207L15.2725 9.95585L14.9636 10.1324L15.3607 10.2207ZM13.022 11.3242L12.9338 11.0593L12.5366 11.1918L13.022 11.3242ZM11.257 12.2511L11.0805 11.9421L10.8598 12.2511H11.257ZM15.9785 10.3531L16.1109 10.4414L16.1991 10.2648L15.9785 10.3531ZM16.9493 7.83718L16.9051 8.01373L17.0817 8.05787L16.9493 7.83718ZM15.1401 13.8401L15.0077 13.9725L15.1842 14.0608L15.1401 13.8401ZM16.3315 7.7489L16.155 7.96959L16.4198 8.10201L16.3315 7.7489ZM22.0238 6.07161L22.2003 6.46886L22.5092 6.38059L22.4651 6.11575L22.0238 6.07161ZM23.3035 5.4978L22.9063 5.54194V5.76264L23.0828 5.93919L23.3035 5.4978ZM22.774 5.54194L22.4651 5.80678L22.5974 6.02747L22.8622 6.07161L22.774 5.54194ZM23.2593 6.86612L22.9505 6.64542L22.8622 7.04267L23.2593 6.86612ZM24.4949 8.05787L24.3625 7.96959L24.3184 8.14615L24.4949 8.05787ZM22.8622 6.60128L22.7298 6.513L22.6857 6.68956L22.8622 6.60128ZM24.0095 5.54194L24.1419 6.02747L24.4508 5.93919L24.4066 5.58608L24.0095 5.54194ZM23.5682 7.21923L23.6565 7.43993L23.833 7.21923H23.5682ZM23.4359 5.4978L23.3476 5.7185L23.6565 5.80678L23.8771 5.4978H23.4359ZM24.6714 7.04267L24.8038 7.39578L24.9361 6.99853L24.6714 7.04267ZM25.1568 7.7489L25.2009 7.96959L25.3774 7.7489H25.1568ZM23.9212 8.45512L23.7889 8.58754L23.9654 8.63168L23.9212 8.45512ZM25.0244 6.11575H24.892L24.9361 6.29231L25.0244 6.11575ZM25.3774 6.7337L25.2009 6.68956L25.245 6.91026L25.3774 6.7337ZM27.319 6.42472L27.3631 6.64542L27.5396 6.513L27.319 6.42472ZM27.8044 6.64542L27.8485 6.95439L28.025 6.82198L27.8044 6.64542Z" fill="#633535"/>
<path d="M27.0541 6.33645L27.0982 6.55715L27.3189 6.42473L27.0541 6.33645ZM26.7893 6.20404L26.8335 6.46887L27.01 6.29231L26.7893 6.20404ZM23.7446 5.76264L23.9211 6.02748L24.0976 5.71851L23.7446 5.76264ZM27.9366 7.1751L28.1573 7.30751V7.08682L27.9366 7.1751ZM26.5687 7.52821H26.8335L26.7011 7.26338L26.5687 7.52821ZM26.2598 6.86612H26.4805L26.3481 6.60129L26.2598 6.86612ZM27.9808 7.43993L27.8042 7.48407L27.8925 7.66063L27.9808 7.43993ZM27.2747 7.08682H27.1423L27.2306 7.26338L27.2747 7.08682ZM23.5681 7.74891L23.6564 7.9696L23.7887 7.74891H23.5681ZM24.2741 6.60129L24.0535 6.86612L24.4065 6.99854L24.2741 6.60129ZM24.7595 8.36685L24.583 8.27857V8.45513L24.7595 8.36685ZM25.4655 6.33645L25.289 6.29231L25.3332 6.51301L25.4655 6.33645Z" fill="#633535"/>
<path d="M24.1861 6.42484L23.8331 6.46898L24.0537 6.86623L24.1861 6.42484ZM24.4067 6.02759H24.0096L24.2302 6.33656L24.4067 6.02759ZM22.5976 7.26348L22.5534 7.04279L22.3769 7.21934L22.5976 7.26348ZM22.2887 6.6014L22.1122 6.91037L22.5093 6.95451L22.2887 6.6014ZM22.068 6.46898L22.0239 6.6014H22.2004L22.068 6.46898ZM22.8623 7.13107V7.30762L22.9947 7.21934L22.8623 7.13107ZM22.9506 6.07173L22.5976 6.11587V6.33656L22.7741 6.3807L22.9506 6.07173ZM23.3918 6.51312L23.3477 6.33656L23.1712 6.51312H23.3918Z" fill="#633535"/>
<path d="M23.4357 7.17502L23.3475 7.0426L23.2151 7.17502H23.4357ZM23.2151 6.55707L23.3916 6.73363L23.4798 6.46879L23.2151 6.55707ZM24.8478 6.82191L25.3773 6.64535L25.1125 6.29224L24.8478 6.82191ZM24.0094 7.13088L24.2741 7.35158L24.3624 7.08674L24.0094 7.13088ZM21.3176 6.95432L21.5383 6.99846L21.4941 6.73363L21.3176 6.95432ZM16.3755 7.70469L16.905 7.61641L16.6402 7.43985L16.3755 7.70469ZM22.4208 6.55707L22.7738 6.95432L22.9944 6.46879L22.4208 6.55707ZM24.2741 6.42465L24.1859 6.60121H24.3624L24.2741 6.42465Z" fill="#633535"/>
<path d="M23.9211 6.68964L23.5239 6.60136L23.6563 6.99861L23.9211 6.68964ZM24.5388 7.13103L24.4065 7.08689L24.4506 7.30759L24.5388 7.13103ZM23.1709 7.61656L23.0827 7.79312H23.2592L23.1709 7.61656ZM24.6271 6.73378L24.4947 6.68964L24.5388 6.91034L24.6271 6.73378ZM23.9211 6.91034L23.8328 7.13103H24.0535L23.9211 6.91034ZM25.9509 7.21931L26.0833 7.35173L26.2157 7.13103L25.9509 7.21931ZM26.5245 6.91034L26.701 6.95447L26.6569 6.73378L26.5245 6.91034ZM26.3922 6.4248V6.60136L26.5687 6.55722L26.3922 6.4248ZM26.0833 6.77792L25.9068 6.73378L25.995 6.95447L26.0833 6.77792ZM20.9646 8.32279L20.8322 8.45521L21.097 8.54348L20.9646 8.32279ZM18.9348 10.4415L18.7142 10.3973L18.7583 10.618L18.9348 10.4415ZM20.3468 9.29385L20.1262 9.20557V9.4704L20.3468 9.29385ZM21.4941 7.30759L21.6706 7.44001L21.7148 7.17517L21.4941 7.30759ZM19.7732 7.08689L19.6849 7.44001L20.0821 7.35173L19.7732 7.08689ZM19.1113 8.85246L18.7583 8.45521L18.5818 8.8966L19.1113 8.85246ZM20.2145 7.92554L19.8173 7.83726L19.8614 8.23451L20.2145 7.92554ZM20.6999 7.39587L21.0529 7.08689L20.5675 6.8662L20.6999 7.39587ZM19.6408 7.04275L20.2586 7.13103L20.1703 6.55722L19.6408 7.04275Z" fill="#633535"/>
<path d="M21.0089 7.52819L21.2296 7.61647L21.2737 7.39577L21.0089 7.52819ZM20.8324 7.26335L21.0089 7.43991L21.053 7.21922L20.8324 7.26335ZM20.8324 8.05786L21.0972 8.01372L20.8765 7.74888L20.8324 8.05786ZM19.1997 7.66061L19.6851 7.79302L19.5527 7.26335L19.1997 7.66061ZM21.2737 7.79302L21.2296 7.96958H21.4502L21.2737 7.79302ZM20.4353 6.8661L20.6118 6.64541L20.3029 6.55713L20.4353 6.8661ZM20.7442 6.8661L20.9207 6.64541L20.6118 6.60127L20.7442 6.8661ZM18.5378 11.0152L18.7585 11.1476L18.8026 10.971L18.5378 11.0152ZM19.5527 9.64687L19.7293 9.77928L19.8175 9.55859L19.5527 9.64687ZM21.4943 7.48405L21.4502 7.70475L21.7149 7.61647L21.4943 7.48405ZM21.4502 8.85236L21.2737 8.8965L21.4502 9.02892V8.85236ZM19.0232 8.05786L19.4645 8.19028L19.5527 7.8813L19.1997 7.74888L19.0232 8.05786ZM20.6118 8.23442L21.0089 8.27855L20.7 7.96958L20.6118 8.23442ZM19.1556 8.76409L19.5527 8.80822L19.2439 8.49925L19.1556 8.76409ZM21.4943 8.102L21.7149 8.19028L21.5826 7.92544L21.4943 8.102ZM19.994 7.43991L19.9058 7.57233L20.0823 7.61647L19.994 7.43991ZM20.7 7.43991L20.5677 7.57233L20.7883 7.66061L20.7 7.43991ZM21.2737 8.54339L21.3619 8.76409L21.5384 8.54339H21.2737ZM19.1556 10.0441L19.2439 10.2207L19.4204 10.0441H19.1556ZM19.0674 8.41097H19.3762L19.1556 8.102L19.0674 8.41097ZM20.0823 8.36683L20.1705 8.63167L20.4794 8.41097L20.0823 8.36683ZM18.7585 8.94064L18.8467 9.24962L19.1556 9.02892L18.7585 8.94064ZM21.8473 8.76409L21.6708 8.85236L21.8473 8.94064V8.76409ZM19.2439 10.5738L19.0674 10.6621L19.2439 10.7503V10.5738Z" fill="#633535"/>
<path d="M19.8175 8.98487L19.6409 9.11729L19.8175 9.20556V8.98487ZM20.3911 7.17516L20.2587 7.30758L20.4794 7.39586L20.3911 7.17516ZM19.8616 8.32278L19.7292 8.67589L20.1705 8.63175L19.8616 8.32278ZM18.5378 9.73523L18.4054 10.0442H18.8467L18.5378 9.73523ZM19.6409 7.96967L19.4203 8.32278L19.8175 8.27864L19.6409 7.96967ZM20.5235 7.96967L20.6117 7.39586L20.1705 7.48414L20.5235 7.96967ZM18.4054 9.64696L18.9349 9.38212L18.5819 9.02901L18.4054 9.64696ZM19.9057 8.27864L19.994 8.41106L20.0822 8.27864H19.9057ZM20.6559 8.36692L20.5235 8.4552L20.7441 8.54348L20.6559 8.36692ZM20.347 8.10209L20.2587 8.2345L20.4352 8.27864L20.347 8.10209ZM20.5676 8.76417L20.7 8.94073L20.7882 8.72003L20.5676 8.76417ZM19.3321 9.11729L19.4644 9.2497L19.5527 9.07314L19.3321 9.11729ZM21.0971 6.33652L20.8324 6.60135L21.406 6.73377L21.0971 6.33652ZM26.9659 7.04275L26.7894 7.08688L26.9218 7.2193L26.9659 7.04275ZM26.7012 6.2041L26.5247 6.24824L26.657 6.38066L26.7012 6.2041ZM22.818 7.57242L22.6857 7.44L22.5974 7.61655L22.818 7.57242ZM15.9343 12.516L15.802 12.2953L15.6696 12.4719L15.9343 12.516ZM12.4925 11.2801L12.2718 11.6332L12.7131 11.7215L12.4925 11.2801ZM15.2724 10.8387L15.0959 10.4856L14.8312 10.7946L15.2724 10.8387ZM13.5956 12.9574L13.5515 13.3546L13.9486 13.3105L13.5956 12.9574ZM14.9194 12.4277L14.8753 12.7367L15.1842 12.6484L14.9194 12.4277ZM14.4782 13.3988H14.6547L14.5664 13.2664L14.4782 13.3988ZM13.0661 13.2222L13.1102 13.3988L13.2426 13.2664L13.0661 13.2222ZM14.9194 13.0898H14.787L14.9194 13.2222V13.0898ZM14.081 12.9574L14.1693 13.1781L14.3899 13.0015L14.081 12.9574ZM17.6994 6.68963H17.567L17.6994 6.82205V6.68963ZM12.0071 12.9132L12.316 13.2664L12.4925 12.7808L12.0071 12.9132ZM13.1102 14.0167L13.1985 14.3698L13.4633 14.0609L13.1102 14.0167ZM13.0661 11.0594L12.9337 11.6332L13.5515 11.5449L13.4633 11.236L13.0661 11.0594ZM13.2426 11.7656L13.1544 12.1629L13.5515 12.1187L13.4633 11.8098L13.2426 11.7656ZM13.6839 12.0746L13.375 12.2512L13.2426 12.4719L13.728 12.825L13.6839 12.0746ZM13.1544 14.9437L13.022 15.3409L13.4633 15.2526L13.1544 14.9437Z" fill="#633535"/>
<path d="M13.1545 11.4566L12.625 11.9421L13.2427 12.1628L13.1545 11.4566ZM12.4485 11.6773L12.2278 11.8539L12.0955 12.0746L12.625 12.207L12.4485 11.6773ZM14.6989 10.6621L14.2576 10.9711L14.7872 11.3683L14.6989 10.6621Z" fill="#633535"/>
<path d="M15.1844 10.7502L14.699 11.1034L15.2285 11.4565L15.1844 10.7502Z" fill="#633535"/>
<path d="M15.4047 11.3684L15.0076 11.3242L15.0958 11.8097L15.4047 11.3684ZM13.066 12.6484L12.5365 12.6043V12.9574L12.713 13.2222L13.066 12.6484ZM12.9337 13.1339L12.4483 13.3546L12.8454 13.6636L12.9337 13.1339ZM12.1835 12.8691H11.6099L11.8746 13.4429L12.1835 12.8691ZM15.0517 12.0746L14.8752 11.6773L14.4781 12.0304L15.0517 12.0746ZM14.4339 12.7808L14.6105 12.3836H14.1251L14.4339 12.7808ZM13.9044 13.796L14.0809 13.5312L13.6838 13.487L13.9044 13.796ZM13.0219 14.9878L13.2425 14.6788L12.8013 14.5905L13.0219 14.9878Z" fill="#633535"/>
<path d="M12.6249 15.9587L12.8014 15.6938L12.4925 15.6056L12.6249 15.9587ZM12.2278 14.2372H12.5367L12.4484 13.9283L12.2278 14.2372ZM14.1693 12.6924L13.7722 12.5158L13.7281 13.0013L14.1693 12.6924ZM13.1544 11.8979L12.669 12.2068L13.2427 12.56L13.1544 11.8979ZM14.1252 10.9709L13.684 11.2799L14.1693 11.633L14.1252 10.9709ZM14.5665 11.5006L14.0811 11.8096L14.6106 12.1627L14.5665 11.5006ZM14.037 11.942L13.9046 12.2951L14.3459 12.251L14.037 11.942ZM14.4782 14.3255H14.3459L14.39 14.4579L14.4782 14.3255Z" fill="#633535"/>
<path d="M13.6398 13.4429H13.2427L13.4633 13.8401L13.6398 13.4429ZM13.8604 12.4718L14.0369 12.5601V12.2953L13.8604 12.4718ZM13.5074 11.1477L13.6839 11.3242L13.7722 11.1035L13.5074 11.1477ZM14.7871 11.4566L14.4782 11.3242V11.7215L14.7871 11.4566ZM13.5074 12.516L13.1985 12.6484L13.4633 12.9574L13.5074 12.516ZM13.2868 12.8249L12.9338 12.9132L13.2868 13.2222V12.8249ZM10.8598 16.2237L10.5068 16.3119L10.7716 16.6209L10.8598 16.2237ZM12.5367 12.8249L12.1836 13.0456L12.5808 13.2663L12.5367 12.8249ZM14.3458 11.3242L14.1693 11.2359L14.2135 11.4566L14.3458 11.3242ZM15.9344 12.0304L16.0668 12.207L16.155 11.9863L15.9344 12.0304ZM15.6696 12.7808L15.5814 12.9574H15.7579L15.6696 12.7808ZM15.3166 12.1629L15.449 12.3394L15.5372 12.0746L15.3166 12.1629ZM14.3458 12.0304L14.2135 11.8539L14.0811 12.0746L14.3458 12.0304ZM13.7722 11.4125L13.5957 11.7656L13.7281 11.9422L14.2576 11.8097L13.7722 11.4125ZM13.5516 11.4566L13.5957 11.6332L13.6839 11.5008L13.5516 11.4566ZM14.5223 11.8097L14.6106 11.9863L14.6988 11.8539L14.5223 11.8097Z" fill="#633535"/>
<path d="M14.5665 12.869L14.6548 13.0014L14.743 12.9131L14.5665 12.869ZM14.2576 10.9268H14.0811L14.1694 11.1475L14.2576 10.9268ZM16.1992 10.7503L16.0668 10.5737L15.9786 10.8386L16.1992 10.7503ZM16.3316 11.3682L16.1992 11.2358L16.1109 11.4565L16.3316 11.3682ZM14.0811 15.3849L13.9929 15.2083L13.8164 15.3849H14.0811ZM15.5373 10.7944L15.7579 10.971L15.802 10.662L15.5373 10.7944ZM12.2278 12.6041H12.6691L12.4484 12.1627L12.2278 12.6041ZM14.1252 11.4124L14.3459 11.5448L14.3018 11.3241L14.1252 11.4124ZM9.62435 18.6953L9.84499 18.916L9.97737 18.607L9.62435 18.6953ZM10.1539 17.636L10.2863 17.8125L10.4186 17.636H10.1539ZM10.6393 17.7243L10.904 17.9891L11.1246 17.6801L10.6393 17.7243ZM10.904 18.3422L11.0364 18.5188L11.1688 18.3422H10.904ZM11.3894 17.2387L11.5218 17.3712L11.6542 17.1946L11.3894 17.2387ZM10.5951 16.9739L10.3304 16.8415V17.1505L10.5951 16.9739ZM10.8158 16.5767L10.551 16.8415L10.9481 16.9298L10.8158 16.5767ZM10.3745 16.1794L9.97737 16.6208L10.551 16.7091L10.3745 16.1794ZM10.2863 17.1946L10.0215 17.4594L10.4186 17.5919L10.2863 17.1946ZM9.93324 17.6801L9.62435 17.5036V17.8567L9.93324 17.6801ZM9.05071 19.1809L8.83008 19.4457L9.22722 19.534L9.05071 19.1809ZM9.58023 18.6512L9.27134 18.8277L9.62435 19.0043L9.58023 18.6512Z" fill="#633535"/>
<path d="M9.66844 17.4595L10.1538 17.3712L9.66844 17.0622V17.4595ZM9.35955 18.6513H9.84495L9.53606 18.2981L9.35955 18.6513ZM9.05067 19.1809H9.53606L9.31543 18.6954L9.05067 19.1809ZM9.97733 17.945L10.198 17.8567L9.97733 17.7243V17.945ZM10.0214 16.7533L9.66844 16.6208V17.0181L10.0214 16.7533ZM10.3303 17.0181L10.1097 16.8857L10.0214 17.2388L10.3303 17.0181ZM8.83004 20.0637V19.534L8.4329 19.7989L8.83004 20.0637ZM8.34465 19.8871L7.94751 20.152L8.47703 20.5492L8.34465 19.8871ZM10.7275 17.5478L10.3303 17.4154L10.3745 17.8567L10.7275 17.5478ZM8.91829 19.4899L9.0948 20.0196L9.53606 19.6665L9.31543 19.4458L8.91829 19.4899Z" fill="#633535"/>
<path d="M9.18314 19.7989L8.96251 20.5051L9.6244 20.3727L9.18314 19.7989ZM10.1098 18.3423L9.88917 18.8279L10.5069 18.9161L10.1098 18.3423ZM9.6244 17.8127L9.49202 18.3865L10.1098 18.254L9.6244 17.8127ZM11.0806 18.6072L10.6834 18.7396L11.0364 19.0927L11.0806 18.6072ZM7.72697 20.77L7.32983 20.9465L7.68285 21.2996L7.72697 20.77ZM11.3012 16.665L10.9041 16.8416L11.2571 17.1947L11.3012 16.665ZM10.5952 17.9451L10.198 18.1216L10.5511 18.4747L10.5952 17.9451ZM10.8599 19.9313L10.4628 20.1079L10.8158 20.461L10.8599 19.9313ZM8.47712 21.7852L8.12411 21.9617L8.43299 22.3148L8.47712 21.7852ZM11.1247 19.3575L10.7717 19.1368L10.5952 19.6224L11.1247 19.3575Z" fill="#633535"/>
<path d="M9.75676 18.916L9.53613 19.4015L10.1539 19.4457L9.75676 18.916ZM10.4187 19.1367L10.1539 19.6222L10.7717 19.6664L10.4187 19.1367Z" fill="#633535"/>
<path d="M9.35962 19.3575L9.58025 19.4016L9.53613 19.1809L9.35962 19.3575ZM10.904 17.1505L10.551 17.1947L10.8158 17.5478L10.904 17.1505ZM10.1539 19.0485L9.97739 19.0926L10.1098 19.2692L10.1539 19.0485ZM11.6983 18.7395L11.4777 18.7837L11.6542 18.9602L11.6983 18.7395ZM11.2571 17.9009L11.0806 17.945L11.2129 18.1216L11.2571 17.9009ZM9.53613 19.6223L9.62438 19.7106L9.66851 19.5782L9.53613 19.6223ZM9.88914 18.7395L9.71263 18.872L9.93326 19.0044L9.88914 18.7395ZM12.1837 17.1947L12.4485 17.2388L12.3161 17.0181L12.1837 17.1947ZM16.0668 11.0593H15.8903L15.9786 11.1917L16.0668 11.0593ZM13.9929 15.8264L13.7723 15.7381L13.8164 15.9588L13.9929 15.8264ZM14.9195 12.1628L14.8754 12.3394L15.0519 12.2952L14.9195 12.1628ZM14.6548 12.2511L14.4783 12.1628L14.4342 12.3835L14.6548 12.2511ZM13.1104 15.4732L12.978 15.6498H13.1986L13.1104 15.4732ZM11.6542 14.9436L11.3012 15.3408L11.8748 15.4291L11.6542 14.9436ZM12.2278 16.5326L12.0955 16.4443L12.0513 16.665L12.2278 16.5326ZM12.1837 15.9588L11.919 15.8264V16.1795L12.1837 15.9588ZM10.904 14.1491L11.2571 14.4139L11.3894 13.9284L10.904 14.1491ZM11.4777 13.5753L11.6983 13.7077L11.7424 13.487L11.4777 13.5753ZM11.8748 13.9725L12.0513 14.1491L12.1396 13.8401L11.8748 13.9725ZM9.62438 16.0029V16.4443L10.1098 16.1353L9.62438 16.0029ZM11.1688 16.0029L11.5218 15.8264L11.2129 15.5174L11.1688 16.0029ZM11.3012 16.4002L11.4336 16.5767L11.5218 16.4002H11.3012ZM11.8748 13.487L12.272 13.8842L12.4926 13.2663L11.8748 13.487ZM11.6542 14.6787L12.1396 14.3698L11.6101 14.0608L11.6542 14.6787Z" fill="#633535"/>
<path d="M10.4627 14.6347L10.8157 14.3699L10.4186 14.105L10.4627 14.6347ZM11.5658 13.7078L11.3893 14.0167H11.8306L11.5658 13.7078ZM12.3601 14.7671L12.1395 14.8112L12.2277 15.0319L12.3601 14.7671ZM10.7274 15.6499H11.3011L11.0363 15.0319L10.7274 15.6499ZM10.242 14.7671L10.2862 14.9878L10.4627 14.8112L10.242 14.7671ZM9.97729 14.8554L10.0214 15.0761L10.242 14.9437L9.97729 14.8554ZM12.5807 14.3699L12.1836 14.5464L12.5807 14.8995V14.3699ZM12.7131 15.0319L12.3601 15.2085L12.669 15.4733L12.7131 15.0319Z" fill="#633535"/>
<path d="M15.5813 11.5449L15.2283 11.7656L15.6255 11.9422L15.5813 11.5449ZM10.1538 14.7229V14.3257L9.75665 14.5464L10.1538 14.7229ZM10.5509 15.0761L10.1538 14.9878L10.242 15.4292L10.5509 15.0761ZM10.0214 14.9436L9.71252 14.5905L9.62427 15.1202L10.0214 14.9436Z" fill="#633535"/>
<path d="M10.0655 15.4733L10.0214 15.0319L9.62427 15.2526L10.0655 15.4733ZM10.7274 14.3698L10.9039 14.1932L10.6392 14.0608L10.7274 14.3698ZM10.595 14.3698L10.1979 14.5463L10.5068 14.8112L10.595 14.3698ZM9.71252 14.5463L9.93315 14.6788L9.97728 14.3698L9.71252 14.5463ZM10.8598 13.4429L10.7274 13.9725L11.3452 13.9284L10.8598 13.4429ZM9.88903 16.2678L9.75665 16.7533L10.3303 16.7092L9.88903 16.2678ZM10.7716 15.7381L10.9481 15.8264L10.9039 15.6498L10.7716 15.7381ZM10.3303 16.1795L10.5068 16.2236L10.4627 16.0471L10.3303 16.1795ZM9.97728 16.0471L10.242 16.0912L10.1979 15.7381L9.97728 16.0471ZM11.6541 14.5905L11.3011 14.7229L11.6541 14.9877V14.5905Z" fill="#633535"/>
<path d="M10.8598 14.8994L11.4775 14.7669L10.9921 14.3256L10.8598 14.8994ZM9.93311 13.7959L10.4626 13.7517L10.1537 13.3545L9.93311 13.7959Z" fill="#633535"/>
<path d="M10.595 14.8111L10.7716 15.1201L10.9922 14.8111H10.595ZM9.75665 14.3698L10.242 14.2815L9.93315 13.8401L9.75665 14.3698ZM9.62427 15.9588L10.0655 15.6939L9.62427 15.385V15.9588ZM11.2569 14.9436L11.0804 15.0318L11.3011 15.1643L11.2569 14.9436Z" fill="#633535"/>
<path d="M11.5658 16.0028L11.4334 16.0911L11.5658 16.2235V16.0028ZM10.1096 14.149L10.5067 14.0607L10.2861 13.7076L10.1096 14.149ZM12.0953 15.5615L12.3159 15.6056L12.2277 15.3849L12.0953 15.5615ZM10.2861 15.8704L10.5067 16.0028L10.5509 15.6939L10.2861 15.8704ZM10.3743 15.2966V15.6056L10.6832 15.4732L10.3743 15.2966ZM9.88896 15.5173L10.1537 15.6939L10.1978 15.3408L9.88896 15.5173ZM9.8007 15.9587L10.0655 16.0911V15.7822L9.8007 15.9587ZM11.6981 17.7684L11.5658 17.8567L11.6981 17.9891V17.7684ZM11.301 17.3712L11.1686 17.4153L11.301 17.5919V17.3712ZM9.49182 20.814V21.0347L9.71245 20.9906L9.49182 20.814ZM9.1388 21.123V21.3437L9.35944 21.2995L9.1388 21.123ZM10.2861 20.6375L10.242 20.8582L10.4626 20.814L10.2861 20.6375ZM5.82932 25.5369L5.7852 25.7135L6.00583 25.6693L5.82932 25.5369ZM5.47632 26.7728V26.9493L5.69695 26.9052L5.47632 26.7728ZM6.71185 25.4928L6.84423 25.581L6.93248 25.3603L6.71185 25.4928ZM10.0213 19.5781H9.66833L9.88896 19.9312L10.0213 19.5781ZM9.05055 20.8582L8.69754 20.6816V21.1671L9.05055 20.8582ZM9.66833 20.6375L9.27118 20.4609V20.9464L9.66833 20.6375ZM8.69754 21.5644L8.65342 21.1671L8.16802 21.3878L8.69754 21.5644ZM9.97721 20.2843L9.66833 20.0636L9.6242 20.4609L9.97721 20.2843ZM9.40356 21.9616L9.22706 21.8292V22.0499L9.40356 21.9616ZM10.1096 22.403L10.2861 22.5796L10.3302 22.3589L10.1096 22.403ZM10.1096 21.2554H9.97721L9.93308 21.432L10.1096 21.2554ZM11.0362 16.2235L10.8597 16.2677L11.0362 16.4001V16.2235ZM12.8895 13.5752L12.5365 13.8842L12.9778 14.1049L12.8895 13.5752ZM6.18234 21.2113L6.80011 21.432L6.66773 20.9464L6.18234 21.2113ZM5.47632 22.3147L5.60869 22.6679L5.91758 22.3589L5.47632 22.3147Z" fill="#633535"/>
<path d="M5.82935 22.2708L6.00586 22.6239L6.27061 22.359L5.82935 22.2708Z" fill="#633535"/>
<path d="M5.60864 23.0211L6.27054 22.9328L5.91753 22.359L5.60864 23.0211ZM6.5353 22.0059L6.27054 22.4473L6.80006 22.5797L6.5353 22.0059Z" fill="#633535"/>
<path d="M5.12354 23.1976L5.60892 23.021L5.21179 22.5796L5.12354 23.1976ZM6.18257 21.6527L5.78543 21.6968L6.00606 22.0941L6.18257 21.6527ZM5.87368 22.2706L5.78543 21.8734L5.38829 22.1382L5.87368 22.2706ZM7.06509 20.6816L6.71208 20.8582L7.06509 21.1672V20.6816ZM6.18257 21.7851L6.62383 21.8293L6.4032 21.2996L6.18257 21.7851Z" fill="#633535"/>
<path d="M6.05011 22.1382H6.53551L6.359 21.6527L6.05011 22.1382ZM6.49138 22.0058L6.93264 22.2706V21.6968L6.49138 22.0058ZM4.90283 22.6237H5.38822L5.16759 22.2265L4.90283 22.6237ZM6.09424 21.2996L5.87361 21.5203L6.13837 21.6968L6.09424 21.2996Z" fill="#633535"/>
<path d="M5.4322 21.9177L5.21157 22.2266L5.56458 22.3149L5.4322 21.9177ZM4.90269 22.6239L4.77031 22.977L5.07919 22.9329L4.90269 22.6239ZM7.63852 20.8142L7.59439 20.3728L7.10901 20.6376L7.63852 20.8142ZM5.91759 21.9177L5.78521 21.6087L5.47633 21.9177H5.91759ZM7.15313 20.9025L6.9325 21.2556L7.37376 21.3439L7.15313 20.9025ZM7.72677 22.8446L7.7709 22.977L7.90328 22.8887L7.72677 22.8446ZM6.88837 22.4915L7.19726 22.8446L7.37376 22.3591L6.88837 22.4915ZM7.7709 23.6391L7.85915 23.9922L8.12391 23.6832L7.7709 23.6391ZM8.16804 20.6376L8.07978 21.0349L8.47692 20.9908L8.38867 20.6818L8.16804 20.6376ZM4.28491 25.0516V25.5812L4.5938 25.3605L4.28491 25.0516Z" fill="#633535"/>
<path d="M7.99165 20.9906L7.41801 21.4761L8.07991 21.6968L7.99165 20.9906ZM8.03578 20.1519L7.46214 20.6375L8.12403 20.8582L8.03578 20.1519ZM7.10913 21.2996L6.88849 21.4761L6.75611 21.6968L7.28563 21.8292L7.10913 21.2996ZM5.52057 24.919L5.03519 25.0955L5.43232 25.4045L5.52057 24.919ZM8.9183 20.0195L8.47704 20.2402L8.83005 20.5492L8.9183 20.0195ZM6.88849 22.4913H6.27072L6.53548 23.0651L6.88849 22.4913ZM4.54979 26.199L4.81455 25.8459L4.37329 25.8018L4.54979 26.199ZM6.88849 23.8596H7.19738L7.10913 23.5065L6.88849 23.8596Z" fill="#633535"/>
<path d="M7.81508 21.5203L7.3297 21.8292L7.90334 22.1824L7.81508 21.5203ZM7.94746 22.4472L7.63858 22.5355L7.94746 22.8444V22.4472ZM6.88843 22.2265H7.3297L7.15319 21.7851L6.88843 22.2265ZM5.56464 23.7714L5.91765 24.0362L6.05003 23.5507L5.56464 23.7714ZM6.13829 23.1975L6.35892 23.33L6.40304 23.1093L6.13829 23.1975ZM6.53542 23.5948L6.71192 23.7714L6.80018 23.4624L6.53542 23.5948ZM5.12338 24.2127L5.47639 23.9921L5.07925 23.6831L5.12338 24.2127ZM6.22654 23.33L6.05003 23.6389H6.49129L6.22654 23.33ZM7.02081 24.3893H6.80018L6.88843 24.6541L7.02081 24.3893ZM5.52051 26.1549H5.29988L5.38813 26.4197L5.52051 26.1549ZM5.1675 27.3466H4.94687L5.07925 27.6115L5.1675 27.3466ZM4.90275 24.3893L4.94687 24.5659L5.12338 24.4334L4.90275 24.3893ZM4.63798 24.4776L4.68211 24.6983L4.90275 24.5659L4.63798 24.4776ZM4.63798 26.4197L4.3291 26.5963L4.63798 26.8611V26.4197Z" fill="#633535"/>
<path d="M4.81443 24.3452V23.948L4.41729 24.1687L4.81443 24.3452ZM5.21157 24.6984L4.81443 24.6101L4.90269 25.0515L5.21157 24.6984ZM4.68205 24.5659L4.32904 24.257L4.28491 24.7866L4.68205 24.5659ZM4.72618 25.0956L4.68205 24.6542L4.28491 24.8749L4.72618 25.0956Z" fill="#633535"/>
<path d="M5.38819 23.992L5.5647 23.7713L5.34407 23.683L5.38819 23.992ZM5.25582 23.992L4.85868 24.1686L5.16756 24.4334L5.25582 23.992ZM4.37329 24.1686L4.59392 24.301L4.63805 23.992L4.37329 24.1686ZM5.52057 23.0651L5.38819 23.5948L6.00597 23.5065L5.52057 23.0651ZM6.31485 24.2127L5.96184 24.3451L6.31485 24.61V24.2127ZM5.69708 24.301L5.91771 24.2568L5.74121 24.1244L5.69708 24.301ZM4.50566 23.4623L5.03519 23.4182L4.7263 22.9768L4.50566 23.4623ZM5.25582 24.4334L5.43232 24.7424L5.65295 24.3893L5.25582 24.4334ZM4.37329 24.0361L4.90281 23.9037L4.50566 23.5065L4.37329 24.0361ZM5.91771 24.5658L5.74121 24.6541L5.96184 24.7865L5.91771 24.5658Z" fill="#633535"/>
<path d="M4.77051 23.7713L5.16764 23.683L4.94701 23.3299L4.77051 23.7713ZM5.16764 25.2279L4.81464 25.4927L5.2559 25.7134L5.16764 25.2279ZM10.9923 15.6938L10.5069 15.9145L10.9482 16.1794L10.9923 15.6938Z" fill="#633535"/>
<path d="M18.1405 29.5979C21.6707 27.4351 30.3635 32.2904 37.6444 44.4728C44.5722 55.9931 48.4554 61.6429 53.7064 64.7326C59.487 68.1313 61.958 69.4997 62.5317 73.0749C63.1053 76.6502 60.1047 81.7703 58.7368 83.8449C57.3689 85.9194 51.8972 88.2588 43.6456 83.3152C35.3498 78.4158 31.9521 66.4099 28.7309 59.4801C25.4655 52.5502 19.685 46.2383 19.0231 40.8975C18.2288 34.5856 14.0368 32.1138 18.1405 29.5979Z" fill="url(#paint4_linear_651_318)"/>
<path d="M36.409 52.3737C36.2325 50.2109 35.9236 45.3997 33.8497 40.5885C31.0256 34.3208 25.7745 28.5386 19.1997 28.8475C17.6111 28.8917 12.5807 28.98 9.75665 40.5885C9.40364 42.0893 2.96118 76.4737 2.96118 76.4737H37.9534C37.9534 76.4295 36.5855 54.051 36.409 52.3737Z" fill="url(#paint5_linear_651_318)"/>
<path d="M32.1285 48.7544L31.9079 48.4012L31.7314 48.7102L32.1285 48.7544ZM32.4374 47.8274L32.2609 47.4743L32.0403 47.7392L32.4374 47.8274ZM31.599 37.0575L31.6431 37.6313L32.0844 37.3223L31.599 37.0575ZM30.6724 35.7333L30.3635 35.8216L30.54 36.0423L30.6724 35.7333ZM31.4666 37.4989L31.1578 37.9403L31.599 38.0285L31.4666 37.4989ZM31.7314 39.2644L31.4225 39.6617L31.8638 39.7941L31.7314 39.2644ZM32.8346 40.6328L32.5698 40.9417L32.9669 41.0741L32.8346 40.6328ZM32.4374 41.9128L32.0403 41.6921L31.9962 42.0893L32.4374 41.9128ZM32.3933 40.721L32.0403 40.5445V40.8976L32.3933 40.721ZM31.2901 37.3665L30.8489 37.1899V37.5872L31.2901 37.3665ZM30.5841 35.5126L30.3635 35.3802V35.645L30.5841 35.5126ZM29.834 35.1595L30.0105 34.9388L29.7457 34.8947L29.834 35.1595ZM29.5692 34.8064L29.7016 34.6298L29.481 34.5857L29.5692 34.8064ZM31.5108 38.0727L31.0254 38.5141L31.5549 38.7348L31.5108 38.0727ZM32.8787 39.8824L32.2168 39.7058L32.2609 40.2796L32.8787 39.8824ZM32.5257 38.5582L31.8638 38.4258L31.9962 38.9555L32.5257 38.5582Z" fill="#609ECC"/>
<path d="M32.4377 40.3237H33.6732L33.1878 39.2202L32.4377 40.3237ZM32.8789 41.3831H34.1586L33.7173 40.2796L32.8789 41.3831ZM31.0698 37.1016L31.8199 37.0133L31.4228 36.3512L31.0698 37.1016ZM30.8491 35.8215V36.4836L31.4228 36.2629L30.8491 35.8215Z" fill="#609ECC"/>
<path d="M23.5681 30.8336C27.1864 33.5261 29.5693 39.7056 20.5233 50.608C11.4774 61.5103 8.87399 68.1754 7.9032 75.7673C6.97655 83.3592 7.9032 85.3896 4.99086 87.6848C2.07852 89.9801 -4.49631 89.2739 -7.01152 88.8766C-9.52672 88.4794 -14.2924 87.6407 -13.9835 76.5176C-13.6746 65.3946 -8.55594 54.0508 -4.09918 47.2975C0.401712 40.5001 5.25562 34.762 9.66826 31.4957C14.9634 27.6998 19.2878 27.6998 23.5681 30.8336Z" fill="url(#paint6_linear_651_318)"/>
<path d="M23.9214 42.3542L23.2595 42.7955L24.0537 43.2369L23.9214 42.3542ZM23.0388 44.9584L22.2887 45.2673L22.8623 45.8853L23.0388 44.9584ZM25.9953 38.5141L26.7896 38.8672L26.7455 37.8961L25.9953 38.5141ZM23.436 41.4714L22.7741 41.2948L22.8623 42.0452L23.436 41.4714ZM22.2004 44.2521L21.6709 43.7666L21.4062 44.4728L22.2004 44.2521ZM24.2744 39.9265L23.9655 39.6617L23.789 40.2355L24.2744 39.9265ZM22.9065 42.8397L23.0388 42.4866L22.5976 42.4424L22.9065 42.8397ZM24.6715 36.5278L25.1128 36.5719L24.9804 36.1305L24.6715 36.5278ZM25.8188 33.9236L25.554 34.3208L26.0394 34.4091L25.8188 33.9236ZM25.9071 35.8657L25.4658 35.6891L25.5099 36.1747L25.9071 35.8657ZM18.6262 44.0756L18.7145 43.6783L18.2732 43.8108L18.6262 44.0756ZM26.0394 34.7181L25.8629 35.2036L26.3924 35.1595L26.0394 34.7181ZM25.1569 35.6891L25.1128 35.3802L24.7156 35.6009L25.1569 35.6891ZM26.0836 37.4106L25.9071 37.0575L25.6423 37.3664L26.0836 37.4106ZM23.083 40.6769L23.4801 40.9858L23.6566 40.5003L23.083 40.6769ZM25.5982 38.6906L25.201 38.6023L25.3334 38.9996L25.5982 38.6906Z" fill="#609ECC"/>
<path d="M20.8324 43.5017L21.053 43.8106L21.2295 43.4134L20.8324 43.5017ZM19.9057 42.3982L19.5086 42.2216V42.663L19.9057 42.3982ZM25.4215 38.6463V39.0436L25.8628 38.8229L25.4215 38.6463ZM23.0828 41.383L22.6416 41.2947L22.8181 41.7361L23.0828 41.383ZM26.3041 40.8533L26.5688 39.5733L25.3333 39.794L26.3041 40.8533ZM25.598 42.7071L26.0834 41.2506L24.8038 41.5595L25.598 42.7071ZM24.9361 44.2079L25.5539 42.9278L24.2301 43.1927L24.9361 44.2079ZM23.8771 46.1059L24.4949 45.0465L23.3476 44.87L23.8771 46.1059ZM25.1568 37.896L25.4215 38.205L25.5539 37.8077L25.1568 37.896ZM26.1717 36.3952L26.7453 36.7042V35.9539L26.1717 36.3952ZM23.5682 37.8077L23.833 38.0725L23.9654 37.6311L23.5682 37.8077ZM26.2158 37.2339L26.5247 37.4546L26.6571 37.0573L26.2158 37.2339ZM21.3178 46.5472L20.7441 46.1059L20.5235 46.8121L21.3178 46.5472ZM22.5533 46.5914L21.9797 46.15L21.759 46.8562L22.5533 46.5914ZM21.1854 48.9749L20.9648 49.328L21.406 49.4163L21.1854 48.9749ZM21.4502 44.5168L20.7 44.8258L21.3619 45.4879L21.4502 44.5168ZM24.3625 43.4575L23.7889 43.6782L24.2742 44.1196L24.3625 43.4575ZM23.7006 45.7527L23.2593 45.3996L23.0828 46.0176L23.7006 45.7527ZM23.127 44.2079L22.6857 43.8548L22.5092 44.5168L23.127 44.2079ZM22.5092 46.8121L21.759 47.1652L22.4209 47.7831L22.5092 46.8121ZM21.7149 46.9004L20.9206 47.2093L21.5825 47.8273L21.7149 46.9004ZM22.4209 45.3555L21.6708 45.6645L22.3327 46.3266L22.4209 45.3555ZM20.7 48.4011L19.8616 48.7101L20.5235 49.3721L20.7 48.4011ZM21.406 47.8273L20.5676 48.0921L21.2295 48.7542L21.406 47.8273ZM20.3029 46.9886L19.8175 46.5031L19.5527 47.2093L20.3029 46.9886ZM22.9504 42.5747L22.6416 42.2658L22.4209 42.7513L22.9504 42.5747ZM21.406 46.0617L21.6267 45.7527L21.1854 45.6645L21.406 46.0617ZM20.7883 41.5595L21.1854 41.6919L21.0971 41.2506L20.7883 41.5595ZM22.3327 40.8974L21.9797 41.1623L22.4651 41.4271L22.3327 40.8974ZM20.4352 43.943L20.0822 43.7223L19.994 44.1637L20.4352 43.943ZM16.7286 45.3555L16.9051 45.0024H16.4639L16.7286 45.3555ZM18.4054 45.3114L18.0965 45.6203L18.6261 45.7969L18.4054 45.3114Z" fill="#609ECC"/>
<path d="M-4.49646 49.3722L-4.36408 49.5929L-4.18758 49.4163L-4.49646 49.3722ZM-4.01107 49.1515L-4.67296 48.2687L-5.20249 49.1074L-4.01107 49.1515ZM-4.76122 50.0343L-5.33486 49.2839L-5.77612 50.0784L-4.76122 50.0343ZM7.90306 34.3208L8.38844 34.1883L8.16781 33.7911L7.90306 34.3208ZM6.84402 34.718L6.93227 35.0711L7.1529 34.8504L6.84402 34.718ZM7.41766 33.4821L8.03543 33.5704L7.90306 32.9966L7.41766 33.4821ZM7.8148 34.4973L8.25606 34.9828L8.43257 34.409L7.8148 34.4973ZM7.6383 35.6449L8.03543 36.0863L8.30019 35.6008L7.6383 35.6449ZM7.24116 34.8063L7.77068 35.2477L7.90306 34.7621L7.24116 34.8063ZM9.80049 36.3512L10.1976 36.307L10.0211 36.0422L9.80049 36.3512ZM7.6383 34.6739L7.24116 33.5263L6.44688 34.2325L7.6383 34.6739ZM4.10818 39.5733L4.59358 39.2643L4.19644 38.9995L4.10818 39.5733ZM3.57867 38.7788L4.01993 38.5581L3.62279 38.2933L3.57867 38.7788ZM2.82852 39.5292L3.31391 39.2202L2.87264 38.9112L2.82852 39.5292ZM3.31391 39.3526L3.84342 39.0878L3.40216 38.8229L3.31391 39.3526ZM4.50532 38.7788L5.07896 39.1319L5.16722 38.5581L4.50532 38.7788Z" fill="#E6F7FF"/>
<path d="M4.01997 37.3664L4.50536 37.8077L4.68187 37.2339L4.01997 37.3664ZM4.68187 36.307L5.21138 36.7484L5.34376 36.2187L4.68187 36.307ZM3.26982 38.9112L2.91681 38.1167L2.47555 38.6464L3.26982 38.9112ZM3.04919 39.7499L3.57871 40.0588L3.66696 39.485L3.04919 39.7499ZM3.88759 38.1609L4.37298 38.5581L4.59361 38.0284L3.88759 38.1609ZM2.21078 40.1913L2.78443 40.5885L2.91681 40.0147L2.21078 40.1913ZM7.2412 35.9098L7.72658 36.3512L7.90309 35.8215L7.2412 35.9098ZM6.66755 36.4836L6.13804 36.7484L6.53517 37.1015L6.66755 36.4836ZM7.10882 35.7773L6.53517 36.0863L6.97644 36.4394L7.10882 35.7773ZM5.21138 37.6753L5.7409 37.4988L5.34376 37.1015L5.21138 37.6753ZM3.13744 40.5444L3.57871 40.3237L3.18156 40.0147L3.13744 40.5444ZM2.38729 40.0147L2.78443 39.7499L2.43142 39.485L2.38729 40.0147ZM7.2412 36.5277L7.50595 36.307L7.2412 36.1305V36.5277ZM6.09391 37.7636L5.96153 37.4988L5.7409 37.6753L6.09391 37.7636ZM8.56499 37.9843L8.2561 38.0284L8.38848 38.2933L8.56499 37.9843ZM5.91741 38.2933L6.53517 38.1609L6.27041 37.7195L5.91741 38.2933ZM7.99134 38.3816L8.03547 38.0726L7.77071 38.1609L7.99134 38.3816ZM6.44692 39.1319L6.53517 38.7347L6.22629 38.8229L6.44692 39.1319ZM4.54948 41.6478L4.50536 41.2947L4.2406 41.4713L4.54948 41.6478ZM5.91741 42.4865L5.56439 42.3982L5.69677 42.663L5.91741 42.4865ZM6.53517 40.2354H6.22629L6.35867 40.5002L6.53517 40.2354ZM5.38788 41.5596L5.29963 41.8685H5.56439L5.38788 41.5596ZM7.94722 39.8381L7.63833 39.6616L7.5942 39.9264L7.94722 39.8381ZM7.68246 42.001L7.37357 41.8685L7.32945 42.1334L7.68246 42.001ZM3.35807 43.7665H3.66696L3.53458 43.4576L3.35807 43.7665ZM3.31394 42.972L3.4022 42.6189L3.09331 42.7072L3.31394 42.972ZM2.16666 43.0162V42.7513L1.94603 42.7955L2.16666 43.0162ZM3.26982 42.2217L3.57871 42.3099L3.53458 42.001L3.26982 42.2217ZM2.47555 41.7803L3.00506 41.9127L2.96093 41.383L2.47555 41.7803ZM1.59302 41.6037L1.94603 42.0892L2.21078 41.6037H1.59302ZM4.68187 39.7499L5.25551 40.0147L5.16725 39.485L4.68187 39.7499ZM1.99015 42.4424L2.25491 42.5306L2.21078 42.2217L1.99015 42.4424Z" fill="#E6F7FF"/>
<path d="M4.81432 37.0574L5.34384 36.7485L4.9467 36.5278L4.81432 37.0574ZM5.03495 37.1457L5.7851 37.1899L5.60859 36.5278L5.03495 37.1457ZM4.54956 37.852L5.16733 38.3375L5.34384 37.6313L4.54956 37.852ZM6.88826 35.027L7.50603 35.645L7.72666 34.9829L6.88826 35.027ZM5.87335 36.5278L6.40287 36.3512L6.04985 35.9981L5.87335 36.5278ZM5.65272 35.954L6.18224 35.8216L5.82922 35.4243L5.65272 35.954Z" fill="#E6F7FF"/>
<path d="M4.41705 40.1472L4.28467 40.412H4.54943L4.41705 40.1472ZM5.96147 35.5126L6.0056 35.8216L6.22623 35.6009L5.96147 35.5126ZM4.90244 38.3375L5.16719 38.2934L5.03482 38.0727L4.90244 38.3375ZM6.49099 34.7181L6.93225 35.2036L7.15288 34.5857L6.49099 34.7181ZM6.71162 35.5126L6.35861 34.365L5.56434 35.1154L6.71162 35.5126ZM5.82909 36.3954L5.43196 35.2919L4.63768 35.9981L5.82909 36.3954ZM4.94656 37.2782L4.5053 36.263L3.79928 36.9692L4.94656 37.2782ZM4.10816 38.2051L3.71103 37.1458L2.91675 38.0285L4.10816 38.2051ZM2.87262 39.7941L2.43136 38.6023L1.72534 39.3527L2.87262 39.7941ZM7.28526 37.5871L7.15288 37.852H7.41764L7.28526 37.5871ZM6.49099 37.0133L6.22623 37.4989H6.6675L6.49099 37.0133ZM5.52021 38.3375L5.43196 38.6906L5.74084 38.6465L5.52021 38.3375Z" fill="#E6F7FF"/>
<path d="M8.78569 36.5278L8.60918 36.7926H8.87394L8.78569 36.5278ZM7.28539 37.4547L7.10889 37.6754L7.41777 37.7196L7.28539 37.4547ZM12.4482 34.5416H12.8453L12.6688 34.1884L12.4482 34.5416ZM15.9342 29.5097L16.3313 29.5538L16.1989 29.2007L15.9342 29.5097ZM15.6694 31.0104H16.0665L15.9342 30.7456L15.6694 31.0104ZM10.8596 33.8795L11.1685 33.6588L10.8596 33.4381V33.8795ZM9.75647 35.1595L9.62409 34.8947L9.44759 35.0712L9.75647 35.1595ZM12.2275 35.2036L11.9628 35.2478L12.1393 35.4685L12.2275 35.2036ZM15.6694 29.8628L15.9783 29.7304L15.8018 29.5097L15.6694 29.8628ZM14.6986 30.9663L14.6104 30.6573L14.3897 30.8339L14.6986 30.9663ZM15.2723 32.0698L15.1399 31.8049L14.9634 32.0256L15.2723 32.0698ZM17.2138 30.2159L17.1697 29.8628L16.9491 30.0394L17.2138 30.2159ZM18.3611 30.1718L18.317 29.8628L18.0964 29.9952L18.3611 30.1718ZM18.0081 29.5097L17.9199 29.2007L17.7433 29.3773L18.0081 29.5097ZM18.7583 29.1124L18.67 28.8035L18.4935 28.9359L18.7583 29.1124ZM17.3462 30.8339H17.0373L17.1697 31.0546L17.3462 30.8339ZM17.0373 29.2007L16.7284 29.1566L16.8167 29.4214L17.0373 29.2007ZM11.5656 35.9099V35.6009L11.345 35.6892L11.5656 35.9099ZM11.8745 37.234L11.6098 37.0133L11.5215 37.3665L11.8745 37.234ZM10.8596 35.1154L10.7272 35.4243H10.992L10.8596 35.1154Z" fill="#E6F7FF"/>
<path d="M10.9035 34.9388L10.727 35.2478H11.0359L10.9035 34.9388ZM2.60775 40.5004L2.12236 40.8093L2.5195 41.1183L2.60775 40.5004ZM3.75504 41.2066L3.66678 41.4714H3.97567L3.75504 41.2066ZM4.0198 39.6176L4.24043 39.8383L4.28455 39.5293L4.0198 39.6176ZM2.03411 40.7652L2.21061 40.5886L2.07823 40.4562L2.03411 40.7652ZM1.46047 41.5156L1.81348 41.2949L1.46047 41.03V41.5156ZM1.23983 40.8535L1.63697 40.5886L1.28396 40.3238L1.23983 40.8535ZM1.72523 40.5445L1.81348 40.8535L1.98998 40.6769L1.72523 40.5445ZM2.25474 40.4121L1.63697 39.4852L1.06333 40.2797L2.25474 40.4121ZM1.41634 41.2066L0.93095 40.4562L0.445557 41.03L1.41634 41.2066ZM7.94704 32.8643L8.60894 33.0408L8.52069 32.4229L7.94704 32.8643ZM12.4038 31.9374L12.9333 31.8049L12.5803 31.4077L12.4038 31.9374ZM12.0508 31.0987L12.5362 30.9222L12.3156 30.569L12.0508 31.0987ZM11.1683 31.5401L11.6978 31.4077L11.3889 31.0104L11.1683 31.5401ZM11.6537 31.5401L12.1832 31.4077L11.8743 31.0104L11.6537 31.5401ZM12.9775 31.2753L13.4187 31.8049L13.6394 31.2753H12.9775ZM12.9775 29.907L13.2863 30.4808L13.6394 29.9952L12.9775 29.907ZM14.0365 29.2449L14.3454 29.8187L14.6984 29.3773L14.0365 29.2449ZM11.8302 31.0987L11.7419 30.2601L11.0359 30.6573L11.8302 31.0987ZM11.2565 31.8049L11.6978 32.2905L11.9184 31.8049H11.2565ZM12.5803 30.569L12.8892 31.0546L13.1981 30.569H12.5803ZM10.4181 32.0698L10.7711 32.5553L11.08 32.0256L10.4181 32.0698ZM11.08 32.6436L11.6537 32.5553L11.3448 32.1139L11.08 32.6436ZM10.5946 31.9374L11.08 31.8049L10.7711 31.4077L10.5946 31.9374Z" fill="#E6F7FF"/>
<path d="M12.8454 32.3345L13.3308 32.6877L13.4631 32.1138L12.8454 32.3345ZM14.3898 29.951L14.7428 30.3483L15.0076 29.9069L14.3898 29.951ZM15.9783 28.671L16.3755 29.1124L16.5961 28.6269L15.9783 28.671ZM17.1698 28.5827L17.4345 28.8917L17.611 28.5386L17.1698 28.5827ZM13.1984 30.4366L13.5955 31.1869L14.0368 30.6131L13.1984 30.4366ZM12.5365 32.6435L12.2717 32.7759L12.5365 32.9083V32.6435Z" fill="#E6F7FF"/>
<path d="M13.463 30.9662L13.7718 31.0545L13.6836 30.7897L13.463 30.9662ZM13.9483 30.3924L14.0366 29.2007L13.0217 29.5538L13.9483 30.3924ZM12.8452 30.878L12.8011 29.6862L11.742 30.1717L12.8452 30.878ZM15.1839 29.5096L15.3604 28.7593L14.6985 28.9358L15.1839 29.5096ZM8.38842 34.8946L8.96206 34.7622L8.65318 34.3649L8.38842 34.8946ZM8.21191 34.0118L8.6973 33.8794L8.43255 33.5263L8.21191 34.0118ZM9.00619 34.2767L9.3592 34.7622L9.66809 34.3208L9.00619 34.2767ZM8.6973 33.5263L9.05031 34.0118L9.3592 33.5704L8.6973 33.5263Z" fill="#E6F7FF"/>
<path d="M9.75651 34.2325L10.1978 34.5856L10.3302 34.1442L9.75651 34.2325ZM9.53587 33.129L10.0213 33.8352L10.3743 33.2614L9.53587 33.129ZM9.53587 33.9677L9.80063 34.0559L9.75651 33.7911L9.53587 33.9677ZM8.87398 33.747L8.96223 32.5552L7.81494 33.0407L8.87398 33.747ZM11.2127 31.8048L10.9479 30.6572L10.1536 31.1869L11.2127 31.8048ZM10.639 32.4228L10.0654 32.5552L10.3743 32.9525L10.639 32.4228ZM11.6098 33.3939L11.4333 33.7028L11.6981 33.747L11.6098 33.3939ZM12.2717 32.0255L12.4482 32.2021L12.5806 31.9814L12.2717 32.0255ZM10.0213 32.5552L10.286 32.4228L10.1095 32.2904L10.0213 32.5552ZM9.31524 33.0849L9.75651 32.9966L9.53587 32.6876L9.31524 33.0849Z" fill="#E6F7FF"/>
<path d="M9.35938 32.3345L9.8889 32.2903L9.66827 31.8931L9.35938 32.3345ZM9.93302 32.2903V32.5552L10.1537 32.4227L9.93302 32.2903Z" fill="#E6F7FF"/>
<path d="M10.4184 32.2464L10.1977 31.187L9.35934 31.7167L10.4184 32.2464ZM9.49172 32.8643L9.40347 31.8932L8.65332 32.3346L9.49172 32.8643Z" fill="#E6F7FF"/>
</g>
<defs>
<linearGradient id="paint0_linear_651_318" x1="18.7959" y1="27.0025" x2="21.8294" y2="23.0979" gradientUnits="userSpaceOnUse">
<stop stop-color="#BC5A32" stop-opacity="0"/>
<stop offset="0.99" stop-color="#BC5A32"/>
</linearGradient>
<linearGradient id="paint1_linear_651_318" x1="23.5223" y1="13.1648" x2="21.8317" y2="10.8224" gradientUnits="userSpaceOnUse">
<stop stop-color="#BC5A32" stop-opacity="0"/>
<stop offset="0.99" stop-color="#BC5A32"/>
</linearGradient>
<linearGradient id="paint2_linear_651_318" x1="16.7229" y1="19.4758" x2="16.8716" y2="17.1245" gradientUnits="userSpaceOnUse">
<stop stop-color="#CC7A5E" stop-opacity="0"/>
<stop offset="0.924" stop-color="#AA5F4B"/>
</linearGradient>
<linearGradient id="paint3_linear_651_318" x1="20.3928" y1="14.7759" x2="20.1411" y2="7.39941" gradientUnits="userSpaceOnUse">
<stop offset="0.007" stop-color="#FF7A00"/>
<stop offset="0.983" stop-color="#FFB600"/>
</linearGradient>
<linearGradient id="paint4_linear_651_318" x1="37.7719" y1="58.6529" x2="56.2173" y2="64.4639" gradientUnits="userSpaceOnUse">
<stop stop-color="#7BA1C8"/>
<stop offset="1" stop-color="#8FC3E5"/>
</linearGradient>
<linearGradient id="paint5_linear_651_318" x1="9.95522" y1="52.6562" x2="34.5424" y2="52.6884" gradientUnits="userSpaceOnUse">
<stop stop-color="#7BA1C8"/>
<stop offset="1" stop-color="#8FC3E5"/>
</linearGradient>
<linearGradient id="paint6_linear_651_318" x1="-4.21876" y1="44.6563" x2="15.2606" y2="71.0011" gradientUnits="userSpaceOnUse">
<stop stop-color="#B9E4FF"/>
<stop offset="1" stop-color="#84B4D7"/>
</linearGradient>
<clipPath id="clip0_651_318">
<rect width="37" height="37" rx="9" fill="white"/>
</clipPath>
</defs>
</svg>
