<svg width="64" height="61" viewBox="0 0 64 61" fill="none" xmlns="http://www.w3.org/2000/svg">
<circle cx="51.3497" cy="32.807" r="7.13193" fill="url(#paint0_linear_1022_645)"/>
<circle cx="7.13193" cy="7.13193" r="7.13193" transform="matrix(-1 0 0 1 16.6411 25.675)" fill="url(#paint1_linear_1022_645)"/>
<circle cx="30.4296" cy="30.9052" r="20.9203" fill="url(#paint2_linear_1022_645)"/>
<path d="M37.5614 7.13193C37.5614 11.0708 34.3684 14.2639 30.4295 14.2639C26.4906 14.2639 23.2976 11.0708 23.2976 7.13193C23.2976 3.19307 26.4906 0 30.4295 0C34.3684 0 37.5614 3.19307 37.5614 7.13193Z" fill="#00327D"/>
<path d="M28.0522 13.7884C28.0522 17.7273 24.8591 20.9203 20.9203 20.9203C16.9814 20.9203 13.7883 17.7273 13.7883 13.7884C13.7883 9.84954 16.9814 6.65647 20.9203 6.65647C24.8591 6.65647 28.0522 9.84954 28.0522 13.7884Z" fill="#00327D"/>
<path d="M47.0707 13.7884C47.0707 17.7273 43.8776 20.9203 39.9387 20.9203C35.9999 20.9203 32.8068 17.7273 32.8068 13.7884C32.8068 9.84954 35.9999 6.65647 39.9387 6.65647C43.8776 6.65647 47.0707 9.84954 47.0707 13.7884Z" fill="#00327D"/>
<path d="M37.5614 13.7884C37.5614 17.7273 34.3684 20.9203 30.4295 20.9203C26.4906 20.9203 23.2976 17.7273 23.2976 13.7884C23.2976 9.84954 26.4906 6.65647 30.4295 6.65647C34.3684 6.65647 37.5614 9.84954 37.5614 13.7884Z" fill="#00327D"/>
<path d="M18.543 37.0862C18.543 37.0862 18.543 43.9804 30.4295 43.9804C42.3161 43.9804 42.3161 37.0862 42.3161 37.0862" stroke="black" stroke-width="2" stroke-linecap="round"/>
<path d="M44.6934 32.8069C44.6934 32.8069 44.6934 28.5277 38.7501 28.5277C32.8068 28.5277 32.8068 32.8069 32.8068 32.8069" stroke="black" stroke-width="2" stroke-linecap="round"/>
<path d="M28.0522 32.8069C28.0522 32.8069 28.0522 28.5277 22.109 28.5277C16.1657 28.5277 16.1657 32.8069 16.1657 32.8069" stroke="black" stroke-width="2" stroke-linecap="round"/>
<circle cx="30.4295" cy="38.5125" r="7.13193" fill="#00327D"/>
<path d="M50.6046 10.8346C51.6107 9.28539 54.0115 9.92868 54.1081 11.7734C54.1514 12.5984 54.7209 13.3017 55.5189 13.5156C57.3032 13.9937 57.4333 16.4757 55.7087 17.1377C54.9375 17.4338 54.4446 18.1928 54.4878 19.0178C54.5845 20.8625 52.2641 21.7532 51.1015 20.3176C50.5817 19.6756 49.7075 19.4414 48.9362 19.7374C47.2117 20.3994 45.6475 18.4679 46.6536 16.9186C47.1035 16.2258 47.0562 15.322 46.5363 14.68C45.3737 13.2444 46.7274 11.1599 48.5118 11.638C49.3097 11.8518 50.1546 11.5275 50.6046 10.8346Z" fill="#FBBC05"/>
<path d="M39.2372 15.7052C39.8765 14.7209 41.4019 15.1296 41.4634 16.3017C41.4908 16.8259 41.8527 17.2728 42.3597 17.4087C43.4935 17.7125 43.5762 19.2896 42.4804 19.7102C41.9903 19.8983 41.6771 20.3806 41.7046 20.9048C41.766 22.0769 40.2917 22.6429 39.553 21.7307C39.2227 21.3228 38.6672 21.1739 38.1772 21.3621C37.0814 21.7827 36.0875 20.5554 36.7268 19.571C37.0127 19.1307 36.9826 18.5565 36.6522 18.1486C35.9136 17.2364 36.7737 15.9119 37.9075 16.2157C38.4145 16.3516 38.9513 16.1455 39.2372 15.7052Z" fill="#FBBC05"/>
<path d="M20.6942 49.9384C21.3335 48.954 22.859 49.3628 22.9204 50.5349C22.9479 51.0591 23.3098 51.506 23.8168 51.6418C24.9505 51.9456 25.0332 53.5227 23.9374 53.9434C23.4473 54.1315 23.1342 54.6137 23.1616 55.1379C23.2231 56.3101 21.7487 56.876 21.01 55.9639C20.6797 55.5559 20.1242 55.4071 19.6342 55.5952C18.5384 56.0158 17.5445 54.7885 18.1838 53.8041C18.4697 53.3639 18.4396 52.7897 18.1093 52.3817C17.3706 51.4695 18.2307 50.1451 19.3645 50.4488C19.8715 50.5847 20.4084 50.3786 20.6942 49.9384Z" fill="#FBBC05"/>
<path d="M8.80753 21.4108C9.44679 20.4264 10.9722 20.8352 11.0337 22.0073C11.0611 22.5315 11.423 22.9784 11.9301 23.1142C13.0638 23.418 13.1465 24.9951 12.0507 25.4158C11.5606 25.6039 11.2474 26.0862 11.2749 26.6103C11.3363 27.7825 9.86197 28.3484 9.12331 27.4363C8.79297 27.0283 8.23752 26.8795 7.74747 27.0676C6.65169 27.4883 5.65782 26.2609 6.29709 25.2765C6.58298 24.8363 6.55288 24.2621 6.22254 23.8541C5.48388 22.942 6.34401 21.6175 7.47776 21.9213C7.98479 22.0571 8.52164 21.851 8.80753 21.4108Z" fill="#FBBC05"/>
<path d="M11.6165 42.215C12.6226 40.6658 15.0234 41.3091 15.1201 43.1538C15.1633 43.9788 15.7329 44.6821 16.5308 44.8959C18.3152 45.374 18.4452 47.8561 16.7207 48.5181C15.9494 48.8142 15.4565 49.5732 15.4998 50.3982C15.5964 52.2429 13.276 53.1336 12.1135 51.698C11.5936 51.056 10.7194 50.8218 9.94819 51.1178C8.22362 51.7798 6.65945 49.8482 7.66555 48.299C8.11549 47.6061 8.06812 46.7024 7.54823 46.0604C6.3857 44.6248 7.73939 42.5403 9.52372 43.0184C10.3217 43.2322 11.1666 42.9079 11.6165 42.215Z" fill="#FBBC05"/>
<path d="M46.3255 43.6413C47.3316 42.092 49.7324 42.7353 49.8291 44.5801C49.8723 45.4051 50.4419 46.1084 51.2398 46.3222C53.0242 46.8003 53.1542 49.2824 51.4297 49.9444C50.6584 50.2404 50.1655 50.9994 50.2087 51.8244C50.3054 53.6692 47.985 54.5599 46.8225 53.1243C46.3026 52.4823 45.4284 52.248 44.6572 52.5441C42.9326 53.2061 41.3684 51.2745 42.3745 49.7253C42.8245 49.0324 42.7771 48.1286 42.2572 47.4866C41.0947 46.051 42.4484 43.9665 44.2327 44.4446C45.0307 44.6585 45.8756 44.3341 46.3255 43.6413Z" fill="#FBBC05"/>
<defs>
<linearGradient id="paint0_linear_1022_645" x1="51.3497" y1="32.807" x2="58.4816" y2="32.807" gradientUnits="userSpaceOnUse">
<stop stop-color="#0064FC"/>
<stop offset="1" stop-color="#0548AF"/>
</linearGradient>
<linearGradient id="paint1_linear_1022_645" x1="7.13193" y1="7.13193" x2="14.2639" y2="7.13193" gradientUnits="userSpaceOnUse">
<stop stop-color="#0064FC"/>
<stop offset="1" stop-color="#0548AF"/>
</linearGradient>
<linearGradient id="paint2_linear_1022_645" x1="30.4296" y1="9.98486" x2="30.4296" y2="51.8255" gradientUnits="userSpaceOnUse">
<stop stop-color="#00327D"/>
<stop offset="0.525" stop-color="#0064FC"/>
</linearGradient>
</defs>
</svg>
