<svg width="145" height="228" viewBox="0 0 145 228" fill="none" xmlns="http://www.w3.org/2000/svg">
<path fill-rule="evenodd" clip-rule="evenodd" d="M0 21C0 2.7746 14.7746 -12 33 -12H112C130.225 -12 145 2.7746 145 21V77.3301C145 95.5555 130.225 110.33 112 110.33H40.0485C26.2146 110.33 15 121.545 15 135.379C15 149.213 26.2146 160.427 40.0485 160.427H112C130.225 160.427 145 175.202 145 193.427V199.5C145 215.24 132.24 228 116.5 228H111.883C98.693 228 88 217.307 88 204.117C88 190.926 77.307 180.233 64.1165 180.233H33C14.7746 180.233 0 165.458 0 147.233V21Z" fill="#151515"/>
</svg>
