<svg width="1160" height="806" viewBox="0 0 1160 806" fill="none" xmlns="http://www.w3.org/2000/svg">
<path d="M-118.851 660.609V137.902C-118.851 129.898 -129.028 126.07 -134.662 131.986C-156.833 155.129 -182.458 199.326 -187.91 209.07C-188.637 210.288 -189 211.68 -189 213.072C-189 358.539 -189 547.854 -189 568.387C-189 569.605 -188.818 570.823 -188.091 571.867C-183.003 582.133 -155.925 636.77 -135.389 665.481C-130.3 672.615 -118.851 669.135 -118.851 660.609Z" fill="black" fill-opacity="0.1"/>
<path d="M1089.85 137.902C1089.85 129.898 1100.03 126.07 1105.66 131.986C1127.83 155.129 1153.46 199.326 1158.91 209.07C1159.64 210.288 1160 211.68 1160 213.072V568.387C1160 569.605 1159.82 570.823 1159.09 572.041C1154 582.307 1126.92 636.944 1106.39 665.655C1101.3 672.789 1089.85 669.309 1089.85 660.783V137.902Z" fill="black" fill-opacity="0.1"/>
<path d="M824.522 811.818C765.095 828 712.938 827.13 677.5 823.476C672.957 822.954 669.504 819.3 669.504 814.776V800.681C669.504 794.417 662.962 790.067 656.964 792.677C621.345 807.816 561.01 827.826 485.227 828C409.445 828 349.291 807.816 313.672 792.677C307.675 790.067 301.132 794.417 301.132 800.681V814.776C301.132 819.126 297.861 822.954 293.136 823.476C257.698 827.13 205.541 828 146.296 811.818C37.8021 782.063 -26.7129 714.202 -51.9737 683.925C-53.2459 682.359 -53.7911 680.619 -53.7911 678.531V126.07C-53.7911 123.982 -53.0641 122.242 -51.792 120.502C-27.985 92.8354 16.5394 48.6385 86.1429 16.4479C172.102 -23.0509 251.338 -23.921 292.773 -20.9629C297.498 -20.6149 301.314 -16.7868 301.314 -12.2627V5.83362C301.314 12.0978 307.856 16.4479 313.854 13.8378C346.384 0.0915527 392.18 -14.8727 448.699 -19.3969C461.239 -20.4409 473.596 -20.7889 485.409 -20.7889C497.222 -20.7889 509.579 -20.4409 522.119 -19.3969C578.456 -14.8727 624.616 0.0915527 657.146 13.8378C663.143 16.2739 669.686 12.0978 669.686 5.83362V-12.2627C669.686 -16.7868 673.32 -20.6149 678.227 -20.9629C719.481 -23.921 798.898 -23.0509 884.675 16.4479C954.461 48.6385 998.985 92.6614 1022.79 120.502C1024.06 122.068 1024.79 123.982 1024.79 126.07V678.531C1024.79 680.445 1024.25 682.359 1022.97 683.925C997.531 714.202 933.016 782.063 824.522 811.818ZM669.686 153.911C669.686 161.219 660.599 165.395 654.784 160.523C606.261 119.806 545.744 98.4036 485.409 97.8815C425.074 98.5776 364.557 119.806 316.216 160.523C310.401 165.395 301.314 161.393 301.314 153.911V104.494C301.314 99.7955 297.498 95.7935 292.591 95.7935C243.887 94.9235 8.72491 106.408 8.72491 406.042C8.72491 681.837 242.069 704.11 292.046 705.676C297.134 705.676 301.314 701.847 301.314 696.975L300.951 655.389C300.951 647.906 310.219 643.73 316.034 648.95C363.83 691.407 424.71 711.418 485.409 710.374C546.289 711.244 606.988 691.233 654.965 648.776C660.781 643.73 670.049 647.732 670.049 655.215L669.686 696.801C669.686 701.673 673.866 705.676 678.954 705.502C728.931 703.936 962.275 681.489 962.275 405.868C962.275 106.234 727.295 94.7494 678.409 95.6194C673.502 95.6194 669.686 99.6215 669.686 104.32V153.911Z" fill="black" fill-opacity="0.1"/>
</svg>
