<?xml version="1.0" encoding="UTF-8"?>
<!DOCTYPE svg PUBLIC "-//W3C//DTD SVG 1.1//EN" "http://www.w3.org/Graphics/SVG/1.1/DTD/svg11.dtd">
<svg xmlns="http://www.w3.org/2000/svg" version="1.1" width="499px" height="500px" style="shape-rendering:geometricPrecision; text-rendering:geometricPrecision; image-rendering:optimizeQuality; fill-rule:evenodd; clip-rule:evenodd" xmlns:xlink="http://www.w3.org/1999/xlink">
<g><path style="opacity:1" fill="#fefefe" d="M 203.5,5.5 C 204.568,4.56552 205.901,4.23219 207.5,4.5C 250.299,1.9388 284.466,17.9388 310,52.5C 317.178,64.1887 323.012,75.8554 327.5,87.5C 328.338,87.8417 328.672,88.5084 328.5,89.5C 328.238,93.9327 329.404,98.2661 332,102.5C 332.399,102.272 332.565,101.938 332.5,101.5C 333.338,101.842 333.672,102.508 333.5,103.5C 332.402,104.601 332.235,105.934 333,107.5C 335.602,113.639 337.602,119.972 339,126.5C 340.224,130.291 341.724,133.291 343.5,135.5C 344.338,135.842 344.672,136.508 344.5,137.5C 343.903,137.735 343.57,138.235 343.5,139C 346.516,148.325 349.85,156.825 353.5,164.5C 354.338,164.842 354.672,165.508 354.5,166.5C 353.903,166.735 353.57,167.235 353.5,168C 361.995,192.818 370.495,217.651 379,242.5C 379.399,242.272 379.565,241.938 379.5,241.5C 380.338,241.842 380.672,242.508 380.5,243.5C 379.903,243.735 379.57,244.235 379.5,245C 392.182,282.704 405.182,320.704 418.5,359C 418.355,359.772 418.022,360.439 417.5,361C 420.372,367.006 423.039,372.506 425.5,377.5C 426.338,377.842 426.672,378.508 426.5,379.5C 425.903,379.735 425.57,380.235 425.5,381C 430.258,395.271 435.425,409.437 441,423.5C 442.648,424.717 444.481,425.55 446.5,426C 452.904,426.814 457.904,426.648 461.5,425.5C 462.209,424.596 463.209,424.263 464.5,424.5C 471.826,424.343 478.826,422.176 485.5,418C 488.063,416.921 490.729,416.421 493.5,416.5C 493.023,419.655 492.023,422.655 490.5,425.5C 485.19,432.323 480.023,439.323 475,446.5C 471.33,451.336 467.164,455.669 462.5,459.5C 460.897,458.323 459.564,458.489 458.5,460C 458.833,460.333 459.167,460.667 459.5,461C 452.307,466.667 444.307,470.501 435.5,472.5C 433.167,472.5 430.833,472.5 428.5,472.5C 420.672,470.446 413.005,467.613 405.5,464C 400.849,459.407 397.682,453.907 396,447.5C 393.732,439.363 391.066,431.363 388,423.5C 387.601,423.728 387.435,424.062 387.5,424.5C 385.462,420.06 383.796,415.393 382.5,410.5C 383.097,410.265 383.43,409.765 383.5,409C 381.975,404.403 380.308,400.57 378.5,397.5C 377.662,397.158 377.328,396.492 377.5,395.5C 378.097,395.265 378.43,394.765 378.5,394C 376.466,388.898 374.633,383.731 373,378.5C 372.601,378.728 372.435,379.062 372.5,379.5C 371.662,379.158 371.328,378.492 371.5,377.5C 372.043,377.44 372.376,377.107 372.5,376.5C 371.033,372.931 369.866,369.264 369,365.5C 365.483,354.691 361.65,344.691 357.5,335.5C 356.662,335.158 356.328,334.492 356.5,333.5C 357.097,333.265 357.43,332.765 357.5,332C 355.975,327.403 354.308,323.57 352.5,320.5C 351.662,320.158 351.328,319.492 351.5,318.5C 352.097,318.265 352.43,317.765 352.5,317C 346.864,302.757 342.03,288.257 338,273.5C 334.819,263.688 331.319,254.688 327.5,246.5C 326.662,246.158 326.328,245.492 326.5,244.5C 327.097,244.265 327.43,243.765 327.5,243C 323.904,233.307 320.737,223.474 318,213.5C 317.31,212.262 316.81,212.262 316.5,213.5C 315.662,213.158 315.328,212.492 315.5,211.5C 316.043,211.44 316.376,211.107 316.5,210.5C 306.966,181.732 297.133,153.066 287,124.5C 283.401,118.966 280.068,113.299 277,107.5C 264.524,87.6891 247.691,72.8557 226.5,63C 222.727,61.6311 218.894,60.4645 215,59.5C 214.235,59.5699 213.735,59.9033 213.5,60.5C 199.846,57.8601 186.179,57.8601 172.5,60.5C 172.083,59.8761 171.416,59.5427 170.5,59.5C 166.869,60.4911 163.202,61.3244 159.5,62C 158.262,62.69 158.262,63.19 159.5,63.5C 159.158,64.3382 158.492,64.6716 157.5,64.5C 157.44,63.9569 157.107,63.6236 156.5,63.5C 149.05,66.3914 141.717,69.5581 134.5,73C 124.004,79.3465 113.671,85.8465 103.5,92.5C 103.5,92.1667 103.5,91.8333 103.5,91.5C 120.441,63.3878 142.441,39.8878 169.5,21C 168.906,20.5357 168.239,20.369 167.5,20.5C 167.973,19.0937 168.973,18.427 170.5,18.5C 170.56,19.0431 170.893,19.3764 171.5,19.5C 175.66,17.5875 179.66,15.4209 183.5,13C 183.272,12.6012 182.938,12.4346 182.5,12.5C 182.842,11.6618 183.508,11.3284 184.5,11.5C 184.735,12.0967 185.235,12.4301 186,12.5C 192.638,9.73173 199.472,7.56506 206.5,6C 205.552,5.51722 204.552,5.35055 203.5,5.5 Z"/></g>
<g><path style="opacity:1" fill="#dad9de" d="M 203.5,5.5 C 204.552,5.35055 205.552,5.51722 206.5,6C 199.472,7.56506 192.638,9.73173 186,12.5C 185.235,12.4301 184.735,12.0967 184.5,11.5C 190.435,8.29972 196.768,6.29972 203.5,5.5 Z"/></g>
<g><path style="opacity:1" fill="#d8d7db" d="M 182.5,12.5 C 182.938,12.4346 183.272,12.6012 183.5,13C 179.66,15.4209 175.66,17.5875 171.5,19.5C 170.893,19.3764 170.56,19.0431 170.5,18.5C 174.182,15.9922 178.182,13.9922 182.5,12.5 Z"/></g>
<g><path style="opacity:0.804" fill="#d6d6df" d="M 327.5,87.5 C 323.012,75.8554 317.178,64.1887 310,52.5C 284.466,17.9388 250.299,1.9388 207.5,4.5C 262.076,0.700926 300.576,23.7009 323,73.5C 324.802,78.0952 326.302,82.7619 327.5,87.5 Z"/></g>
<g><path style="opacity:0.871" fill="#d8d8de" d="M 172.5,60.5 C 168.196,61.6275 163.862,62.6275 159.5,63.5C 158.262,63.19 158.262,62.69 159.5,62C 163.202,61.3244 166.869,60.4911 170.5,59.5C 171.416,59.5427 172.083,59.8761 172.5,60.5 Z"/></g>
<g><path style="opacity:0.867" fill="#dcdce0" d="M 167.5,20.5 C 168.239,20.369 168.906,20.5357 169.5,21C 142.441,39.8878 120.441,63.3878 103.5,91.5C 105.524,85.7878 108.357,80.4545 112,75.5C 124.414,59.0838 138.247,43.9171 153.5,30C 158.066,26.5865 162.732,23.4198 167.5,20.5 Z"/></g>
<g><path style="opacity:0.882" fill="#dddce1" d="M 157.5,64.5 C 138.447,72.2776 120.614,82.2776 104,94.5C 102.62,93.7445 102.453,93.0778 103.5,92.5C 113.671,85.8465 124.004,79.3465 134.5,73C 141.717,69.5581 149.05,66.3914 156.5,63.5C 157.107,63.6236 157.44,63.9569 157.5,64.5 Z"/></g>
<g><path style="opacity:0.559" fill="#dddce2" d="M 192.5,76.5 C 185.477,77.4637 178.311,78.4637 171,79.5C 169.615,79.4857 168.449,79.1524 167.5,78.5C 175.749,76.9499 184.082,76.2832 192.5,76.5 Z"/></g>
<g><path style="opacity:1" fill="#fefdfe" d="M 192.5,76.5 C 198.076,76.8711 203.409,77.8711 208.5,79.5C 236.731,89.7643 258.897,109.098 275,137.5C 275.667,138.5 275.667,139.5 275,140.5C 263.917,159.001 252.584,177.334 241,195.5C 239.837,193.715 239.17,191.715 239,189.5C 238.667,176.833 238.333,164.167 238,151.5C 237.79,149.942 237.29,148.609 236.5,147.5C 235.842,146.602 235.176,145.602 234.5,144.5C 233.914,144.709 233.414,145.043 233,145.5C 228.852,154.826 225.019,164.16 221.5,173.5C 219.365,175.542 217.698,178.542 216.5,182.5C 216.624,183.107 216.957,183.44 217.5,183.5C 217.672,184.492 217.338,185.158 216.5,185.5C 213.397,190.369 210.564,196.036 208,202.5C 206.29,208.338 204.123,214.005 201.5,219.5C 201.624,220.107 201.957,220.44 202.5,220.5C 202.5,221.167 202.167,221.5 201.5,221.5C 199.469,224.554 197.802,227.887 196.5,231.5C 196.624,232.107 196.957,232.44 197.5,232.5C 197.5,233.167 197.167,233.5 196.5,233.5C 190.315,244.825 185.648,256.492 182.5,268.5C 181.204,272.739 179.538,276.739 177.5,280.5C 175.147,283.73 172.981,287.73 171,292.5C 163.87,309.753 157.037,327.086 150.5,344.5C 150.737,345.791 150.404,346.791 149.5,347.5C 140.001,368.513 131.001,389.847 122.5,411.5C 133.04,412.934 143.54,414.601 154,416.5C 155.07,416.472 155.903,416.139 156.5,415.5C 159.33,415.963 161.997,416.629 164.5,417.5C 171.591,420.617 179.425,423.617 188,426.5C 188.765,426.43 189.265,426.097 189.5,425.5C 190.492,425.328 191.158,425.662 191.5,426.5C 190.262,426.81 190.262,427.31 191.5,428C 197.66,429.997 203.16,433.164 208,437.5C 208.399,437.272 208.565,436.938 208.5,436.5C 209.833,438.167 209.833,439.833 208.5,441.5C 201.067,449.442 193.067,457.608 184.5,466C 182.797,466.745 181.13,467.579 179.5,468.5C 171.383,464.942 163.383,461.109 155.5,457C 146.769,454.201 138.103,451.201 129.5,448C 120.024,446.038 110.524,444.205 101,442.5C 99.9302,442.528 99.0968,442.861 98.5,443.5C 86.8333,443.5 75.1667,443.5 63.5,443.5C 62.7261,442.853 61.7261,442.52 60.5,442.5C 54.2225,443.206 48.2225,444.539 42.5,446.5C 39.2722,447.546 35.9389,448.212 32.5,448.5C 24.4413,450.464 16.6079,453.131 9,456.5C 7.74254,456.15 7.40921,455.483 8,454.5C 28.2484,438.482 50.0817,426.482 73.5,418.5C 77.6538,416.926 81.9871,415.592 86.5,414.5C 86.81,415.738 87.31,415.738 88,414.5C 93.4246,402.647 98.5913,390.647 103.5,378.5C 103.376,377.893 103.043,377.56 102.5,377.5C 102.328,376.508 102.662,375.842 103.5,375.5C 104.97,374.775 106.136,373.109 107,370.5C 119.385,340.062 132.051,309.729 145,279.5C 145.74,278.251 145.573,277.251 144.5,276.5C 144.328,275.508 144.662,274.842 145.5,274.5C 147.294,273.07 148.794,270.737 150,267.5C 151.402,263.793 152.902,260.126 154.5,256.5C 154.376,255.893 154.043,255.56 153.5,255.5C 153.328,254.508 153.662,253.842 154.5,253.5C 158.068,248.924 160.901,243.257 163,236.5C 163.695,234.278 164.528,232.111 165.5,230C 165.43,229.235 165.097,228.735 164.5,228.5C 166.796,221.927 169.462,215.594 172.5,209.5C 172.393,211.379 172.893,211.712 174,210.5C 176.5,204.167 179,197.833 181.5,191.5C 181.376,190.893 181.043,190.56 180.5,190.5C 181.796,186.261 183.462,182.261 185.5,178.5C 188.881,174.106 191.715,168.773 194,162.5C 194.695,160.278 195.528,158.111 196.5,156C 196.43,155.235 196.097,154.735 195.5,154.5C 196.93,150.646 198.597,146.979 200.5,143.5C 200.435,143.938 200.601,144.272 201,144.5C 204.225,137.492 207.058,130.325 209.5,123C 202.393,115.782 193.727,111.782 183.5,111C 172.409,110.163 161.409,110.829 150.5,113C 145.34,114.144 141.007,115.644 137.5,117.5C 137.158,118.338 136.492,118.672 135.5,118.5C 135.44,117.957 135.107,117.624 134.5,117.5C 114.714,124.394 96.0477,133.394 78.5,144.5C 77.9569,144.44 77.6236,144.107 77.5,143.5C 82,135.167 86.5,126.833 91,118.5C 112.886,99.4726 138.053,86.6393 166.5,80C 165.552,79.5172 164.552,79.3505 163.5,79.5C 164.568,78.5655 165.901,78.2322 167.5,78.5C 168.449,79.1524 169.615,79.4857 171,79.5C 178.311,78.4637 185.477,77.4637 192.5,76.5 Z"/></g>
<g><path style="opacity:0.973" fill="#dad9df" d="M 163.5,79.5 C 164.552,79.3505 165.552,79.5172 166.5,80C 138.053,86.6393 112.886,99.4726 91,118.5C 86.5,126.833 82,135.167 77.5,143.5C 77.6236,144.107 77.9569,144.44 78.5,144.5C 77.4288,146.377 76.0955,147.044 74.5,146.5C 79.7642,134.132 86.4308,122.632 94.5,112C 115.179,96.3282 138.179,85.4949 163.5,79.5 Z"/></g>
<g><path style="opacity:0.62" fill="#d6d5de" d="M 328.5,89.5 C 330.029,93.4214 331.363,97.4214 332.5,101.5C 332.565,101.938 332.399,102.272 332,102.5C 329.404,98.2661 328.238,93.9327 328.5,89.5 Z"/></g>
<g><path style="opacity:0.718" fill="#d5d5dd" d="M 333.5,103.5 C 337.144,114.08 340.478,124.747 343.5,135.5C 341.724,133.291 340.224,130.291 339,126.5C 337.602,119.972 335.602,113.639 333,107.5C 332.235,105.934 332.402,104.601 333.5,103.5 Z"/></g>
<g><path style="opacity:0.849" fill="#dbdae0" d="M 200.5,143.5 C 202.628,137.12 204.961,130.786 207.5,124.5C 207.124,122.617 206.124,121.117 204.5,120C 199.166,116.832 193.499,114.499 187.5,113C 177.833,112.333 168.167,112.333 158.5,113C 151.459,114.405 144.459,115.905 137.5,117.5C 141.007,115.644 145.34,114.144 150.5,113C 161.409,110.829 172.409,110.163 183.5,111C 193.727,111.782 202.393,115.782 209.5,123C 207.058,130.325 204.225,137.492 201,144.5C 200.601,144.272 200.435,143.938 200.5,143.5 Z"/></g>
<g><path style="opacity:0.969" fill="#d7d6dc" d="M 135.5,118.5 C 115.878,125.811 96.878,134.478 78.5,144.5C 96.0477,133.394 114.714,124.394 134.5,117.5C 135.107,117.624 135.44,117.957 135.5,118.5 Z"/></g>
<g><path style="opacity:0.967" fill="#d8d7e0" d="M 213.5,60.5 C 213.735,59.9033 214.235,59.5699 215,59.5C 218.894,60.4645 222.727,61.6311 226.5,63C 247.691,72.8557 264.524,87.6891 277,107.5C 280.068,113.299 283.401,118.966 287,124.5C 297.133,153.066 306.966,181.732 316.5,210.5C 316.376,211.107 316.043,211.44 315.5,211.5C 306.452,186.726 297.952,161.726 290,136.5C 280.134,111.983 264.968,91.483 244.5,75C 234.914,68.5401 224.581,63.7068 213.5,60.5 Z"/></g>
<g><path style="opacity:0.82" fill="#d5d5e0" d="M 344.5,137.5 C 348.074,146.222 351.074,155.222 353.5,164.5C 349.85,156.825 346.516,148.325 343.5,139C 343.57,138.235 343.903,137.735 344.5,137.5 Z"/></g>
<g><path style="opacity:0.757" fill="#d4d4d8" d="M 195.5,154.5 C 196.097,154.735 196.43,155.235 196.5,156C 195.528,158.111 194.695,160.278 194,162.5C 191.715,168.773 188.881,174.106 185.5,178.5C 188.284,170.266 191.617,162.266 195.5,154.5 Z"/></g>
<g><path style="opacity:0.8" fill="#d0cfd4" d="M 221.5,173.5 C 220.718,177.063 219.384,180.397 217.5,183.5C 216.957,183.44 216.624,183.107 216.5,182.5C 217.698,178.542 219.365,175.542 221.5,173.5 Z"/></g>
<g><path style="opacity:0.831" fill="#d8d8e3" d="M 208.5,79.5 C 220.771,81.9688 231.771,87.1355 241.5,95C 255.161,106.661 266.661,120.161 276,135.5C 276.841,139.12 276.174,142.454 274,145.5C 262.989,162.863 251.989,180.196 241,197.5C 240.228,197.355 239.561,197.022 239,196.5C 238.206,193.529 237.539,190.529 237,187.5C 236.5,174.171 236.333,160.837 236.5,147.5C 237.29,148.609 237.79,149.942 238,151.5C 238.333,164.167 238.667,176.833 239,189.5C 239.17,191.715 239.837,193.715 241,195.5C 252.584,177.334 263.917,159.001 275,140.5C 275.667,139.5 275.667,138.5 275,137.5C 258.897,109.098 236.731,89.7643 208.5,79.5 Z"/></g>
<g><path style="opacity:1" fill="#d3d3d6" d="M 180.5,190.5 C 181.043,190.56 181.376,190.893 181.5,191.5C 179,197.833 176.5,204.167 174,210.5C 172.893,211.712 172.393,211.379 172.5,209.5C 174.93,202.984 177.597,196.65 180.5,190.5 Z"/></g>
<g><path style="opacity:0.718" fill="#d2d1d5" d="M 216.5,185.5 C 212.108,197.283 207.441,208.95 202.5,220.5C 201.957,220.44 201.624,220.107 201.5,219.5C 204.123,214.005 206.29,208.338 208,202.5C 210.564,196.036 213.397,190.369 216.5,185.5 Z"/></g>
<g><path style="opacity:0.796" fill="#d7d7e3" d="M 354.5,166.5 C 363.421,191.264 371.755,216.264 379.5,241.5C 379.565,241.938 379.399,242.272 379,242.5C 370.495,217.651 361.995,192.818 353.5,168C 353.57,167.235 353.903,166.735 354.5,166.5 Z"/></g>
<g><path style="opacity:0.301" fill="#f8f5f4" d="M 215.5,220.5 C 215.56,219.957 215.893,219.624 216.5,219.5C 217.265,220.612 218.265,221.279 219.5,221.5C 219.5,222.167 219.5,222.833 219.5,223.5C 219.5,224.5 219.5,225.5 219.5,226.5C 218.323,228.679 217.323,231.013 216.5,233.5C 215.833,233.5 215.5,233.833 215.5,234.5C 213.97,235.211 212.637,236.211 211.5,237.5C 212.038,235.883 212.371,234.216 212.5,232.5C 215.05,228.717 216.05,224.717 215.5,220.5 Z"/></g>
<g><path style="opacity:0.816" fill="#dcc0af" d="M 237.5,223.5 C 239.309,222.709 241.309,222.709 243.5,223.5C 243.142,226.689 242.475,229.689 241.5,232.5C 241.5,229.833 241.5,227.167 241.5,224.5C 240.041,224.567 238.708,224.234 237.5,223.5 Z"/></g>
<g><path style="opacity:0.604" fill="#e0c1ac" d="M 287.5,228.5 C 287.067,225.741 285.4,224.408 282.5,224.5C 282.216,226.415 282.549,228.081 283.5,229.5C 283.5,232.5 283.5,235.5 283.5,238.5C 281.969,233.75 281.302,228.75 281.5,223.5C 283.5,223.5 285.5,223.5 287.5,223.5C 287.5,225.167 287.5,226.833 287.5,228.5 Z"/></g>
<g><path style="opacity:0.918" fill="#ceb294" d="M 305.5,226.5 C 304.626,224.31 302.959,223.31 300.5,223.5C 301.092,226.127 301.425,228.794 301.5,231.5C 300.13,228.381 299.13,225.048 298.5,221.5C 300.527,221.338 302.527,221.505 304.5,222C 305.38,223.356 305.714,224.856 305.5,226.5 Z"/></g>
<g><path style="opacity:0.671" fill="#d2d1d6" d="M 326.5,244.5 C 322.769,234.305 319.435,223.972 316.5,213.5C 316.81,212.262 317.31,212.262 318,213.5C 320.737,223.474 323.904,233.307 327.5,243C 327.43,243.765 327.097,244.265 326.5,244.5 Z"/></g>
<g><path style="opacity:0.961" fill="#c8ad9a" d="M 231.5,235.5 C 231.833,231.5 232.167,227.5 232.5,223.5C 231.041,223.433 229.708,223.766 228.5,224.5C 228.791,223.351 229.624,222.684 231,222.5C 232.971,222.281 234.138,223.115 234.5,225C 233.551,228.645 232.551,232.145 231.5,235.5 Z"/></g>
<g><path style="opacity:0.357" fill="#ebd7c6" d="M 277.5,225.5 C 276.167,225.5 274.833,225.5 273.5,225.5C 273.5,228.5 273.5,231.5 273.5,234.5C 272.521,231.375 272.187,228.042 272.5,224.5C 274.415,224.216 276.081,224.549 277.5,225.5 Z"/></g>
<g><path style="opacity:0.78" fill="#c6a999" d="M 219.5,221.5 C 221.5,221.5 223.5,221.5 225.5,221.5C 225.706,224.495 225.04,227.162 223.5,229.5C 223.5,227.5 223.5,225.5 223.5,223.5C 222.167,223.5 220.833,223.5 219.5,223.5C 219.5,222.833 219.5,222.167 219.5,221.5 Z"/></g>
<g><path style="opacity:1" fill="#e7af74" d="M 231.5,235.5 C 231.5,236.833 231.5,238.167 231.5,239.5C 230.833,239.5 230.167,239.5 229.5,239.5C 230.331,235.524 230.497,231.524 230,227.5C 229.583,228.756 228.75,229.423 227.5,229.5C 227.366,227.708 227.699,226.042 228.5,224.5C 229.708,223.766 231.041,223.433 232.5,223.5C 232.167,227.5 231.833,231.5 231.5,235.5 Z"/></g>
<g><path style="opacity:0.122" fill="#eadcca" d="M 291.5,223.5 C 291.5,225.167 291.5,226.833 291.5,228.5C 290.766,227.122 290.099,225.622 289.5,224C 290.094,223.536 290.761,223.369 291.5,223.5 Z"/></g>
<g><path style="opacity:1" fill="#a6949f" d="M 215.5,220.5 C 216.05,224.717 215.05,228.717 212.5,232.5C 211.766,231.292 211.433,229.959 211.5,228.5C 212.326,225.515 213.659,222.849 215.5,220.5 Z"/></g>
<g><path style="opacity:0.867" fill="#cd9d70" d="M 259.5,225.5 C 259.5,226.167 259.5,226.833 259.5,227.5C 258.85,227.196 258.183,226.863 257.5,226.5C 256.833,230.982 256.166,235.316 255.5,239.5C 255.5,234.833 255.5,230.167 255.5,225.5C 256.833,225.5 258.167,225.5 259.5,225.5 Z"/></g>
<g><path style="opacity:0.251" fill="#f3e0d1" d="M 268.5,225.5 C 267.167,225.5 265.833,225.5 264.5,225.5C 264.5,232.167 264.5,238.833 264.5,245.5C 263.509,238.687 263.175,231.687 263.5,224.5C 265.415,224.216 267.081,224.549 268.5,225.5 Z"/></g>
<g><path style="opacity:0.714" fill="#cdccd2" d="M 201.5,221.5 C 200.956,225.466 199.623,229.133 197.5,232.5C 196.957,232.44 196.624,232.107 196.5,231.5C 197.802,227.887 199.469,224.554 201.5,221.5 Z"/></g>
<g><path style="opacity:1" fill="#dfba9a" d="M 249.5,248.5 C 249.5,246.5 249.5,244.5 249.5,242.5C 249.916,237.507 250.249,232.507 250.5,227.5C 249.5,227.5 248.5,227.5 247.5,227.5C 247.678,231.122 247.011,234.456 245.5,237.5C 245.5,233.167 245.5,228.833 245.5,224.5C 247.527,224.338 249.527,224.505 251.5,225C 251.957,225.414 252.291,225.914 252.5,226.5C 251.386,233.947 250.386,241.28 249.5,248.5 Z"/></g>
<g><path style="opacity:0.192" fill="#eddccb" d="M 259.5,225.5 C 258.167,225.5 256.833,225.5 255.5,225.5C 255.5,230.167 255.5,234.833 255.5,239.5C 255.5,241.833 255.5,244.167 255.5,246.5C 255.167,246.5 254.833,246.5 254.5,246.5C 254.5,239.167 254.5,231.833 254.5,224.5C 256.415,224.216 258.081,224.549 259.5,225.5 Z"/></g>
<g><path style="opacity:0.263" fill="#e4d1c1" d="M 291.5,223.5 C 292.919,222.549 294.585,222.216 296.5,222.5C 296.963,225.482 297.296,228.482 297.5,231.5C 296.833,230.833 296.167,230.167 295.5,229.5C 295.5,228.833 295.5,228.167 295.5,227.5C 295.5,226.167 295.5,224.833 295.5,223.5C 294.167,223.5 292.833,223.5 291.5,223.5 Z"/></g>
<g><path style="opacity:0.722" fill="#d1b6a4" d="M 305.5,226.5 C 306.924,228.515 307.59,230.848 307.5,233.5C 305.837,231.562 305.171,229.228 305.5,226.5 Z"/></g>
<g><path style="opacity:1" fill="#d7ac88" d="M 219.5,226.5 C 219.274,230.292 218.44,233.959 217,237.5C 216.617,238.056 216.117,238.389 215.5,238.5C 215.5,237.167 215.5,235.833 215.5,234.5C 216.167,234.5 216.5,234.167 216.5,233.5C 217.323,231.013 218.323,228.679 219.5,226.5 Z"/></g>
<g><path style="opacity:0.867" fill="#d1a273" d="M 277.5,225.5 C 277.5,226.167 277.5,226.833 277.5,227.5C 275.876,225.863 274.876,226.197 274.5,228.5C 275.385,233.122 275.718,237.789 275.5,242.5C 274.833,240.833 274.167,239.167 273.5,237.5C 273.5,236.5 273.5,235.5 273.5,234.5C 273.5,231.5 273.5,228.5 273.5,225.5C 274.833,225.5 276.167,225.5 277.5,225.5 Z"/></g>
<g><path style="opacity:0.757" fill="#cfb89e" d="M 277.5,225.5 C 280.32,243.268 282.32,261.268 283.5,279.5C 282.778,279.082 282.278,278.416 282,277.5C 280.17,260.898 278.67,244.231 277.5,227.5C 277.5,226.833 277.5,226.167 277.5,225.5 Z"/></g>
<g><path style="opacity:1" fill="#e0b684" d="M 283.5,229.5 C 284.498,237.453 285.832,245.453 287.5,253.5C 286.833,252.833 286.167,252.167 285.5,251.5C 284.093,247.317 283.426,242.984 283.5,238.5C 283.5,235.5 283.5,232.5 283.5,229.5 Z"/></g>
<g><path style="opacity:1" fill="#f8b261" d="M 295.5,227.5 C 295.5,228.167 295.5,228.833 295.5,229.5C 295.662,231.527 295.495,233.527 295,235.5C 292.761,232.066 292.261,228.399 293.5,224.5C 294.176,225.602 294.842,226.602 295.5,227.5 Z"/></g>
<g><path style="opacity:1" fill="#f2b166" d="M 305.5,226.5 C 305.171,229.228 305.837,231.562 307.5,233.5C 307.82,236.898 307.487,240.232 306.5,243.5C 305.943,241.668 304.943,240.335 303.5,239.5C 303.946,236.99 303.28,234.99 301.5,233.5C 301.5,232.833 301.5,232.167 301.5,231.5C 301.425,228.794 301.092,226.127 300.5,223.5C 302.959,223.31 304.626,224.31 305.5,226.5 Z"/></g>
<g><path style="opacity:1" fill="#e7ae75" d="M 287.5,228.5 C 287.5,229.833 287.5,231.167 287.5,232.5C 287.365,237.953 288.032,243.286 289.5,248.5C 288.4,246.723 287.566,244.723 287,242.5C 286.667,238.167 286.333,233.833 286,229.5C 284.886,225.544 284.053,225.544 283.5,229.5C 282.549,228.081 282.216,226.415 282.5,224.5C 285.4,224.408 287.067,225.741 287.5,228.5 Z"/></g>
<g><path style="opacity:1" fill="#e1ad74" d="M 291.5,223.5 C 292.833,223.5 294.167,223.5 295.5,223.5C 295.5,224.833 295.5,226.167 295.5,227.5C 294.842,226.602 294.176,225.602 293.5,224.5C 292.261,228.399 292.761,232.066 295,235.5C 295.495,233.527 295.662,231.527 295.5,229.5C 296.167,230.167 296.833,230.833 297.5,231.5C 297.5,232.167 297.5,232.833 297.5,233.5C 297.5,235.167 297.5,236.833 297.5,238.5C 294.678,235.979 294.011,236.646 295.5,240.5C 294.833,240.167 294.167,239.833 293.5,239.5C 292.083,236.002 291.417,232.335 291.5,228.5C 291.5,226.833 291.5,225.167 291.5,223.5 Z"/></g>
<g><path style="opacity:0.792" fill="#dac1a6" d="M 301.5,233.5 C 303.28,234.99 303.946,236.99 303.5,239.5C 302.262,237.786 301.595,235.786 301.5,233.5 Z"/></g>
<g><path style="opacity:1" fill="#c7aa99" d="M 211.5,228.5 C 211.433,229.959 211.766,231.292 212.5,232.5C 212.371,234.216 212.038,235.883 211.5,237.5C 210.02,243.109 208.02,248.443 205.5,253.5C 205.843,251.517 205.176,250.183 203.5,249.5C 205.403,242.113 208.069,235.113 211.5,228.5 Z"/></g>
<g><path style="opacity:0.6" fill="#e0c19d" d="M 237.5,224.5 C 237.811,229.766 237.145,234.766 235.5,239.5C 235.444,234.269 236.111,229.269 237.5,224.5 Z"/></g>
<g><path style="opacity:0.165" fill="#e7d9c8" d="M 259.5,225.5 C 260.497,225.47 261.164,225.97 261.5,227C 260.854,243.64 260.187,260.14 259.5,276.5C 259.5,270.5 259.5,264.5 259.5,258.5C 259.5,252.167 259.5,245.833 259.5,239.5C 259.5,235.5 259.5,231.5 259.5,227.5C 259.5,226.833 259.5,226.167 259.5,225.5 Z"/></g>
<g><path style="opacity:1" fill="#d0b496" d="M 287.5,232.5 C 291.786,251.88 295.119,271.546 297.5,291.5C 295.695,283.605 293.862,275.605 292,267.5C 291.129,261.158 290.296,254.824 289.5,248.5C 288.032,243.286 287.365,237.953 287.5,232.5 Z"/></g>
<g><path style="opacity:0.894" fill="#dcbb9a" d="M 293.5,239.5 C 294.167,239.833 294.833,240.167 295.5,240.5C 295.5,242.833 295.5,245.167 295.5,247.5C 294.469,245.039 293.802,242.373 293.5,239.5 Z"/></g>
<g><path style="opacity:0.373" fill="#cdcdd0" d="M 196.5,233.5 C 192.123,245.258 187.457,256.924 182.5,268.5C 185.648,256.492 190.315,244.825 196.5,233.5 Z"/></g>
<g><path style="opacity:1" fill="#d9b18b" d="M 215.5,239.5 C 215.543,242.91 215.043,246.243 214,249.5C 213.292,250.381 212.458,251.047 211.5,251.5C 212.664,247.341 213.997,243.341 215.5,239.5 Z"/></g>
<g><path style="opacity:0.796" fill="#ceb19b" d="M 297.5,233.5 C 299.435,238.573 300.768,243.906 301.5,249.5C 299.791,246.045 298.458,242.379 297.5,238.5C 297.5,236.833 297.5,235.167 297.5,233.5 Z"/></g>
<g><path style="opacity:0.455" fill="#e3c6b4" d="M 273.5,237.5 C 274.167,239.167 274.833,240.833 275.5,242.5C 275.5,244.167 275.5,245.833 275.5,247.5C 275.5,249.167 275.5,250.833 275.5,252.5C 274.407,247.694 273.741,242.694 273.5,237.5 Z"/></g>
<g><path style="opacity:0.769" fill="#d4b99c" d="M 309.5,241.5 C 311.806,245.085 313.139,249.085 313.5,253.5C 312.167,250.833 310.833,248.167 309.5,245.5C 309.5,244.167 309.5,242.833 309.5,241.5 Z"/></g>
<g><path style="opacity:0.561" fill="#d7b592" d="M 227.5,229.5 C 227.412,234.536 226.912,239.536 226,244.5C 224.25,252.416 222.084,260.083 219.5,267.5C 221.804,254.639 224.471,241.972 227.5,229.5 Z"/></g>
<g><path style="opacity:1" fill="#d2b698" d="M 241.5,235.5 C 240.794,244.395 239.46,253.061 237.5,261.5C 237.5,260.167 237.5,258.833 237.5,257.5C 237.335,254.15 237.502,250.817 238,247.5C 238.939,243.325 240.105,239.325 241.5,235.5 Z"/></g>
<g><path style="opacity:1" fill="#d5d5d8" d="M 164.5,228.5 C 165.097,228.735 165.43,229.235 165.5,230C 164.528,232.111 163.695,234.278 163,236.5C 160.901,243.257 158.068,248.924 154.5,253.5C 157.559,245.05 160.893,236.716 164.5,228.5 Z"/></g>
<g><path style="opacity:1" fill="#cfaf8a" d="M 249.5,242.5 C 249.5,244.5 249.5,246.5 249.5,248.5C 249.43,256.268 248.763,263.934 247.5,271.5C 247.167,271.5 246.833,271.5 246.5,271.5C 246.608,261.591 247.608,251.924 249.5,242.5 Z"/></g>
<g><path style="opacity:0.733" fill="#e2c4a8" d="M 295.5,247.5 C 296.117,247.611 296.617,247.944 297,248.5C 297.498,251.482 297.665,254.482 297.5,257.5C 296.419,254.373 295.753,251.04 295.5,247.5 Z"/></g>
<g><path style="opacity:0.969" fill="#d2b38f" d="M 245.5,238.5 C 245.666,244.176 245.499,249.843 245,255.5C 244.617,256.056 244.117,256.389 243.5,256.5C 243.388,250.274 244.054,244.274 245.5,238.5 Z"/></g>
<g><path style="opacity:0.627" fill="#ddb489" d="M 307.5,233.5 C 308.768,235.905 309.435,238.572 309.5,241.5C 309.5,242.833 309.5,244.167 309.5,245.5C 308.883,245.389 308.383,245.056 308,244.5C 307.333,246.167 307.333,247.833 308,249.5C 312.709,265.306 317.209,281.306 321.5,297.5C 321.5,298.833 321.5,300.167 321.5,301.5C 315.387,280.988 309.387,260.322 303.5,239.5C 304.943,240.335 305.943,241.668 306.5,243.5C 307.487,240.232 307.82,236.898 307.5,233.5 Z"/></g>
<g><path style="opacity:1" fill="#dbb273" d="M 203.5,249.5 C 205.176,250.183 205.843,251.517 205.5,253.5C 205.606,256.079 204.939,258.412 203.5,260.5C 202.244,260.539 201.244,260.039 200.5,259C 201.38,257.644 201.714,256.144 201.5,254.5C 201.402,252.447 202.069,250.78 203.5,249.5 Z"/></g>
<g><path style="opacity:0.941" fill="#d2b595" d="M 211.5,252.5 C 210.285,260.461 208.285,268.127 205.5,275.5C 206.719,267.53 208.719,259.863 211.5,252.5 Z"/></g>
<g><path style="opacity:0.824" fill="#d6b89e" d="M 229.5,239.5 C 230.167,239.5 230.833,239.5 231.5,239.5C 228.401,252.597 225.401,265.597 222.5,278.5C 224.244,265.393 226.577,252.393 229.5,239.5 Z"/></g>
<g><path style="opacity:0.976" fill="#dfb794" d="M 275.5,247.5 C 276.222,247.918 276.722,248.584 277,249.5C 277.946,265.503 278.779,281.503 279.5,297.5C 277.275,282.725 275.942,267.725 275.5,252.5C 275.5,250.833 275.5,249.167 275.5,247.5 Z"/></g>
<g><path style="opacity:0.988" fill="#d2b290" d="M 301.5,250.5 C 308.104,276.926 314.104,303.593 319.5,330.5C 318.12,330.038 317.453,329.038 317.5,327.5C 313.182,307.887 308.682,288.22 304,268.5C 302.199,262.63 301.365,256.63 301.5,250.5 Z"/></g>
<g><path style="opacity:0.725" fill="#d6d5d9" d="M 153.5,255.5 C 154.043,255.56 154.376,255.893 154.5,256.5C 152.902,260.126 151.402,263.793 150,267.5C 148.794,270.737 147.294,273.07 145.5,274.5C 147.766,268.045 150.433,261.712 153.5,255.5 Z"/></g>
<g><path style="opacity:0.988" fill="#d6b693" d="M 235.5,240.5 C 235.029,250.925 233.695,261.259 231.5,271.5C 229.985,282.184 228.651,292.85 227.5,303.5C 225.781,311.671 224.281,320.004 223,328.5C 222.617,329.056 222.117,329.389 221.5,329.5C 225.431,299.588 230.098,269.922 235.5,240.5 Z"/></g>
<g><path style="opacity:1" fill="#edb267" d="M 237.5,223.5 C 238.708,224.234 240.041,224.567 241.5,224.5C 241.5,227.167 241.5,229.833 241.5,232.5C 241.5,233.5 241.5,234.5 241.5,235.5C 240.105,239.325 238.939,243.325 238,247.5C 237.502,250.817 237.335,254.15 237.5,257.5C 236.71,258.609 236.21,259.942 236,261.5C 235.501,266.489 235.334,271.489 235.5,276.5C 235.5,276.833 235.5,277.167 235.5,277.5C 234.833,278.167 234.167,278.833 233.5,279.5C 233.34,276.116 233.673,272.783 234.5,269.5C 234.333,268.833 234.167,268.167 234,267.5C 233.066,268.858 232.232,270.192 231.5,271.5C 233.695,261.259 235.029,250.925 235.5,240.5C 235.5,240.167 235.5,239.833 235.5,239.5C 237.145,234.766 237.811,229.766 237.5,224.5C 237.5,224.167 237.5,223.833 237.5,223.5 Z"/></g>
<g><path style="opacity:0.749" fill="#d5b69c" d="M 297.5,258.5 C 299.163,260.438 299.829,262.772 299.5,265.5C 298.388,263.401 297.721,261.067 297.5,258.5 Z"/></g>
<g><path style="opacity:1" fill="#dbaa77" d="M 259.5,239.5 C 259.5,245.833 259.5,252.167 259.5,258.5C 258.833,265.5 258.167,272.5 257.5,279.5C 257.124,265.959 257.791,252.626 259.5,239.5 Z"/></g>
<g><path style="opacity:0.654" fill="#d7bfa5" d="M 259.5,258.5 C 259.5,264.5 259.5,270.5 259.5,276.5C 259.136,305.196 258.469,333.862 257.5,362.5C 257.167,362.5 256.833,362.5 256.5,362.5C 256.746,348.164 257.08,333.831 257.5,319.5C 257.5,306.167 257.5,292.833 257.5,279.5C 258.167,272.5 258.833,265.5 259.5,258.5 Z"/></g>
<g><path style="opacity:0.898" fill="#d4bb96" d="M 237.5,257.5 C 237.5,258.833 237.5,260.167 237.5,261.5C 237.153,266.68 236.487,271.68 235.5,276.5C 235.334,271.489 235.501,266.489 236,261.5C 236.21,259.942 236.71,258.609 237.5,257.5 Z"/></g>
<g><path style="opacity:1" fill="#f2b469" d="M 259.5,227.5 C 259.5,231.5 259.5,235.5 259.5,239.5C 257.791,252.626 257.124,265.959 257.5,279.5C 257.5,292.833 257.5,306.167 257.5,319.5C 255.725,340.638 255.058,361.972 255.5,383.5C 255.167,383.5 254.833,383.5 254.5,383.5C 254.665,380.15 254.498,376.817 254,373.5C 253.821,377.025 253.321,380.359 252.5,383.5C 253.219,365.509 253.552,347.509 253.5,329.5C 253.5,323.5 253.5,317.5 253.5,311.5C 254.58,290.006 255.247,268.339 255.5,246.5C 255.5,244.167 255.5,241.833 255.5,239.5C 256.166,235.316 256.833,230.982 257.5,226.5C 258.183,226.863 258.85,227.196 259.5,227.5 Z"/></g>
<g><path style="opacity:0.475" fill="#d9bba0" d="M 285.5,251.5 C 286.167,252.167 286.833,252.833 287.5,253.5C 288.472,264.982 289.805,276.315 291.5,287.5C 288.656,275.769 286.656,263.769 285.5,251.5 Z"/></g>
<g><path style="opacity:0.831" fill="#d4b48e" d="M 223.5,229.5 C 217.59,254.149 210.924,278.482 203.5,302.5C 204.13,293.084 206.297,284.084 210,275.5C 213.715,262.587 217.049,249.587 220,236.5C 221.021,234.03 222.188,231.696 223.5,229.5 Z"/></g>
<g><path style="opacity:0.898" fill="#d8b894" d="M 299.5,266.5 C 300.117,266.611 300.617,266.944 301,267.5C 303.247,275.727 304.747,284.061 305.5,292.5C 302.656,284.142 300.656,275.476 299.5,266.5 Z"/></g>
<g><path style="opacity:1" fill="#d7bb9d" d="M 268.5,225.5 C 270.47,242.723 271.47,260.056 271.5,277.5C 270.883,277.389 270.383,277.056 270,276.5C 269.645,260.153 268.979,243.82 268,227.5C 267.586,227.043 267.086,226.709 266.5,226.5C 266.167,231.333 265.833,236.167 265.5,241C 266.858,267.15 267.525,293.317 267.5,319.5C 268.099,330.156 268.433,340.823 268.5,351.5C 268.167,351.5 267.833,351.5 267.5,351.5C 266.333,316.172 265.333,280.839 264.5,245.5C 264.5,238.833 264.5,232.167 264.5,225.5C 265.833,225.5 267.167,225.5 268.5,225.5 Z"/></g>
<g><path style="opacity:1" fill="#d8b592" d="M 313.5,253.5 C 317.452,265.222 320.785,277.222 323.5,289.5C 322.065,287.402 320.898,285.069 320,282.5C 318.242,272.634 316.075,262.967 313.5,253.5 Z"/></g>
<g><path style="opacity:1" fill="#f1b461" d="M 219.5,223.5 C 220.833,223.5 222.167,223.5 223.5,223.5C 223.5,225.5 223.5,227.5 223.5,229.5C 222.188,231.696 221.021,234.03 220,236.5C 217.049,249.587 213.715,262.587 210,275.5C 206.297,284.084 204.13,293.084 203.5,302.5C 200.205,306.754 198.872,311.754 199.5,317.5C 199.5,317.833 199.5,318.167 199.5,318.5C 197.787,319.635 197.12,321.302 197.5,323.5C 197.5,323.833 197.5,324.167 197.5,324.5C 196.043,326.242 194.876,328.242 194,330.5C 189.097,349.798 183.764,368.798 178,387.5C 177.281,391.145 176.781,394.812 176.5,398.5C 176.768,400.099 176.434,401.432 175.5,402.5C 174.33,404.279 172.664,405.279 170.5,405.5C 173.072,395.376 175.905,385.376 179,375.5C 179.497,373.19 179.663,370.857 179.5,368.5C 179.5,368.167 179.5,367.833 179.5,367.5C 181.399,363.356 183.232,359.022 185,354.5C 186.567,346.833 188.067,339.167 189.5,331.5C 193.032,325.389 195.032,318.723 195.5,311.5C 195.5,311.167 195.5,310.833 195.5,310.5C 197.163,308.562 197.829,306.228 197.5,303.5C 198.604,302.003 199.604,300.336 200.5,298.5C 202.33,290.85 203.996,283.184 205.5,275.5C 208.285,268.127 210.285,260.461 211.5,252.5C 211.5,252.167 211.5,251.833 211.5,251.5C 212.458,251.047 213.292,250.381 214,249.5C 215.043,246.243 215.543,242.91 215.5,239.5C 215.5,239.167 215.5,238.833 215.5,238.5C 216.117,238.389 216.617,238.056 217,237.5C 218.44,233.959 219.274,230.292 219.5,226.5C 219.5,225.5 219.5,224.5 219.5,223.5 Z"/></g>
<g><path style="opacity:0.424" fill="#dbc5b7" d="M 243.5,258.5 C 243.666,262.846 243.499,267.179 243,271.5C 242.79,273.058 242.29,274.391 241.5,275.5C 241.596,269.627 242.263,263.96 243.5,258.5 Z"/></g>
<g><path style="opacity:0.408" fill="#ddc3a4" d="M 219.5,268.5 C 219.889,271.553 219.223,274.22 217.5,276.5C 217.565,273.572 218.232,270.905 219.5,268.5 Z"/></g>
<g><path style="opacity:1" fill="#f4b266" d="M 309.5,245.5 C 310.833,248.167 312.167,250.833 313.5,253.5C 316.075,262.967 318.242,272.634 320,282.5C 320.898,285.069 322.065,287.402 323.5,289.5C 323.5,291.167 323.5,292.833 323.5,294.5C 323.657,295.873 323.49,297.207 323,298.5C 322.617,297.944 322.117,297.611 321.5,297.5C 317.209,281.306 312.709,265.306 308,249.5C 307.333,247.833 307.333,246.167 308,244.5C 308.383,245.056 308.883,245.389 309.5,245.5 Z"/></g>
<g><path style="opacity:0.69" fill="#d3b290" d="M 205.5,275.5 C 203.996,283.184 202.33,290.85 200.5,298.5C 199.604,300.336 198.604,302.003 197.5,303.5C 199.254,293.805 201.92,284.472 205.5,275.5 Z"/></g>
<g><path style="opacity:1" fill="#cfced3" d="M 351.5,318.5 C 342.899,294.697 334.899,270.697 327.5,246.5C 331.319,254.688 334.819,263.688 338,273.5C 342.03,288.257 346.864,302.757 352.5,317C 352.43,317.765 352.097,318.265 351.5,318.5 Z"/></g>
<g><path style="opacity:1" fill="#d2b38e" d="M 217.5,276.5 C 217.664,279.187 217.497,281.854 217,284.5C 216.722,285.416 216.222,286.082 215.5,286.5C 215.549,282.922 216.215,279.589 217.5,276.5 Z"/></g>
<g><path style="opacity:0.871" fill="#d3b18a" d="M 201.5,264.5 C 198.007,278.648 193.34,292.315 187.5,305.5C 187.337,303.143 187.503,300.81 188,298.5C 192.411,287.095 196.911,275.761 201.5,264.5 Z"/></g>
<g><path style="opacity:0.882" fill="#d7d6df" d="M 380.5,243.5 C 395.894,288.015 410.894,332.681 425.5,377.5C 423.039,372.506 420.372,367.006 417.5,361C 418.022,360.439 418.355,359.772 418.5,359C 405.182,320.704 392.182,282.704 379.5,245C 379.57,244.235 379.903,243.735 380.5,243.5 Z"/></g>
<g><path style="opacity:1" fill="#f0b56a" d="M 289.5,248.5 C 290.296,254.824 291.129,261.158 292,267.5C 293.862,275.605 295.695,283.605 297.5,291.5C 298.655,305.227 300.322,318.894 302.5,332.5C 303.667,338.501 304.834,344.501 306,350.5C 306.383,351.056 306.883,351.389 307.5,351.5C 307.5,351.833 307.5,352.167 307.5,352.5C 307.5,355.5 307.5,358.5 307.5,361.5C 306.736,359.26 305.902,356.927 305,354.5C 304.501,358.821 304.334,363.154 304.5,367.5C 304.167,367.5 303.833,367.5 303.5,367.5C 303.5,367.167 303.5,366.833 303.5,366.5C 303.811,361.234 303.145,356.234 301.5,351.5C 300.341,335.566 298.341,319.733 295.5,304C 294.394,298.968 293.061,294.134 291.5,289.5C 291.5,288.833 291.5,288.167 291.5,287.5C 289.805,276.315 288.472,264.982 287.5,253.5C 285.832,245.453 284.498,237.453 283.5,229.5C 284.053,225.544 284.886,225.544 286,229.5C 286.333,233.833 286.667,238.167 287,242.5C 287.566,244.723 288.4,246.723 289.5,248.5 Z"/></g>
<g><path style="opacity:1" fill="#d7b88e" d="M 235.5,277.5 C 234.018,288.873 232.351,300.207 230.5,311.5C 230.167,311.5 229.833,311.5 229.5,311.5C 229.5,310.167 229.5,308.833 229.5,307.5C 230.614,298.139 231.948,288.806 233.5,279.5C 234.167,278.833 234.833,278.167 235.5,277.5 Z"/></g>
<g><path style="opacity:0.788" fill="#d2b39c" d="M 323.5,289.5 C 324.924,291.515 325.59,293.848 325.5,296.5C 324.833,295.833 324.167,295.167 323.5,294.5C 323.5,292.833 323.5,291.167 323.5,289.5 Z"/></g>
<g><path style="opacity:0.737" fill="#d6b997" d="M 215.5,287.5 C 213.439,299.517 211.272,311.517 209,323.5C 208.722,324.416 208.222,325.082 207.5,325.5C 207.167,325.5 206.833,325.5 206.5,325.5C 209.083,312.621 212.083,299.955 215.5,287.5 Z"/></g>
<g><path style="opacity:1" fill="#f2b563" d="M 229.5,239.5 C 226.577,252.393 224.244,265.393 222.5,278.5C 222.784,280.415 222.451,282.081 221.5,283.5C 218.655,295.459 215.489,307.459 212,319.5C 209.191,332.066 207.025,344.732 205.5,357.5C 204.883,357.611 204.383,357.944 204,358.5C 202.114,364.697 201.28,371.03 201.5,377.5C 197.878,386.942 195.878,396.942 195.5,407.5C 194.609,408.261 193.942,409.261 193.5,410.5C 192.675,411.386 191.675,411.719 190.5,411.5C 192.696,401.32 194.363,390.987 195.5,380.5C 195.5,380.167 195.5,379.833 195.5,379.5C 197.096,377.168 198.262,374.501 199,371.5C 202.157,356.226 204.99,340.893 207.5,325.5C 208.222,325.082 208.722,324.416 209,323.5C 211.272,311.517 213.439,299.517 215.5,287.5C 215.5,287.167 215.5,286.833 215.5,286.5C 216.222,286.082 216.722,285.416 217,284.5C 217.497,281.854 217.664,279.187 217.5,276.5C 219.223,274.22 219.889,271.553 219.5,268.5C 219.5,268.167 219.5,267.833 219.5,267.5C 222.084,260.083 224.25,252.416 226,244.5C 226.912,239.536 227.412,234.536 227.5,229.5C 228.75,229.423 229.583,228.756 230,227.5C 230.497,231.524 230.331,235.524 229.5,239.5 Z"/></g>
<g><path style="opacity:1" fill="#f7b55d" d="M 233.5,279.5 C 231.948,288.806 230.614,298.139 229.5,307.5C 228.778,307.918 228.278,308.584 228,309.5C 227.505,307.527 227.338,305.527 227.5,303.5C 228.651,292.85 229.985,282.184 231.5,271.5C 232.232,270.192 233.066,268.858 234,267.5C 234.167,268.167 234.333,268.833 234.5,269.5C 233.673,272.783 233.34,276.116 233.5,279.5 Z"/></g>
<g><path style="opacity:1" fill="#e8b27a" d="M 323.5,294.5 C 324.167,295.167 324.833,295.833 325.5,296.5C 325.5,297.833 325.5,299.167 325.5,300.5C 324.307,300.97 323.64,301.97 323.5,303.5C 323.719,305.693 324.385,307.693 325.5,309.5C 324.833,309.5 324.167,309.5 323.5,309.5C 322.525,306.933 321.858,304.267 321.5,301.5C 321.5,300.167 321.5,298.833 321.5,297.5C 322.117,297.611 322.617,297.944 323,298.5C 323.49,297.207 323.657,295.873 323.5,294.5 Z"/></g>
<g><path style="opacity:0.263" fill="#edcfb2" d="M 241.5,280.5 C 241.666,286.842 241.5,293.175 241,299.5C 240.722,300.416 240.222,301.082 239.5,301.5C 239.768,294.317 240.435,287.317 241.5,280.5 Z"/></g>
<g><path style="opacity:1" fill="#ecb267" d="M 249.5,242.5 C 247.608,251.924 246.608,261.591 246.5,271.5C 246.18,279.344 245.513,287.011 244.5,294.5C 243.668,302.805 243.335,311.138 243.5,319.5C 243.167,319.5 242.833,319.5 242.5,319.5C 242.666,313.824 242.499,308.157 242,302.5C 241.411,308.348 240.578,314.014 239.5,319.5C 239.5,314.167 239.5,308.833 239.5,303.5C 239.5,302.833 239.5,302.167 239.5,301.5C 240.222,301.082 240.722,300.416 241,299.5C 241.5,293.175 241.666,286.842 241.5,280.5C 241.5,278.833 241.5,277.167 241.5,275.5C 242.29,274.391 242.79,273.058 243,271.5C 243.499,267.179 243.666,262.846 243.5,258.5C 243.5,257.833 243.5,257.167 243.5,256.5C 244.117,256.389 244.617,256.056 245,255.5C 245.499,249.843 245.666,244.176 245.5,238.5C 245.5,238.167 245.5,237.833 245.5,237.5C 247.011,234.456 247.678,231.122 247.5,227.5C 248.5,227.5 249.5,227.5 250.5,227.5C 250.249,232.507 249.916,237.507 249.5,242.5 Z"/></g>
<g><path style="opacity:1" fill="#fcb355" d="M 244.5,294.5 C 243.191,292.429 242.525,289.929 242.5,287C 242.472,283.41 242.972,279.91 244,276.5C 244.499,282.491 244.666,288.491 244.5,294.5 Z"/></g>
<g><path style="opacity:1" fill="#d7d6da" d="M 144.5,276.5 C 145.573,277.251 145.74,278.251 145,279.5C 132.051,309.729 119.385,340.062 107,370.5C 106.136,373.109 104.97,374.775 103.5,375.5C 116.893,342.381 130.56,309.381 144.5,276.5 Z"/></g>
<g><path style="opacity:0.6" fill="#d8c1a6" d="M 284.5,291.5 C 286.07,300.631 287.07,309.964 287.5,319.5C 286.188,317.257 285.522,314.59 285.5,311.5C 284.945,304.842 284.612,298.175 284.5,291.5 Z"/></g>
<g><path style="opacity:0.361" fill="#e5ceb7" d="M 279.5,298.5 C 280.167,300.167 280.833,301.833 281.5,303.5C 281.5,307.833 281.5,312.167 281.5,316.5C 280.318,310.699 279.652,304.699 279.5,298.5 Z"/></g>
<g><path style="opacity:0.267" fill="#ddc4ab" d="M 246.5,271.5 C 246.833,271.5 247.167,271.5 247.5,271.5C 246.999,288.381 245.665,305.047 243.5,321.5C 243.5,320.833 243.5,320.167 243.5,319.5C 243.335,311.138 243.668,302.805 244.5,294.5C 245.513,287.011 246.18,279.344 246.5,271.5 Z"/></g>
<g><path style="opacity:1" fill="#d8bb95" d="M 221.5,283.5 C 216.951,309.44 211.618,335.107 205.5,360.5C 205.5,359.5 205.5,358.5 205.5,357.5C 207.025,344.732 209.191,332.066 212,319.5C 215.489,307.459 218.655,295.459 221.5,283.5 Z"/></g>
<g><path style="opacity:1" fill="#edb46e" d="M 277.5,227.5 C 278.67,244.231 280.17,260.898 282,277.5C 282.278,278.416 282.778,279.082 283.5,279.5C 284.272,283.452 284.605,287.452 284.5,291.5C 284.612,298.175 284.945,304.842 285.5,311.5C 285.522,314.59 286.188,317.257 287.5,319.5C 287.5,321.167 287.5,322.833 287.5,324.5C 287.5,328.167 287.5,331.833 287.5,335.5C 286.532,330.606 285.198,325.939 283.5,321.5C 282.914,315.366 282.248,309.366 281.5,303.5C 280.833,301.833 280.167,300.167 279.5,298.5C 279.5,298.167 279.5,297.833 279.5,297.5C 278.779,281.503 277.946,265.503 277,249.5C 276.722,248.584 276.222,247.918 275.5,247.5C 275.5,245.833 275.5,244.167 275.5,242.5C 275.718,237.789 275.385,233.122 274.5,228.5C 274.876,226.197 275.876,225.863 277.5,227.5 Z"/></g>
<g><path style="opacity:0.956" fill="#d6ae84" d="M 254.5,246.5 C 254.833,246.5 255.167,246.5 255.5,246.5C 255.247,268.339 254.58,290.006 253.5,311.5C 253.5,300.833 253.5,290.167 253.5,279.5C 253.722,268.496 254.056,257.496 254.5,246.5 Z"/></g>
<g><path style="opacity:0.808" fill="#d5b898" d="M 297.5,291.5 C 301.149,311.314 304.482,331.314 307.5,351.5C 306.883,351.389 306.383,351.056 306,350.5C 304.834,344.501 303.667,338.501 302.5,332.5C 300.322,318.894 298.655,305.227 297.5,291.5 Z"/></g>
<g><path style="opacity:0.831" fill="#d1b193" d="M 201.5,254.5 C 201.714,256.144 201.38,257.644 200.5,259C 201.244,260.039 202.244,260.539 203.5,260.5C 203.34,262.153 202.674,263.486 201.5,264.5C 201.719,263.325 201.386,262.325 200.5,261.5C 189.671,285.481 180.504,310.148 173,335.5C 172.098,337.431 170.931,339.097 169.5,340.5C 174.957,324.962 180.124,309.295 185,293.5C 190.001,280.18 195.501,267.18 201.5,254.5 Z"/></g>
<g><path style="opacity:0.788" fill="#ddbb98" d="M 305.5,294.5 C 306.88,294.962 307.547,295.962 307.5,297.5C 309.16,304.462 310.493,311.462 311.5,318.5C 308.656,310.822 306.656,302.822 305.5,294.5 Z"/></g>
<g><path style="opacity:1" fill="#deb38a" d="M 325.5,296.5 C 328.104,302.902 330.104,309.569 331.5,316.5C 328.144,311.776 326.144,306.443 325.5,300.5C 325.5,299.167 325.5,297.833 325.5,296.5 Z"/></g>
<g><path style="opacity:0.439" fill="#ddc3ac" d="M 197.5,303.5 C 197.829,306.228 197.163,308.562 195.5,310.5C 195.41,307.848 196.076,305.515 197.5,303.5 Z"/></g>
<g><path style="opacity:0.565" fill="#d3b990" d="M 203.5,302.5 C 202.406,307.673 201.072,312.673 199.5,317.5C 198.872,311.754 200.205,306.754 203.5,302.5 Z"/></g>
<g><path style="opacity:1" fill="#d9b792" d="M 323.5,309.5 C 324.167,309.5 324.833,309.5 325.5,309.5C 326.376,313.462 327.042,317.462 327.5,321.5C 325.595,317.784 324.261,313.784 323.5,309.5 Z"/></g>
<g><path style="opacity:0.435" fill="#e8d8b6" d="M 229.5,311.5 C 229.833,311.5 230.167,311.5 230.5,311.5C 230.247,315.04 229.581,318.373 228.5,321.5C 228.5,320.5 228.5,319.5 228.5,318.5C 228.448,316.097 228.781,313.764 229.5,311.5 Z"/></g>
<g><path style="opacity:0.745" fill="#d1b18f" d="M 195.5,311.5 C 195.032,318.723 193.032,325.389 189.5,331.5C 190.896,324.569 192.896,317.902 195.5,311.5 Z"/></g>
<g><path style="opacity:0.498" fill="#e6ccbb" d="M 199.5,318.5 C 199.204,320.403 198.537,322.07 197.5,323.5C 197.12,321.302 197.787,319.635 199.5,318.5 Z"/></g>
<g><path style="opacity:1" fill="#edb568" d="M 227.5,303.5 C 227.338,305.527 227.505,307.527 228,309.5C 228.278,308.584 228.778,307.918 229.5,307.5C 229.5,308.833 229.5,310.167 229.5,311.5C 228.781,313.764 228.448,316.097 228.5,318.5C 226.719,322.2 225.719,326.2 225.5,330.5C 225.815,334.371 225.482,338.038 224.5,341.5C 224.665,337.818 224.499,334.152 224,330.5C 223.098,332.927 222.264,335.26 221.5,337.5C 221.5,335.5 221.5,333.5 221.5,331.5C 221.5,330.833 221.5,330.167 221.5,329.5C 222.117,329.389 222.617,329.056 223,328.5C 224.281,320.004 225.781,311.671 227.5,303.5 Z"/></g>
<g><path style="opacity:0.698" fill="#d3b18e" d="M 187.5,306.5 C 185.204,314.391 182.537,322.058 179.5,329.5C 180.699,322.71 182.199,316.043 184,309.5C 184.759,307.937 185.926,306.937 187.5,306.5 Z"/></g>
<g><path style="opacity:1" fill="#e1bd95" d="M 281.5,303.5 C 282.248,309.366 282.914,315.366 283.5,321.5C 284.178,334.903 285.512,348.236 287.5,361.5C 286.833,361.167 286.167,360.833 285.5,360.5C 283.115,345.975 281.781,331.308 281.5,316.5C 281.5,312.167 281.5,307.833 281.5,303.5 Z"/></g>
<g><path style="opacity:0.498" fill="#dfc6aa" d="M 239.5,303.5 C 239.5,308.833 239.5,314.167 239.5,319.5C 238.833,321.167 238.167,322.833 237.5,324.5C 237.578,317.3 238.245,310.3 239.5,303.5 Z"/></g>
<g><path style="opacity:0.675" fill="#debf9f" d="M 311.5,319.5 C 312.725,320.152 313.392,321.319 313.5,323C 314.732,327.76 315.399,332.593 315.5,337.5C 313.322,331.804 311.989,325.804 311.5,319.5 Z"/></g>
<g><path style="opacity:0.196" fill="#d3d2d6" d="M 177.5,280.5 C 169.012,302.132 160.012,323.465 150.5,344.5C 157.037,327.086 163.87,309.753 171,292.5C 172.981,287.73 175.147,283.73 177.5,280.5 Z"/></g>
<g><path style="opacity:0.812" fill="#cfad7d" d="M 228.5,318.5 C 228.5,319.5 228.5,320.5 228.5,321.5C 228.599,324.237 228.265,326.904 227.5,329.5C 226.833,329.833 226.167,330.167 225.5,330.5C 225.719,326.2 226.719,322.2 228.5,318.5 Z"/></g>
<g><path style="opacity:1" fill="#d2ac88" d="M 331.5,316.5 C 333.258,319.854 334.258,323.521 334.5,327.5C 333.883,327.389 333.383,327.056 333,326.5C 332.39,323.173 331.89,319.839 331.5,316.5 Z"/></g>
<g><path style="opacity:1" fill="#cecdd1" d="M 356.5,333.5 C 354.768,329.303 353.435,324.969 352.5,320.5C 354.308,323.57 355.975,327.403 357.5,332C 357.43,332.765 357.097,333.265 356.5,333.5 Z"/></g>
<g><path style="opacity:0.843" fill="#d2b9a2" d="M 242.5,319.5 C 242.833,319.5 243.167,319.5 243.5,319.5C 243.5,320.167 243.5,320.833 243.5,321.5C 243.319,328.691 242.652,335.691 241.5,342.5C 241.5,336.5 241.5,330.5 241.5,324.5C 241.216,322.585 241.549,320.919 242.5,319.5 Z"/></g>
<g><path style="opacity:0.98" fill="#daae71" d="M 239.5,319.5 C 239.473,325.051 238.806,330.384 237.5,335.5C 237.5,331.833 237.5,328.167 237.5,324.5C 238.167,322.833 238.833,321.167 239.5,319.5 Z"/></g>
<g><path style="opacity:0.514" fill="#e3d3bf" d="M 287.5,324.5 C 288.682,330.301 289.348,336.301 289.5,342.5C 288.833,340.167 288.167,337.833 287.5,335.5C 287.5,331.833 287.5,328.167 287.5,324.5 Z"/></g>
<g><path style="opacity:1" fill="#f1b260" d="M 201.5,264.5 C 196.911,275.761 192.411,287.095 188,298.5C 187.503,300.81 187.337,303.143 187.5,305.5C 187.5,305.833 187.5,306.167 187.5,306.5C 185.926,306.937 184.759,307.937 184,309.5C 182.199,316.043 180.699,322.71 179.5,329.5C 179.5,329.833 179.5,330.167 179.5,330.5C 178.25,330.577 177.417,331.244 177,332.5C 173.213,342.024 169.713,351.691 166.5,361.5C 165.571,360.311 165.238,358.978 165.5,357.5C 165.5,355.5 165.5,353.5 165.5,351.5C 168.714,348.702 170.047,345.035 169.5,340.5C 170.931,339.097 172.098,337.431 173,335.5C 180.504,310.148 189.671,285.481 200.5,261.5C 201.386,262.325 201.719,263.325 201.5,264.5 Z"/></g>
<g><path style="opacity:0.933" fill="#d4b697" d="M 189.5,331.5 C 188.067,339.167 186.567,346.833 185,354.5C 183.232,359.022 181.399,363.356 179.5,367.5C 182.415,355.276 185.748,343.276 189.5,331.5 Z"/></g>
<g><path style="opacity:1" fill="#d7be95" d="M 319.5,330.5 C 320.657,333.273 321.324,336.273 321.5,339.5C 319.612,337.012 318.945,334.012 319.5,330.5 Z"/></g>
<g><path style="opacity:1" fill="#dbae80" d="M 267.5,319.5 C 268.314,321.631 268.814,323.964 269,326.5C 269.5,340.163 269.667,353.829 269.5,367.5C 268.512,362.36 268.179,357.026 268.5,351.5C 268.433,340.823 268.099,330.156 267.5,319.5 Z"/></g>
<g><path style="opacity:1" fill="#e0bb97" d="M 291.5,289.5 C 293.061,294.134 294.394,298.968 295.5,304C 298.341,319.733 300.341,335.566 301.5,351.5C 297.688,331.039 294.355,310.373 291.5,289.5 Z"/></g>
<g><path style="opacity:0.6" fill="#e4d0b6" d="M 315.5,339.5 C 317.163,341.438 317.829,343.772 317.5,346.5C 316.388,344.401 315.721,342.067 315.5,339.5 Z"/></g>
<g><path style="opacity:1" fill="#d0ac77" d="M 287.5,335.5 C 288.167,337.833 288.833,340.167 289.5,342.5C 289.5,343.167 289.5,343.833 289.5,344.5C 289.5,346.5 289.5,348.5 289.5,350.5C 287.969,345.75 287.302,340.75 287.5,335.5 Z"/></g>
<g><path style="opacity:1" fill="#d8bea1" d="M 227.5,329.5 C 226.569,340.74 224.903,351.74 222.5,362.5C 223.014,356.178 223.347,349.845 223.5,343.5C 223.328,342.508 223.662,341.842 224.5,341.5C 225.482,338.038 225.815,334.371 225.5,330.5C 226.167,330.167 226.833,329.833 227.5,329.5 Z"/></g>
<g><path style="opacity:1" fill="#d0aa72" d="M 241.5,324.5 C 241.5,330.5 241.5,336.5 241.5,342.5C 240.833,347.167 240.167,351.833 239.5,356.5C 239.589,345.645 240.256,334.979 241.5,324.5 Z"/></g>
<g><path style="opacity:0.361" fill="#e8d5c3" d="M 253.5,279.5 C 253.5,290.167 253.5,300.833 253.5,311.5C 253.5,317.5 253.5,323.5 253.5,329.5C 252.833,335.167 252.167,340.833 251.5,346.5C 251.843,323.997 252.51,301.664 253.5,279.5 Z"/></g>
<g><path style="opacity:1" fill="#e0ba8d" d="M 271.5,277.5 C 272.691,297.657 273.358,317.991 273.5,338.5C 273.5,351.167 273.5,363.833 273.5,376.5C 272.674,372.018 272.174,367.351 272,362.5C 271.5,334.169 271.333,305.835 271.5,277.5 Z"/></g>
<g><path style="opacity:0.816" fill="#d9ba8b" d="M 221.5,331.5 C 221.5,333.5 221.5,335.5 221.5,337.5C 221.638,342.414 220.972,347.081 219.5,351.5C 219.5,349.5 219.5,347.5 219.5,345.5C 219.69,340.63 220.356,335.964 221.5,331.5 Z"/></g>
<g><path style="opacity:1" fill="#d8bb99" d="M 321.5,339.5 C 323.355,345.601 324.689,351.934 325.5,358.5C 324.883,358.389 324.383,358.056 324,357.5C 322.519,351.581 321.686,345.581 321.5,339.5 Z"/></g>
<g><path style="opacity:1" fill="#f7b95e" d="M 224.5,341.5 C 223.662,341.842 223.328,342.508 223.5,343.5C 221.902,351.292 220.902,359.292 220.5,367.5C 219.235,366.486 218.569,364.986 218.5,363C 218.798,360.152 219.131,357.319 219.5,354.5C 219.5,353.5 219.5,352.5 219.5,351.5C 220.972,347.081 221.638,342.414 221.5,337.5C 222.264,335.26 223.098,332.927 224,330.5C 224.499,334.152 224.665,337.818 224.5,341.5 Z"/></g>
<g><path style="opacity:0.78" fill="#ceb298" d="M 169.5,340.5 C 170.047,345.035 168.714,348.702 165.5,351.5C 166.605,347.648 167.938,343.982 169.5,340.5 Z"/></g>
<g><path style="opacity:1" fill="#daba93" d="M 206.5,325.5 C 206.833,325.5 207.167,325.5 207.5,325.5C 204.99,340.893 202.157,356.226 199,371.5C 198.262,374.501 197.096,377.168 195.5,379.5C 198.916,361.419 202.583,343.419 206.5,325.5 Z"/></g>
<g><path style="opacity:0.31" fill="#e1d4be" d="M 241.5,342.5 C 241.665,351.378 240.999,360.045 239.5,368.5C 239.5,368.167 239.5,367.833 239.5,367.5C 239.5,363.833 239.5,360.167 239.5,356.5C 240.167,351.833 240.833,347.167 241.5,342.5 Z"/></g>
<g><path style="opacity:0.157" fill="#f0d4b8" d="M 317.5,347.5 C 318.913,350.219 319.58,353.219 319.5,356.5C 318.087,353.781 317.42,350.781 317.5,347.5 Z"/></g>
<g><path style="opacity:1" fill="#d5ae83" d="M 179.5,330.5 C 175.347,343.451 170.68,356.118 165.5,368.5C 165.662,366.473 165.495,364.473 165,362.5C 164.617,363.056 164.117,363.389 163.5,363.5C 163.259,361.102 163.926,359.102 165.5,357.5C 165.238,358.978 165.571,360.311 166.5,361.5C 169.713,351.691 173.213,342.024 177,332.5C 177.417,331.244 178.25,330.577 179.5,330.5 Z"/></g>
<g><path style="opacity:0.855" fill="#dcc0ab" d="M 219.5,345.5 C 219.5,347.5 219.5,349.5 219.5,351.5C 219.5,352.5 219.5,353.5 219.5,354.5C 218.833,355.5 218.167,356.5 217.5,357.5C 217.344,353.236 218.011,349.236 219.5,345.5 Z"/></g>
<g><path style="opacity:1" fill="#d7b08b" d="M 334.5,327.5 C 339.807,342.102 344.141,357.102 347.5,372.5C 346.249,370.618 345.082,368.618 344,366.5C 340.617,353.517 337.45,340.517 334.5,327.5 Z"/></g>
<g><path style="opacity:1" fill="#dbaf82" d="M 253.5,329.5 C 253.552,347.509 253.219,365.509 252.5,383.5C 252.167,383.5 251.833,383.5 251.5,383.5C 251.5,376.167 251.5,368.833 251.5,361.5C 251.5,356.5 251.5,351.5 251.5,346.5C 252.167,340.833 252.833,335.167 253.5,329.5 Z"/></g>
<g><path style="opacity:1" fill="#d5ad7d" d="M 257.5,319.5 C 257.08,333.831 256.746,348.164 256.5,362.5C 256.825,369.687 256.491,376.687 255.5,383.5C 255.058,361.972 255.725,340.638 257.5,319.5 Z"/></g>
<g><path style="opacity:0.498" fill="#e6caab" d="M 301.5,351.5 C 303.145,356.234 303.811,361.234 303.5,366.5C 301.969,361.75 301.302,356.75 301.5,351.5 Z"/></g>
<g><path style="opacity:0.839" fill="#d2b9a1" d="M 165.5,351.5 C 165.5,353.5 165.5,355.5 165.5,357.5C 163.926,359.102 163.259,361.102 163.5,363.5C 162.416,366.004 161.083,368.337 159.5,370.5C 160.743,363.839 162.743,357.505 165.5,351.5 Z"/></g>
<g><path style="opacity:1" fill="#dab893" d="M 237.5,324.5 C 237.5,328.167 237.5,331.833 237.5,335.5C 237.073,351.064 235.739,366.398 233.5,381.5C 233.5,378.167 233.5,374.833 233.5,371.5C 234.398,355.649 235.732,339.982 237.5,324.5 Z"/></g>
<g><path style="opacity:0.506" fill="#e1d0b5" d="M 289.5,344.5 C 290.889,349.269 291.556,354.269 291.5,359.5C 290.833,357.167 290.167,354.833 289.5,352.5C 289.5,351.833 289.5,351.167 289.5,350.5C 289.5,348.5 289.5,346.5 289.5,344.5 Z"/></g>
<g><path style="opacity:0.992" fill="#cecdd3" d="M 371.5,377.5 C 366.235,363.704 361.568,349.704 357.5,335.5C 361.65,344.691 365.483,354.691 369,365.5C 369.866,369.264 371.033,372.931 372.5,376.5C 372.376,377.107 372.043,377.44 371.5,377.5 Z"/></g>
<g><path style="opacity:1" fill="#dab184" d="M 205.5,357.5 C 205.5,358.5 205.5,359.5 205.5,360.5C 205.634,362.292 205.301,363.958 204.5,365.5C 203.076,367.515 202.41,369.848 202.5,372.5C 202.784,374.415 202.451,376.081 201.5,377.5C 201.28,371.03 202.114,364.697 204,358.5C 204.383,357.944 204.883,357.611 205.5,357.5 Z"/></g>
<g><path style="opacity:0.233" fill="#ecdeca" d="M 267.5,351.5 C 267.833,351.5 268.167,351.5 268.5,351.5C 268.179,357.026 268.512,362.36 269.5,367.5C 269.5,372.833 269.5,378.167 269.5,383.5C 269.5,388.167 269.5,392.833 269.5,397.5C 268.41,382.342 267.743,367.008 267.5,351.5 Z"/></g>
<g><path style="opacity:1" fill="#d4b489" d="M 289.5,352.5 C 290.167,354.833 290.833,357.167 291.5,359.5C 292.542,367.418 293.209,375.418 293.5,383.5C 293.5,386.167 293.5,388.833 293.5,391.5C 291.46,378.716 290.126,365.716 289.5,352.5 Z"/></g>
<g><path style="opacity:0.843" fill="#d6b89e" d="M 319.5,357.5 C 321.163,359.438 321.829,361.772 321.5,364.5C 320.388,362.401 319.721,360.067 319.5,357.5 Z"/></g>
<g><path style="opacity:1" fill="#d5b18a" d="M 197.5,324.5 C 190.792,349.344 183.792,374.011 176.5,398.5C 176.781,394.812 177.281,391.145 178,387.5C 183.764,368.798 189.097,349.798 194,330.5C 194.876,328.242 196.043,326.242 197.5,324.5 Z"/></g>
<g><path style="opacity:1" fill="#dbaa6a" d="M 223.5,343.5 C 223.347,349.845 223.014,356.178 222.5,362.5C 221.833,364.167 221.167,365.833 220.5,367.5C 220.902,359.292 221.902,351.292 223.5,343.5 Z"/></g>
<g><path style="opacity:0.827" fill="#d6bda2" d="M 325.5,358.5 C 327.678,364.196 329.011,370.196 329.5,376.5C 328.046,373.647 327.046,370.647 326.5,367.5C 325.523,364.713 325.19,361.713 325.5,358.5 Z"/></g>
<g><path style="opacity:0.965" fill="#d7b99d" d="M 285.5,360.5 C 286.167,360.833 286.833,361.167 287.5,361.5C 287.602,371.875 288.268,382.209 289.5,392.5C 289.5,392.833 289.5,393.167 289.5,393.5C 288.833,391.833 288.167,390.167 287.5,388.5C 286.579,379.189 285.912,369.856 285.5,360.5 Z"/></g>
<g><path style="opacity:0.824" fill="#cab9a7" d="M 217.5,358.5 C 218.055,362.012 217.388,365.012 215.5,367.5C 215.676,364.273 216.343,361.273 217.5,358.5 Z"/></g>
<g><path style="opacity:1" fill="#dcbe9f" d="M 307.5,352.5 C 308.593,357.306 309.259,362.306 309.5,367.5C 309.167,367.5 308.833,367.5 308.5,367.5C 307.539,365.735 307.205,363.735 307.5,361.5C 307.5,358.5 307.5,355.5 307.5,352.5 Z"/></g>
<g><path style="opacity:0.633" fill="#e1caa8" d="M 222.5,362.5 C 222.31,367.37 221.644,372.036 220.5,376.5C 220.5,373.5 220.5,370.5 220.5,367.5C 221.167,365.833 221.833,364.167 222.5,362.5 Z"/></g>
<g><path style="opacity:0.561" fill="#edcdbb" d="M 204.5,365.5 C 204.59,368.152 203.924,370.485 202.5,372.5C 202.41,369.848 203.076,367.515 204.5,365.5 Z"/></g>
<g><path style="opacity:1" fill="#e3b67a" d="M 219.5,354.5 C 219.131,357.319 218.798,360.152 218.5,363C 218.569,364.986 219.235,366.486 220.5,367.5C 220.5,370.5 220.5,373.5 220.5,376.5C 220.569,381.613 219.903,386.613 218.5,391.5C 218.167,391.5 217.833,391.5 217.5,391.5C 218.001,384.829 218.168,378.163 218,371.5C 217.901,373.653 217.067,375.319 215.5,376.5C 215.5,375.167 215.5,373.833 215.5,372.5C 215.5,370.833 215.5,369.167 215.5,367.5C 217.388,365.012 218.055,362.012 217.5,358.5C 217.5,358.167 217.5,357.833 217.5,357.5C 218.167,356.5 218.833,355.5 219.5,354.5 Z"/></g>
<g><path style="opacity:1" fill="#f4b662" d="M 307.5,361.5 C 307.205,363.735 307.539,365.735 308.5,367.5C 308.335,370.518 308.502,373.518 309,376.5C 310.043,378.833 310.876,381.166 311.5,383.5C 312.092,386.127 312.425,388.794 312.5,391.5C 312.82,394.898 312.487,398.232 311.5,401.5C 310.818,400.757 310.151,400.091 309.5,399.5C 309.665,396.482 309.498,393.482 309,390.5C 308.617,389.944 308.117,389.611 307.5,389.5C 307.5,386.167 307.5,382.833 307.5,379.5C 306.82,375.881 306.32,372.214 306,368.5C 305.617,367.944 305.117,367.611 304.5,367.5C 304.334,363.154 304.501,358.821 305,354.5C 305.902,356.927 306.736,359.26 307.5,361.5 Z"/></g>
<g><path style="opacity:1" fill="#e7bc8d" d="M 303.5,367.5 C 303.833,367.5 304.167,367.5 304.5,367.5C 305.117,367.611 305.617,367.944 306,368.5C 306.32,372.214 306.82,375.881 307.5,379.5C 306.833,379.167 306.167,378.833 305.5,378.5C 304.313,375.054 303.646,371.387 303.5,367.5 Z"/></g>
<g><path style="opacity:0.733" fill="#d3bca4" d="M 309.5,367.5 C 310.657,370.273 311.324,373.273 311.5,376.5C 310.883,376.389 310.383,376.056 310,375.5C 309.503,372.854 309.336,370.187 309.5,367.5 Z"/></g>
<g><path style="opacity:1" fill="#f3b764" d="M 283.5,321.5 C 285.198,325.939 286.532,330.606 287.5,335.5C 287.302,340.75 287.969,345.75 289.5,350.5C 289.5,351.167 289.5,351.833 289.5,352.5C 290.126,365.716 291.46,378.716 293.5,391.5C 293.5,394.167 293.5,396.833 293.5,399.5C 294.001,407.503 294.168,415.503 294,423.5C 292.793,413.87 291.793,404.203 291,394.5C 290.722,393.584 290.222,392.918 289.5,392.5C 288.268,382.209 287.602,371.875 287.5,361.5C 285.512,348.236 284.178,334.903 283.5,321.5 Z"/></g>
<g><path style="opacity:0.855" fill="#bb9e7f" d="M 239.5,367.5 C 239.5,367.833 239.5,368.167 239.5,368.5C 239.5,369.833 239.5,371.167 239.5,372.5C 238.833,374.167 238.167,375.833 237.5,377.5C 237.322,373.878 237.989,370.544 239.5,367.5 Z"/></g>
<g><path style="opacity:1" fill="#ddb995" d="M 321.5,365.5 C 326.243,379.799 330.076,394.465 333,409.5C 333.498,412.817 333.665,416.15 333.5,419.5C 329.085,401.718 325.085,383.718 321.5,365.5 Z"/></g>
<g><path style="opacity:1" fill="#e2b074" d="M 326.5,367.5 C 327.046,370.647 328.046,373.647 329.5,376.5C 329.5,377.833 329.5,379.167 329.5,380.5C 326.965,376.645 325.965,372.312 326.5,367.5 Z"/></g>
<g><path style="opacity:0.518" fill="#dec9b2" d="M 233.5,371.5 C 233.5,374.833 233.5,378.167 233.5,381.5C 233.5,382.167 233.5,382.833 233.5,383.5C 232.833,385.833 232.167,388.167 231.5,390.5C 231.697,383.974 232.364,377.641 233.5,371.5 Z"/></g>
<g><path style="opacity:0.867" fill="#d5b191" d="M 347.5,372.5 C 350.074,378.899 352.074,385.565 353.5,392.5C 351.54,388.714 349.874,384.714 348.5,380.5C 347.52,377.914 347.187,375.247 347.5,372.5 Z"/></g>
<g><path style="opacity:1" fill="#dcbb9a" d="M 201.5,377.5 C 200.118,387.741 198.118,397.741 195.5,407.5C 195.878,396.942 197.878,386.942 201.5,377.5 Z"/></g>
<g><path style="opacity:0.871" fill="#dabf9f" d="M 215.5,372.5 C 215.5,373.833 215.5,375.167 215.5,376.5C 215.655,383.587 214.322,390.253 211.5,396.5C 212.422,388.302 213.755,380.302 215.5,372.5 Z"/></g>
<g><path style="opacity:0.408" fill="#ddd6c4" d="M 239.5,372.5 C 239.184,378.349 238.518,384.016 237.5,389.5C 237.5,387.167 237.5,384.833 237.5,382.5C 237.5,380.833 237.5,379.167 237.5,377.5C 238.167,375.833 238.833,374.167 239.5,372.5 Z"/></g>
<g><path style="opacity:1" fill="#dcc1a6" d="M 305.5,378.5 C 306.167,378.833 306.833,379.167 307.5,379.5C 307.5,382.833 307.5,386.167 307.5,389.5C 306.097,386.091 305.43,382.425 305.5,378.5 Z"/></g>
<g><path style="opacity:1" fill="#d9aa72" d="M 308.5,367.5 C 308.833,367.5 309.167,367.5 309.5,367.5C 309.336,370.187 309.503,372.854 310,375.5C 310.383,376.056 310.883,376.389 311.5,376.5C 311.5,376.833 311.5,377.167 311.5,377.5C 311.5,379.5 311.5,381.5 311.5,383.5C 310.876,381.166 310.043,378.833 309,376.5C 308.502,373.518 308.335,370.518 308.5,367.5 Z"/></g>
<g><path style="opacity:0.816" fill="#d2b79e" d="M 159.5,370.5 C 156.969,380.954 153.969,391.287 150.5,401.5C 152.322,401.169 153.989,400.502 155.5,399.5C 154.043,404.385 151.71,404.718 148.5,400.5C 151.579,390.113 155.246,380.113 159.5,370.5 Z"/></g>
<g><path style="opacity:1" fill="#f2b15e" d="M 165.5,368.5 C 162.253,376.394 159.087,384.394 156,392.5C 155.505,394.473 155.338,396.473 155.5,398.5C 155.5,398.833 155.5,399.167 155.5,399.5C 153.989,400.502 152.322,401.169 150.5,401.5C 153.969,391.287 156.969,380.954 159.5,370.5C 161.083,368.337 162.416,366.004 163.5,363.5C 164.117,363.389 164.617,363.056 165,362.5C 165.495,364.473 165.662,366.473 165.5,368.5 Z"/></g>
<g><path style="opacity:0.655" fill="#e2d4cd" d="M 274.5,368.5 C 276.183,383.967 276.85,399.634 276.5,415.5C 276.167,415.5 275.833,415.5 275.5,415.5C 275.381,399.828 275.047,384.161 274.5,368.5 Z"/></g>
<g><path style="opacity:1" fill="#d0cfd4" d="M 377.5,395.5 C 375.435,390.304 373.768,384.97 372.5,379.5C 372.435,379.062 372.601,378.728 373,378.5C 374.633,383.731 376.466,388.898 378.5,394C 378.43,394.765 378.097,395.265 377.5,395.5 Z"/></g>
<g><path style="opacity:1" fill="#d5b597" d="M 179.5,368.5 C 179.663,370.857 179.497,373.19 179,375.5C 175.905,385.376 173.072,395.376 170.5,405.5C 172.664,405.279 174.33,404.279 175.5,402.5C 175.22,407.831 172.887,408.831 168.5,405.5C 172.03,393.028 175.697,380.694 179.5,368.5 Z"/></g>
<g><path style="opacity:1" fill="#dbba97" d="M 195.5,380.5 C 194.363,390.987 192.696,401.32 190.5,411.5C 191.675,411.719 192.675,411.386 193.5,410.5C 193.942,409.261 194.609,408.261 195.5,407.5C 195.326,409.861 194.993,412.194 194.5,414.5C 191.123,414.661 189.123,413.161 188.5,410C 190.577,399.972 192.91,390.139 195.5,380.5 Z"/></g>
<g><path style="opacity:0.678" fill="#ddc4a7" d="M 311.5,377.5 C 312.972,381.919 313.638,386.586 313.5,391.5C 313.167,391.5 312.833,391.5 312.5,391.5C 312.425,388.794 312.092,386.127 311.5,383.5C 311.5,381.5 311.5,379.5 311.5,377.5 Z"/></g>
<g><path style="opacity:0.769" fill="#d6d6d9" d="M 102.5,377.5 C 103.043,377.56 103.376,377.893 103.5,378.5C 98.5913,390.647 93.4246,402.647 88,414.5C 87.31,415.738 86.81,415.738 86.5,414.5C 91.8506,402.095 97.184,389.762 102.5,377.5 Z"/></g>
<g><path style="opacity:1" fill="#e0ad75" d="M 233.5,383.5 C 234.113,389.271 233.446,394.604 231.5,399.5C 231.5,396.833 231.5,394.167 231.5,391.5C 231.5,391.167 231.5,390.833 231.5,390.5C 232.167,388.167 232.833,385.833 233.5,383.5 Z"/></g>
<g><path style="opacity:1" fill="#cfae8e" d="M 273.5,338.5 C 274.494,348.319 274.827,358.319 274.5,368.5C 275.047,384.161 275.381,399.828 275.5,415.5C 273.971,402.698 273.304,389.698 273.5,376.5C 273.5,363.833 273.5,351.167 273.5,338.5 Z"/></g>
<g><path style="opacity:1" fill="#d3b08d" d="M 165.5,368.5 C 162.768,378.786 159.435,388.786 155.5,398.5C 155.338,396.473 155.505,394.473 156,392.5C 159.087,384.394 162.253,376.394 165.5,368.5 Z"/></g>
<g><path style="opacity:0.58" fill="#d0ad92" d="M 269.5,383.5 C 271.446,388.396 272.113,393.729 271.5,399.5C 271.5,403.5 271.5,407.5 271.5,411.5C 270.833,407.5 270.167,403.5 269.5,399.5C 269.5,398.833 269.5,398.167 269.5,397.5C 269.5,392.833 269.5,388.167 269.5,383.5 Z"/></g>
<g><path style="opacity:1" fill="#d6d5df" d="M 426.5,379.5 C 431.426,393.112 436.26,406.778 441,420.5C 443.194,423.181 446.027,424.681 449.5,425C 453.486,425.499 457.486,425.666 461.5,425.5C 457.904,426.648 452.904,426.814 446.5,426C 444.481,425.55 442.648,424.717 441,423.5C 435.425,409.437 430.258,395.271 425.5,381C 425.57,380.235 425.903,379.735 426.5,379.5 Z"/></g>
<g><path style="opacity:1" fill="#d6b08e" d="M 327.5,324.5 C 329.093,325.348 330.26,326.681 331,328.5C 345.361,378.728 359.528,429.061 373.5,479.5C 374.5,479.5 375.5,479.5 376.5,479.5C 374.41,471.638 372.743,463.638 371.5,455.5C 373.892,462.852 376.226,470.352 378.5,478C 377.356,480.66 375.523,481.493 373,480.5C 357.922,428.437 342.755,376.437 327.5,324.5 Z"/></g>
<g><path style="opacity:0.71" fill="#d1b4a1" d="M 353.5,393.5 C 355.277,396.505 356.277,399.838 356.5,403.5C 354.024,400.712 353.024,397.378 353.5,393.5 Z"/></g>
<g><path style="opacity:0.663" fill="#dbbc9e" d="M 307.5,389.5 C 308.117,389.611 308.617,389.944 309,390.5C 309.498,393.482 309.665,396.482 309.5,399.5C 309.5,400.5 309.5,401.5 309.5,402.5C 307.946,398.433 307.28,394.1 307.5,389.5 Z"/></g>
<g><path style="opacity:0.753" fill="#d9c4b1" d="M 313.5,391.5 C 314.581,394.627 315.247,397.96 315.5,401.5C 314.778,401.082 314.278,400.416 314,399.5C 313.503,396.854 313.336,394.187 313.5,391.5 Z"/></g>
<g><path style="opacity:0.933" fill="#d8b68d" d="M 217.5,391.5 C 217.833,391.5 218.167,391.5 218.5,391.5C 218.425,394.206 218.092,396.873 217.5,399.5C 216.833,399.833 216.167,400.167 215.5,400.5C 215.21,397.215 215.877,394.215 217.5,391.5 Z"/></g>
<g><path style="opacity:1" fill="#e7b173" d="M 271.5,399.5 C 272.724,415.32 273.391,431.32 273.5,447.5C 272.833,440.833 272.167,434.167 271.5,427.5C 271.5,422.167 271.5,416.833 271.5,411.5C 271.5,407.5 271.5,403.5 271.5,399.5 Z"/></g>
<g><path style="opacity:1" fill="#f3b465" d="M 271.5,277.5 C 271.333,305.835 271.5,334.169 272,362.5C 272.174,367.351 272.674,372.018 273.5,376.5C 273.304,389.698 273.971,402.698 275.5,415.5C 275.382,436.674 275.715,457.84 276.5,479C 276.167,484.167 275.833,489.333 275.5,494.5C 274.833,489.349 274.166,484.349 273.5,479.5C 273.5,468.833 273.5,458.167 273.5,447.5C 273.391,431.32 272.724,415.32 271.5,399.5C 272.113,393.729 271.446,388.396 269.5,383.5C 269.5,378.167 269.5,372.833 269.5,367.5C 269.667,353.829 269.5,340.163 269,326.5C 268.814,323.964 268.314,321.631 267.5,319.5C 267.525,293.317 266.858,267.15 265.5,241C 265.833,236.167 266.167,231.333 266.5,226.5C 267.086,226.709 267.586,227.043 268,227.5C 268.979,243.82 269.645,260.153 270,276.5C 270.383,277.056 270.883,277.389 271.5,277.5 Z"/></g>
<g><path style="opacity:1" fill="#f4b364" d="M 325.5,300.5 C 326.144,306.443 328.144,311.776 331.5,316.5C 331.89,319.839 332.39,323.173 333,326.5C 333.383,327.056 333.883,327.389 334.5,327.5C 337.45,340.517 340.617,353.517 344,366.5C 345.082,368.618 346.249,370.618 347.5,372.5C 347.187,375.247 347.52,377.914 348.5,380.5C 349.874,384.714 351.54,388.714 353.5,392.5C 353.5,392.833 353.5,393.167 353.5,393.5C 353.024,397.378 354.024,400.712 356.5,403.5C 356.636,406.35 356.969,409.183 357.5,412C 359.813,418.919 361.813,425.919 363.5,433C 363.684,434.376 364.351,435.209 365.5,435.5C 365.338,437.527 365.505,439.527 366,441.5C 366.739,443.889 367.905,445.889 369.5,447.5C 369.5,447.833 369.5,448.167 369.5,448.5C 369.171,451.228 369.837,453.562 371.5,455.5C 372.743,463.638 374.41,471.638 376.5,479.5C 375.5,479.5 374.5,479.5 373.5,479.5C 359.528,429.061 345.361,378.728 331,328.5C 330.26,326.681 329.093,325.348 327.5,324.5C 327.5,323.5 327.5,322.5 327.5,321.5C 327.042,317.462 326.376,313.462 325.5,309.5C 324.385,307.693 323.719,305.693 323.5,303.5C 323.64,301.97 324.307,300.97 325.5,300.5 Z"/></g>
<g><path style="opacity:0.678" fill="#dac4a6" d="M 237.5,382.5 C 237.5,384.833 237.5,387.167 237.5,389.5C 237.179,398.343 236.512,407.009 235.5,415.5C 235.5,412.833 235.5,410.167 235.5,407.5C 235.732,398.983 236.399,390.65 237.5,382.5 Z"/></g>
<g><path style="opacity:0.749" fill="#d5d4d8" d="M 149.5,347.5 C 141.739,368.361 133.406,389.028 124.5,409.5C 124.709,410.086 125.043,410.586 125.5,411C 135.962,411.766 146.295,413.266 156.5,415.5C 155.903,416.139 155.07,416.472 154,416.5C 143.54,414.601 133.04,412.934 122.5,411.5C 131.001,389.847 140.001,368.513 149.5,347.5 Z"/></g>
<g><path style="opacity:0.788" fill="#e6d0b6" d="M 217.5,399.5 C 217.044,403.664 216.378,407.664 215.5,411.5C 215.5,409.833 215.5,408.167 215.5,406.5C 215.5,404.5 215.5,402.5 215.5,400.5C 216.167,400.167 216.833,399.833 217.5,399.5 Z"/></g>
<g><path style="opacity:0.663" fill="#dcc9af" d="M 293.5,383.5 C 294.636,389.641 295.303,395.974 295.5,402.5C 294.833,401.5 294.167,400.5 293.5,399.5C 293.5,396.833 293.5,394.167 293.5,391.5C 293.5,388.833 293.5,386.167 293.5,383.5 Z"/></g>
<g><path style="opacity:1" fill="#e2ad70" d="M 312.5,391.5 C 312.833,391.5 313.167,391.5 313.5,391.5C 313.336,394.187 313.503,396.854 314,399.5C 314.278,400.416 314.778,401.082 315.5,401.5C 315.5,402.167 315.5,402.833 315.5,403.5C 315.5,405.5 315.5,407.5 315.5,409.5C 314.835,407.631 314.169,405.631 313.5,403.5C 312.599,406.795 312.599,410.128 313.5,413.5C 312.412,410.347 311.078,407.347 309.5,404.5C 309.5,403.833 309.5,403.167 309.5,402.5C 309.5,401.5 309.5,400.5 309.5,399.5C 310.151,400.091 310.818,400.757 311.5,401.5C 312.487,398.232 312.82,394.898 312.5,391.5 Z"/></g>
<g><path style="opacity:1" fill="#f4b55f" d="M 217.5,391.5 C 215.877,394.215 215.21,397.215 215.5,400.5C 215.5,402.5 215.5,404.5 215.5,406.5C 213.775,411.223 212.775,416.223 212.5,421.5C 211.5,421.5 210.5,421.5 209.5,421.5C 209.5,419.5 209.5,417.5 209.5,415.5C 211.453,409.926 212.12,403.926 211.5,397.5C 211.5,397.167 211.5,396.833 211.5,396.5C 214.322,390.253 215.655,383.587 215.5,376.5C 217.067,375.319 217.901,373.653 218,371.5C 218.168,378.163 218.001,384.829 217.5,391.5 Z"/></g>
<g><path style="opacity:1" fill="#cdccd2" d="M 382.5,410.5 C 380.766,406.298 379.433,401.965 378.5,397.5C 380.308,400.57 381.975,404.403 383.5,409C 383.43,409.765 383.097,410.265 382.5,410.5 Z"/></g>
<g><path style="opacity:0.196" fill="#e3cfbb" d="M 287.5,388.5 C 288.167,390.167 288.833,391.833 289.5,393.5C 290.962,402.433 291.629,411.433 291.5,420.5C 289.875,410.009 288.542,399.342 287.5,388.5 Z"/></g>
<g><path style="opacity:1" fill="#dcb48d" d="M 211.5,397.5 C 212.12,403.926 211.453,409.926 209.5,415.5C 209.5,414.167 209.5,412.833 209.5,411.5C 209.69,406.63 210.356,401.964 211.5,397.5 Z"/></g>
<g><path style="opacity:1" fill="#d1ae7f" d="M 215.5,406.5 C 215.5,408.167 215.5,409.833 215.5,411.5C 215.802,414.059 215.468,416.393 214.5,418.5C 213.999,420.246 213.332,421.246 212.5,421.5C 212.775,416.223 213.775,411.223 215.5,406.5 Z"/></g>
<g><path style="opacity:1" fill="#e0be9a" d="M 231.5,391.5 C 231.5,394.167 231.5,396.833 231.5,399.5C 231.743,408.288 231.076,416.955 229.5,425.5C 229.167,425.5 228.833,425.5 228.5,425.5C 229.153,413.989 230.153,402.656 231.5,391.5 Z"/></g>
<g><path style="opacity:0.773" fill="#d3b796" d="M 235.5,407.5 C 235.5,410.167 235.5,412.833 235.5,415.5C 235.319,422.691 234.652,429.691 233.5,436.5C 233.5,432.833 233.5,429.167 233.5,425.5C 233.388,419.274 234.054,413.274 235.5,407.5 Z"/></g>
<g><path style="opacity:1" fill="#d8bda2" d="M 251.5,361.5 C 251.5,368.833 251.5,376.167 251.5,383.5C 251.831,405.007 251.497,426.34 250.5,447.5C 249.512,452.64 249.179,457.974 249.5,463.5C 249.167,463.5 248.833,463.5 248.5,463.5C 248.945,429.324 249.945,395.324 251.5,361.5 Z"/></g>
<g><path style="opacity:1" fill="#d6aa74" d="M 254.5,383.5 C 254.833,383.5 255.167,383.5 255.5,383.5C 255.494,410.172 255.16,436.838 254.5,463.5C 254.167,463.5 253.833,463.5 253.5,463.5C 253.333,436.824 253.667,410.158 254.5,383.5 Z"/></g>
<g><path style="opacity:0.98" fill="#d9b694" d="M 309.5,404.5 C 311.078,407.347 312.412,410.347 313.5,413.5C 316.166,432.83 318.833,452.163 321.5,471.5C 321.5,473.5 321.5,475.5 321.5,477.5C 317.413,453.307 313.413,428.974 309.5,404.5 Z"/></g>
<g><path style="opacity:0.166" fill="#ebdcce" d="M 269.5,399.5 C 270.167,403.5 270.833,407.5 271.5,411.5C 271.5,416.833 271.5,422.167 271.5,427.5C 271.5,427.833 271.5,428.167 271.5,428.5C 270.302,419.021 269.636,409.354 269.5,399.5 Z"/></g>
<g><path style="opacity:0.296" fill="#e9dccb" d="M 256.5,362.5 C 256.833,362.5 257.167,362.5 257.5,362.5C 257.14,387.738 256.473,412.904 255.5,438C 256.022,438.561 256.355,439.228 256.5,440C 255.874,448.642 255.207,457.142 254.5,465.5C 254.5,464.833 254.5,464.167 254.5,463.5C 255.16,436.838 255.494,410.172 255.5,383.5C 256.491,376.687 256.825,369.687 256.5,362.5 Z"/></g>
<g><path style="opacity:1" fill="#d7b48d" d="M 329.5,376.5 C 334.245,393.876 338.245,411.543 341.5,429.5C 340.414,429.38 339.747,428.713 339.5,427.5C 335.908,411.875 332.575,396.208 329.5,380.5C 329.5,379.167 329.5,377.833 329.5,376.5 Z"/></g>
<g><path style="opacity:1" fill="#d4d4da" d="M 490.5,425.5 C 492.023,422.655 493.023,419.655 493.5,416.5C 490.729,416.421 488.063,416.921 485.5,418C 478.826,422.176 471.826,424.343 464.5,424.5C 473.924,421.859 483.091,418.525 492,414.5C 494.259,414.261 495.426,415.261 495.5,417.5C 494.823,420.867 493.157,423.534 490.5,425.5 Z"/></g>
<g><path style="opacity:0.714" fill="#ddcbbc" d="M 209.5,411.5 C 209.5,412.833 209.5,414.167 209.5,415.5C 209.5,417.5 209.5,419.5 209.5,421.5C 210.5,421.5 211.5,421.5 212.5,421.5C 213.332,421.246 213.999,420.246 214.5,418.5C 214.5,420.167 214.5,421.833 214.5,423.5C 212.173,423.335 210.007,422.669 208,421.5C 207.904,417.999 208.404,414.666 209.5,411.5 Z"/></g>
<g><path style="opacity:0.333" fill="#e1d2bf" d="M 295.5,402.5 C 296.875,409.289 297.542,416.289 297.5,423.5C 295.925,416.73 295.259,409.73 295.5,402.5 Z"/></g>
<g><path style="opacity:0.704" fill="#d7d6dc" d="M 164.5,417.5 C 173.111,419.37 181.444,422.037 189.5,425.5C 189.265,426.097 188.765,426.43 188,426.5C 179.425,423.617 171.591,420.617 164.5,417.5 Z"/></g>
<g><path style="opacity:0.894" fill="#d2ad8f" d="M 356.5,403.5 C 360.099,413.88 363.099,424.547 365.5,435.5C 364.351,435.209 363.684,434.376 363.5,433C 361.813,425.919 359.813,418.919 357.5,412C 356.969,409.183 356.636,406.35 356.5,403.5 Z"/></g>
<g><path style="opacity:1" fill="#f6b564" d="M 254.5,383.5 C 253.667,410.158 253.333,436.824 253.5,463.5C 252.506,472.665 251.673,481.999 251,491.5C 250.5,476.837 250.333,462.17 250.5,447.5C 251.497,426.34 251.831,405.007 251.5,383.5C 251.833,383.5 252.167,383.5 252.5,383.5C 253.321,380.359 253.821,377.025 254,373.5C 254.498,376.817 254.665,380.15 254.5,383.5 Z"/></g>
<g><path style="opacity:0.822" fill="#d3b395" d="M 228.5,425.5 C 228.833,425.5 229.167,425.5 229.5,425.5C 229.698,432.924 229.032,440.257 227.5,447.5C 227.167,447.5 226.833,447.5 226.5,447.5C 226.748,440.108 227.414,432.775 228.5,425.5 Z"/></g>
<g><path style="opacity:0.963" fill="#e1c4a8" d="M 291.5,423.5 C 292.222,423.918 292.722,424.584 293,425.5C 293.499,429.152 293.665,432.818 293.5,436.5C 293.5,438.833 293.5,441.167 293.5,443.5C 292.304,437.03 291.638,430.363 291.5,423.5 Z"/></g>
<g><path style="opacity:1" fill="#edb469" d="M 289.5,392.5 C 290.222,392.918 290.722,393.584 291,394.5C 291.793,404.203 292.793,413.87 294,423.5C 294.168,415.503 294.001,407.503 293.5,399.5C 294.167,400.5 294.833,401.5 295.5,402.5C 295.259,409.73 295.925,416.73 297.5,423.5C 297.5,424.167 297.5,424.833 297.5,425.5C 299.015,448.16 300.348,470.827 301.5,493.5C 300.504,493.586 299.671,493.252 299,492.5C 298.667,485.5 298.333,478.5 298,471.5C 297.646,466.611 296.813,461.944 295.5,457.5C 295.666,451.158 295.5,444.825 295,438.5C 294.722,437.584 294.222,436.918 293.5,436.5C 293.665,432.818 293.499,429.152 293,425.5C 292.722,424.584 292.222,423.918 291.5,423.5C 291.5,422.5 291.5,421.5 291.5,420.5C 291.629,411.433 290.962,402.433 289.5,393.5C 289.5,393.167 289.5,392.833 289.5,392.5 Z"/></g>
<g><path style="opacity:1" fill="#d5b087" d="M 315.5,403.5 C 317.553,411.589 318.886,419.922 319.5,428.5C 319.5,430.167 319.5,431.833 319.5,433.5C 318.778,433.082 318.278,432.416 318,431.5C 317.489,424.117 316.656,416.784 315.5,409.5C 315.5,407.5 315.5,405.5 315.5,403.5 Z"/></g>
<g><path style="opacity:1" fill="#f2b565" d="M 297.5,238.5 C 298.458,242.379 299.791,246.045 301.5,249.5C 301.5,249.833 301.5,250.167 301.5,250.5C 301.365,256.63 302.199,262.63 304,268.5C 308.682,288.22 313.182,307.887 317.5,327.5C 317.453,329.038 318.12,330.038 319.5,330.5C 318.945,334.012 319.612,337.012 321.5,339.5C 321.686,345.581 322.519,351.581 324,357.5C 324.383,358.056 324.883,358.389 325.5,358.5C 325.19,361.713 325.523,364.713 326.5,367.5C 325.965,372.312 326.965,376.645 329.5,380.5C 332.575,396.208 335.908,411.875 339.5,427.5C 339.747,428.713 340.414,429.38 341.5,429.5C 341.5,429.833 341.5,430.167 341.5,430.5C 341.527,436.278 342.36,441.944 344,447.5C 344.383,448.056 344.883,448.389 345.5,448.5C 345.16,454.796 346.493,460.463 349.5,465.5C 349.5,465.833 349.5,466.167 349.5,466.5C 349.603,473.007 350.603,479.341 352.5,485.5C 351.167,485.5 349.833,485.5 348.5,485.5C 346.606,470.651 343.772,455.984 340,441.5C 339.066,440.142 338.232,438.808 337.5,437.5C 337.5,437.167 337.5,436.833 337.5,436.5C 337.664,433.813 337.497,431.146 337,428.5C 336.678,425.334 335.511,422.667 333.5,420.5C 333.5,420.167 333.5,419.833 333.5,419.5C 333.665,416.15 333.498,412.817 333,409.5C 330.076,394.465 326.243,379.799 321.5,365.5C 321.5,365.167 321.5,364.833 321.5,364.5C 321.829,361.772 321.163,359.438 319.5,357.5C 319.5,357.167 319.5,356.833 319.5,356.5C 319.58,353.219 318.913,350.219 317.5,347.5C 317.5,347.167 317.5,346.833 317.5,346.5C 317.829,343.772 317.163,341.438 315.5,339.5C 315.5,338.833 315.5,338.167 315.5,337.5C 315.399,332.593 314.732,327.76 313.5,323C 313.392,321.319 312.725,320.152 311.5,319.5C 311.5,319.167 311.5,318.833 311.5,318.5C 310.493,311.462 309.16,304.462 307.5,297.5C 307.547,295.962 306.88,294.962 305.5,294.5C 305.5,293.833 305.5,293.167 305.5,292.5C 304.747,284.061 303.247,275.727 301,267.5C 300.617,266.944 300.117,266.611 299.5,266.5C 299.5,266.167 299.5,265.833 299.5,265.5C 299.829,262.772 299.163,260.438 297.5,258.5C 297.5,258.167 297.5,257.833 297.5,257.5C 297.665,254.482 297.498,251.482 297,248.5C 296.617,247.944 296.117,247.611 295.5,247.5C 295.5,245.167 295.5,242.833 295.5,240.5C 294.011,236.646 294.678,235.979 297.5,238.5 Z"/></g>
<g><path style="opacity:1" fill="#f3b566" d="M 315.5,409.5 C 316.656,416.784 317.489,424.117 318,431.5C 318.278,432.416 318.778,433.082 319.5,433.5C 319.5,434.5 319.5,435.5 319.5,436.5C 320.285,442.496 321.118,448.496 322,454.5C 322.383,455.056 322.883,455.389 323.5,455.5C 323.717,463.734 324.717,471.734 326.5,479.5C 326.82,482.898 326.487,486.232 325.5,489.5C 324.34,484.223 323.507,478.889 323,473.5C 322.722,472.584 322.222,471.918 321.5,471.5C 318.833,452.163 316.166,432.83 313.5,413.5C 312.599,410.128 312.599,406.795 313.5,403.5C 314.169,405.631 314.835,407.631 315.5,409.5 Z"/></g>
<g><path style="opacity:0.906" fill="#d8b497" d="M 333.5,420.5 C 335.511,422.667 336.678,425.334 337,428.5C 337.497,431.146 337.664,433.813 337.5,436.5C 335.88,431.354 334.547,426.02 333.5,420.5 Z"/></g>
<g><path style="opacity:0.396" fill="#dad9e1" d="M 191.5,426.5 C 196.032,427.763 200.365,429.597 204.5,432C 206.635,432.876 207.969,434.376 208.5,436.5C 208.565,436.938 208.399,437.272 208,437.5C 203.16,433.164 197.66,429.997 191.5,428C 190.262,427.31 190.262,426.81 191.5,426.5 Z"/></g>
<g><path style="opacity:0.859" fill="#c19765" d="M 233.5,425.5 C 233.5,429.167 233.5,432.833 233.5,436.5C 233.5,436.833 233.5,437.167 233.5,437.5C 232.833,438.833 232.167,440.167 231.5,441.5C 231.875,435.991 232.542,430.658 233.5,425.5 Z"/></g>
<g><path style="opacity:0.835" fill="#e1cfb8" d="M 319.5,428.5 C 320.525,431.974 321.192,435.64 321.5,439.5C 320.833,438.5 320.167,437.5 319.5,436.5C 319.5,435.5 319.5,434.5 319.5,433.5C 319.5,431.833 319.5,430.167 319.5,428.5 Z"/></g>
<g><path style="opacity:1" fill="#f2b364" d="M 242.5,319.5 C 241.549,320.919 241.216,322.585 241.5,324.5C 240.256,334.979 239.589,345.645 239.5,356.5C 239.5,360.167 239.5,363.833 239.5,367.5C 237.989,370.544 237.322,373.878 237.5,377.5C 237.5,379.167 237.5,380.833 237.5,382.5C 236.399,390.65 235.732,398.983 235.5,407.5C 234.054,413.274 233.388,419.274 233.5,425.5C 232.542,430.658 231.875,435.991 231.5,441.5C 231.5,445.833 231.5,450.167 231.5,454.5C 231.5,455.167 231.5,455.833 231.5,456.5C 229.207,468.252 227.873,480.252 227.5,492.5C 226.5,492.5 225.5,492.5 224.5,492.5C 224.5,491.167 224.5,489.833 224.5,488.5C 225.24,480.188 225.573,471.854 225.5,463.5C 227.078,458.417 227.745,453.084 227.5,447.5C 229.032,440.257 229.698,432.924 229.5,425.5C 231.076,416.955 231.743,408.288 231.5,399.5C 233.446,394.604 234.113,389.271 233.5,383.5C 233.5,382.833 233.5,382.167 233.5,381.5C 235.739,366.398 237.073,351.064 237.5,335.5C 238.806,330.384 239.473,325.051 239.5,319.5C 240.578,314.014 241.411,308.348 242,302.5C 242.499,308.157 242.666,313.824 242.5,319.5 Z"/></g>
<g><path style="opacity:1" fill="#dcb380" d="M 275.5,415.5 C 275.833,415.5 276.167,415.5 276.5,415.5C 277.388,429.478 277.722,443.478 277.5,457.5C 277.5,470.167 277.5,482.833 277.5,495.5C 276.167,495.5 274.833,495.5 273.5,495.5C 273.5,490.167 273.5,484.833 273.5,479.5C 274.166,484.349 274.833,489.349 275.5,494.5C 275.833,489.333 276.167,484.167 276.5,479C 275.715,457.84 275.382,436.674 275.5,415.5 Z"/></g>
<g><path style="opacity:1" fill="#d3ae8d" d="M 341.5,430.5 C 343.249,436.289 344.582,442.289 345.5,448.5C 344.883,448.389 344.383,448.056 344,447.5C 342.36,441.944 341.527,436.278 341.5,430.5 Z"/></g>
<g><path style="opacity:0.745" fill="#d8d8dd" d="M 73.5,418.5 C 50.0817,426.482 28.2484,438.482 8,454.5C 7.40921,455.483 7.74254,456.15 9,456.5C 16.6079,453.131 24.4413,450.464 32.5,448.5C 25.6399,451.405 18.6399,454.238 11.5,457C 9.86586,457.494 8.19919,457.66 6.5,457.5C 6.26057,455.533 6.59391,453.699 7.5,452C 22.2196,440.634 38.2196,431.301 55.5,424C 61.445,421.851 67.445,420.017 73.5,418.5 Z"/></g>
<g><path style="opacity:0.161" fill="#cfcfde" d="M 63.5,443.5 C 56.5188,444.608 49.5188,445.608 42.5,446.5C 48.2225,444.539 54.2225,443.206 60.5,442.5C 61.7261,442.52 62.7261,442.853 63.5,443.5 Z"/></g>
<g><path style="opacity:0.808" fill="#dfc9aa" d="M 233.5,437.5 C 233.679,443.404 233.012,449.071 231.5,454.5C 231.5,450.167 231.5,445.833 231.5,441.5C 232.167,440.167 232.833,438.833 233.5,437.5 Z"/></g>
<g><path style="opacity:1" fill="#e0ba97" d="M 293.5,436.5 C 294.222,436.918 294.722,437.584 295,438.5C 295.5,444.825 295.666,451.158 295.5,457.5C 295.5,459.167 295.5,460.833 295.5,462.5C 294.364,456.359 293.697,450.026 293.5,443.5C 293.5,441.167 293.5,438.833 293.5,436.5 Z"/></g>
<g><path style="opacity:0.718" fill="#d5bca1" d="M 297.5,425.5 C 300.075,443.274 301.741,461.274 302.5,479.5C 302.819,484.363 302.486,489.03 301.5,493.5C 300.348,470.827 299.015,448.16 297.5,425.5 Z"/></g>
<g><path style="opacity:0.82" fill="#cdb192" d="M 365.5,435.5 C 367.405,439.216 368.739,443.216 369.5,447.5C 367.905,445.889 366.739,443.889 366,441.5C 365.505,439.527 365.338,437.527 365.5,435.5 Z"/></g>
<g><path style="opacity:0.898" fill="#d1b693" d="M 319.5,436.5 C 320.167,437.5 320.833,438.5 321.5,439.5C 322.817,444.737 323.483,450.07 323.5,455.5C 322.883,455.389 322.383,455.056 322,454.5C 321.118,448.496 320.285,442.496 319.5,436.5 Z"/></g>
<g><path style="opacity:0.745" fill="#c9ad96" d="M 369.5,448.5 C 370.924,450.515 371.59,452.848 371.5,455.5C 369.837,453.562 369.171,451.228 369.5,448.5 Z"/></g>
<g><path style="opacity:1" fill="#d8b793" d="M 345.5,448.5 C 347.579,453.878 348.913,459.544 349.5,465.5C 346.493,460.463 345.16,454.796 345.5,448.5 Z"/></g>
<g><path style="opacity:0.802" fill="#dad9e0" d="M 208.5,441.5 C 201.468,451.04 193.468,459.874 184.5,468C 182.966,468.923 181.299,469.423 179.5,469.5C 164.503,462.664 149.17,456.497 133.5,451C 121.903,448.048 110.236,445.548 98.5,443.5C 99.0968,442.861 99.9302,442.528 101,442.5C 110.524,444.205 120.024,446.038 129.5,448C 138.103,451.201 146.769,454.201 155.5,457C 163.383,461.109 171.383,464.942 179.5,468.5C 181.13,467.579 182.797,466.745 184.5,466C 193.067,457.608 201.067,449.442 208.5,441.5 Z"/></g>
<g><path style="opacity:1" fill="#d8b391" d="M 226.5,447.5 C 226.833,447.5 227.167,447.5 227.5,447.5C 227.745,453.084 227.078,458.417 225.5,463.5C 225.218,458.073 225.551,452.74 226.5,447.5 Z"/></g>
<g><path style="opacity:0.478" fill="#d2d1d7" d="M 428.5,472.5 C 417.933,472.299 408.766,468.632 401,461.5C 395.434,449.581 390.934,437.248 387.5,424.5C 387.435,424.062 387.601,423.728 388,423.5C 391.066,431.363 393.732,439.363 396,447.5C 397.682,453.907 400.849,459.407 405.5,464C 413.005,467.613 420.672,470.446 428.5,472.5 Z"/></g>
<g><path style="opacity:0.922" fill="#d9c0a7" d="M 323.5,455.5 C 325.951,466.627 327.951,477.961 329.5,489.5C 329.392,490.442 329.059,491.275 328.5,492C 326.833,492.667 325.167,492.667 323.5,492C 322.556,489.281 322.223,486.448 322.5,483.5C 323.468,485.607 323.802,487.941 323.5,490.5C 324.833,490.5 326.167,490.5 327.5,490.5C 327.815,486.629 327.482,482.962 326.5,479.5C 324.717,471.734 323.717,463.734 323.5,455.5 Z"/></g>
<g><path style="opacity:0.835" fill="#d6b590" d="M 337.5,437.5 C 338.232,438.808 339.066,440.142 340,441.5C 343.772,455.984 346.606,470.651 348.5,485.5C 349.833,485.5 351.167,485.5 352.5,485.5C 350.603,479.341 349.603,473.007 349.5,466.5C 351.611,472.605 353.278,478.938 354.5,485.5C 352.685,487.694 350.518,488.028 348,486.5C 344.284,470.197 340.784,453.864 337.5,437.5 Z"/></g>
<g><path style="opacity:0.842" fill="#e0bc99" d="M 271.5,427.5 C 272.167,434.167 272.833,440.833 273.5,447.5C 273.5,458.167 273.5,468.833 273.5,479.5C 273.5,484.833 273.5,490.167 273.5,495.5C 272.191,473.777 271.191,451.943 270.5,430C 271.056,429.617 271.389,429.117 271.5,428.5C 271.5,428.167 271.5,427.833 271.5,427.5 Z"/></g>
<g><path style="opacity:0.796" fill="#cecdd2" d="M 462.5,459.5 C 455.267,467.282 446.267,471.615 435.5,472.5C 444.307,470.501 452.307,466.667 459.5,461C 459.167,460.667 458.833,460.333 458.5,460C 459.564,458.489 460.897,458.323 462.5,459.5 Z"/></g>
<g><path style="opacity:0.984" fill="#d4b492" d="M 231.5,456.5 C 231.092,467.859 230.259,479.192 229,490.5C 227.313,495.115 225.146,495.449 222.5,491.5C 223.127,490.583 223.461,489.583 223.5,488.5C 223.833,488.5 224.167,488.5 224.5,488.5C 224.5,489.833 224.5,491.167 224.5,492.5C 225.5,492.5 226.5,492.5 227.5,492.5C 227.873,480.252 229.207,468.252 231.5,456.5 Z"/></g>
<g><path style="opacity:0.554" fill="#d0bdad" d="M 253.5,463.5 C 253.833,463.5 254.167,463.5 254.5,463.5C 254.5,464.167 254.5,464.833 254.5,465.5C 254.318,467.591 254.652,469.591 255.5,471.5C 254.862,479.629 254.195,487.629 253.5,495.5C 253.5,494.167 253.5,492.833 253.5,491.5C 253.5,482.167 253.5,472.833 253.5,463.5 Z"/></g>
<g><path style="opacity:1" fill="#dcb88f" d="M 295.5,457.5 C 296.813,461.944 297.646,466.611 298,471.5C 298.333,478.5 298.667,485.5 299,492.5C 299.671,493.252 300.504,493.586 301.5,493.5C 300.791,494.404 299.791,494.737 298.5,494.5C 296.887,484.036 295.887,473.37 295.5,462.5C 295.5,460.833 295.5,459.167 295.5,457.5 Z"/></g>
<g><path style="opacity:0.165" fill="#efe3d5" d="M 277.5,457.5 C 278.216,469.181 278.883,481.015 279.5,493C 279.415,494.107 279.081,495.107 278.5,496C 276.613,496.78 274.946,496.613 273.5,495.5C 274.833,495.5 276.167,495.5 277.5,495.5C 277.5,482.833 277.5,470.167 277.5,457.5 Z"/></g>
<g><path style="opacity:0.965" fill="#c4ad91" d="M 248.5,463.5 C 248.833,463.5 249.167,463.5 249.5,463.5C 249.5,473.833 249.5,484.167 249.5,494.5C 250.5,494.5 251.5,494.5 252.5,494.5C 252.263,493.209 252.596,492.209 253.5,491.5C 253.5,492.833 253.5,494.167 253.5,495.5C 251.5,495.5 249.5,495.5 247.5,495.5C 247.291,484.806 247.625,474.14 248.5,463.5 Z"/></g>
<g><path style="opacity:0.443" fill="#dcc5b0" d="M 225.5,463.5 C 225.573,471.854 225.24,480.188 224.5,488.5C 224.167,488.5 223.833,488.5 223.5,488.5C 223.29,479.95 223.957,471.616 225.5,463.5 Z"/></g>
<g><path style="opacity:1" fill="#e8b16b" d="M 250.5,447.5 C 250.333,462.17 250.5,476.837 251,491.5C 251.673,481.999 252.506,472.665 253.5,463.5C 253.5,472.833 253.5,482.167 253.5,491.5C 252.596,492.209 252.263,493.209 252.5,494.5C 251.5,494.5 250.5,494.5 249.5,494.5C 249.5,484.167 249.5,473.833 249.5,463.5C 249.179,457.974 249.512,452.64 250.5,447.5 Z"/></g>
<g><path style="opacity:1" fill="#e5b274" d="M 321.5,471.5 C 322.222,471.918 322.722,472.584 323,473.5C 323.507,478.889 324.34,484.223 325.5,489.5C 326.487,486.232 326.82,482.898 326.5,479.5C 327.482,482.962 327.815,486.629 327.5,490.5C 326.167,490.5 324.833,490.5 323.5,490.5C 323.802,487.941 323.468,485.607 322.5,483.5C 321.659,481.621 321.325,479.621 321.5,477.5C 321.5,475.5 321.5,473.5 321.5,471.5 Z"/></g>
<g><path style="opacity:0.529" fill="#e6d2c1" d="M 302.5,479.5 C 304.683,484.622 304.683,489.788 302.5,495C 300.934,495.765 299.601,495.598 298.5,494.5C 299.791,494.737 300.791,494.404 301.5,493.5C 302.486,489.03 302.819,484.363 302.5,479.5 Z"/></g>
</svg>
