<svg width="27" height="18" viewBox="0 0 27 18" fill="none" xmlns="http://www.w3.org/2000/svg">
<path d="M2.45719 14.8843C3.39405 16.2703 6.70727 18.476 9.68441 17.9078V15.4524C9.68441 15.4524 3.72865 15.9636 3.72865 8.90822C3.72865 2.38675 9.68441 2.57992 9.68441 2.57992C9.68441 2.57992 9.68441 1.08019 9.70671 0.17131C8.5914 -0.112754 4.76588 -0.0559769 2.45719 3.09116V14.8843Z" fill="black"/>
<path d="M24.4065 14.9021C23.4696 16.2882 20.1341 18.476 17.157 17.9078V15.4729C17.157 15.4729 23.135 15.9814 23.135 8.92602C23.135 2.40455 17.1449 2.57992 17.1449 2.57992C17.1449 2.57992 17.157 1.02335 17.1347 0.114474C18.25 -0.169591 22.0978 -0.0381446 24.4065 3.10899V14.9021Z" fill="black"/>
<path d="M9.69482 0.847989L9.67325 4.09097C11.6808 1.89823 15.0825 1.98912 17.1458 4.09097L17.1449 2.57992L17.1439 0.847989C14.8129 -0.254083 12.3158 -0.310886 9.69482 0.847989Z" fill="black"/>
<path d="M17.157 17.0657V13.8049C15.1494 15.9977 11.7477 15.9068 9.6844 13.8049V17.0657C12.0154 18.1677 14.536 18.2245 17.157 17.0657Z" fill="black"/>
<path d="M1.42603 3.04959V14.9504C0.894203 14.689 0 13.0165 0 13.0165C1.18636e-06 9.76006 0 5.42975 0 5.42975C0 5.42975 1.04865 3.19419 1.42603 3.04959Z" fill="black"/>
<path d="M25.574 3.04959V14.9504C26.1058 14.689 27 13.0165 27 13.0165C27 9.76006 27 5.42975 27 5.42975C27 5.42975 25.9513 3.19419 25.574 3.04959Z" fill="black"/>
</svg>
