<svg width="285" height="190" viewBox="0 0 285 190" fill="none" xmlns="http://www.w3.org/2000/svg">
<path d="M25.937 157.112C35.8261 171.742 70.7989 195.025 102.224 189.027V163.108C102.224 163.108 39.358 168.505 39.358 94.0312C39.358 25.1935 102.224 27.2325 102.224 27.2325C102.224 27.2325 102.224 11.402 102.46 1.80827C90.687 -1.19019 50.3065 -0.590868 25.937 32.6289V157.112Z" fill="#0066FF"/>
<path d="M257.624 157.3C247.735 171.931 212.527 195.025 181.102 189.027V163.325C181.102 163.325 244.203 168.693 244.203 94.2191C244.203 25.3814 180.974 27.2325 180.974 27.2325C180.974 27.2325 181.102 10.8021 180.866 1.20833C192.639 -1.79013 233.255 -0.402637 257.624 32.8171V157.3Z" fill="#0066FF"/>
<path d="M102.334 8.951L102.107 43.1825C123.297 20.0368 159.204 20.9962 180.984 43.1825L180.974 27.2325L180.964 8.95099C156.359 -2.68199 130 -3.28158 102.334 8.951Z" fill="#0066FF"/>
<path d="M181.102 180.138V145.719C159.911 168.865 124.004 167.905 102.224 145.719V180.138C126.829 191.771 153.436 192.37 181.102 180.138Z" fill="#0066FF"/>
<path d="M15.0525 32.1901V157.81C9.43881 155.05 0 137.397 0 137.397C1.25226e-05 103.023 0 57.314 0 57.314C0 57.314 11.0691 33.7165 15.0525 32.1901Z" fill="#0066FF"/>
<path d="M269.947 32.1901V157.81C275.561 155.05 285 137.397 285 137.397C285 103.023 285 57.314 285 57.314C285 57.314 273.931 33.7165 269.947 32.1901Z" fill="#0066FF"/>
</svg>
