<svg width="37" height="37" viewBox="0 0 37 37" fill="none" xmlns="http://www.w3.org/2000/svg">
<g clip-path="url(#clip0_801_1194)">
<rect width="37" height="37" rx="9" fill="url(#paint0_linear_801_1194)"/>
<path d="M13.9793 23.1008L10.041 35.9598L8.88571 38.9514C8.88571 38.9514 10.5661 41.1034 14.5569 41.9431C17.2875 42.5205 19.1254 42.5729 20.3331 42.468C21.3309 42.363 22.5386 42.1531 21.9085 40.3161C21.0158 37.5868 21.3309 35.8548 21.3309 35.8548L22.7487 28.1394L13.9793 23.1008Z" fill="#EA9D7D"/>
<path d="M13.3491 30.0289C14.6299 31.8343 16.3217 33.3095 18.2851 34.3327C20.123 35.225 21.4358 35.4349 21.4358 35.4349L22.591 29.0317L13.9792 23.1008L13.5066 23.9931L13.139 25.4627C13.0865 25.5152 12.1413 28.1919 13.3491 30.0289Z" fill="url(#paint1_linear_801_1194)"/>
<path d="M28.8401 13.9683C28.8401 13.9683 28.9452 20.7389 28.4201 23.7306C27.8949 26.7223 26.4771 28.5068 24.7968 29.0317C23.1164 29.5565 20.0708 28.4543 18.0228 27.4046C16.29 26.5123 15.2923 25.5676 15.0297 24.4654C14.7671 23.3107 14.242 21.8411 14.242 21.8411L14.3471 18.4296L18.3904 9.82196L28.8401 13.9683Z" fill="#EA9D7D"/>
<path d="M16.08 18.9546C16.08 18.9546 18.8631 16.0154 20.8586 15.3855C23.1691 14.6508 26.7398 14.6508 26.7398 14.6508L18.3905 9.87457L16.08 18.9546Z" fill="url(#paint2_linear_801_1194)"/>
<path d="M15.8175 7.72269C15.8175 7.72269 12.9294 7.19784 10.7765 9.03483C8.67601 10.8718 8.83355 13.4436 9.46368 15.543C9.91887 16.9823 10.4805 18.3858 11.144 19.7419C11.144 19.7419 12.9294 21.5264 14.5573 20.5292C16.2376 19.5319 18.4431 17.1701 18.6006 14.4933C18.7582 11.7641 18.4956 11.0818 18.7582 10.9768C19.0207 10.8718 21.2262 13.4961 24.6394 14.4933C28.0526 15.4905 30.2056 15.2806 30.7832 14.4933C31.4134 13.706 29.9955 9.03483 28.0526 6.56801C26.1097 4.10119 22.6965 3.78628 20.8586 4.1012C19.0732 4.46859 16.8677 5.20339 15.8175 7.72269Z" fill="url(#paint3_linear_801_1194)"/>
<path d="M13.0867 24.2557C14.6238 24.2557 15.8698 22.9163 15.8698 21.2641C15.8698 19.6118 14.6238 18.2724 13.0867 18.2724C11.5497 18.2724 10.3036 19.6118 10.3036 21.2641C10.3036 22.9163 11.5497 24.2557 13.0867 24.2557Z" fill="#EA9D7D"/>
<path d="M9.20074 39.0566H9.14823C9.0432 39.0042 8.99069 38.8992 8.99069 38.7942L11.4587 31.2363C11.9313 29.6617 13.3491 24.3607 13.3491 24.3607C13.4016 24.2557 13.5067 24.2032 13.6117 24.2032C13.7167 24.2557 13.7692 24.3607 13.7692 24.4657L11.8788 31.3413C11.4587 32.7584 9.41078 38.8467 9.41078 38.8467C9.41078 39.0042 9.30576 39.0566 9.20074 39.0566Z" fill="#CF7653"/>
<path d="M13.0867 24.4657C11.4064 24.4657 10.0411 22.9961 10.0411 21.2641C10.0411 19.4795 11.4064 18.0624 13.0867 18.0624C14.7671 18.0624 16.1324 19.532 16.1324 21.2641C16.1324 23.0486 14.7671 24.4657 13.0867 24.4657ZM13.0867 18.4823C11.6689 18.4823 10.5137 19.742 10.5137 21.2641C10.5137 22.7861 11.6689 24.0458 13.0867 24.0458C14.5045 24.0458 15.6598 22.7861 15.6598 21.2641C15.6598 19.742 14.5045 18.4823 13.0867 18.4823Z" fill="#B76349"/>
<path d="M13.2442 22.576C13.9402 22.576 14.5044 21.9885 14.5044 21.2639C14.5044 20.5392 13.9402 19.9517 13.2442 19.9517C12.5481 19.9517 11.9839 20.5392 11.9839 21.2639C11.9839 21.9885 12.5481 22.576 13.2442 22.576Z" fill="url(#paint4_linear_801_1194)"/>
<path d="M16.1324 19.3744L15.2397 20.1617L14.8721 23.1009L15.0296 23.9406C15.0296 23.9406 16.2899 23.2583 16.3949 21.8937C16.5 20.5816 16.1324 19.3744 16.1324 19.3744Z" fill="#EA9D7D"/>
<path d="M23.0638 29.294C22.4862 29.294 22.0136 29.1891 20.9634 28.9266C19.024 28.357 17.2321 27.3719 15.7123 26.0399C14.557 24.8852 14.662 23.7831 14.662 23.7306C14.662 23.6256 14.662 23.4681 14.7671 23.4681C14.8721 23.4681 14.9246 23.5731 14.9771 23.6781C15.0296 23.888 15.0296 24.7803 15.9748 25.725C17.4363 27.0026 19.1555 27.9513 21.0159 28.5067C22.6437 28.8741 22.9588 28.9791 24.1666 28.8741C25.3218 28.7692 26.0044 28.2968 26.0044 28.2968C26.162 28.1918 26.3195 28.1393 26.2145 28.2968C26.1095 28.4018 25.2693 29.0841 24.2191 29.2415C23.694 29.2415 23.3789 29.294 23.0638 29.294Z" fill="#B76349"/>
<path d="M15.4496 26.145L15.5547 26.4074L15.7647 26.1975L15.4496 26.145Z" fill="#A84D3B"/>
<path d="M15.4498 25.8299L15.2923 26.3023L15.8699 26.1973L15.4498 25.8299ZM18.2329 27.8243V28.4017L18.8105 28.1393L18.2329 27.8243ZM16.8151 26.9321L16.7626 27.5094L17.3402 27.2995L16.8151 26.9321ZM16.0274 26.3547L15.9224 26.9321L16.5525 26.7746L16.0274 26.3547Z" fill="#A84D3B"/>
<path d="M15.082 25.3051L14.872 25.83H15.5021L15.082 25.3051ZM19.0204 29.0841L18.7578 28.7691L18.5478 29.1365L19.0204 29.0841ZM18.2852 28.5067L17.9701 28.0868L17.8126 28.5592L18.2852 28.5067ZM20.4382 29.6089L20.0706 29.2415L19.9656 29.6614L20.4382 29.6089ZM22.0135 30.1863L21.6459 29.7664L21.4884 30.2387L22.0135 30.1863ZM19.2304 28.2968L18.9153 28.1393V28.6117L19.2304 28.2968ZM19.9656 29.9238L19.703 29.6614L19.5455 30.0288L19.9656 29.9238ZM17.9176 27.8244L17.6026 27.6145L17.55 28.0868L17.9176 27.8244ZM20.7007 28.9266L20.1756 28.7167L20.2281 29.3465L20.7007 28.9266ZM21.6984 29.0841L21.2783 29.0316L21.3834 29.5039L21.6984 29.0841ZM22.3811 29.9238H21.961L22.1185 30.2912L22.3811 29.9238ZM20.9108 29.8189L20.7532 29.4515L20.4907 29.8189H20.9108ZM22.171 31.026L22.2235 30.6586L21.8035 30.7636L22.171 31.026ZM22.066 31.7083L22.1185 31.3409L21.6984 31.4459L22.066 31.7083ZM21.1733 31.7083L20.9633 31.8658L21.2258 32.0232L21.1733 31.7083ZM21.3309 29.6614L21.1208 29.8713L21.4359 30.0288L21.3309 29.6614ZM22.5386 29.294L22.2235 29.2415L22.3286 29.5564L22.5386 29.294ZM21.5409 32.3382L21.3309 32.4956L21.6459 32.6531L21.5409 32.3382ZM16.3423 26.8797L16.1322 27.0371L16.3948 27.1946L16.3423 26.8797ZM14.5569 24.4653L14.3469 24.6228L14.6094 24.7802L14.5569 24.4653ZM19.8605 29.399L19.703 29.2415L19.6505 29.5039L19.8605 29.399ZM18.3902 28.9791L18.4427 28.7691H18.1802L18.3902 28.9791ZM19.1254 29.4515L19.2304 29.2415H18.9678L19.1254 29.4515ZM20.2281 30.5012L20.3331 30.7636L20.5957 30.5537L20.2281 30.5012ZM21.7509 29.4515L21.5934 29.6089L21.8035 29.7139L21.7509 29.4515Z" fill="#A84D3B"/>
<path d="M21.856 29.189L21.5934 29.399L21.9085 29.5564L21.856 29.189ZM21.2259 29.399L21.0158 29.5564L21.2259 29.6614V29.399ZM21.4359 33.1255L21.2259 33.2304L21.4359 33.3879V33.1255ZM20.8583 32.5481L20.9633 32.7581L21.1208 32.5481H20.8583ZM20.8058 31.2885L20.9108 31.4984L21.0683 31.2885H20.8058ZM21.8035 31.7608L21.6459 31.6559L21.5934 31.8658L21.8035 31.7608ZM14.5044 29.294L14.6094 29.399L14.7145 29.2415L14.5044 29.294ZM15.5021 28.6642L15.3971 28.7692H15.5546L15.5021 28.6642ZM16.5524 30.5012L16.3948 30.4487L16.4473 30.6586L16.5524 30.5012ZM16.0272 29.6089L15.9222 29.7664H16.1323L16.0272 29.6089ZM19.6505 31.2885L19.598 31.6034L19.9131 31.4459L19.6505 31.2885ZM19.1779 28.9266V29.189L19.4405 29.0841L19.1779 28.9266ZM19.1779 28.4018V28.6642L19.493 28.5067L19.1779 28.4018ZM15.1346 26.7747V27.0896L15.3971 26.9322L15.1346 26.7747ZM21.4359 30.6062L21.1733 30.6586L21.3834 30.8686L21.4359 30.6062ZM20.6482 32.8105L20.5432 32.6006L20.3332 32.8105H20.6482ZM20.8058 30.0813L20.9633 30.2912L21.1208 30.0288L20.8058 30.0813ZM21.6459 30.3962L21.8035 30.6586L21.961 30.3437L21.6459 30.3962ZM22.1711 29.399L22.0135 29.6089L22.2761 29.6614L22.1711 29.399ZM21.856 31.0785L21.6459 30.9211V31.236L21.856 31.0785ZM15.9222 26.4073L15.6072 26.6173L15.9747 26.8272L15.9222 26.4073ZM14.872 26.8272L14.7145 26.6697L14.662 26.9322L14.872 26.8272ZM13.8218 26.3023L13.7168 26.1974L13.6642 26.4073L13.8218 26.3023ZM13.5592 27.9294L13.6117 27.7195H13.4017L13.5592 27.9294ZM15.5546 26.7747L15.6597 26.9847L15.8697 26.7747H15.5546ZM14.9245 26.2499L15.082 26.5648L15.3446 26.3023L14.9245 26.2499ZM14.8195 24.8328L14.6094 25.1477L15.0295 25.2001L14.8195 24.8328ZM16.3948 27.3521L16.2373 27.457L16.4473 27.6145L16.3948 27.3521ZM16.8149 27.1421L16.6574 27.2471L16.8674 27.3521L16.8149 27.1421ZM17.235 27.3521L17.0775 27.457L17.235 27.6145V27.3521ZM16.4473 28.7692L16.3423 28.6642L16.2898 28.8741L16.4473 28.7692ZM13.2967 26.9847L13.4017 27.1421L13.5592 26.9322L13.2967 26.9847ZM14.5044 25.7775L14.3469 25.8825L14.5569 25.9874L14.5044 25.7775ZM14.4519 27.7195L14.2944 27.6145L14.2419 27.8244L14.4519 27.7195ZM14.6094 25.5675L14.7145 25.725L14.872 25.5151L14.6094 25.5675ZM15.1346 25.83L15.2396 26.0399L15.3971 25.83H15.1346ZM13.9268 25.3051L13.7693 25.4626L13.9793 25.5151L13.9268 25.3051ZM14.0843 24.7803L13.9268 24.6753L13.8743 24.8852L14.0843 24.7803ZM16.8674 27.667V27.8769L17.13 27.7719L16.8674 27.667ZM17.8651 28.0868L17.6551 28.1393L17.8126 28.2968L17.8651 28.0868ZM17.445 27.667L17.235 27.7195L17.3925 27.8769L17.445 27.667ZM20.9633 29.2415L20.7533 29.294L20.9108 29.4515L20.9633 29.2415ZM20.1756 28.9266L20.0181 28.9791L20.1231 29.1366L20.1756 28.9266ZM17.7076 29.294L17.6551 29.1366L17.4976 29.294H17.7076ZM20.6482 31.9183L20.5957 31.7608L20.4382 31.9183H20.6482ZM17.445 28.7692L17.34 28.6117L17.1825 28.7692H17.445ZM18.8103 28.4543V28.7167L19.0204 28.6117L18.8103 28.4543ZM19.6505 28.6642V28.8741L19.8606 28.7692L19.6505 28.6642ZM20.5957 29.1366L20.3857 29.189L20.5432 29.3465L20.5957 29.1366ZM19.8606 30.1863L19.7555 30.0288L19.6505 30.1863H19.8606ZM17.6026 30.1338V30.3437L17.8126 30.2388L17.6026 30.1338ZM18.6003 29.6089L18.4428 29.6614L18.5478 29.8189L18.6003 29.6089ZM20.3857 30.0288L20.3332 29.8714L20.1756 30.0288H20.3857Z" fill="#A84D3B"/>
<path d="M21.0684 4.15349L21.331 4.62586L21.646 4.04852L21.0684 4.15349ZM26.0045 9.13962L25.7419 9.08713L25.7944 9.34956L26.0045 9.13962ZM29.3652 8.92967L29.1551 8.87719L29.2076 9.13962L29.3652 8.92967ZM24.8492 9.50701V9.24459L24.5866 9.34956L24.8492 9.50701ZM22.8013 4.25847L22.5912 4.62586L23.0638 4.67835L22.8013 4.25847ZM27.0022 6.93522L26.8446 7.19765L27.1597 7.25014L27.0022 6.93522ZM28.0524 6.56783L27.7898 7.0402L28.3675 7.09268L28.0524 6.56783ZM20.3332 4.31095L19.9132 4.41592L20.2282 4.83581L20.3332 4.31095ZM19.8081 4.41592L19.388 4.67835L19.8081 4.99326V4.41592ZM19.2305 5.46563L18.7054 5.83303L19.283 6.25291L19.2305 5.46563ZM18.5479 4.88829L18.1278 5.15072L18.5479 5.46563V4.88829ZM25.2693 4.57338L24.8492 4.46841L24.9017 4.99326L25.2693 4.57338ZM23.4314 5.2032V4.67835L22.9588 4.88829L23.4314 5.2032ZM24.3766 5.46563L24.4291 4.99326L23.904 5.15072L24.3766 5.46563ZM25.4268 5.78054L25.7419 6.25291L26.0045 5.62309L25.4268 5.78054ZM25.6369 4.73083L25.6894 5.46563L26.372 5.15072L25.6369 4.73083ZM25.2693 6.20043L25.1118 6.41037L25.3743 6.46286L25.2693 6.20043ZM20.7008 6.20043L20.5433 6.41037L20.8058 6.46286L20.7008 6.20043ZM19.6506 5.88551L19.4931 6.09546L19.7556 6.14794L19.6506 5.88551ZM18.6004 5.88551L18.4428 6.09546L18.7579 6.14794L18.6004 5.88551ZM18.2853 5.938L18.1278 6.14794L18.3903 6.20043L18.2853 5.938ZM27.7373 8.29985L27.5798 8.50979L27.8423 8.56228L27.7373 8.29985ZM28.525 8.19488L28.3675 8.40482L28.63 8.50979L28.525 8.19488ZM27.0022 7.87996L27.1072 8.08991L27.2647 7.82748L27.0022 7.87996ZM26.4771 6.56783L26.6346 6.77777L26.7396 6.51534L26.4771 6.56783ZM27.6848 6.77777L27.4223 6.6728L27.4748 6.93522L27.6848 6.77777ZM19.4931 6.88274L19.6506 6.98771L19.7031 6.72528L19.4931 6.88274ZM20.2282 5.83303L20.1757 5.99049L20.3858 5.938L20.2282 5.83303ZM21.9611 7.40759L21.8036 7.35511L21.9086 7.56505L21.9611 7.40759ZM21.1209 6.6728V6.83025L21.331 6.77777L21.1209 6.6728ZM23.1163 8.08991H22.9588L23.0638 8.24736L23.1163 8.08991ZM23.799 9.50701L23.7465 9.34956L23.5889 9.45453L23.799 9.50701Z" fill="#A5693C"/>
<path d="M25.3217 7.09252L25.4268 7.35495L25.6368 7.14501L25.3217 7.09252ZM24.3765 4.36328L24.4816 4.88814L24.9542 4.52074L24.3765 4.36328ZM20.3857 4.94062L20.4907 5.25553L20.7533 4.99311L20.3857 4.94062ZM27.0021 5.51796L26.687 5.7279L27.0546 5.99033L27.0021 5.51796ZM26.8446 8.29969L26.687 8.08975L26.582 8.40466L26.8446 8.29969ZM26.0044 5.46548L26.2669 5.67542L26.372 5.30802L26.0044 5.46548ZM26.1619 6.14779L26.4245 6.35773L26.477 5.99033L26.1619 6.14779ZM26.2669 5.7279L26.477 5.93785L26.5295 5.57045L26.2669 5.7279ZM23.7464 6.51519L23.6414 6.77761H23.9039L23.7464 6.51519ZM27.5272 6.25276L27.2646 6.20027L27.3172 6.51519L27.5272 6.25276ZM18.4953 5.57045L18.3378 5.78039L18.6528 5.83287L18.4953 5.57045ZM20.5957 4.57322L20.3857 4.52074L20.4382 4.73068L20.5957 4.57322ZM17.7601 5.67542L17.3925 5.57045L17.4451 6.04282L17.7601 5.67542ZM18.2327 5.78039V5.30802L17.7601 5.51796L18.2327 5.78039ZM19.2304 5.15056L19.598 5.57045L19.8081 5.04559L19.2304 5.15056ZM19.8606 5.25553L20.0181 5.46548L20.1756 5.20305L19.8606 5.25553ZM21.0158 5.09808L21.1734 5.25553L21.2784 4.99311L21.0158 5.09808Z" fill="#A5693C"/>
<path d="M21.0159 4.3111L20.5433 4.83595L21.2785 5.09838L21.0159 4.3111ZM19.1255 4.67849L18.8629 4.88844L19.178 5.09838L19.1255 4.67849ZM21.2785 5.57075L21.0684 5.51826L21.1209 5.7282L21.2785 5.57075ZM19.3355 5.62323L19.4931 5.83318L19.5981 5.51826L19.3355 5.62323ZM17.8127 6.56797L17.7077 6.72543H17.9177L17.8127 6.56797ZM18.8629 5.25583L18.7054 5.20335L18.7579 5.46578L18.8629 5.25583ZM18.3903 6.67294L18.6004 6.8304L18.6529 6.56797L18.3903 6.67294ZM19.283 7.35525L19.178 7.5652H19.3881L19.283 7.35525ZM17.3926 6.0956L17.1826 6.56797H17.7077L17.3926 6.0956ZM18.4954 7.46022L18.2853 7.40774L18.3378 7.67017L18.4954 7.46022Z" fill="#A5693C"/>
<path d="M17.6027 6.46286L17.8127 6.41037L17.6552 6.20043L17.6027 6.46286ZM16.3424 7.14517L16.4999 7.09268L16.3949 6.88274L16.3424 7.14517ZM16.5524 6.56783L17.025 6.62031L16.815 6.14794L16.5524 6.56783ZM16.1848 7.46008L16.2374 7.67002L16.3949 7.51257L16.1848 7.46008ZM16.6575 7.09268H16.92L16.815 6.83025L16.6575 7.09268ZM17.7602 6.98771L17.8127 7.14517L17.9702 6.98771H17.7602ZM17.2876 7.61754L17.13 7.72251L17.2876 7.87996V7.61754ZM16.92 8.29985L16.71 8.40482L16.92 8.56228V8.29985ZM21.436 4.62586L21.4885 4.88829L21.6985 4.67835L21.436 4.62586ZM22.8013 4.04852H22.2761L22.4862 4.57338L22.8013 4.04852ZM22.1711 4.04852L21.751 4.36344L22.2236 4.67835L22.1711 4.04852ZM22.6962 5.5706L22.3287 5.25569L22.1711 5.72806L22.6962 5.5706ZM26.5296 7.30262L26.4245 7.19765L26.3195 7.40759L26.5296 7.30262ZM22.2236 5.2032L22.0661 5.09823L22.0136 5.30818L22.2236 5.2032ZM23.6939 4.20598L23.8515 4.67835L24.2716 4.31095L23.6939 4.20598ZM22.9588 5.99049L23.0638 6.25291L23.2739 6.04297L22.9588 5.99049ZM23.1163 4.04852L23.2739 4.52089L23.5889 4.15349L23.1163 4.04852ZM24.1665 5.99049L24.2716 6.25291L24.4816 6.04297L24.1665 5.99049ZM24.6391 8.24736L24.6917 8.50979L24.9017 8.29985L24.6391 8.24736ZM25.4268 4.88829L25.2168 4.99326L25.4268 5.09823V4.88829ZM24.7442 5.09823L24.5866 4.99326L24.5341 5.2032L24.7442 5.09823ZM25.3218 5.78054L25.1643 5.62309L25.1117 5.88551L25.3218 5.78054ZM27.7898 7.67002L28.2624 7.51257L27.8423 7.14517L27.7898 7.67002ZM27.5273 8.08991L27.3697 8.29985L27.6848 8.35233L27.5273 8.08991ZM28.7875 8.35233L28.9976 8.66724L29.2076 8.29985L28.7875 8.35233ZM27.5798 8.92967L27.6848 9.24459L27.8948 8.98216L27.5798 8.92967ZM28.1574 7.30262L28.4199 7.51257L28.4725 7.19765L28.1574 7.30262ZM28.4199 8.03742L28.6825 8.19488L28.735 7.82748L28.4199 8.03742ZM28.84 9.1921L28.6825 9.03464L28.5775 9.29707L28.84 9.1921ZM27.5798 7.67002L27.4222 7.51257L27.3697 7.77499L27.5798 7.67002ZM22.8538 6.62031L22.9588 6.88274L23.1163 6.6728L22.8538 6.62031ZM23.6939 5.62309L23.5364 5.78054L23.6939 5.88551V5.62309ZM23.904 7.56505L23.7465 7.40759L23.6939 7.61754L23.904 7.56505ZM25.6369 5.41315L25.4793 5.25569L25.4268 5.51812L25.6369 5.41315ZM23.799 5.15072L23.3789 5.09823L23.5364 5.62309L23.799 5.15072ZM24.009 4.83581H23.7465L23.8515 5.09823L24.009 4.83581ZM21.8561 5.99049L21.8035 5.72806L21.5935 5.88551L21.8561 5.99049ZM21.541 5.04575L21.2259 5.5706L21.8561 5.67557L21.541 5.04575ZM21.2784 4.99326L21.2259 5.15072H21.436L21.2784 4.99326ZM22.1711 5.83303V6.04297L22.3287 5.938L22.1711 5.83303ZM22.3287 4.78332L22.1186 4.67835V4.94078L22.3287 4.78332ZM22.9063 5.15072L22.8538 4.94078L22.6437 5.09823L22.9063 5.15072Z" fill="#A5693C"/>
<path d="M22.8015 5.93852L22.749 5.72858L22.5389 5.88604L22.8015 5.93852ZM22.6965 5.15124L22.854 5.41367L23.064 5.09875L22.6965 5.15124ZM24.5869 5.72858L24.8494 5.88604V5.51864L24.5869 5.72858ZM20.2809 5.46615L20.5435 5.57113V5.25621L20.2809 5.46615ZM21.9088 5.25621L22.0663 5.46615L22.1714 5.20373L21.9088 5.25621ZM23.9042 5.20373L23.7467 5.36118L23.9567 5.41367L23.9042 5.20373ZM23.3266 5.62361L23.1166 5.51864V5.78107L23.3266 5.62361ZM24.0092 6.14846L23.8517 5.99101V6.25344L24.0092 6.14846ZM22.4339 6.41089L22.2764 6.56835L22.5389 6.62083L22.4339 6.41089ZM24.2193 5.6761L24.0617 5.57113V5.83355L24.2193 5.6761ZM26.4773 7.0932L26.3722 7.35563H26.6873L26.4773 7.0932ZM25.6896 6.56835L25.7946 6.83078L26.0047 6.62083L25.6896 6.56835ZM26.9499 6.62083L27.0024 6.83078L27.2124 6.62083H26.9499ZM26.4773 6.25344L26.2672 6.35841L26.4773 6.46338V6.25344ZM26.0572 6.20095L25.8996 6.09598L25.8471 6.35841L26.0572 6.20095ZM26.8974 6.83078L26.7398 6.72581V6.98823L26.8974 6.83078ZM27.0024 6.25344L26.8448 6.14846L26.7923 6.41089L27.0024 6.25344ZM22.0663 6.35841L21.9088 6.20095L21.8038 6.46338L22.0663 6.35841Z" fill="#A5693C"/>
<path d="M23.2213 21.3166L23.5889 21.0542L23.1163 20.8442L23.2213 21.3166ZM18.6529 21.1591L18.4953 20.8442L18.2328 21.1591H18.6529ZM24.7442 21.684L25.2168 21.9464L25.2693 21.3166L24.7442 21.684ZM23.3264 18.9547L24.009 19.3746L24.114 18.5349L23.3264 18.9547Z" fill="#F4B9A6"/>
<path d="M23.3262 18.5347L24.0089 18.1148L23.3262 17.6424V18.5347ZM24.9016 23.2583L25.5842 22.8385L24.9016 22.3136V23.2583ZM25.5842 22.4186L25.8468 21.6313L25.0066 21.6838L25.5842 22.4186ZM23.0637 20.844L22.6436 20.949L22.9062 21.3689L23.0637 20.844ZM23.3788 20.2667L22.9062 20.3716L23.2212 20.739L23.3788 20.2667ZM23.2737 22.5235L23.4313 22.9434L23.7988 22.6285L23.2737 22.5235ZM23.4838 23.3633L23.8514 23.5733L23.9564 23.1009L23.4838 23.3633ZM25.6367 24.623L25.2166 24.7279L25.5317 25.0953L25.6367 24.623ZM23.9039 15.6479L23.7463 15.9629L24.2189 15.9104L23.9039 15.6479ZM24.324 18.2197L23.9564 18.1673L24.1139 18.5347L24.324 18.2197ZM24.6915 16.9076L24.324 16.8551L24.4815 17.275L24.6915 16.9076ZM21.6459 17.6949L21.5934 18.1148L22.066 17.9573L21.6459 17.6949ZM22.6436 16.9601L22.276 17.17L22.6961 17.4325L22.6436 16.9601ZM20.9632 17.5374L20.7007 17.5899L20.8582 17.8523L20.9632 17.5374ZM24.9016 24.623L24.534 24.7279L24.7966 25.0429L24.9016 24.623ZM24.4815 24.413L24.1139 24.518L24.3765 24.8329L24.4815 24.413Z" fill="#F4B9A6"/>
<path d="M21.331 22.1034L20.9634 22.1559L21.1735 22.4708L21.331 22.1034ZM22.2237 22.7857L21.8561 22.8382L22.0661 23.1531L22.2237 22.7857ZM21.0159 20.8962L20.9634 21.2636L21.3835 21.1062L21.0159 20.8962ZM22.9063 20.4763L22.8013 20.1614L22.4862 20.4763H22.9063ZM26.7922 23.573L26.9497 23.3106H26.5821L26.7922 23.573ZM25.2693 22.4708L25.4794 22.5233V22.2608L25.2693 22.4708ZM27.6323 20.0565V20.3189L27.8424 20.2139L27.6323 20.0565ZM26.5296 21.2636L26.7922 21.3161L26.7396 21.0012L26.5296 21.2636Z" fill="#F4B9A6"/>
<path d="M27.737 20.4767L27.7895 20.2667H27.527L27.737 20.4767ZM20.0704 18.4297L19.9129 18.6922H20.2279L20.0704 18.4297ZM23.4836 16.7502L23.9562 16.6452L23.5887 16.2778L23.4836 16.7502ZM23.9562 22.1562L24.9014 21.8938L24.1138 21.159L23.9562 22.1562ZM23.2211 18.5872L22.8535 18.5347L22.9585 18.9021L23.2211 18.5872ZM20.4905 21.159V20.7916L20.0704 21.0015L20.4905 21.159ZM22.5909 17.59L22.6435 18.0099L23.0635 17.7474L22.5909 17.59ZM22.0133 18.3773L22.0658 18.7971L22.5384 18.5347L22.0133 18.3773ZM22.5384 18.0623V18.4822L23.011 18.2198L22.5384 18.0623ZM26.4243 17.59L26.7918 17.7474V17.3275L26.4243 17.59ZM23.2736 19.8468L23.0635 19.5844L22.8535 19.8993L23.2736 19.8468ZM25.059 24.2031L24.7439 24.3081L25.0065 24.5705L25.059 24.2031ZM23.4311 21.9463L23.3261 22.2087L23.6937 22.1562L23.4311 21.9463ZM23.7987 23.7308L23.6412 23.4683L23.4836 23.7833L23.7987 23.7308ZM24.3763 23.9932L24.5864 23.7833L24.2188 23.6783L24.3763 23.9932ZM24.4813 23.3634L24.7439 23.1534L24.3763 22.9435L24.4813 23.3634Z" fill="#F4B9A6"/>
<path d="M24.4288 22.9436L24.7439 22.7337L24.3763 22.5238L24.4288 22.9436ZM24.2188 21.3691L24.4813 21.1591L24.1138 20.9492L24.2188 21.3691ZM23.4836 21.474L23.7462 21.684L23.8512 21.3691L23.4836 21.474ZM26.6343 23.9409L26.3192 24.0458L26.5818 24.3083L26.6343 23.9409ZM24.9539 21.0017L24.8489 21.2641H25.2165L24.9539 21.0017ZM25.7941 24.2033L25.5841 23.9934L25.4265 24.2558L25.7941 24.2033ZM23.9562 25.3055L24.0087 25.6204L24.3763 25.4105L23.9562 25.3055ZM23.0635 23.5735L22.7485 23.7309L23.011 23.9409L23.0635 23.5735ZM19.7553 20.0569L19.5453 19.847L19.3878 20.1619L19.7553 20.0569ZM23.2736 24.3607L23.4836 24.4657L23.5361 24.1508L23.2736 24.3607ZM22.3284 23.7834L22.5909 23.8884V23.5735L22.3284 23.7834ZM20.7005 24.2033L20.543 24.4657L20.9106 24.4132L20.7005 24.2033ZM21.8033 25.358L21.4882 25.3055L21.5932 25.6204L21.8033 25.358ZM20.7531 25.7254H20.438L20.543 26.0403L20.7531 25.7254ZM23.6937 20.7917L24.3238 20.6343L23.7987 20.1094L23.6937 20.7917ZM23.2211 19.3746L23.3786 19.6371L23.5887 19.3221L23.2211 19.3746Z" fill="#F4B9A6"/>
<path d="M23.2738 19.899L23.5888 20.3714L24.0089 19.8465L23.2738 19.899ZM25.0591 18.8493L24.639 19.2692L25.2692 19.4266L25.0591 18.8493ZM21.1733 19.899V19.6366L20.8582 19.794L21.1733 19.899ZM24.4815 19.6891L24.2715 19.899L24.5865 20.004L24.4815 19.6891ZM23.2738 17.8521L23.6413 17.7471L23.3788 17.4847L23.2738 17.8521ZM25.6368 18.6394L26.0043 18.5344L25.6893 18.2195L25.6368 18.6394ZM23.1162 18.6918L23.4838 18.5869L23.1687 18.272L23.1162 18.6918ZM25.6893 16.9073L26.0568 16.8024L25.7943 16.5399L25.6893 16.9073ZM24.429 16.1201L24.1665 16.2775L24.534 16.435L24.429 16.1201ZM21.5409 17.1698V16.9073L21.2258 17.0648L21.5409 17.1698ZM21.961 21.841L21.9085 22.2609L22.3811 22.1034L21.961 21.841ZM21.3834 21.631L21.0158 21.6835L21.2258 22.0509L21.3834 21.631ZM22.171 23.2581L22.1185 23.6255L22.5386 23.468L22.171 23.2581ZM22.6961 21.6835L22.7486 22.1034L23.1687 21.8935L22.6961 21.6835ZM22.3286 22.4708L22.3811 22.9432L22.8537 22.6807L22.3286 22.4708ZM21.856 21.3161V21.0012L21.5409 21.2111L21.856 21.3161ZM26.5295 18.7968L26.897 18.6918L26.6345 18.4294L26.5295 18.7968ZM25.1642 17.5896L25.3217 17.8521L25.5317 17.5896H25.1642ZM27.8947 21.7885L28.2098 21.6835L27.9473 21.4736L27.8947 21.7885ZM22.2235 17.1173V16.8548L21.9085 17.0123L22.2235 17.1173ZM24.4815 17.7996L24.429 18.167L24.8491 18.0095L24.4815 17.7996ZM24.0089 17.1173L23.9564 17.4847L24.3765 17.3272L24.0089 17.1173ZM24.2715 20.5813L24.9016 21.0012L25.1116 20.2139L24.2715 20.5813ZM25.7943 20.6338L26.5295 20.3714L26.0043 19.7416L25.7943 20.6338ZM24.1139 20.9487L24.3765 21.0012L24.324 20.7913L24.1139 20.9487ZM23.7989 19.4791L23.6938 19.7416H24.0614L23.7989 19.4791ZM24.429 18.6918L24.0614 18.7443L24.324 19.0592L24.429 18.6918ZM25.5843 18.8493L25.2167 18.9018L25.4267 19.2692L25.5843 18.8493Z" fill="#F4B9A6"/>
<path d="M24.1666 19.4268L24.9543 18.9544L24.1141 18.4296L24.1666 19.4268ZM25.3219 16.3827L25.5319 16.0153H25.0068L25.3219 16.3827ZM24.7443 22.366L24.9543 21.9986H24.4292L24.7443 22.366ZM24.0616 20.424L24.7443 20.0042L24.0091 19.5843L24.0616 20.424ZM24.5342 17.3274L24.7443 17.4849L24.8493 17.1699L24.5342 17.3274ZM25.3219 17.9047L24.9543 18.4296L25.742 18.4821L25.3219 17.9047ZM25.847 17.1175L25.6895 17.3799L26.057 17.4324L25.847 17.1175ZM26.2146 19.4268L26.4246 19.6368L26.5821 19.3218L26.2146 19.4268ZM25.2169 16.8025L25.0593 17.065H25.4269L25.2169 16.8025ZM20.5434 19.8992L20.1758 20.0566L20.4909 20.3191L20.5434 19.8992ZM21.121 18.3246L20.9109 18.6395H21.331L21.121 18.3246ZM21.8561 18.3246L21.8036 18.0622L21.5411 18.2721L21.8561 18.3246ZM21.436 20.0042L21.3835 19.7417L21.121 19.9517L21.436 20.0042Z" fill="#F4B9A6"/>
<path d="M22.5913 13.8112L22.4338 14.0211L22.6438 14.0736L22.5913 13.8112ZM22.4338 14.3885L22.3288 14.1786L22.1712 14.3885H22.4338ZM22.0662 14.0736L21.9612 13.8637L21.8037 14.0736H22.0662ZM18.653 11.3969L18.7055 11.9742L19.2306 11.6593L18.653 11.3969ZM20.7534 12.499L20.5434 12.709L20.8585 12.7615L20.7534 12.499ZM19.8082 12.1316V12.4466L20.0708 12.3416L19.8082 12.1316ZM19.7032 13.1289L19.6507 13.4438L19.9658 13.3388L19.7032 13.1289ZM18.968 13.0239V13.3388L19.2831 13.2338L18.968 13.0239ZM19.5982 11.5543L19.3881 11.3969L19.2831 11.6068L19.5982 11.5543ZM21.3836 12.9189L21.331 13.1814L21.5936 13.0764L21.3836 12.9189ZM20.4384 12.7615L20.3858 13.1814L20.8585 13.0239L20.4384 12.7615ZM23.1689 14.1261L23.1164 14.336L23.379 14.2836L23.1689 14.1261ZM20.9635 13.2338V13.4438L21.1735 13.3913L20.9635 13.2338ZM19.4932 13.6012L19.4407 13.8112L19.7032 13.7587L19.4932 13.6012ZM19.2306 13.7587V13.9686L19.4932 13.9162L19.2306 13.7587ZM20.8585 12.814L20.911 12.9714L21.016 12.8664L20.8585 12.814ZM21.8562 13.3913L21.9087 13.4963L22.0662 13.3913H21.8562ZM23.6415 14.2836V14.3885L23.7991 14.336L23.6415 14.2836ZM18.968 13.9162L18.863 13.9686L18.968 14.0736V13.9162ZM19.7557 12.4466V12.814L20.1758 12.604L19.7557 12.4466ZM19.1256 13.7062H18.9155L19.0206 13.9162L19.1256 13.7062Z" fill="#A84D3B"/>
<path d="M18.9678 13.759L18.9153 13.5491L18.7578 13.7065L18.9678 13.759ZM20.0706 12.6568L20.2806 12.7618V12.4994L20.0706 12.6568ZM20.3331 12.4994L20.5432 12.6043V12.3419L20.3331 12.4994ZM19.5454 12.3944V12.6043L19.7555 12.5519L19.5454 12.3944ZM20.018 13.0767L20.2281 13.1292L20.1756 12.8668L20.018 13.0767ZM19.0728 14.4413V14.6513L19.2829 14.5463L19.0728 14.4413ZM19.4929 12.9717L19.2829 13.0242L19.4404 13.1817L19.4929 12.9717ZM18.8103 14.1264V14.2839L19.0203 14.1789L18.8103 14.1264Z" fill="#A84D3B"/>
<path d="M18.8631 14.4411L19.0206 14.3362L18.8106 14.2312L18.8631 14.4411ZM18.4955 15.2284L18.6531 15.1235L18.443 15.071L18.4955 15.2284Z" fill="#A84D3B"/>
<path d="M18.7056 14.5459L18.8632 14.441L18.6531 14.336L18.7056 14.5459ZM18.4956 15.5957L18.6531 15.7531L18.7582 15.5432L18.4956 15.5957ZM18.8107 15.0708L19.0207 14.9658L18.8107 14.8084V15.0708ZM18.8632 10.9769V11.3968L19.2833 11.2918L18.8632 10.9769ZM18.8107 12.6565L18.9682 12.8139L19.0732 12.5515L18.8107 12.6565ZM19.9134 11.8167L19.8084 12.2891L20.281 12.1841L19.9134 11.8167ZM19.0732 12.4465L19.2308 12.604L19.3358 12.3416L19.0732 12.4465ZM21.1212 13.7587L21.2787 13.9161L21.3837 13.6537L21.1212 13.7587Z" fill="#A84D3B"/>
<path d="M18.7056 13.1289L19.0731 13.0239L18.7056 12.709V13.1289ZM19.1782 11.8692L18.9681 12.2366H19.3882L19.1782 11.8692ZM20.2284 13.4963L20.0183 13.4438L20.0709 13.6537L20.2284 13.4963ZM18.9681 11.7643L18.7581 11.8692L18.9681 12.0267V11.7643ZM19.2832 11.6068L19.2307 11.8168L19.4407 11.7643L19.2832 11.6068ZM19.0731 12.3941L18.7056 12.2366V12.6565L19.0731 12.3941ZM19.7558 12.2891H19.5457L19.6508 12.4991L19.7558 12.2891ZM18.9681 12.6565L18.9156 12.814L19.1257 12.7615L18.9681 12.6565ZM19.9133 11.8692L19.6508 11.6068L19.5457 12.0267L19.9133 11.8692Z" fill="#A84D3B"/>
<path d="M14.3994 21.5788V21.3688L14.1894 21.4213L14.3994 21.5788ZM13.5067 20.0042L13.2967 20.0567L13.4542 20.2666L13.5067 20.0042Z" fill="#964C38"/>
<path d="M13.4543 20.0567L13.1917 20.3716L13.6643 20.4766L13.4543 20.0567ZM12.9817 20.0042L12.6666 20.1092L12.9292 20.3716L12.9817 20.0042ZM14.347 20.7915L14.1894 20.8965L14.3995 21.0014L14.347 20.7915ZM13.8744 20.5291L13.7168 20.6865L13.9269 20.739L13.8744 20.5291Z" fill="#964C38"/>
<path d="M14.1893 20.8966L14.0843 21.0541L14.2944 21.1591L14.1893 20.8966ZM13.0341 20.4767L12.8766 20.5817L13.1391 20.6867L13.0341 20.4767Z" fill="#964C38"/>
<path d="M12.7716 20.3191L12.5616 20.5816L12.9291 20.6865L12.7716 20.3191ZM13.6643 21.2639L13.7693 21.3688L13.8218 21.2114L13.6643 21.2639ZM14.2419 20.634L14.1894 20.739H14.3469L14.2419 20.634ZM14.3469 21.1064L14.2944 21.2639H14.452L14.3469 21.1064ZM12.4565 20.2666L12.2465 20.4766L12.5616 20.5291L12.4565 20.2666ZM12.8766 21.0539H12.7716L12.8241 21.2114L12.8766 21.0539ZM13.1917 21.5263L13.1392 21.3688L13.0342 21.4738L13.1917 21.5263ZM13.6118 20.2142L13.7168 20.1092L13.5593 20.0042L13.6118 20.2142ZM12.9817 20.2142L12.8241 20.3716L13.0867 20.4241L12.9817 20.2142ZM12.7191 20.3716L12.5616 20.2666V20.4766L12.7191 20.3716Z" fill="#964C38"/>
<path d="M12.7192 20.3718V20.2143H12.5616L12.7192 20.3718ZM13.9794 20.5817L14.0844 20.7392L14.1895 20.5817H13.9794ZM13.7694 20.1094L13.7169 20.4768L14.0844 20.3718L13.7694 20.1094Z" fill="#964C38"/>
<path d="M13.6117 20.3715L13.7692 20.4765L13.8218 20.2666L13.6117 20.3715ZM12.3514 20.8439L12.2464 21.0014H12.404L12.3514 20.8439ZM13.2966 20.0041L13.1391 19.9517L13.1916 20.1616L13.2966 20.0041ZM12.9816 20.9489L13.0866 21.1063L13.1916 20.8964L12.9816 20.9489ZM13.4017 21.6312L13.3492 21.7362L13.5067 21.7887L13.4017 21.6312ZM12.2989 20.4765L12.1939 20.634L12.404 20.6865L12.2989 20.4765Z" fill="#964C38"/>
<path d="M12.7715 21.6313L12.614 21.5788L12.6665 21.7362L12.7715 21.6313ZM12.1939 20.7915L12.3514 20.739L12.2464 20.5815L12.1939 20.7915Z" fill="#964C38"/>
<path d="M12.0364 21.3692H12.1415L12.0889 21.2117L12.0364 21.3692ZM12.1415 20.8443L12.2465 20.7918L12.194 20.6868L12.1415 20.8443ZM12.509 20.6868V20.8443L12.6666 20.7393L12.509 20.6868ZM11.9839 21.1592H12.194L12.0889 20.9493L11.9839 21.1592ZM12.299 21.2117V21.3167L12.4565 21.2117H12.299ZM13.3492 20.5294L13.1917 20.6344L13.3492 20.7393V20.5294ZM14.0844 21.3167L14.1369 21.5266L14.2944 21.4216L14.0844 21.3167ZM13.0341 20.162L13.0867 20.3719L13.2442 20.2145L13.0341 20.162ZM13.5593 20.7393L13.4542 20.6344L13.4017 20.7918L13.5593 20.7393Z" fill="#964C38"/>
<path d="M9.41078 11.3966L9.98841 11.3441L9.67334 10.7668L9.41078 11.3966ZM16.1322 10.1894L15.9222 10.3469L16.1847 10.4518L16.1322 10.1894ZM15.7121 11.2916L15.5021 11.1342L15.4496 11.3966L15.7121 11.2916ZM10.356 10.1369L10.566 10.6093L10.9861 10.1894L10.356 10.1369ZM15.0295 8.14248L15.1345 8.40491L15.3971 8.14248H15.0295ZM15.8171 7.7226L15.9222 8.03751L16.1322 7.77508L15.8171 7.7226ZM9.14822 13.1811L9.20074 14.0733L9.88338 13.7584L9.14822 13.1811ZM9.35827 14.2833L9.46329 14.6507L9.67334 14.3358L9.35827 14.2833ZM10.5135 13.9684L10.6185 14.2308L10.8811 14.0209L10.5135 13.9684ZM9.83087 14.2308L9.93589 14.4932L10.1459 14.2308H9.83087ZM12.1414 8.24745L11.8263 8.45739L12.1939 8.71982L12.1414 8.24745ZM11.3537 10.1369L11.1962 9.97947L11.0911 10.2419L11.3537 10.1369ZM12.2989 9.45462L11.9838 9.19219L11.8263 9.66456L12.2989 9.45462ZM13.5067 8.66733H13.7692L13.6117 8.35242L13.5067 8.66733ZM13.4016 9.08722L13.5067 9.34965L13.7167 9.1397L13.4016 9.08722ZM10.671 12.8137L10.7236 13.0236L10.9336 12.8662L10.671 12.8137Z" fill="#A5693C"/>
<path d="M9.56833 13.7053L9.67335 13.9153L9.88339 13.7578L9.56833 13.7053ZM10.4085 14.755L10.461 14.965L10.6711 14.8075L10.4085 14.755ZM16.5523 8.29933L16.6048 8.56176L16.8149 8.35181L16.5523 8.29933ZM15.7646 8.66673H16.0272L15.8697 8.4043L15.7646 8.66673ZM14.4519 8.35181H14.7144L14.5569 8.08939L14.4519 8.35181ZM15.5546 7.82696L15.3446 7.98442L15.6071 8.14187L15.5546 7.82696ZM10.461 14.1252L10.6186 14.0727L10.461 13.9153V14.1252ZM10.0934 12.9705L10.1985 13.0755L10.3035 12.9181L10.0934 12.9705ZM12.3514 12.4457L12.2464 12.5507L12.4564 12.6031L12.3514 12.4457ZM11.3012 12.7081L11.4062 12.8131L11.5112 12.6556L11.3012 12.7081ZM13.5592 11.9208L13.5067 12.0783H13.6642L13.5592 11.9208ZM15.082 12.1833L14.9245 12.1308L14.977 12.3407L15.082 12.1833ZM14.1368 9.55898L14.3994 9.66395L14.3468 9.29655L14.1368 9.55898ZM11.2487 8.92915L11.7213 9.08661L11.6688 8.50927L11.2487 8.92915ZM9.56833 12.3407L9.83088 12.4457L9.77837 12.0783L9.56833 12.3407ZM14.2418 7.77448V8.0369L14.5044 7.98442L14.2418 7.77448Z" fill="#A5693C"/>
<path d="M15.9748 8.98237L15.7123 9.03485L15.9223 9.29728L15.9748 8.98237ZM13.5593 8.30006L13.6118 7.82769L13.0867 7.98514L13.5593 8.30006ZM14.557 8.1426L14.8721 8.09012L14.662 7.82769L14.557 8.1426ZM14.1369 7.72272H13.7168L13.9794 8.19509L14.1369 7.72272ZM12.7716 10.5044L12.9817 10.7669L13.1917 10.452L12.7716 10.5044ZM15.0821 7.7752L14.9246 7.93266L15.1872 8.03763L15.0821 7.7752ZM10.2511 14.3884L10.3036 14.5983L10.5137 14.3884H10.2511ZM9.51595 12.289L9.35841 12.3939L9.56846 12.4989L9.51595 12.289ZM9.93604 15.2281L9.7785 15.3331L9.98855 15.4906L9.93604 15.2281ZM10.1461 14.8607L9.98855 14.7033L9.93604 14.9657L10.1461 14.8607ZM9.30591 13.1812L9.56846 13.1287L9.41093 12.9188L9.30591 13.1812ZM9.98855 11.9216L10.2511 11.8691L10.0936 11.6066L9.98855 11.9216ZM9.25339 11.8166L9.35841 12.3414L9.88352 11.974L9.25339 11.8166ZM9.83102 13.2862L9.93604 13.6536L10.2511 13.3911L9.83102 13.2862ZM10.4086 11.974L10.0411 12.2365L10.4611 12.4989L10.4086 11.974ZM9.09586 12.8138L9.51595 12.7613L9.25339 12.3939L9.09586 12.8138ZM9.41093 14.9657L9.51595 15.4906L9.98855 15.1232L9.41093 14.9657ZM10.2511 13.7585L9.93604 13.9685L10.3561 14.1259L10.2511 13.7585ZM9.67348 14.9132L9.88352 14.8607L9.726 14.6508L9.67348 14.9132ZM10.6712 14.5983L10.7762 14.8083L10.9337 14.5983H10.6712ZM10.3036 15.2806L10.1461 15.4381L10.3561 15.5431L10.3036 15.2806ZM11.9315 9.6122L11.7739 9.92711H12.1415L11.9315 9.6122ZM11.3013 9.2448L11.1438 9.50722L11.5114 9.55971L11.3013 9.2448ZM11.8789 8.71994L11.7214 8.98237H11.984L11.8789 8.71994Z" fill="#A5693C"/>
<path d="M11.2488 10.0316L11.1437 10.2415L11.4063 10.294L11.2488 10.0316ZM11.7214 9.71665L11.9314 9.82162V9.55919L11.7214 9.71665ZM9.62091 12.7608L9.9885 12.9707L10.041 12.4984L9.62091 12.7608ZM10.3036 11.4487L10.4611 11.5536L10.5136 11.3437L10.3036 11.4487ZM12.9816 8.19457L13.1917 8.29954V8.0896L12.9816 8.19457ZM12.3515 8.61445L12.509 8.66694L12.5615 8.457L12.3515 8.61445ZM10.1985 10.9238L10.3561 10.9763V10.7664L10.1985 10.9238ZM11.4588 9.66416L11.3013 9.92659H11.6163L11.4588 9.66416ZM11.0387 9.82162V9.45422L10.6711 9.61168L11.0387 9.82162ZM11.8264 9.34925H11.6163L11.6689 9.55919L11.8264 9.34925ZM11.5113 10.189L11.4588 10.3465H11.6689L11.5113 10.189ZM10.7762 10.3465L10.5661 10.294L10.6186 10.5564L10.7762 10.3465ZM10.3561 15.595L10.4611 15.3851H10.2511L10.3561 15.595ZM10.146 17.0121L10.1985 16.8022H9.9885L10.146 17.0121ZM9.9885 16.2248L10.0935 16.0674H9.83096L9.9885 16.2248ZM10.3036 17.327L10.5136 17.3795L10.4611 17.1696L10.3036 17.327ZM10.3561 16.6972L10.4611 16.4873L10.1985 16.4348L10.3561 16.6972ZM9.62091 15.8575L9.9885 15.9624L9.93598 15.5425L9.62091 15.8575Z" fill="#A5693C"/>
<path d="M9.98841 16.1723L9.93589 16.6971L10.5135 16.4872L9.98841 16.1723ZM10.1984 17.0645L10.1459 17.222L10.356 17.1695L10.1984 17.0645ZM9.93589 11.3436L10.1459 11.3961L10.0934 11.1337L9.93589 11.3436ZM9.83087 10.1889V10.7138L10.356 10.5038L9.83087 10.1889ZM9.98841 10.7663L9.93589 10.9762L10.1984 10.9237L9.98841 10.7663ZM11.5637 10.6613L11.1962 10.7663L11.4062 11.0812L11.5637 10.6613ZM15.082 8.71934L14.8719 8.77182L15.0295 8.92928L15.082 8.71934ZM14.5569 8.71934H14.8194L14.6619 8.45691L14.5569 8.71934ZM12.9815 9.66407L13.4541 9.87402L13.4016 9.24419L12.9815 9.66407ZM12.2989 9.13922L12.824 9.34916L12.7715 8.71934L12.2989 9.13922ZM14.7669 9.03425L14.5044 9.08674L14.7144 9.29668L14.7669 9.03425ZM13.8742 8.77182H13.6642L13.8217 8.98176L13.8742 8.77182ZM10.8286 11.0287H10.6185L10.7761 11.2386L10.8286 11.0287ZM10.8811 9.24419L11.3537 9.40165L11.2487 8.87679L10.8811 9.24419ZM11.8788 10.5038L12.3514 10.6613L12.2989 10.1364L11.8788 10.5038ZM10.1984 9.76905L10.671 9.9265L10.6185 9.34916L10.1984 9.76905Z" fill="#A5693C"/>
<path d="M12.6666 9.87411L12.8767 9.97908V9.66416L12.6666 9.87411ZM14.6096 10.7664L14.8721 10.8713L14.8196 10.6089L14.6096 10.7664ZM12.3516 8.19457L12.6141 8.457L12.7192 8.0896L12.3516 8.19457ZM12.2991 8.92937H12.089L12.194 9.13931L12.2991 8.92937ZM13.1393 8.8244L12.9292 8.87688L13.0867 9.03434L13.1393 8.8244ZM12.2991 11.2912L12.5616 11.3437L12.5091 11.0813L12.2991 11.2912ZM11.984 10.6089V10.8188L12.194 10.7139L11.984 10.6089ZM10.9338 10.7664L10.7237 10.6089L10.6712 10.8713L10.9338 10.7664ZM11.6689 11.7636L11.774 12.026L11.9315 11.7636H11.6689ZM10.7762 10.8713L10.6187 11.1338L10.9863 11.1862L10.7762 10.8713Z" fill="#A5693C"/>
<path d="M10.6187 10.9764L10.7762 11.0289V10.8189L10.6187 10.9764ZM10.5137 11.3963L10.3561 11.7637L10.7762 11.7112L10.5137 11.3963ZM10.7237 12.1311L10.9863 12.1836L10.9338 11.9211L10.7237 12.1311ZM11.5114 11.1338L11.7739 11.1863L11.7214 10.9239L11.5114 11.1338ZM11.1438 12.551L11.4064 12.6034L11.3538 12.341L11.1438 12.551ZM10.8813 11.2913V11.5012L11.1438 11.4488L10.8813 11.2913ZM13.6643 10.9764L13.4543 11.0289L13.5593 11.1863L13.6643 10.9764ZM13.0867 8.35211L12.8242 8.4046L12.9817 8.61454L13.0867 8.35211ZM11.6164 11.8162H11.4064L11.5639 12.0261L11.6164 11.8162Z" fill="#A5693C"/>
<path d="M27.2653 14.7559L27.0027 14.4934L26.8452 14.8084L27.2653 14.7559ZM20.9639 10.3996L21.2265 10.5045V10.1896L20.9639 10.3996ZM18.6009 10.6095L18.5484 10.9244L18.916 10.8195L18.6009 10.6095ZM25.1648 14.126L25.3749 13.8636L25.0073 13.7586L25.1648 14.126ZM20.3338 11.5018L20.4913 11.1869H20.0712L20.3338 11.5018ZM19.3886 11.1869L19.5461 10.8719H19.126L19.3886 11.1869ZM28.6306 15.1233L29.5232 15.0708L29.1557 14.3885L28.6306 15.1233ZM28.2105 15.0183L28.5255 14.7034L28.0529 14.6509L28.2105 15.0183ZM28.9981 11.7642L29.2082 11.4493L28.8406 11.3968L28.9981 11.7642ZM27.5803 14.9133L27.7904 14.6509L27.4228 14.5459L27.5803 14.9133ZM22.5918 13.6012L22.9068 13.7062L22.8543 13.3388L22.5918 13.6012ZM24.6922 13.4437V13.7586L24.9548 13.6537L24.6922 13.4437ZM23.5895 13.1813V13.4962L23.9045 13.3913L23.5895 13.1813ZM21.9091 12.3415L21.6991 12.0791L21.489 12.394L21.9091 12.3415ZM22.3292 12.1316L22.5393 11.9217L22.1717 11.8167L22.3292 12.1316ZM27.7904 12.394L27.9479 12.1841L27.6328 12.0791L27.7904 12.394Z" fill="#3A1911"/>
<path d="M28.9979 12.814L29.1554 12.604L28.8403 12.4991L28.9979 12.814ZM28.0002 13.7062L28.2102 13.4438L27.8426 13.3913L28.0002 13.7062ZM19.1258 10.872L19.2308 10.6096L18.9157 10.5571L19.1258 10.872ZM20.2285 10.4521L20.0185 10.2422L19.9134 10.5571L20.2285 10.4521ZM21.0162 11.8167L20.8061 11.6068L20.7011 11.9217L21.0162 11.8167ZM19.6509 11.2919L19.966 11.3444L19.8609 11.0295L19.6509 11.2919ZM30.6782 13.1289L30.5207 13.0239L30.4682 13.2339L30.6782 13.1289ZM28.3152 12.8665L28.3678 12.6565L28.1577 12.709L28.3152 12.8665ZM26.3198 10.977H26.4773L26.4248 10.8195L26.3198 10.977ZM27.265 11.8692L27.3175 11.6068L27.055 11.7118L27.265 11.8692ZM25.007 10.1372H25.1646L25.0595 9.92727L25.007 10.1372ZM24.0093 8.82507L24.0618 8.98253L24.2194 8.82507H24.0093ZM22.329 11.1344L22.2239 10.767L21.9089 11.0295L22.329 11.1344ZM23.4842 14.0211L23.4317 13.4438L22.8541 13.7587L23.4842 14.0211ZM27.8426 13.4438L27.7376 13.1289L27.4225 13.3913L27.8426 13.4438ZM20.7011 12.4466L20.9112 12.2366L20.6486 12.0792L20.7011 12.4466Z" fill="#3A1911"/>
<path d="M20.2812 10.8719L20.5437 11.0293L20.5963 10.7144L20.2812 10.8719ZM21.6465 12.7614L21.3839 12.4989L21.2789 12.8663L21.6465 12.7614ZM20.7538 11.8691L20.4387 11.7116L20.3862 12.079L20.7538 11.8691ZM21.4364 12.289L21.1214 12.079V12.4989L21.4364 12.289ZM24.167 11.8166L24.272 11.5542L23.957 11.5017L24.167 11.8166ZM19.9661 11.7641H20.2812L20.1762 11.4492L19.9661 11.7641ZM29.5757 11.8166L29.7332 11.5542L29.4181 11.5017L29.5757 11.8166ZM28.0003 13.8635L28.2629 13.9685L28.2104 13.7061L28.0003 13.8635Z" fill="#3A1911"/>
<path d="M28.7881 13.8108L28.9981 13.9158V13.6534L28.7881 13.8108ZM28.263 13.8633V14.1258L28.5255 14.0208L28.263 13.8633ZM28.9981 13.4959L28.8406 13.2335L28.683 13.5484L28.9981 13.4959ZM27.3178 13.6534L27.1602 13.391L27.0027 13.7059L27.3178 13.6534ZM27.4228 14.1782L27.5803 14.0208L27.3178 13.9158L27.4228 14.1782ZM28.683 12.6562L28.8406 12.4462L28.578 12.3937L28.683 12.6562ZM27.0552 13.0236L27.2652 13.1285V12.8661L27.0552 13.0236ZM29.6282 13.9683L29.4182 13.7584L29.2607 14.0733L29.6282 13.9683Z" fill="#3A1911"/>
<path d="M28.8403 14.3356L28.9978 14.1256L28.6828 14.0731L28.8403 14.3356ZM29.1028 12.0787L29.3654 12.1837L29.3129 11.9212L29.1028 12.0787ZM28.6303 14.3356L28.4202 14.1256L28.3152 14.4405L28.6303 14.3356ZM29.5229 11.1864L29.628 10.9765L29.3654 10.924L29.5229 11.1864ZM28.5777 13.3908L28.8403 13.4958L28.7878 13.1809L28.5777 13.3908ZM23.8517 13.2334H24.2193L24.0093 12.866L23.8517 13.2334ZM23.9042 14.1256L24.2193 14.0731L24.0618 13.7582L23.9042 14.1256ZM23.4316 14.0207L23.7467 13.9682L23.5892 13.7057L23.4316 14.0207Z" fill="#3A1911"/>
<path d="M24.692 13.6536H25.0071L24.8495 13.3387L24.692 13.6536ZM24.0094 13.3912V13.1288L23.7468 13.2862L24.0094 13.3912ZM30.1532 14.8608L29.7856 14.4934L29.5755 15.0182L30.1532 14.8608ZM26.4249 14.8608L26.2674 14.1785L25.6372 14.7033L26.4249 14.8608ZM26.6874 13.6011V13.3912L26.4774 13.4962L26.6874 13.6011ZM21.7514 13.1288L21.6989 12.9188L21.4888 13.0238L21.7514 13.1288ZM22.5391 13.4962L22.4865 13.2862L22.2765 13.3912L22.5391 13.4962ZM26.2148 14.126V13.8636L25.9523 14.021L26.2148 14.126ZM24.2194 13.7061L24.482 13.6536L24.3244 13.3912L24.2194 13.7061ZM24.7445 13.9685L24.5345 14.126L24.7445 14.231V13.9685ZM23.6418 13.4962L23.7468 13.7586L23.9569 13.5486L23.6418 13.4962ZM24.6395 13.2862L24.9021 13.2337L24.7445 12.9713L24.6395 13.2862ZM25.2696 13.916L25.3747 14.126L25.5847 13.916H25.2696ZM29.4705 13.1288L29.2605 13.1813L29.3655 13.3912L29.4705 13.1288ZM30.1007 13.7061L29.8906 13.7586L30.0481 13.9685L30.1007 13.7061ZM30.2057 13.3912L29.9431 13.4437L30.1007 13.6536L30.2057 13.3912Z" fill="#3A1911"/>
<path d="M30.8885 13.916L30.836 13.6536L30.6259 13.8635L30.8885 13.916ZM29.9433 12.4989H29.6282L29.7857 12.7614L29.9433 12.4989ZM29.7332 14.4409L29.6282 14.1785L29.4707 14.3359L29.7332 14.4409ZM30.1533 14.2834L30.3634 14.1785L30.1533 14.021V14.2834ZM30.5209 14.3359L30.731 14.2309L30.5209 14.0735V14.3359ZM26.8451 14.126L26.7401 13.8111L26.4775 14.021L26.8451 14.126ZM25.6374 14.3359L25.8474 14.2309L25.6374 14.0735V14.3359ZM26.2675 14.3884L26.4775 14.2834L26.2675 14.126V14.3884ZM25.3748 12.8663L25.5323 13.0238L25.6374 12.7614L25.3748 12.8663ZM20.8063 11.0293L21.0164 11.1343L21.0689 10.8719L20.8063 11.0293ZM21.2264 11.4492L21.0164 11.2393L20.9114 11.5542L21.2264 11.4492ZM23.1693 12.289L23.0643 11.9216L22.7492 12.184L23.1693 12.289ZM23.2744 12.9713L23.1693 12.6564L22.8543 12.9188L23.2744 12.9713ZM21.384 10.8194L21.594 11.0293L21.699 10.7144L21.384 10.8194ZM21.699 11.9216L21.8566 12.079L21.9616 11.8691L21.699 11.9216ZM25.8999 13.3912L26.0575 13.6011L26.1625 13.2862L25.8999 13.3912Z" fill="#3A1911"/>
<path d="M24.3246 14.3359L24.2196 14.0735L24.0096 14.2834L24.3246 14.3359ZM25.0598 12.4989L25.0073 12.2365L24.7447 12.4464L25.0598 12.4989ZM25.2173 14.6508L25.0598 14.0735L24.5347 14.4934L25.2173 14.6508ZM23.5895 12.394L23.5369 12.079L23.2744 12.289L23.5895 12.394ZM23.1169 11.0293L23.0118 10.7144L22.7493 10.9244L23.1169 11.0293ZM22.1717 13.4437L22.3817 13.2862L22.1717 13.1287V13.4437ZM22.9068 13.3387L23.0643 13.5486L23.1694 13.2862L22.9068 13.3387ZM22.2242 12.5514L22.4342 12.7614L22.5392 12.4989L22.2242 12.5514ZM25.2173 11.8166L25.1123 11.5017L24.9022 11.7116L25.2173 11.8166ZM24.1671 12.8138L24.3771 12.7089L24.1671 12.5514V12.8138ZM25.5849 13.4437L25.5324 13.7586L25.8474 13.7061L25.5849 13.4437ZM26.11 12.1315L26.2675 11.8691L25.8999 11.8166L26.11 12.1315ZM25.8474 13.5486L26.215 13.4961L25.9525 13.1287L25.8474 13.5486Z" fill="#3A1911"/>
<path d="M26.0047 13.6533L25.9522 13.4434L25.7422 13.6009L26.0047 13.6533ZM26.6349 13.6009L26.8449 13.4959L26.6874 13.286L26.6349 13.6009ZM27.055 12.8136L26.9499 12.4987L26.7399 12.7086L27.055 12.8136ZM25.5846 12.6561L25.4796 12.3937L25.2171 12.6036L25.5846 12.6561ZM27.2125 12.0788L27.1075 11.8164L26.8449 12.0263L27.2125 12.0788ZM26.1623 13.1285L26.3723 13.0235L26.1098 12.8661L26.1623 13.1285ZM24.0093 10.6617L24.1668 10.8716L24.3244 10.6092L24.0093 10.6617ZM21.8564 12.971L22.0139 13.1285L22.1189 12.8661L21.8564 12.971ZM26.1623 12.1313L26.3198 12.3412L26.4248 12.0788L26.1623 12.1313ZM16.4477 18.6395V18.2721L16.8153 18.4295L16.4477 18.6395ZM16.9728 12.1313L16.8678 12.3937L16.6577 12.1313H16.9728ZM18.8632 10.7142L19.1258 10.9241L18.8107 11.0291L18.8632 10.7142ZM17.5504 16.8025L17.2354 16.6975L17.4454 16.3826L17.5504 16.8025ZM18.2331 12.5512L17.8655 12.3937L18.1806 12.1313L18.2331 12.5512ZM18.7057 11.6589L18.3381 11.5014L18.6532 11.239L18.7057 11.6589ZM15.9751 18.7969L15.7651 19.6367L15.2399 18.9544L15.9751 18.7969ZM12.8244 17.7472L12.4569 17.6947L12.7194 17.3798L12.8244 17.7472ZM16.2902 18.9544L15.9751 18.9019L16.1851 18.587L16.2902 18.9544ZM18.1806 16.3301L17.918 16.4876L17.8655 16.1727L18.1806 16.3301ZM16.2902 16.9075L16.5002 17.1174L16.2377 17.2224L16.2902 16.9075ZM17.0253 15.8577L17.2879 16.0677L16.9728 16.1727L17.0253 15.8577ZM17.603 14.1782L17.5504 13.8633L17.9705 13.9683L17.603 14.1782ZM17.1303 14.3357L16.8678 14.2832L17.0253 14.0207L17.1303 14.3357ZM13.9797 18.1671L13.5596 18.1146L13.8221 17.6947L13.9797 18.1671ZM18.7057 11.239L18.3906 11.134L18.6532 10.8716L18.7057 11.239ZM17.5504 11.7114L17.603 11.3965L17.8655 11.5539L17.5504 11.7114ZM17.918 13.6009L17.9705 13.286L18.2331 13.4434L17.918 13.6009ZM18.5481 11.9213L18.3906 12.1838L18.2331 11.8688L18.5481 11.9213ZM13.4546 16.1727L13.297 16.3301L13.2445 16.1202L13.4546 16.1727ZM13.297 17.4848L13.1395 17.3273L13.3495 17.2224L13.297 17.4848ZM13.8221 14.6506L13.6646 14.7555V14.5456L13.8221 14.6506ZM13.6646 13.0235L13.7696 13.181H13.5596L13.6646 13.0235ZM16.4477 13.6009L16.2902 13.286H16.7103L16.4477 13.6009ZM17.603 16.4351L17.3404 16.2251L17.708 16.0677L17.603 16.4351ZM18.6007 13.6009H18.2856L18.4431 13.286L18.6007 13.6009ZM17.813 12.0263L17.7605 12.3412L17.4979 12.1313L17.813 12.0263ZM18.2331 14.5456L18.2856 14.1782L18.6007 14.3881L18.2331 14.5456ZM18.1806 13.181L18.2856 12.8136L18.6007 13.076L18.1806 13.181ZM18.1281 14.1257L18.2331 13.8108L18.5481 14.0732L18.1281 14.1257ZM15.6075 15.3329L15.2925 15.2279L15.555 14.9655L15.6075 15.3329ZM18.6532 12.4987L18.3906 12.7086L18.2856 12.3937L18.6532 12.4987ZM15.66 17.9047L15.6075 17.5898L15.9226 17.6947L15.66 17.9047ZM15.2925 17.9572L14.9249 17.7472L15.2925 17.4848V17.9572ZM15.9226 18.3246H15.7125L15.8176 18.1146L15.9226 18.3246ZM15.1349 18.1671L15.0824 18.377L14.8724 18.1671H15.1349ZM11.1966 18.482L10.9865 18.4295L11.1441 18.2196L11.1966 18.482Z" fill="#3A1911"/>
<path d="M15.765 18.482L15.2924 18.8494L15.1349 18.1671L15.765 18.482ZM17.3404 16.855L17.0778 17.0649L16.9728 16.6975L17.3404 16.855ZM17.6029 16.4876L17.3404 16.645L17.2878 16.3301L17.6029 16.4876ZM14.7673 18.2196L14.5047 18.4295L14.4522 18.1146L14.7673 18.2196ZM16.7102 16.3826L16.6052 16.2251L16.8677 16.1727L16.7102 16.3826ZM17.2878 18.0097L16.9203 17.4848L17.6554 17.3798L17.2878 18.0097ZM18.233 16.1727L17.6554 15.5953L18.5481 15.2279L18.233 16.1727ZM16.0801 17.4323L15.9751 17.2224L16.1851 17.1699L16.0801 17.4323ZM18.3906 14.9655L18.2855 14.7556H18.4956L18.3906 14.9655ZM17.3929 15.5428L17.2353 15.3329L17.4979 15.2804L17.3929 15.5428ZM16.7627 17.4848L16.6052 17.2749L16.8677 17.2224L16.7627 17.4848Z" fill="#3A1911"/>
<path d="M16.6054 17.3276L16.8679 17.2751L16.7629 17.5375L16.6054 17.3276ZM17.1305 16.2779L17.183 16.4878H16.9204L17.1305 16.2779ZM17.0255 16.6453L17.1305 16.8552L16.8679 16.8027L17.0255 16.6453ZM16.2903 17.9049L16.1853 17.6425L16.5003 17.59L16.2903 17.9049Z" fill="#3A1911"/>
<path d="M17.3406 17.2751L17.1305 17.3276L17.183 17.0651L17.3406 17.2751ZM16.9205 17.7474H16.7104L16.763 17.485L16.9205 17.7474ZM15.3977 16.9077V17.1701L15.1351 17.0127L15.3977 16.9077ZM17.4981 12.4989L17.4456 12.7088L17.2355 12.5514L17.4981 12.4989ZM17.4981 13.0762V12.8138L17.8132 12.9713L17.4981 13.0762ZM16.6054 15.0182L16.4479 14.7033H16.868L16.6054 15.0182ZM17.0255 15.5955L16.868 15.2806H17.2881L17.0255 15.5955ZM16.973 12.7613V13.0238L16.6579 12.9188L16.973 12.7613Z" fill="#3A1911"/>
<path d="M17.4454 13.7587V14.0211L17.2353 13.9161L17.4454 13.7587ZM16.3952 16.7503L16.2902 16.4879H16.6052L16.3952 16.7503ZM15.3975 16.4354L15.2399 16.173H15.555L15.3975 16.4354ZM16.7628 17.9575L16.6052 17.6951H16.9728L16.7628 17.9575ZM16.3427 15.3857L16.2376 15.1233L16.5527 15.0708L16.3427 15.3857ZM15.8175 14.0211L15.7125 13.7587H16.0276L15.8175 14.0211ZM18.128 15.1758L17.918 15.2283L17.9705 14.9658L18.128 15.1758ZM17.5504 15.6481V15.9106L17.2879 15.7531L17.5504 15.6481ZM17.4979 14.5984V14.8609L17.2353 14.7034L17.4979 14.5984ZM14.7673 16.068L14.6623 15.7531H14.9774L14.7673 16.068ZM16.2376 16.1205L16.0276 16.173L16.0801 15.9106L16.2376 16.1205ZM14.3472 16.9078L14.0322 16.7503L14.2947 16.5404L14.3472 16.9078ZM16.1326 17.3802L15.9226 17.4851L15.8701 17.1702L16.1326 17.3802ZM14.2947 18.2724L14.0322 17.7476H14.7148L14.2947 18.2724ZM15.1349 16.9078L14.9774 16.6454H15.2924L15.1349 16.9078ZM13.5071 17.5901L13.402 17.3277H13.7171L13.5071 17.5901ZM16.1326 16.6979L15.9226 16.7503L15.9751 16.4879L16.1326 16.6979ZM14.9249 14.441V14.6509L14.6623 14.5459L14.9249 14.441ZM18.0755 14.6509L18.023 14.8609L17.813 14.7559L18.0755 14.6509ZM14.3472 16.9603L14.2947 17.1702L14.0847 17.0653L14.3472 16.9603Z" fill="#3A1911"/>
<path d="M20.3334 17.5899C20.2809 17.5899 20.1758 17.5899 20.1233 17.5374C19.9658 17.4325 19.9133 17.17 20.0183 17.0126C20.0708 16.9601 20.911 15.7004 22.8014 15.8579C23.0114 15.8579 23.169 16.0678 23.169 16.2778C23.169 16.4877 22.9589 16.6452 22.7489 16.6452C21.3311 16.5402 20.7009 17.4325 20.7009 17.4849C20.5434 17.5374 20.4384 17.5899 20.3334 17.5899ZM28.105 16.4877C28.0525 16.4877 27.9475 16.4877 27.895 16.4352C27.4749 16.1203 26.8447 16.3303 26.7922 16.3303C26.5822 16.3827 26.3721 16.2778 26.3196 16.0678C26.2671 15.8579 26.3721 15.648 26.5822 15.5955C26.6347 15.5955 27.5799 15.2805 28.3151 15.8054C28.4726 15.9104 28.5251 16.1728 28.4201 16.3303C28.3676 16.4352 28.21 16.4877 28.105 16.4877Z" fill="#B76349"/>
<path d="M22.2236 20.1094C22.6296 20.1094 22.9587 19.7804 22.9587 19.3746C22.9587 18.9688 22.6296 18.6398 22.2236 18.6398C21.8175 18.6398 21.4884 18.9688 21.4884 19.3746C21.4884 19.7804 21.8175 20.1094 22.2236 20.1094Z" fill="#4F2B23"/>
<path d="M27.6847 19.6898C28.0907 19.6898 28.4198 19.3608 28.4198 18.955C28.4198 18.5492 28.0907 18.2202 27.6847 18.2202C27.2786 18.2202 26.9495 18.5492 26.9495 18.955C26.9495 19.3608 27.2786 19.6898 27.6847 19.6898Z" fill="#4F2B23"/>
<path d="M25.2691 23.8358C25.1115 23.8358 24.954 23.7308 24.9015 23.5209C24.849 23.3109 25.0065 23.101 25.2166 23.101C25.2166 23.101 25.7942 22.996 25.8467 22.5236C25.8992 22.0513 25.4266 20.7391 25.1641 20.0568C25.059 19.8469 25.1641 19.6369 25.3741 19.5845C25.5841 19.4795 25.7942 19.5845 25.8467 19.7944C25.9517 20.0043 26.6344 21.7888 26.5819 22.6286C26.5293 23.4159 25.7942 23.8358 25.3741 23.8883C25.3216 23.8358 25.2691 23.8358 25.2691 23.8358Z" fill="#B4603F"/>
<path d="M23.2739 25.8304C22.5854 25.8238 21.9172 25.5956 21.3686 25.1796C20.82 24.7636 20.4202 24.182 20.2283 23.521C20.1758 23.3111 20.2808 23.1011 20.4908 23.0487C20.7009 22.9962 20.9109 23.1011 20.9634 23.3111C21.1105 23.81 21.4149 24.2482 21.8312 24.5602C22.2475 24.8723 22.7535 25.0417 23.2739 25.0431C23.484 25.0431 23.6415 25.253 23.6415 25.4105C23.6415 25.6729 23.484 25.8304 23.2739 25.8304Z" fill="#CF7653"/>
<path d="M21.6988 30.9736L20.6485 35.2249L24.3243 36.1172L24.9019 38.374C24.9019 38.374 28.5252 44.2524 29.838 54.7495L33.5138 84.8762C34.5115 92.0142 35.0366 100.674 37.7672 107.76C40.4978 114.845 42.0206 114.426 43.5434 114.53C45.0662 114.688 45.8539 114.845 44.9087 110.909C43.9635 106.973 27.5275 31.7609 27.5275 31.7609L21.6988 30.9736Z" fill="#763829"/>
<path d="M21.6987 30.9736L20.491 36.3271C20.491 36.3271 24.4293 36.3271 25.7946 38.479C27.1599 40.6309 28.3151 46.3518 29.2603 48.8711C30.2055 51.3904 30.153 53.2799 30.153 53.2799L32.306 53.6473L27.58 31.7609L21.6987 30.9736Z" fill="url(#paint5_linear_801_1194)"/>
<path d="M13.5068 90.7024H34.2487C34.2487 90.7024 32.0432 63.8298 30.1003 51.3383C28.1574 38.8467 24.3241 36.1175 24.3241 36.1175L15.7648 36.3274L13.5068 90.7024Z" fill="#FFFBDC"/>
<path d="M5.15747 29.6616L26.267 34.6477L23.1688 83.7216C21.751 99.1523 21.2259 108.81 17.5501 115.213C13.8743 121.616 2.37439 122.823 -3.29682 122.823C-8.91552 122.823 -15.952 122.508 -17.6324 121.354C-19.3127 120.199 5.15747 29.6616 5.15747 29.6616Z" fill="#7A3A2B"/>
<path d="M20.9107 41.9434C23.4312 48.3466 18.6527 57.1117 9.62079 60.6283C-0.566376 64.5647 -7.55035 68.5011 -10.9111 72.0176C-14.2718 75.5341 -16.2672 81.9374 -16.7923 85.7163C-17.2124 88.5505 -17.475 92.3295 -17.58 94.114C-17.6325 94.6913 -18.0526 95.1112 -18.6302 95.1112L-34.121 95.6361C-34.6461 95.6361 -35.1187 95.2162 -35.1712 94.6913C-35.5913 89.7577 -36.7466 67.1365 -25.2466 52.7554C-13.1165 37.5871 1.53408 33.7557 7.99295 33.7557C16.4473 33.7557 19.2303 37.6396 20.9107 41.9434Z" fill="#874130"/>
<path d="M-11.751 41.7859L-12.0136 41.576L-11.9611 42.1533L-11.541 41.8909L-11.646 41.8384L-11.1734 41.261L-10.6483 41.6284L-11.331 41.576L-10.9634 42.3107L-10.4383 41.7334L-10.3332 41.8384L-10.3858 40.5787L-9.49306 40.6312L-9.44055 40.7362L-10.1757 41.0511L-9.17799 41.8384L-8.75791 40.4738L-9.17799 40.6312L-8.81042 40.3163L-8.44284 40.5787L-8.7054 40.9986H-8.81042L-8.75791 41.1036L-8.81042 41.2086H-8.7054L-8.49535 41.7859L-8.07526 41.261H-7.76019L-7.70769 41.3135V41.261H-7.60266L-7.65517 41.1036L-7.55015 40.7887L-7.76019 40.8412L-8.07526 39.8439L-8.33782 40.3163L-8.28531 38.5318L-7.76019 38.9517L-8.28531 39.739L-7.65517 39.7914L-7.81271 40.0014L-6.81499 40.1064L-6.97253 39.634L-6.86751 39.6865L-6.76248 39.0042L-6.65746 39.3716L-5.97482 38.7417L-6.70997 38.5843L-6.60495 37.5346L-8.49535 38.4268L-8.39033 38.5318L-10.0182 39.3191L-9.12549 40.0539L-9.7031 39.9489L-9.86064 39.4765L-10.4383 40.3688L-10.4908 39.5815L-12.0661 40.5787L-11.436 40.9986H-12.1186L-11.751 41.7859ZM-7.44513 39.5815L-7.55015 39.2141L-7.3401 39.3716L-7.44513 39.5815ZM-3.71684 41.261L-3.66432 40.7887L-4.18943 40.9986L-3.71684 41.261ZM-9.07297 44.4102V44.3052L-9.54558 44.4102L-9.12549 44.7776L-9.07297 44.6201L-8.86293 44.8301L-8.7054 44.3577L-9.07297 44.4102ZM-8.86293 42.6257L-9.75562 42.7306L-9.12549 43.4129L-8.86293 42.6257ZM-7.44513 42.5732L-7.2876 42.0483L-7.91773 42.1008L-7.44513 42.5732ZM-9.59808 45.6698L-10.1232 45.7748L-9.7031 46.1422L-9.59808 45.6698ZM1.69182 45.0925L2.16441 44.8301L1.6393 44.4102L1.69182 45.0925ZM-0.408629 42.5732L-0.198588 42.1008L-0.776206 42.2058L-0.408629 42.5732ZM3.68724 42.0483L4.21235 42.1533L3.9498 41.6284L3.68724 42.0483ZM2.21693 43.308L2.42697 42.8356L1.90186 42.9406L2.21693 43.308ZM-1.87894 45.9847L-1.40635 45.7223L-1.93146 45.3024L-1.87894 45.9847ZM-3.97939 43.4654L-3.76935 42.9931L-4.29446 43.098L-3.97939 43.4654ZM0.116482 42.9406L0.641594 43.0455L0.379038 42.5732L0.116482 42.9406ZM-1.35383 44.2002L-1.14379 43.6754L-1.6689 43.8328L-1.35383 44.2002ZM1.53428 37.1147L1.6393 37.692L2.16441 37.3246L1.53428 37.1147ZM4.94751 35.5401L4.52742 35.7501L4.94751 36.1175V35.5401ZM3.73975 40.3688L4.31738 40.2113L4.0023 39.8439L3.73975 40.3688ZM7.88814 35.7501L8.25571 35.1727L7.67809 35.1202L7.88814 35.7501ZM8.25571 38.6893L8.83333 38.8467L8.78082 38.3743L8.25571 38.6893ZM4.94751 36.6948L4.52742 36.3274L4.47491 36.9047L4.94751 36.6948ZM11.879 34.9628L12.0365 35.5401L12.4041 35.0153L11.879 34.9628ZM12.8767 38.1119L12.4566 38.3743L12.9817 38.5318L12.8767 38.1119ZM8.83333 36.6423L9.25342 36.4324L8.88585 36.1175L8.83333 36.6423ZM7.258 37.692L7.57307 37.2197H7.10047L7.258 37.692ZM7.57307 40.1588L8.04566 40.2638L7.99316 39.8964L7.57307 40.1588ZM4.4224 38.7417L4.78997 38.5843L4.4224 38.2694V38.7417ZM4.57993 39.7914L5.10504 39.9489L4.89499 39.424L4.57993 39.7914ZM3.52971 41.4185L3.68724 40.8412L3.0571 40.9461L3.52971 41.4185ZM0.0639677 40.8936L-0.198588 41.366H0.274017L0.0639677 40.8936ZM2.53199 37.8495L2.95208 37.5346L2.42697 37.4296L2.53199 37.8495ZM3.68724 39.1616L3.16213 39.2666L3.58221 39.634L3.68724 39.1616ZM-0.146074 37.6395L-0.986256 38.2169L0.0114613 38.5318L-0.146074 37.6395ZM-2.29904 40.5262L-1.93146 40.9986L-1.72141 40.5262H-2.29904ZM-5.29217 40.4213L-4.81957 40.4738L-4.9771 40.0014L-5.29217 40.4213ZM-1.14379 37.0097L-1.03876 37.6395L-0.408629 37.2197L-1.14379 37.0097ZM-2.19401 36.8523L-2.24652 37.3246L-2.40406 37.2721L-2.35154 37.692L-1.93146 37.4821L-2.1415 37.3771L-1.82643 37.2721L-2.19401 36.8523ZM5.99773 34.5954L6.05025 34.4904L6.10275 34.6479L6.57536 34.228L6.15527 34.123L6.26029 33.8081L5.15755 33.9131L5.21006 33.8081L3.73975 34.0705L3.79226 34.1755L3.16213 34.8053L3.68724 34.9628L2.95208 35.1727L3.26715 34.228L1.79684 34.4904L1.90186 34.6479L1.6393 34.7528L1.37675 34.7004L1.42926 34.8053L1.27173 34.8578L1.32424 34.6479L-0.146074 35.0153L0.0114613 35.2252L-0.566165 35.855L0.0639677 36.0125L0.116482 36.1699L-0.828721 36.4324L-0.566165 35.1727L-1.98396 35.5926L-1.56387 36.1175L-2.24652 36.0125L-2.19401 35.7501L-3.82186 36.3274L-5.44971 36.9572L-5.39719 37.0097L-6.55243 37.5346L-5.44971 38.5318L-5.8698 38.4793L-5.65975 39.2666L-4.9771 38.6368L-5.50221 38.5318L-5.44971 37.692L-5.23966 38.4793L-4.60952 37.902L-4.03191 38.4793L-3.97939 37.8495L-3.40176 37.3771L-3.92688 37.2721L-3.87437 36.4324L-3.13921 37.4296L-3.82186 38.3743L-2.82415 38.4793L-2.87665 38.3219L-1.98396 38.6368L-2.1415 37.7445L-2.87665 38.2694L-3.0867 37.4821L-2.77163 37.902L-2.40406 36.2224L-2.24652 36.7998L-1.6689 36.2749L-1.09128 36.9572L-0.986256 36.5373L-0.303609 37.2197L0.0114613 36.4324L0.0639677 36.5373L0.484058 36.1175L0.694099 36.3799L1.06168 35.1202L1.27173 35.3302L1.00917 35.6976L1.69182 35.8025L1.5868 35.9075L1.84935 35.96L1.90186 36.0125V35.96L2.21693 36.0125L2.00688 35.3302L1.95437 35.3827V35.2252L2.00688 35.3302L2.05939 35.5401L2.11191 35.4876L2.32195 35.8025H2.21693L2.37446 36.4324L3.0046 36.0125L2.47948 35.855L2.58451 35.4351L3.16213 36.065L3.52971 35.2777L3.63473 35.6451L4.15984 35.2252L4.4224 35.5926L4.68495 34.8578L5.31508 34.9628L5.47262 35.1202L5.68266 35.1727L5.73518 35.2777L5.78769 35.1727L6.15527 35.2252L5.99773 34.5954ZM-5.39719 37.7445L-5.34468 37.1147L-4.60952 37.902L-5.39719 37.7445ZM0.168988 35.96L0.0639677 35.3827L0.536572 36.0125L0.168988 35.96ZM3.89728 35.0153L3.84477 34.2805L4.4224 35.0678L3.89728 35.0153ZM4.94751 34.7528L5.10504 34.1755L5.21006 34.3854L4.94751 34.7528ZM3.58221 36.5898L2.74204 37.1672L3.73975 37.4821L3.58221 36.5898ZM8.72831 33.7556L9.30594 34.5954L9.72603 33.8081L8.72831 33.7556ZM10.9338 34.7528L11.3539 33.9656L10.3562 33.9131L10.9338 34.7528ZM8.93836 34.123L8.2032 34.2805L8.6758 34.9628L8.93836 34.123ZM6.73288 35.8025L6.99544 34.9628L6.26029 35.1202L6.73288 35.8025ZM9.67351 34.5429L10.5137 34.7004L10.1461 33.9131L9.67351 34.5429ZM7.15298 34.8053L6.7854 34.018L6.3128 34.5954L7.15298 34.8053ZM12.5091 34.2805L11.774 34.0705L11.9315 34.7004L12.5091 34.2805ZM8.25571 33.8081L6.99544 33.7556L7.52055 35.0153L8.25571 33.8081Z" fill="#B55C50"/>
</g>
<defs>
<linearGradient id="paint0_linear_801_1194" x1="0" y1="0" x2="37" y2="37" gradientUnits="userSpaceOnUse">
<stop offset="0.5" stop-color="#41A131"/>
<stop offset="1" stop-color="#146107"/>
</linearGradient>
<linearGradient id="paint1_linear_801_1194" x1="15.6071" y1="31.9709" x2="19.2124" y2="27.3242" gradientUnits="userSpaceOnUse">
<stop stop-color="#BC5A32" stop-opacity="0"/>
<stop offset="0.99" stop-color="#BC5A32"/>
</linearGradient>
<linearGradient id="paint2_linear_801_1194" x1="21.0161" y1="15.8947" x2="18.9646" y2="11.1912" gradientUnits="userSpaceOnUse">
<stop stop-color="#BC5A32" stop-opacity="0"/>
<stop offset="0.99" stop-color="#BC5A32"/>
</linearGradient>
<linearGradient id="paint3_linear_801_1194" x1="20.8429" y1="15.4066" x2="14.7826" y2="3.10687" gradientUnits="userSpaceOnUse">
<stop offset="0.02" stop-color="#4F211E"/>
<stop offset="1" stop-color="#743529"/>
</linearGradient>
<linearGradient id="paint4_linear_801_1194" x1="13.1339" y1="23.0221" x2="13.3122" y2="20.2246" gradientUnits="userSpaceOnUse">
<stop stop-color="#CC7A5E" stop-opacity="0"/>
<stop offset="0.92" stop-color="#AA5F4B"/>
</linearGradient>
<linearGradient id="paint5_linear_801_1194" x1="31.0562" y1="51.4954" x2="23.6321" y2="33.018" gradientUnits="userSpaceOnUse">
<stop stop-color="#552828" stop-opacity="0"/>
<stop offset="1" stop-color="#441814"/>
</linearGradient>
<clipPath id="clip0_801_1194">
<rect width="37" height="37" rx="9" fill="white"/>
</clipPath>
</defs>
</svg>
