<svg width="46" height="41" viewBox="0 0 46 41" fill="none" xmlns="http://www.w3.org/2000/svg">
<circle cx="39.7749" cy="24.7145" r="5.79245" fill="url(#paint0_linear_1022_582)"/>
<circle cx="5.79245" cy="5.79245" r="5.79245" transform="matrix(-1 0 0 1 11.5849 18.9221)" fill="url(#paint1_linear_1022_582)"/>
<circle cx="22.7837" cy="23.1698" r="16.9912" fill="url(#paint2_linear_1022_582)"/>
<path d="M30.7 28.19C24.7145 28.19 24.7145 22.3976 24.7145 22.3976H36.6855C36.6855 22.3976 36.6855 28.19 30.7 28.19Z" fill="white"/>
<path d="M33.017 25.8731C29.3484 25.8731 29.3484 22.3976 29.3484 22.3976H36.6855C36.6855 22.3976 36.6855 25.8731 33.017 25.8731Z" fill="black"/>
<path d="M14.8674 28.19C8.88187 28.19 8.88187 22.3976 8.88187 22.3976H20.8529C20.8529 22.3976 20.8529 28.19 14.8674 28.19Z" fill="white"/>
<path d="M17.1844 25.8731C13.5158 25.8731 13.5158 22.3976 13.5158 22.3976H20.8529C20.8529 22.3976 20.8529 25.8731 17.1844 25.8731Z" fill="black"/>
<circle cx="22.7836" cy="27.4176" r="5.79245" fill="#CA0F00"/>
<path d="M25.4869 19.6944V20.8529H36.6857" stroke="black" stroke-width="2" stroke-linecap="round"/>
<path d="M20.0804 19.6944V20.8529H8.88165" stroke="black" stroke-width="2" stroke-linecap="round"/>
<path d="M13.9019 33.9823H16.9912" stroke="black" stroke-width="2" stroke-linecap="round"/>
<path d="M28.5762 5.79245C28.5762 8.99153 25.9828 11.5849 22.7837 11.5849C19.5847 11.5849 16.9913 8.99153 16.9913 5.79245C16.9913 2.59337 19.5847 0 22.7837 0C25.9828 0 28.5762 2.59337 28.5762 5.79245Z" fill="#CA0F00"/>
<path d="M20.8529 11.1987C20.8529 14.3978 18.2596 16.9912 15.0605 16.9912C11.8614 16.9912 9.26804 14.3978 9.26804 11.1987C9.26804 7.99965 11.8614 5.40628 15.0605 5.40628C18.2596 5.40628 20.8529 7.99965 20.8529 11.1987Z" fill="#CA0F00"/>
<path d="M36.2995 11.1987C36.2995 14.3978 33.7061 16.9912 30.507 16.9912C27.3079 16.9912 24.7146 14.3978 24.7146 11.1987C24.7146 7.99965 27.3079 5.40628 30.507 5.40628C33.7061 5.40628 36.2995 7.99965 36.2995 11.1987Z" fill="#CA0F00"/>
<path d="M28.5762 11.1987C28.5762 14.3978 25.9828 16.9912 22.7837 16.9912C19.5847 16.9912 16.9913 14.3978 16.9913 11.1987C16.9913 7.99965 19.5847 5.40628 22.7837 5.40628C25.9828 5.40628 28.5762 7.99965 28.5762 11.1987Z" fill="#CA0F00"/>
<path d="M39.5673 4.94444L40.2927 4.26735C41.0573 3.55372 42.2439 3.55372 43.0085 4.26735V4.26735C43.8514 5.05411 43.8514 6.39033 43.0085 7.17709L42.4922 7.65894C41.9554 8.15998 41.6506 8.86135 41.6506 9.59567V10" stroke="black" stroke-width="2" stroke-linecap="round"/>
<circle cx="41.5673" cy="13" r="1" fill="black"/>
<defs>
<linearGradient id="paint0_linear_1022_582" x1="39.7749" y1="24.7145" x2="45.5673" y2="24.7145" gradientUnits="userSpaceOnUse">
<stop stop-color="#F33829"/>
<stop offset="1" stop-color="#F31200"/>
</linearGradient>
<linearGradient id="paint1_linear_1022_582" x1="5.79245" y1="5.79245" x2="11.5849" y2="5.79245" gradientUnits="userSpaceOnUse">
<stop stop-color="#F33829"/>
<stop offset="1" stop-color="#F31200"/>
</linearGradient>
<linearGradient id="paint2_linear_1022_582" x1="22.7837" y1="6.17865" x2="22.7837" y2="40.161" gradientUnits="userSpaceOnUse">
<stop stop-color="#CA0F00"/>
<stop offset="0.559494" stop-color="#F33829"/>
</linearGradient>
</defs>
</svg>
