<svg width="434" height="434" viewBox="0 0 434 434" fill="none" xmlns="http://www.w3.org/2000/svg">
<rect width="434" height="434" fill="#2E81FF"/>
<path opacity="0.25" d="M88.11 135.7H93.73V85.12C93.73 79.5 93.73 79.5 88.11 79.5V135.7ZM3.81 220V23.3H70.969H72.655H109.185C178.03 23.3 178.03 23.019 178.03 120.245V123.055C178.03 191.9 178.03 191.9 109.185 191.9H88.11V220H3.81ZM258.016 220C189.171 220 189.171 220 189.171 151.155V23.3H273.471V79.5H301.571V220H258.016ZM178.03 425H72.655C3.81 425 3.81 425 3.81 356.155V228.3H88.11V335.08C88.11 339.576 88.11 340.419 90.92 340.7H93.73V228.3H178.03V425ZM189.171 228.3H357.771V278.88H241.437C241.437 284.5 241.156 284.5 246.776 284.5H357.771V356.155C357.771 425 357.771 425 288.926 425H189.171V340.7H300.166C305.786 340.7 305.505 340.7 305.505 335.08H189.171V228.3Z" fill="white"/>
</svg>
