<svg width="434" height="434" viewBox="0 0 434 434" fill="none" xmlns="http://www.w3.org/2000/svg">
<g clip-path="url(#clip0_491_225)">
<rect width="434" height="434" fill="#2400FF"/>
<path opacity="0.25" d="M80.81 114.7H85.83V69.52C85.83 64.5 85.83 64.5 80.81 64.5V114.7ZM5.51 190V14.3H65.499H67.005H99.635C161.13 14.3 161.13 14.049 161.13 100.895V103.405C161.13 164.9 161.13 164.9 99.635 164.9H80.81V190H5.51ZM251.402 54.46C251.402 49.44 251.402 49.44 246.382 49.44V77.05H251.402V54.46ZM171.082 190V14.3H265.207C326.702 14.3 326.702 14.3 326.702 75.795V109.68H289.052C289.052 114.449 289.052 114.7 294.072 114.7H326.702V190H251.402V114.7H246.382V190H171.082ZM161.13 373H5.51V258.795C5.51 197.3 5.51 197.3 67.005 197.3H161.13V242.48H94.615C89.595 242.48 89.846 242.48 89.846 247.5H161.13V292.68H94.615C89.595 292.68 89.846 292.68 89.846 297.7H161.13V373ZM246.382 247.5V373H171.082V197.3H345.527C407.022 197.3 407.022 197.3 407.022 258.795V373H331.722V252.52C331.722 247.5 331.722 247.5 326.702 247.5V373H251.402V252.52C251.402 247.5 251.402 247.5 246.382 247.5ZM5.51 556V380.3H80.81V556H5.51ZM246.548 556H152.423C90.9284 556 90.9284 556 90.9284 494.505V380.3H166.228V475.68C166.228 479.696 166.228 480.449 168.738 480.7H171.248V380.3H246.548V556ZM80.81 613.5V739H5.51V563.3H179.955C241.45 563.3 241.45 563.3 241.45 624.795V739H166.15V618.52C166.15 613.5 166.15 613.5 161.13 613.5V739H85.83V618.52C85.83 613.5 85.83 613.5 80.81 613.5Z" fill="white"/>
</g>
<defs>
<clipPath id="clip0_491_225">
<rect width="434" height="434" fill="white"/>
</clipPath>
</defs>
</svg>
