<svg width="434" height="434" viewBox="0 0 434 434" fill="none" xmlns="http://www.w3.org/2000/svg">
<g clip-path="url(#clip0_491_204)">
<rect width="434" height="434" fill="#0066FF"/>
<path opacity="0.25" d="M88.11 135.7H93.73V85.12C93.73 79.5 93.73 79.5 88.11 79.5V135.7ZM3.81 220V23.3H70.969H72.655H109.185C178.03 23.3 178.03 23.019 178.03 120.245V123.055C178.03 191.9 178.03 191.9 109.185 191.9H88.11V220H3.81ZM279.091 68.26C279.091 62.64 279.091 62.64 273.471 62.64V93.55H279.091V68.26ZM189.171 220V23.3H294.546C363.391 23.3 363.391 23.3 363.391 92.145V130.08H321.241C321.241 135.419 321.241 135.7 326.861 135.7H363.391V220H279.091V135.7H273.471V220H189.171ZM109.185 228.3C178.03 228.3 178.03 228.3 178.03 297.145V356.155C178.03 425 178.03 425 109.185 425H72.655C3.81 425 3.81 425 3.81 356.155V297.145C3.81 228.3 3.81 228.3 72.655 228.3H109.185ZM88.11 335.08C88.11 340.7 88.11 340.7 93.73 340.7V290.12C93.73 284.5 93.73 284.5 88.11 284.5V335.08ZM329.671 321.03H279.091C273.471 321.03 273.752 321.03 273.752 326.65H329.671V396.9H273.471V425H189.171V297.145C189.171 228.3 189.171 228.3 258.016 228.3H329.671V321.03ZM3.81 630V433.3H88.11V630H3.81ZM99.4378 433.3H268.038V483.88H151.704C151.704 489.5 151.423 489.5 157.043 489.5H268.038V561.155C268.038 630 268.038 630 199.193 630H99.4378V545.7H210.433C216.053 545.7 215.772 545.7 215.772 540.08H99.4378V433.3ZM3.81 638.3H172.41V688.88H56.076C56.076 694.5 55.795 694.5 61.415 694.5H172.41V766.155C172.41 835 172.41 835 103.565 835H3.81V750.7H114.805C120.425 750.7 120.144 750.7 120.144 745.08H3.81V638.3ZM183.683 835V638.3H267.983V835H183.683ZM109.185 843.3C178.03 843.3 178.03 843.3 178.03 912.145V971.155C178.03 1040 178.03 1040 109.185 1040H72.655C3.81 1040 3.81 1040 3.81 971.155V912.145C3.81 843.3 3.81 843.3 72.655 843.3H109.185ZM88.11 950.08C88.11 955.7 88.11 955.7 93.73 955.7V905.12C93.73 899.5 93.73 899.5 88.11 899.5V950.08ZM189.171 843.3H294.546C363.391 843.3 363.391 843.3 363.391 912.145V1040H279.091V905.12C279.091 900.624 279.091 899.781 276.281 899.5H273.471V1040H189.171V843.3ZM178.03 1048.3V1245H93.73V1160.7H88.11V1245H3.81V1117.14C3.81 1048.3 3.81 1048.3 72.655 1048.3H178.03ZM88.11 1132.6H93.73V1104.5C88.11 1104.5 88.11 1104.5 88.11 1110.12V1132.6ZM258.016 1245C189.171 1245 189.171 1245 189.171 1176.15V1048.3H273.471V1104.5H301.571V1245H258.016Z" fill="white"/>
</g>
<defs>
<clipPath id="clip0_491_204">
<rect width="434" height="434" fill="white"/>
</clipPath>
</defs>
</svg>
