<svg width="215" height="50" viewBox="0 0 215 50" fill="none" xmlns="http://www.w3.org/2000/svg">
<rect x="1.5" y="1.5" width="211.906" height="47" rx="11.5" fill="#0F0F0F"/>
<rect x="1.5" y="1.5" width="211.906" height="47" rx="11.5" stroke="#0066FF" stroke-width="3"/>
<path d="M27.6 27.0125C27.4 26.9125 26.1 26.3125 25.9 26.2125C25.7 26.1125 25.5 26.1125 25.3 26.3125C25.1 26.5125 24.7 27.1125 24.5 27.3125C24.4 27.5125 24.2 27.5125 24 27.4125C23.3 27.1125 22.6 26.7125 22 26.2125C21.5 25.7125 21 25.1125 20.6 24.5125C20.5 24.3125 20.6 24.1125 20.7 24.0125C20.8 23.9125 20.9 23.7125 21.1 23.6125C21.2 23.5125 21.3 23.3125 21.3 23.2125C21.4 23.1125 21.4 22.9125 21.3 22.8125C21.2 22.7125 20.7 21.5125 20.5 21.0125C20.4 20.3125 20.2 20.3125 20 20.3125H19.5C19.3 20.3125 19 20.5125 18.9 20.6125C18.3 21.2125 18 21.9125 18 22.7125C18.1 23.6125 18.4 24.5125 19 25.3125C20.1 26.9125 21.5 28.2125 23.2 29.0125C23.7 29.2125 24.1 29.4125 24.6 29.5125C25.1 29.7125 25.6 29.7125 26.2 29.6125C26.9 29.5125 27.5 29.0125 27.9 28.4125C28.1 28.0125 28.1 27.6125 28 27.2125L27.6 27.0125ZM30.1 17.9125C26.2 14.0125 19.9 14.0125 16 17.9125C12.8 21.1125 12.2 26.0125 14.4 29.9125L13 35.0125L18.3 33.6125C19.8 34.4125 21.4 34.8125 23 34.8125C28.5 34.8125 32.9 30.4125 32.9 24.9125C33 22.3125 31.9 19.8125 30.1 17.9125ZM27.4 31.9125C26.1 32.7125 24.6 33.2125 23 33.2125C21.5 33.2125 20.1 32.8125 18.8 32.1125L18.5 31.9125L15.4 32.7125L16.2 29.7125L16 29.4125C13.6 25.4125 14.8 20.4125 18.7 17.9125C22.6 15.4125 27.6 16.7125 30 20.5125C32.4 24.4125 31.3 29.5125 27.4 31.9125Z" fill="#0066FF"/>
<path d="M47.2977 35.88C46.5111 34.6667 45.9044 33.2667 45.4777 31.68C45.0644 30.08 44.8577 28.36 44.8577 26.52C44.8577 24.68 45.0644 22.96 45.4777 21.36C45.9044 19.7467 46.5111 18.3467 47.2977 17.16H49.6777C48.8644 18.6267 48.2644 20.1267 47.8777 21.66C47.5044 23.18 47.3177 24.8 47.3177 26.52C47.3177 28.24 47.5044 29.8667 47.8777 31.4C48.2644 32.92 48.8644 34.4133 49.6777 35.88H47.2977ZM50.4007 28.82V27.02L57.3007 18H60.0807L53.2807 27.02L51.9807 26.62H63.0807V28.82H50.4007ZM58.0807 32V28.82L58.1607 26.62V23.8H60.6007V32H58.0807ZM65.9071 32V19L67.0471 20.18H62.9471V18H68.5071V32H65.9071ZM73.2243 35.88H70.8443C71.671 34.4133 72.271 32.92 72.6443 31.4C73.031 29.8667 73.2243 28.24 73.2243 26.52C73.2243 24.8 73.031 23.18 72.6443 21.66C72.271 20.1267 71.671 18.6267 70.8443 17.16H73.2243C74.0243 18.3467 74.631 19.7467 75.0443 21.36C75.4576 22.96 75.6643 24.68 75.6643 26.52C75.6643 28.36 75.4576 30.08 75.0443 31.68C74.631 33.2667 74.0243 34.6667 73.2243 35.88ZM88.4848 17.8C89.7648 17.8 90.8514 18.0733 91.7448 18.62C92.6514 19.1533 93.3448 19.9333 93.8248 20.96C94.3048 21.9867 94.5448 23.2533 94.5448 24.76C94.5448 26.36 94.2514 27.7133 93.6648 28.82C93.0914 29.9267 92.2914 30.7667 91.2648 31.34C90.2381 31.9133 89.0448 32.2 87.6848 32.2C86.9781 32.2 86.3048 32.1267 85.6648 31.98C85.0248 31.8333 84.4714 31.6067 84.0048 31.3L84.9648 29.34C85.3514 29.5933 85.7714 29.7733 86.2248 29.88C86.6781 29.9733 87.1448 30.02 87.6248 30.02C88.9448 30.02 89.9914 29.6133 90.7648 28.8C91.5381 27.9867 91.9248 26.7867 91.9248 25.2C91.9248 24.9467 91.9181 24.6533 91.9048 24.32C91.8914 23.9733 91.8448 23.6267 91.7648 23.28L92.5648 24.16C92.3381 24.7067 92.0114 25.1667 91.5848 25.54C91.1581 25.9 90.6581 26.1733 90.0848 26.36C89.5114 26.5467 88.8781 26.64 88.1848 26.64C87.2781 26.64 86.4581 26.4667 85.7248 26.12C85.0048 25.76 84.4314 25.26 84.0048 24.62C83.5781 23.9667 83.3648 23.2067 83.3648 22.34C83.3648 21.4067 83.5914 20.6067 84.0448 19.94C84.4981 19.26 85.1114 18.7333 85.8848 18.36C86.6714 17.9867 87.5381 17.8 88.4848 17.8ZM88.6248 19.84C88.0914 19.84 87.6181 19.94 87.2048 20.14C86.7914 20.3267 86.4648 20.6 86.2248 20.96C85.9981 21.3067 85.8848 21.7267 85.8848 22.22C85.8848 22.9533 86.1381 23.5333 86.6448 23.96C87.1514 24.3867 87.8314 24.6 88.6848 24.6C89.2448 24.6 89.7381 24.5 90.1648 24.3C90.5914 24.0867 90.9248 23.8 91.1648 23.44C91.4048 23.0667 91.5248 22.6533 91.5248 22.2C91.5248 21.76 91.4114 21.3667 91.1848 21.02C90.9581 20.66 90.6314 20.3733 90.2048 20.16C89.7781 19.9467 89.2514 19.84 88.6248 19.84ZM101.024 17.8C102.304 17.8 103.39 18.0733 104.284 18.62C105.19 19.1533 105.884 19.9333 106.364 20.96C106.844 21.9867 107.084 23.2533 107.084 24.76C107.084 26.36 106.79 27.7133 106.204 28.82C105.63 29.9267 104.83 30.7667 103.804 31.34C102.777 31.9133 101.584 32.2 100.224 32.2C99.5172 32.2 98.8438 32.1267 98.2038 31.98C97.5638 31.8333 97.0105 31.6067 96.5438 31.3L97.5038 29.34C97.8905 29.5933 98.3105 29.7733 98.7638 29.88C99.2172 29.9733 99.6838 30.02 100.164 30.02C101.484 30.02 102.53 29.6133 103.304 28.8C104.077 27.9867 104.464 26.7867 104.464 25.2C104.464 24.9467 104.457 24.6533 104.444 24.32C104.43 23.9733 104.384 23.6267 104.304 23.28L105.104 24.16C104.877 24.7067 104.55 25.1667 104.124 25.54C103.697 25.9 103.197 26.1733 102.624 26.36C102.05 26.5467 101.417 26.64 100.724 26.64C99.8172 26.64 98.9972 26.4667 98.2638 26.12C97.5438 25.76 96.9705 25.26 96.5438 24.62C96.1172 23.9667 95.9038 23.2067 95.9038 22.34C95.9038 21.4067 96.1305 20.6067 96.5838 19.94C97.0372 19.26 97.6505 18.7333 98.4238 18.36C99.2105 17.9867 100.077 17.8 101.024 17.8ZM101.164 19.84C100.63 19.84 100.157 19.94 99.7438 20.14C99.3305 20.3267 99.0038 20.6 98.7638 20.96C98.5372 21.3067 98.4238 21.7267 98.4238 22.22C98.4238 22.9533 98.6772 23.5333 99.1838 23.96C99.6905 24.3867 100.37 24.6 101.224 24.6C101.784 24.6 102.277 24.5 102.704 24.3C103.13 24.0867 103.464 23.8 103.704 23.44C103.944 23.0667 104.064 22.6533 104.064 22.2C104.064 21.76 103.95 21.3667 103.724 21.02C103.497 20.66 103.17 20.3733 102.744 20.16C102.317 19.9467 101.79 19.84 101.164 19.84ZM114.903 32.2C113.636 32.2 112.55 31.9333 111.643 31.4C110.736 30.8533 110.043 30.0667 109.563 29.04C109.083 28.0133 108.843 26.7467 108.843 25.24C108.843 23.64 109.13 22.2867 109.703 21.18C110.29 20.0733 111.096 19.2333 112.123 18.66C113.163 18.0867 114.356 17.8 115.703 17.8C116.41 17.8 117.083 17.8733 117.723 18.02C118.376 18.1667 118.93 18.3933 119.383 18.7L118.423 20.66C118.036 20.4067 117.616 20.2333 117.163 20.14C116.723 20.0333 116.256 19.98 115.763 19.98C114.443 19.98 113.396 20.3867 112.623 21.2C111.85 22.0133 111.463 23.2133 111.463 24.8C111.463 25.0533 111.47 25.3533 111.483 25.7C111.496 26.0333 111.543 26.3733 111.623 26.72L110.823 25.84C111.063 25.2933 111.39 24.84 111.803 24.48C112.23 24.1067 112.73 23.8267 113.303 23.64C113.89 23.4533 114.523 23.36 115.203 23.36C116.123 23.36 116.943 23.54 117.663 23.9C118.383 24.2467 118.956 24.7467 119.383 25.4C119.81 26.04 120.023 26.7933 120.023 27.66C120.023 28.58 119.796 29.38 119.343 30.06C118.89 30.74 118.276 31.2667 117.503 31.64C116.73 32.0133 115.863 32.2 114.903 32.2ZM114.763 30.16C115.296 30.16 115.77 30.0667 116.183 29.88C116.596 29.68 116.916 29.4 117.143 29.04C117.383 28.68 117.503 28.26 117.503 27.78C117.503 27.0467 117.25 26.4667 116.743 26.04C116.236 25.6133 115.556 25.4 114.703 25.4C114.143 25.4 113.65 25.5067 113.223 25.72C112.81 25.92 112.476 26.2 112.223 26.56C111.983 26.92 111.863 27.3333 111.863 27.8C111.863 28.2267 111.976 28.62 112.203 28.98C112.43 29.34 112.756 29.6267 113.183 29.84C113.623 30.0533 114.15 30.16 114.763 30.16ZM123.624 32L129.404 19.04L130.084 20.2H122.144L123.384 18.94V22.58H120.964V18H131.844V19.74L126.404 32H123.624ZM137.741 32.2C136.754 32.2 135.787 32.06 134.841 31.78C133.907 31.4867 133.121 31.0867 132.481 30.58L133.581 28.56C134.087 28.9733 134.701 29.3067 135.421 29.56C136.154 29.8133 136.914 29.94 137.701 29.94C138.621 29.94 139.341 29.7467 139.861 29.36C140.394 28.9733 140.661 28.4533 140.661 27.8C140.661 27.36 140.547 26.9733 140.321 26.64C140.107 26.3067 139.721 26.0533 139.161 25.88C138.614 25.7067 137.861 25.62 136.901 25.62H133.521L134.241 18H142.461V20.18H135.201L136.561 18.94L136.021 24.64L134.661 23.42H137.481C138.867 23.42 139.981 23.6067 140.821 23.98C141.674 24.34 142.294 24.8467 142.681 25.5C143.081 26.14 143.281 26.8733 143.281 27.7C143.281 28.5133 143.081 29.26 142.681 29.94C142.281 30.62 141.667 31.1667 140.841 31.58C140.027 31.9933 138.994 32.2 137.741 32.2ZM145 27.48V25.4H150.5V27.48H145ZM152.373 28.82V27.02L159.273 18H162.053L155.253 27.02L153.953 26.62H165.053V28.82H152.373ZM160.053 32V28.82L160.133 26.62V23.8H162.573V32H160.053ZM170.788 32.2C169.801 32.2 168.834 32.06 167.888 31.78C166.954 31.4867 166.168 31.0867 165.528 30.58L166.628 28.56C167.134 28.9733 167.748 29.3067 168.468 29.56C169.201 29.8133 169.961 29.94 170.748 29.94C171.668 29.94 172.388 29.7467 172.908 29.36C173.441 28.9733 173.708 28.4533 173.708 27.8C173.708 27.36 173.594 26.9733 173.368 26.64C173.154 26.3067 172.768 26.0533 172.208 25.88C171.661 25.7067 170.908 25.62 169.948 25.62H166.568L167.288 18H175.508V20.18H168.248L169.608 18.94L169.068 24.64L167.708 23.42H170.528C171.914 23.42 173.028 23.6067 173.868 23.98C174.721 24.34 175.341 24.8467 175.728 25.5C176.128 26.14 176.328 26.8733 176.328 27.7C176.328 28.5133 176.128 29.26 175.728 29.94C175.328 30.62 174.714 31.1667 173.888 31.58C173.074 31.9933 172.041 32.2 170.788 32.2ZM183.447 32.2C182.287 32.2 181.281 32.0267 180.427 31.68C179.574 31.3333 178.914 30.8467 178.447 30.22C177.981 29.58 177.747 28.8333 177.747 27.98C177.747 27.1267 177.974 26.4067 178.427 25.82C178.881 25.2333 179.534 24.7867 180.387 24.48C181.241 24.1733 182.261 24.02 183.447 24.02C184.634 24.02 185.654 24.1733 186.507 24.48C187.374 24.7867 188.034 25.24 188.487 25.84C188.954 26.4267 189.187 27.14 189.187 27.98C189.187 28.8333 188.947 29.58 188.467 30.22C188.001 30.8467 187.334 31.3333 186.467 31.68C185.614 32.0267 184.607 32.2 183.447 32.2ZM183.447 30.16C184.407 30.16 185.167 29.96 185.727 29.56C186.287 29.16 186.567 28.6067 186.567 27.9C186.567 27.2067 186.287 26.66 185.727 26.26C185.167 25.86 184.407 25.66 183.447 25.66C182.487 25.66 181.734 25.86 181.187 26.26C180.641 26.66 180.367 27.2067 180.367 27.9C180.367 28.6067 180.641 29.16 181.187 29.56C181.734 29.96 182.487 30.16 183.447 30.16ZM183.447 25.38C182.367 25.38 181.441 25.24 180.667 24.96C179.894 24.6667 179.294 24.2467 178.867 23.7C178.454 23.14 178.247 22.4733 178.247 21.7C178.247 20.9 178.461 20.2133 178.887 19.64C179.327 19.0533 179.941 18.6 180.727 18.28C181.514 17.96 182.421 17.8 183.447 17.8C184.487 17.8 185.401 17.96 186.187 18.28C186.974 18.6 187.587 19.0533 188.027 19.64C188.467 20.2133 188.687 20.9 188.687 21.7C188.687 22.4733 188.474 23.14 188.047 23.7C187.634 24.2467 187.034 24.6667 186.247 24.96C185.461 25.24 184.527 25.38 183.447 25.38ZM183.447 23.78C184.274 23.78 184.927 23.6067 185.407 23.26C185.887 22.9 186.127 22.42 186.127 21.82C186.127 21.1933 185.881 20.7067 185.387 20.36C184.894 20.0133 184.247 19.84 183.447 19.84C182.647 19.84 182.007 20.0133 181.527 20.36C181.047 20.7067 180.807 21.1933 180.807 21.82C180.807 22.42 181.041 22.9 181.507 23.26C181.987 23.6067 182.634 23.78 183.447 23.78ZM195.274 32.2C194.287 32.2 193.321 32.06 192.374 31.78C191.441 31.4867 190.654 31.0867 190.014 30.58L191.134 28.56C191.641 28.9733 192.254 29.3067 192.974 29.56C193.694 29.8133 194.447 29.94 195.234 29.94C196.167 29.94 196.894 29.7533 197.414 29.38C197.934 28.9933 198.194 28.4733 198.194 27.82C198.194 27.18 197.954 26.6733 197.474 26.3C196.994 25.9267 196.221 25.74 195.154 25.74H193.874V23.96L197.874 19.2L198.214 20.18H190.694V18H200.234V19.74L196.234 24.5L194.874 23.7H195.654C197.374 23.7 198.661 24.0867 199.514 24.86C200.381 25.62 200.814 26.6 200.814 27.8C200.814 28.5867 200.614 29.3133 200.214 29.98C199.814 30.6467 199.201 31.1867 198.374 31.6C197.561 32 196.527 32.2 195.274 32.2Z" fill="#0066FF"/>
</svg>
