<svg width="88" height="88" viewBox="0 0 88 88" fill="none" xmlns="http://www.w3.org/2000/svg">
<circle cx="44" cy="44" r="44" fill="#EFEFEF"/>
<path fill-rule="evenodd" clip-rule="evenodd" d="M51.9848 64.1727C53.7613 65.6931 55.3437 67.0474 51.8771 69.9807C43.5661 77.0132 27.3818 70.9269 19.2723 61.0313C10.4045 50.2105 9.2569 36.1567 17.9936 25.2298C24.2787 17.3691 31.5841 15.0802 41.6482 15.0008C59.3159 14.8614 80.0069 32.9007 74.8924 45.6878C71.6958 53.3588 69.8069 55.9158 62.7454 55.9158C60.2465 55.9158 58.41 55.6344 56.9642 55.4129C53.9714 54.9543 52.6528 54.7523 50.5985 57.8338C48.4114 61.1144 50.2868 62.7194 51.9848 64.1727ZM60.5876 45.9655C64.1184 45.9655 66.9807 43.1032 66.9807 39.5723C66.9807 36.0415 64.1184 33.1792 60.5876 33.1792C57.0568 33.1792 54.1945 36.0415 54.1945 39.5723C54.1945 43.1032 57.0568 45.9655 60.5876 45.9655Z" fill="#FFC8A0"/>
<circle cx="38.2118" cy="22.3109" r="5.75381" fill="#41A131"/>
<circle cx="24.1468" cy="33.8188" r="5.75381" fill="#0066FF"/>
<circle cx="24.1468" cy="47.8834" r="5.75381" fill="#FF822D"/>
<circle cx="38.2118" cy="59.3913" r="5.75381" fill="#A13133"/>
</svg>
