<svg width="65" height="41" viewBox="0 0 65 41" fill="none" xmlns="http://www.w3.org/2000/svg">
<path d="M27.6079 22.6066C27.0842 22.0821 26.9242 21.2955 27.2016 20.6081L27.6396 19.5229C27.9161 18.8378 27.8507 18.0808 27.5719 17.3966V17.3966C27.2928 16.7118 26.7967 16.1083 26.1159 15.8196L25.0851 15.3825C24.3941 15.0896 23.9454 14.4118 23.9454 13.6614V13.6614C23.9454 12.9111 24.394 12.2334 25.0847 11.9404L26.1111 11.5049C26.7949 11.2148 27.2907 10.6191 27.5721 9.93166V9.93166C27.851 9.25066 27.9165 8.4873 27.64 7.80534L27.2038 6.72933C26.9249 6.04148 27.0826 5.25365 27.6047 4.72608V4.72608C28.1344 4.19082 28.9349 4.02856 29.6312 4.31535L30.6709 4.74357C31.3521 5.02413 32.1119 4.95638 32.7917 4.67249V4.67249C33.4571 4.3946 34.0379 3.90802 34.3162 3.24279L34.78 2.13443C35.0638 1.45608 35.7253 1.01274 36.4606 1.00797V1.00797C37.2045 1.00315 37.8778 1.44808 38.165 2.13438L38.6272 3.23916C38.9068 3.90731 39.4883 4.39729 40.156 4.67788V4.67788C40.8328 4.96229 41.5907 5.02598 42.2695 4.7464L43.3142 4.31613C44.0105 4.02934 44.8111 4.1915 45.3409 4.72666V4.72666C45.8633 5.25434 46.0211 6.04251 45.7421 6.73065L45.3056 7.80747C45.0294 8.48876 45.092 9.246 45.3713 9.92599V9.92599C45.654 10.614 46.1517 11.2157 46.8365 11.5062L47.8607 11.9406C48.5514 12.2335 49 12.911 49 13.6613V13.6613C49 14.4114 48.5516 15.0888 47.8611 15.3818L46.8308 15.819C46.1496 16.1081 45.6531 16.7121 45.3737 17.3972V17.3972C45.0948 18.081 45.0298 18.8375 45.306 19.5224L45.7443 20.6094C46.0214 21.2965 45.8613 22.0826 45.3377 22.6068V22.6068C44.8095 23.1355 44.0149 23.294 43.3242 23.0085L42.2885 22.5804C41.6084 22.2993 40.852 22.3661 40.1744 22.6532V22.6532C39.5006 22.9387 38.9047 23.4301 38.623 24.1055L38.1676 25.1973C37.8833 25.879 37.217 26.323 36.4783 26.323V26.323C35.7383 26.323 35.0711 25.8774 34.7876 25.1938L34.3386 24.1112C34.0571 23.4324 33.4593 22.9382 32.7822 22.6526V22.6526C32.1029 22.3659 31.3446 22.2986 30.663 22.5797L29.6215 23.0094C28.9306 23.2944 28.136 23.1355 27.6079 22.6066V22.6066ZM36.4723 17.6788C37.5247 17.6782 38.5339 17.2556 39.2781 16.5039C40.0223 15.7522 40.4407 14.7329 40.4413 13.6698C40.4413 11.454 38.6661 9.66083 36.4723 9.66083C34.2785 9.66083 32.5033 11.454 32.5033 13.6698C32.5039 14.7329 32.9223 15.7522 33.6665 16.5039C34.4107 17.2556 35.4198 17.6782 36.4723 17.6788Z" stroke="#C3C3C3" stroke-width="2" stroke-miterlimit="10" stroke-linecap="round" stroke-linejoin="round"/>
<path d="M13.8065 30.7731C13.7794 30.2571 13.5922 29.7523 13.2119 29.4026L12.6262 28.8639C12.2462 28.5144 12.1108 27.9723 12.2817 27.4851V27.4851C12.4539 26.9945 12.9035 26.6548 13.4225 26.6233L14.1988 26.5761C14.7144 26.5448 15.178 26.27 15.5225 25.885V25.885C15.8657 25.5016 16.0866 25.0134 16.0624 24.4994L16.024 23.6821C16.0001 23.1744 16.2795 22.7008 16.7355 22.4762V22.4762C17.2041 22.2453 17.7661 22.3231 18.1544 22.6725L18.752 23.2102C19.1282 23.5487 19.6398 23.6796 20.1452 23.6544V23.6544C20.654 23.629 21.1532 23.4457 21.4943 23.0673L22.0318 22.471C22.3783 22.0866 22.9224 21.9491 23.4099 22.1227V22.1227C23.8944 22.2953 24.2283 22.7414 24.2573 23.2549L24.3034 24.0726C24.3322 24.5838 24.6026 25.0435 24.9832 25.3859V25.3859C25.3631 25.7277 25.8483 25.9485 26.3587 25.9239L27.1292 25.8868C27.6558 25.8614 28.1456 26.1568 28.369 26.6344V26.6344C28.5875 27.1018 28.5089 27.6542 28.1687 28.042L27.631 28.655C27.296 29.0368 27.1672 29.5501 27.1921 30.0575V30.0575C27.2173 30.5712 27.3998 31.0756 27.7784 31.4238L28.3681 31.9661C28.7471 32.3147 28.8837 32.8547 28.716 33.3415V33.3415C28.5453 33.8372 28.0927 34.1812 27.5694 34.2129L26.7826 34.2606C26.2732 34.2914 25.8124 34.562 25.4725 34.9427V34.9427C25.1343 35.3214 24.9208 35.8027 24.9445 36.3099L24.9834 37.1419C25.0075 37.6561 24.7222 38.135 24.2585 38.3587V38.3587C23.7882 38.5856 23.2272 38.5051 22.8396 38.155L22.251 37.6235C21.8728 37.2818 21.358 37.148 20.849 37.1752V37.1752C20.3427 37.2022 19.8477 37.3883 19.5083 37.765L18.968 38.3646C18.6216 38.7491 18.0774 38.8867 17.5899 38.7131V38.7131C17.1054 38.5406 16.7715 38.0945 16.7426 37.5811L16.6961 36.7574C16.6676 36.2506 16.3981 35.7957 16.0228 35.454V35.454C15.6425 35.1079 15.1558 34.8803 14.6421 34.9048L13.8636 34.9419C13.341 34.9668 12.8549 34.6742 12.6322 34.2007V34.2007C12.413 33.7346 12.4915 33.1829 12.8319 32.7963L13.359 32.1978C13.7003 31.8102 13.8335 31.2888 13.8065 30.7731V30.7731ZM19.5735 33.0411C19.9155 33.1641 20.2782 33.2176 20.6407 33.1987C21.0032 33.1798 21.3584 33.0889 21.6861 32.9311C22.0137 32.7732 22.3073 32.5516 22.55 32.279C22.7927 32.0064 22.9798 31.688 23.1005 31.3422C23.2222 30.9973 23.2752 30.6316 23.2564 30.2659C23.2377 29.9003 23.1475 29.542 22.9912 29.2117C22.8349 28.8813 22.6155 28.5854 22.3456 28.3411C22.0757 28.0967 21.7606 27.9086 21.4185 27.7876C21.0771 27.6647 20.7149 27.6112 20.353 27.6301C19.991 27.6491 19.6363 27.7401 19.3092 27.898C18.9822 28.0558 18.6893 28.2775 18.4473 28.5501C18.2054 28.8227 18.0192 29.141 17.8994 29.4865C17.7777 29.8309 17.7245 30.1962 17.7429 30.5614C17.7612 30.9266 17.8507 31.2845 18.0062 31.6147C18.1617 31.9449 18.3802 32.2409 18.6492 32.4857C18.9181 32.7304 19.2322 32.9192 19.5735 33.0411Z" stroke="#C3C3C3" stroke-width="2" stroke-miterlimit="10" stroke-linecap="round" stroke-linejoin="round"/>
<circle cx="6" cy="20" r="6" fill="#FF3300"/>
<circle cx="59" cy="9" r="6" fill="#41A131"/>
<circle cx="37" cy="35" r="6" fill="#0066FF"/>
</svg>
