<svg width="50" height="61" viewBox="0 0 50 61" fill="none" xmlns="http://www.w3.org/2000/svg">
<circle cx="43" cy="6" r="6" fill="#41A131"/>
<path d="M26.0534 22.4947C29.3343 10.2547 39.3601 10.4748 42.1188 10.7795C42.3257 10.8022 42.5187 10.8952 42.6654 11.0429C42.8122 11.1906 42.9039 11.3841 42.9252 11.5912C43.2095 14.3381 43.3561 24.2876 31.2148 27.6561M26.0534 22.4947L31.2148 27.6561M26.0534 22.4947L21.7018 22.0112C21.5478 21.9941 21.4007 21.9381 21.2744 21.8484C21.148 21.7587 21.0466 21.6383 20.9797 21.4985C20.9127 21.3588 20.8825 21.2043 20.8918 21.0497C20.9011 20.895 20.9496 20.7453 21.0328 20.6145L24.5224 15.1309C24.5973 15.0132 24.6982 14.9143 24.8173 14.8417C24.9364 14.7691 25.0706 14.7247 25.2095 14.7121L30.7717 14.2064M31.2148 27.6561L31.6983 32.0077C31.7154 32.1617 31.7714 32.3088 31.8611 32.4351C31.9508 32.5615 32.0712 32.6629 32.2109 32.7298C32.3507 32.7968 32.5052 32.827 32.6598 32.8177C32.8145 32.8084 32.9642 32.7599 33.095 32.6767L38.5786 29.1871C38.6963 29.1122 38.7952 29.0113 38.8678 28.8922C38.9404 28.7731 38.9848 28.6389 38.9974 28.5L39.5128 22.831" stroke="#C3C3C3" stroke-width="2" stroke-linecap="round" stroke-linejoin="round"/>
<path d="M35.4082 18.3012C35.9427 18.8357 36.8093 18.8357 37.3437 18.3012C37.8782 17.7667 37.8782 16.9002 37.3437 16.3657C36.8093 15.8312 35.9427 15.8312 35.4082 16.3657C34.8737 16.9002 34.8737 17.7667 35.4082 18.3012Z" fill="#C3C3C3"/>
<path d="M19.602 36.8941L22.6332 34.4555C23.0425 35.2279 24.1362 35.6384 24.9495 34.8377L30.8992 28.9796C31.6972 28.1938 31.6945 26.9059 30.8932 26.1235L27.4903 22.8007C26.7007 22.0296 25.4358 22.0439 24.6638 22.8326L17.861 29.7825C16.9726 30.6901 17.4966 31.9622 18.4229 32.3268L16.8871 33.9702C15.191 35.785 17.6664 38.4512 19.602 36.8941Z" stroke="#C3C3C3" stroke-width="2"/>
<circle cx="14" cy="55" r="6" fill="#FF3300"/>
<circle cx="6" cy="23" r="6" fill="#0066FF"/>
</svg>
