<svg width="50" height="61" viewBox="0 0 50 61" fill="none" xmlns="http://www.w3.org/2000/svg">
<circle cx="43" cy="6" r="6" fill="#41A131"/>
<path d="M26.0535 22.4947C29.3344 10.2547 39.3603 10.4748 42.1189 10.7795C42.3259 10.8022 42.5188 10.8952 42.6655 11.0429C42.8123 11.1906 42.904 11.3841 42.9254 11.5912C43.2097 14.3381 43.3562 24.2876 31.2149 27.6561M26.0535 22.4947L31.2149 27.6561M26.0535 22.4947L21.7019 22.0112C21.5479 21.9941 21.4008 21.9381 21.2745 21.8484C21.1481 21.7587 21.0467 21.6383 20.9798 21.4985C20.9129 21.3588 20.8826 21.2043 20.8919 21.0497C20.9012 20.895 20.9497 20.7453 21.0329 20.6145L24.5225 15.1309C24.5974 15.0132 24.6983 14.9143 24.8174 14.8417C24.9365 14.7691 25.0707 14.7247 25.2097 14.7121L30.7719 14.2064M31.2149 27.6561L31.6984 32.0077C31.7155 32.1617 31.7716 32.3088 31.8612 32.4351C31.9509 32.5615 32.0713 32.6629 32.2111 32.7298C32.3508 32.7968 32.5053 32.827 32.6599 32.8177C32.8146 32.8084 32.9644 32.7599 33.0951 32.6767L38.5787 29.1871C38.6964 29.1122 38.7954 29.0113 38.868 28.8922C38.9406 28.7731 38.9849 28.6389 38.9975 28.5L39.5129 22.831" stroke="#404040" stroke-width="2" stroke-linecap="round" stroke-linejoin="round"/>
<path d="M35.4085 18.3012C35.9429 18.8357 36.8095 18.8357 37.344 18.3012C37.8785 17.7667 37.8785 16.9002 37.344 16.3657C36.8095 15.8312 35.9429 15.8312 35.4085 16.3657C34.874 16.9002 34.874 17.7667 35.4085 18.3012Z" fill="#404040"/>
<path d="M19.602 36.8941L22.6332 34.4555C23.0425 35.2279 24.1362 35.6384 24.9495 34.8377L30.8992 28.9796C31.6972 28.1938 31.6945 26.9059 30.8932 26.1235L27.4903 22.8007C26.7007 22.0296 25.4358 22.0439 24.6638 22.8326L17.861 29.7825C16.9726 30.6901 17.4966 31.9622 18.4229 32.3268L16.8871 33.9702C15.191 35.785 17.6664 38.4512 19.602 36.8941Z" stroke="#404040" stroke-width="2"/>
<circle cx="14" cy="55" r="6" fill="#FF6200"/>
<circle cx="6" cy="23" r="6" fill="#0066FF"/>
</svg>
