<svg width="38" height="38" viewBox="0 0 38 38" fill="none" xmlns="http://www.w3.org/2000/svg">
<circle cx="32" cy="6" r="6" fill="#41A131"/>
<circle cx="19" cy="6" r="6" fill="#0066FF"/>
<circle cx="6" cy="6" r="6" fill="#FF3300"/>
<path d="M13.4884 23.4591C13.7476 18.632 13.8238 13.7688 14.7126 9.00488C14.792 8.58098 14.7882 7.92812 15.2472 7.7429C15.6371 7.58576 15.9919 7.5161 16.1469 7.92002C16.5151 8.8823 16.3218 10.1999 16.2813 11.2048C16.2311 12.4614 16.1231 13.7148 16.0102 14.9665C15.9071 16.1086 15.6781 17.3203 15.7311 18.4673C15.7577 19.0454 16.061 19.4894 16.5 19.7423C16.7918 19.9104 17.1434 19.9941 17.5136 19.9766C18.0315 19.9523 19.2519 19.287 19.6261 19.7039C19.7789 19.874 19.8075 20.2083 19.8885 20.4205C20.0192 20.7645 20.1834 21.0841 20.4793 21.3136C21.1926 21.8677 22.0869 21.514 22.818 21.19C23.5902 20.8476 24.363 20.3989 24.8144 21.373C25.1751 22.1517 25.0806 23.2522 26.1423 23.4304C26.4954 23.4898 26.8556 23.3889 27.2066 23.3554C27.55 23.3224 27.6451 23.229 27.7633 23.4742C28.0636 24.0984 27.9572 24.95 27.8892 25.612C27.8028 26.4593 27.6143 27.292 27.4933 28.1344C27.3389 29.2106 27.3259 30.3381 26.8302 31.3323C26.2994 32.3955 25.3382 33.1672 24.7307 34.1824C24.1561 35.1425 23.8651 36.2927 24.2366 37.3781C24.5725 38.3587 26.1379 37.9375 25.7988 36.9472C25.1865 35.1592 27.3416 33.7142 28.1224 32.3453C28.9578 30.8808 28.9432 29.1652 29.2246 27.5469C29.4622 26.178 29.7894 24.646 29.4028 23.2738C29.2321 22.6674 28.8844 22.0113 28.2472 21.8056C27.941 21.7068 27.6062 21.7008 27.2881 21.7262C26.9922 21.75 26.5872 21.8985 26.3005 21.7926C26.4619 21.9168 26.6234 22.041 26.7843 22.1647C26.6191 21.9438 26.6045 21.6079 26.523 21.3466C26.4322 21.0555 26.3215 20.7623 26.1822 20.4901C25.8868 19.9134 25.3906 19.4112 24.7599 19.2201C24.1102 19.023 23.4574 19.1607 22.8461 19.4128C22.5307 19.5424 22.2283 19.705 21.9108 19.8292C21.7958 19.874 21.6414 19.9026 21.529 19.9582C21.3195 20.0614 21.3843 19.9318 21.4669 20.023C21.2434 19.7757 21.1969 19.1839 21.0252 18.8853C20.7158 18.348 20.1828 18.0126 19.5661 17.9548C18.9241 17.8949 18.3495 18.1617 17.7393 18.3064C17.6707 18.3226 17.4477 18.403 17.3673 18.3571C17.276 18.3053 17.3613 18.5483 17.3565 18.2032C17.3494 17.6935 17.4353 17.1583 17.479 16.6507C17.6324 14.8795 17.8198 13.11 17.8965 11.3328C17.958 9.90506 18.2043 8.00588 17.3554 6.75092C16.6096 5.64824 14.7261 5.86046 13.8594 6.73796C13.3426 7.26068 13.2546 8.01236 13.1277 8.69924C12.9663 9.57458 12.8248 10.4537 12.7038 11.3361C12.1541 15.3445 12.0861 19.4209 11.8695 23.458C11.8128 24.5007 13.4328 24.4975 13.4884 23.4591Z" fill="#C3C3C3"/>
<path d="M12.2562 18.1638C11.5471 18.902 10.836 19.6391 10.1286 20.3789C9.55401 20.9794 9.07449 21.5761 9.01563 22.4385C8.95245 23.3597 9.09771 24.3279 9.15171 25.2497C9.20355 26.1288 9.24351 27.0085 9.36123 27.8817C9.59343 29.6021 10.2657 30.9759 11.4089 32.2713C12.4327 33.4312 14.0371 34.8379 13.6029 36.5692C13.3497 37.5806 14.9113 38.0121 15.1651 37.0001C15.562 35.4157 14.9059 33.9189 13.9302 32.6866C12.9339 31.4295 11.6524 30.4132 11.1907 28.8153C10.7247 27.2023 10.7814 25.4236 10.6837 23.7598C10.6588 23.3397 10.5606 22.8483 10.6443 22.4336C10.7285 22.0156 11.0822 21.7246 11.3662 21.4281C12.0439 20.7213 12.7233 20.0155 13.4015 19.3097C14.124 18.5575 12.9798 17.4105 12.2562 18.1638Z" fill="#C3C3C3"/>
</svg>
